<svg width="1920" height="1550" fill="none" xmlns="http://www.w3.org/2000/svg"><g filter="url(#a)"><path fill="url(#b)" d="M-325 200h2544v1150H-325z"/></g><mask id="d" style="mask-type:alpha" maskUnits="userSpaceOnUse" x="0" y="343" width="1920" height="730"><path fill="url(#c)" d="M0 343.264h1920v729.073H0z"/></mask><g mask="url(#d)"><g opacity=".3"><path opacity=".3" d="M1099.13 579.667c2.3 0 4.17 1.829 4.17 4.086 0 2.256-1.87 4.085-4.17 4.085s-4.16-1.829-4.16-4.085c0-2.257 1.86-4.086 4.16-4.086z" fill="#FDEFFB"/><path opacity=".3" fill-rule="evenodd" clip-rule="evenodd" d="M1236.71 365.425c0 2.269 1.85 4.085 4.16 4.085s4.17-1.816 4.17-4.085c0-2.27-1.86-4.086-4.17-4.086-2.31 0-4.16 1.816-4.16 4.086z" fill="#F2EFFB"/><path opacity=".3" d="M1403.28 502.353c2.3 0 4.16 1.829 4.16 4.085 0 2.256-1.86 4.085-4.16 4.085s-4.17-1.829-4.17-4.085c0-2.256 1.87-4.085 4.17-4.085z" fill="#F2EFFB"/><path opacity=".3" fill-rule="evenodd" clip-rule="evenodd" d="M1584.19 354.077c0 2.269 1.85 4.085 4.17 4.085 2.31 0 4.16-1.816 4.16-4.085 0-2.27-1.85-4.085-4.16-4.085-2.16 0-4.17 1.815-4.17 4.085zM1568.46 482.532c0 2.269 1.85 4.085 4.17 4.085 2.31 0 4.16-1.816 4.16-4.085 0-2.27-1.85-4.085-4.16-4.085-2.32 0-4.17 1.815-4.17 4.085z" fill="#F2EFFB"/><path opacity=".3" d="M1103.3 502.353c2.3 0 4.16 1.829 4.16 4.085 0 2.256-1.86 4.085-4.16 4.085s-4.17-1.829-4.17-4.085c0-2.256 1.87-4.085 4.17-4.085z" fill="#FDEFFB"/><path opacity=".3" fill-rule="evenodd" clip-rule="evenodd" d="M1403.28 434.419c0 2.269 1.85 4.085 4.16 4.085s4.17-1.816 4.17-4.085c0-2.27-1.86-4.085-4.17-4.085-2.31 0-4.16 1.815-4.16 4.085zM1040.68 600.547c0 1.664 1.39 2.875 2.93 2.875 1.7 0 2.93-1.362 2.93-2.875 0-1.664-1.39-2.875-2.93-2.875-1.54 0-2.93 1.362-2.93 2.875zM1446.62 506.438c0 1.664 1.39 2.874 2.93 2.874 1.69 0 2.93-1.361 2.93-2.874 0-1.665-1.39-2.875-2.93-2.875-1.7 0-2.93 1.362-2.93 2.875z" fill="#F2EFFB"/><path opacity=".3" fill-rule="evenodd" clip-rule="evenodd" d="M1160.52 557.274c0 1.664 1.38 2.874 2.93 2.874 1.69 0 2.93-1.361 2.93-2.874 0-1.665-1.39-2.875-2.93-2.875-1.7 0-2.93 1.362-2.93 2.875z" fill="#EBCBF8"/><path opacity=".3" fill-rule="evenodd" clip-rule="evenodd" d="M1014.92 393.113c0 1.665 1.39 2.875 2.93 2.875 1.7 0 2.93-1.362 2.93-2.875 0-1.664-1.39-2.874-2.93-2.874-1.69 0-2.93 1.21-2.93 2.874zM1012.61 515.666c0 1.664 1.39 2.875 2.93 2.875 1.7 0 2.93-1.362 2.93-2.875 0-1.664-1.39-2.875-2.93-2.875-1.54 0-2.93 1.211-2.93 2.875z" fill="#F2EFFB"/><path opacity=".3" fill-rule="evenodd" clip-rule="evenodd" d="M1182.73 523.384c0 1.21.92 2.118 2.16 2.118 1.23 0 2.16-.908 2.16-2.118 0-1.211-.93-2.119-2.16-2.119-1.24 0-2.16.908-2.16 2.119z" fill="#EBCBF8"/><path opacity=".3" fill-rule="evenodd" clip-rule="evenodd" d="M1327.86 492.064c0 1.21.92 2.118 2.16 2.118 1.23 0 2.16-.908 2.16-2.118 0-1.211-.93-2.119-2.16-2.119-1.24 0-2.16.908-2.16 2.119zM1520.95 553.946c0 1.21.93 2.118 2.16 2.118 1.24 0 2.16-.908 2.16-2.118s-.92-2.118-2.16-2.118c-1.08 0-2.16.908-2.16 2.118zM1520.95 505.227c0 1.211.93 2.119 2.16 2.119 1.24 0 2.16-.908 2.16-2.119 0-1.21-.92-2.118-2.16-2.118-1.08 0-2.16.908-2.16 2.118zM1480.7 380.556c0 1.21.92 2.118 2.16 2.118 1.23 0 2.16-.908 2.16-2.118 0-1.211-.93-2.119-2.16-2.119-1.24 0-2.16 1.059-2.16 2.119zM1089.88 567.714c0 .757.62 1.362 1.39 1.362.77 0 1.39-.605 1.39-1.362 0-.756-.62-1.361-1.39-1.361-.62 0-1.39.605-1.39 1.361z" fill="#F2EFFB"/><path opacity=".3" fill-rule="evenodd" clip-rule="evenodd" d="M1169.77 555.914c0 .756.62 1.361 1.39 1.361.77 0 1.39-.605 1.39-1.361 0-.757-.62-1.362-1.39-1.362-.77 0-1.39.605-1.39 1.362zM1168.38 587.837c0 .757.62 1.362 1.39 1.362.77 0 1.39-.605 1.39-1.362 0-.756-.62-1.361-1.39-1.361-.77 0-1.39.605-1.39 1.361zM1150.49 579.667c0 .757.62 1.362 1.39 1.362.77 0 1.39-.605 1.39-1.362 0-.756-.62-1.361-1.39-1.361-.77 0-1.39.605-1.39 1.361zM1187.66 585.718c0 .757.62 1.362 1.39 1.362.77 0 1.39-.605 1.39-1.362 0-.756-.62-1.361-1.39-1.361-.77 0-1.39.605-1.39 1.361z" fill="#EBCBF8"/><path opacity=".3" fill-rule="evenodd" clip-rule="evenodd" d="M1593.6 719.771c0 .756.61 1.362 1.39 1.362.77 0 1.38-.606 1.38-1.362 0-.757-.61-1.362-1.38-1.362-.78 0-1.39.605-1.39 1.362zM1077.7 479.808c0 .757.61 1.362 1.38 1.362.77 0 1.39-.605 1.39-1.362 0-.756-.62-1.362-1.39-1.362-.77 0-1.38.606-1.38 1.362zM1145.4 558.03c0 .303.31.757.77.757.31 0 .77-.303.77-.757 0-.302-.3-.756-.77-.756-.46 0-.77.303-.77.756zM1326.01 798.448c0 .453.46.907.92.907.47 0 .93-.454.93-.907 0-.454-.46-.908-.93-.908-.46.151-.92.454-.92.908zM1311.82 558.636c0 .302.31.756.77.756.31 0 .77-.302.77-.756s-.31-.757-.77-.757c-.46.152-.77.454-.77.757zM1469.29 549.105c0 .302.31.756.77.756.31 0 .77-.302.77-.756 0-.303-.31-.757-.77-.757s-.77.303-.77.757zM1231.77 548.347c0 .303.31.757.77.757.31 0 .77-.303.77-.757 0-.303-.31-.756-.77-.756-.46.151-.77.453-.77.756zM1329.25 554.552c0 .303.3.756.77.756.31 0 .77-.302.77-.756 0-.303-.31-.757-.77-.757-.47.152-.77.454-.77.757zM1567.69 558.183c0 .302.31.756.77.756.31 0 .77-.302.77-.756 0-.303-.31-.757-.77-.757s-.77.303-.77.757zM1592.83 555.911c0 .303.31.757.77.757.31 0 .77-.303.77-.757 0-.302-.31-.756-.77-.756-.46.151-.77.454-.77.756z" fill="#F2EFFB"/><path opacity=".3" d="M1156.51 568.319c.42 0 .77.339.77.756 0 .418-.35.757-.77.757a.77.77 0 0 1-.78-.757.77.77 0 0 1 .78-.756z" fill="#EBCBF8"/><path opacity=".3" fill-rule="evenodd" clip-rule="evenodd" d="M1287.3 569.831c0 .303.31.757.77.757.31 0 .77-.303.77-.757 0-.302-.31-.756-.77-.756s-.77.302-.77.756zM1469.91 571.798c0 .303.3.757.77.757.31 0 .77-.303.77-.757 0-.303-.31-.756-.77-.756-.47 0-.77.302-.77.756z" fill="#F2EFFB"/><path opacity=".3" fill-rule="evenodd" clip-rule="evenodd" d="M1150.49 546.986c0 .756.62 1.362 1.39 1.362.77 0 1.39-.606 1.39-1.362 0-.757-.62-1.362-1.39-1.362-.77 0-1.39.605-1.39 1.362zM1214.34 545.624c0 .757.62 1.362 1.39 1.362.77 0 1.39-.605 1.39-1.362 0-.756-.62-1.361-1.39-1.361-.77 0-1.39.605-1.39 1.361z" fill="#EBCBF8"/><path opacity=".3" fill-rule="evenodd" clip-rule="evenodd" d="M1477.93 487.978c0 .757.61 1.362 1.38 1.362.78 0 1.39-.605 1.39-1.362 0-.756-.61-1.362-1.39-1.362-.77 0-1.38.606-1.38 1.362zM1187.66 382.673c0 .757.62 1.362 1.39 1.362.77 0 1.39-.605 1.39-1.362 0-.756-.62-1.361-1.39-1.361-.77 0-1.39.756-1.39 1.361zM1260.3 591.621c0 .756.62 1.361 1.39 1.361.77 0 1.39-.605 1.39-1.361 0-.757-.62-1.362-1.39-1.362-.77 0-1.39.605-1.39 1.362zM1485.02 486.617c0 .756.62 1.361 1.39 1.361.77 0 1.39-.605 1.39-1.361 0-.757-.62-1.362-1.39-1.362-.77 0-1.39.605-1.39 1.362zM1508 407.488c0 .756.62 1.361 1.39 1.361.77 0 1.39-.605 1.39-1.361 0-.757-.62-1.362-1.39-1.362-.77 0-1.39.605-1.39 1.362zM1479.78 713.72c0 .757.61 1.362 1.39 1.362.77 0 1.38-.605 1.38-1.362 0-.756-.61-1.361-1.38-1.361-.78 0-1.39.605-1.39 1.361zM1561.05 408.849c0 .757.62 1.362 1.39 1.362.77 0 1.39-.605 1.39-1.362 0-.756-.62-1.362-1.39-1.362-.77 0-1.39.606-1.39 1.362zM1525.43 498.117c0 .756.62 1.361 1.39 1.361.77 0 1.39-.605 1.39-1.361 0-.757-.62-1.362-1.39-1.362-.77 0-1.39.605-1.39 1.362zM1812.14 640.339c0 .757.62 1.362 1.39 1.362.77 0 1.39-.605 1.39-1.362 0-.756-.62-1.361-1.39-1.361-.77 0-1.39.605-1.39 1.361zM1562.44 404.763c0 .757.62 1.362 1.39 1.362.77 0 1.39-.605 1.39-1.362 0-.756-.62-1.362-1.39-1.362-.77 0-1.39.606-1.39 1.362zM1486.41 404.763c0 .757.61 1.362 1.38 1.362.78 0 1.39-.605 1.39-1.362 0-.756-.61-1.362-1.39-1.362-.77 0-1.38.606-1.38 1.362zM1363.33 349.992c0 .756.62 1.362 1.39 1.362.77 0 1.39-.606 1.39-1.362 0-.757-.62-1.362-1.39-1.362-.77 0-1.39.605-1.39 1.362zM1232.54 481.169c0 .757.62 1.362 1.39 1.362.77 0 1.39-.605 1.39-1.362 0-.756-.62-1.361-1.39-1.361-.77 0-1.39.605-1.39 1.361zM1463.27 386.91c0 .756.62 1.361 1.39 1.361.77 0 1.39-.605 1.39-1.361 0-.757-.62-1.362-1.39-1.362-.62 0-1.39.605-1.39 1.362zM1596.38 361.339c0 .757.61 1.362 1.38 1.362.77 0 1.39-.605 1.39-1.362 0-.756-.62-1.362-1.39-1.362-.77 0-1.38.606-1.38 1.362zM1257.38 418.531c0 .756.61 1.361 1.38 1.361.77 0 1.39-.605 1.39-1.361 0-.757-.62-1.362-1.39-1.362-.77 0-1.38.605-1.38 1.362zM1162.06 473.302c0 .757.62 1.362 1.39 1.362.77 0 1.38-.605 1.38-1.362 0-.756-.61-1.362-1.38-1.362-.77 0-1.39.606-1.39 1.362zM162.025 539.27c-.926-.908-2.468-.908-3.393 0a2.34 2.34 0 0 0 0 3.328c.925.908 2.467.908 3.393 0a2.342 2.342 0 0 0 0-3.328zM1015.54 374.352c-1.7-1.665-4.32-1.665-5.86 0-1.7 1.664-1.7 4.236 0 5.749 1.7 1.665 4.32 1.665 5.86 0 1.7-1.513 1.7-4.085 0-5.749zM895.086 420.801c-1.696-1.664-4.318-1.664-5.86 0-1.697 1.664-1.697 4.236 0 5.749 1.696 1.665 4.318 1.665 5.86 0 1.697-1.664 1.697-4.236 0-5.749zM145.985 576.944c-.617-.606-1.696-.606-2.468 0-.617.605-.617 1.664 0 2.42.617.606 1.697.606 2.468 0 .771-.605.771-1.664 0-2.42zM949.685 354.228c-1.08-1.059-3.085-1.059-4.164 0-1.08 1.059-1.08 3.026 0 4.085 1.079 1.059 3.084 1.059 4.164 0 1.234-1.059 1.234-2.875 0-4.085zM151.229 600.092c-.463-.454-1.234-.454-1.851 0-.462.454-.462 1.21 0 1.815.463.454 1.234.454 1.851 0 .463-.453.463-1.361 0-1.815zM170.971 543.96a.754.754 0 0 0-1.079 0 .72.72 0 0 0 0 1.059.756.756 0 0 0 1.079 0 .72.72 0 0 0 0-1.059zM142.748 581.331a.756.756 0 0 0-1.079 0 .72.72 0 0 0 0 1.059.754.754 0 0 0 1.079 0 .72.72 0 0 0 0-1.059zM129.791 567.411a.754.754 0 0 0-1.079 0 .72.72 0 0 0 0 1.059.754.754 0 0 0 1.079 0c.309-.151.309-.756 0-1.059zM140.745 563.63a.755.755 0 0 0-1.08 0 .72.72 0 0 0 0 1.059.755.755 0 0 0 1.08 0 .722.722 0 0 0 0-1.059zM929.636 424.735c-.617-.605-1.388-.605-2.005 0-.617.606-.617 1.362 0 1.967s1.388.605 2.005 0c.462-.605.462-1.513 0-1.967zM152.002 570.59c-.154-.151-.463-.151-.617 0a.454.454 0 0 0 0 .605c.154.151.463.151.617 0 .154-.303.154-.454 0-.605z" fill="#F2EFFB"/><path opacity=".3" d="M119.924 609.623c.255 0 .462.204.462.454a.458.458 0 0 1-.462.454.458.458 0 0 1-.463-.454c0-.25.207-.454.463-.454zM142.748 569.985c.255 0 .463.203.463.454 0 .25-.208.453-.463.453a.458.458 0 0 1-.463-.453c0-.251.207-.454.463-.454z" fill="#F2EFFB"/><path opacity=".3" fill-rule="evenodd" clip-rule="evenodd" d="M154.471 577.245a.754.754 0 0 0-1.079 0 .72.72 0 0 0 0 1.059.754.754 0 0 0 1.079 0 .72.72 0 0 0 0-1.059zM128.561 603.724a.755.755 0 0 0-1.08 0 .722.722 0 0 0 0 1.059.757.757 0 0 0 1.08 0c.308-.152.308-.757 0-1.059zM148.299 725.976a.754.754 0 0 0-1.079 0 .72.72 0 0 0 0 1.059.756.756 0 0 0 1.079 0c.309-.152.309-.757 0-1.059zM874.573 487.827c-.617-.605-1.388-.605-2.005 0s-.617 1.362 0 1.967 1.388.605 2.005 0 .617-1.362 0-1.967zM64.86 582.996c-.925-.908-2.467-.908-3.392 0a2.343 2.343 0 0 0 0 3.329c.925.908 2.467.908 3.393 0 1.08-.757 1.08-2.421 0-3.329zM15.353 548.195c-.926-.907-2.468-.907-3.393 0a2.343 2.343 0 0 0 0 3.329c.925.908 2.467.908 3.393 0 .925-.756.925-2.269 0-3.329zM95.86 704.944c-.925-.908-2.467-.908-3.392 0a2.342 2.342 0 0 0 0 3.328c.925.908 2.467.908 3.392 0 1.08-.908 1.08-2.421 0-3.328zM110.048 676.498c-.925-.908-2.468-.908-3.393 0a2.344 2.344 0 0 0 0 3.329c.925.908 2.468.908 3.393 0 .925-.757.925-2.421 0-3.329zM88.306 729.908c-.925-.907-2.468-.907-3.393 0a2.343 2.343 0 0 0 0 3.329c.925.908 2.468.908 3.393 0a2.343 2.343 0 0 0 0-3.329zM36.173 666.362c-.925-.908-2.468-.908-3.393 0a2.342 2.342 0 0 0 0 3.328c.925.908 2.468.908 3.393 0 .925-.756.925-2.269 0-3.328zM80.438 553.945c-.617-.605-1.696-.605-2.468 0-.616.606-.616 1.665 0 2.421.617.605 1.697.605 2.468 0 .617-.756.617-1.815 0-2.421zM48.973 708.727c-.617-.605-1.696-.605-2.467 0-.617.605-.617 1.664 0 2.421.617.605 1.696.605 2.467 0 .617-.606.617-1.665 0-2.421zM127.942 577.852c-.617-.605-1.696-.605-2.468 0-.617.605-.617 1.664 0 2.421.617.605 1.697.605 2.468 0 .771-.757.771-1.816 0-2.421zM54.065 731.875c-.463-.454-1.234-.454-1.85 0-.464.454-.464 1.211 0 1.816.462.454 1.233.454 1.85 0 .463-.454.463-1.211 0-1.816zM43.885 756.387c-.462-.454-1.234-.454-1.85 0-.463.454-.463 1.21 0 1.815.462.454 1.233.454 1.85 0 .463-.605.463-1.361 0-1.815zM92.624 724.461c-.463-.454-1.234-.454-1.851 0-.463.454-.463 1.21 0 1.816.463.454 1.234.454 1.85 0 .463-.606.463-1.362 0-1.816z" fill="#F2EFFB"/><path opacity=".3" d="M165.574 770.003c.681 0 1.234.542 1.234 1.21 0 .669-.553 1.211-1.234 1.211a1.222 1.222 0 0 1-1.234-1.211c0-.668.552-1.21 1.234-1.21z" fill="#F2EFFB"/><path opacity=".3" fill-rule="evenodd" clip-rule="evenodd" d="M73.807 587.686a.757.757 0 0 0-1.08 0 .723.723 0 0 0 0 1.06.757.757 0 0 0 1.08 0 .723.723 0 0 0 0-1.06zM45.737 713.114a.756.756 0 0 0-1.08 0 .722.722 0 0 0 0 1.059.755.755 0 0 0 1.08 0 .722.722 0 0 0 0-1.059zM86.452 723.554a.755.755 0 0 0-1.08 0 .722.722 0 0 0 0 1.059.756.756 0 0 0 1.08 0 .722.722 0 0 0 0-1.059zM32.78 611.288a.755.755 0 0 0-1.08 0 .722.722 0 0 0 0 1.059.755.755 0 0 0 1.08 0 .722.722 0 0 0 0-1.059zM918.378 386.001c-.617-.605-1.388-.605-2.005 0s-.617 1.362 0 1.967 1.388.605 2.005 0c.462-.605.462-1.513 0-1.967z" fill="#F2EFFB"/><path opacity=".3" d="M42.959 607.204c.426 0 .77.338.77.756a.764.764 0 0 1-.77.757.764.764 0 0 1-.772-.757c0-.418.346-.756.772-.756zM115.603 707.061c.426 0 .771.339.771.757a.764.764 0 0 1-.771.756.764.764 0 0 1-.771-.756c0-.418.345-.757.771-.757z" fill="#F2EFFB"/><path opacity=".3" fill-rule="evenodd" clip-rule="evenodd" d="M1080.01 376.317c-.62-.605-1.39-.605-2.01 0-.62.606-.62 1.362 0 1.967s1.39.605 2.01 0c.46-.605.46-1.361 0-1.967z" fill="#F2EFFB"/><path opacity=".3" d="M54.681 614.162c.256 0 .463.204.463.454a.458.458 0 0 1-.463.454.458.458 0 0 1-.462-.454c0-.25.207-.454.462-.454zM118.994 715.233c.255 0 .463.203.463.454 0 .25-.208.453-.463.453a.458.458 0 0 1-.463-.453c0-.251.207-.454.463-.454z" fill="#F2EFFB"/><path opacity=".3" fill-rule="evenodd" clip-rule="evenodd" d="M108.201 707.971c-.154-.152-.462-.152-.617 0a.454.454 0 0 0 0 .605c.155.151.463.151.617 0a.452.452 0 0 0 0-.605z" fill="#F2EFFB"/><path opacity=".3" d="M875.806 379.799c.426 0 .771.339.771.757a.763.763 0 0 1-.771.756.763.763 0 0 1-.771-.756c0-.418.345-.757.771-.757zM22.756 741.407c.255 0 .462.203.462.453a.458.458 0 0 1-.462.454.458.458 0 0 1-.463-.454c0-.25.207-.453.463-.453zM22.447 769.549c.256 0 .463.203.463.454a.458.458 0 0 1-.463.454.458.458 0 0 1-.463-.454c0-.251.207-.454.463-.454zM1033.43 543.96c.43 0 .77.338.77.756a.76.76 0 0 1-.77.757.767.767 0 0 1-.77-.757c0-.418.35-.756.77-.756z" fill="#F2EFFB"/><path opacity=".3" fill-rule="evenodd" clip-rule="evenodd" d="M38.178 770.004a.477.477 0 0 0-.617 0 .453.453 0 0 0 0 .605.477.477 0 0 0 .617 0 .453.453 0 0 0 0-.605z" fill="#F2EFFB"/><path opacity=".3" d="M38.334 764.557c.255 0 .462.203.462.454 0 .25-.207.454-.462.454a.459.459 0 0 1-.463-.454c0-.251.207-.454.463-.454zM89.076 728.395c.256 0 .463.203.463.454 0 .25-.207.454-.463.454a.459.459 0 0 1-.463-.454c0-.251.207-.454.463-.454z" fill="#F2EFFB"/><path opacity=".3" fill-rule="evenodd" clip-rule="evenodd" d="M45.889 614.012a.474.474 0 0 0-.617 0 .453.453 0 0 0 0 .605.477.477 0 0 0 .617 0c.154-.303.154-.454 0-.605zM92.006 722.646a.477.477 0 0 0-.617 0 .455.455 0 0 0 0 .606.477.477 0 0 0 .617 0c.154-.303.154-.454 0-.606zM57.456 709.03a.756.756 0 0 0-1.08 0 .722.722 0 0 0 0 1.059.755.755 0 0 0 1.08 0 .722.722 0 0 0 0-1.059zM107.272 721.89a.755.755 0 0 0-1.08 0 .722.722 0 0 0 0 1.059.757.757 0 0 0 1.08 0 .722.722 0 0 0 0-1.059zM96.479 722.645a.756.756 0 0 0-1.08 0 .723.723 0 0 0 0 1.06.756.756 0 0 0 1.08 0c.308-.152.308-.757 0-1.06zM1047.62 412.479c-.61-.605-1.38-.605-2 0-.62.606-.62 1.362 0 1.967s1.39.605 2 0c.47-.454.47-1.361 0-1.967z" fill="#F2EFFB"/><path opacity=".3" d="M1022.33 366.332c1.62 0 2.93 1.288 2.93 2.875 0 1.588-1.31 2.875-2.93 2.875s-2.93-1.287-2.93-2.875c0-1.587 1.31-2.875 2.93-2.875z" fill="#F2EFFB"/><path opacity=".3" fill-rule="evenodd" clip-rule="evenodd" d="M996.725 351.05c-.616-.605-1.388-.605-2.005 0-.616.605-.616 1.361 0 1.967.617.605 1.389.605 2.005 0 .617-.606.617-1.513 0-1.967zM1015.23 344.394c-.61-.605-1.38-.605-2 0-.62.605-.62 1.361 0 1.967.62.605 1.39.605 2 0 .62-.454.62-1.362 0-1.967z" fill="#F2EFFB"/><path opacity=".3" d="M1034.05 356.043c.42 0 .77.339.77.757s-.35.757-.77.757a.76.76 0 0 1-.77-.757.76.76 0 0 1 .77-.757z" fill="#F2EFFB"/><path opacity=".3" fill-rule="evenodd" clip-rule="evenodd" d="M1019.24 355.59c-.31-.303-.77-.303-.92 0-.31.302-.31.756 0 .908.31.302.77.302.92 0 .16-.152.16-.606 0-.908zM1038.83 367.542c-.62-.605-1.39-.605-2 0-.62.605-.62 1.362 0 1.967.61.605 1.38.605 2 0 .62-.454.62-1.362 0-1.967zM31.545 735.507a.755.755 0 0 0-1.08 0 .722.722 0 0 0 0 1.059.756.756 0 0 0 1.08 0c.309-.151.309-.757 0-1.059zM66.249 764.103a.755.755 0 0 0-1.08 0 .722.722 0 0 0 0 1.059.757.757 0 0 0 1.08 0c.308-.152.308-.757 0-1.059z" fill="#F2EFFB"/><path opacity=".3" d="M948.606 527.922c1.619 0 2.931 1.287 2.931 2.875s-1.312 2.875-2.931 2.875c-1.618 0-2.93-1.287-2.93-2.875s1.312-2.875 2.93-2.875z" fill="#F2EFFB"/><path opacity=".3" fill-rule="evenodd" clip-rule="evenodd" d="M946.755 440.621c-1.079-1.06-3.084-1.06-4.164 0-1.08 1.059-1.08 3.025 0 4.085 1.08 1.059 3.085 1.059 4.164 0 1.234-1.06 1.234-2.875 0-4.085z" fill="#F2EFFB"/><path opacity=".3" d="M1449.55 533.823c1.62 0 2.93 1.287 2.93 2.874 0 1.588-1.31 2.875-2.93 2.875s-2.93-1.287-2.93-2.875c0-1.587 1.31-2.874 2.93-2.874zM958.015 567.562c1.192 0 2.159.949 2.159 2.119 0 1.169-.967 2.118-2.159 2.118-1.193 0-2.16-.949-2.16-2.118 0-1.17.967-2.119 2.16-2.119z" fill="#F2EFFB"/><path opacity=".3" fill-rule="evenodd" clip-rule="evenodd" d="M945.21 536.091c-.617-.605-1.388-.605-2.005 0s-.617 1.361 0 1.967c.617.605 1.388.605 2.005 0 .463-.606.463-1.362 0-1.967zM923.155 512.489c-.617-.605-1.388-.605-2.005 0s-.617 1.362 0 1.967 1.388.605 2.005 0c.463-.454.463-1.362 0-1.967zM897.397 431.392c-.617-.606-1.388-.606-2.005 0-.617.605-.617 1.361 0 1.966.617.606 1.388.606 2.005 0 .463-.605.463-1.512 0-1.966zM941.663 505.983c-.617-.605-1.388-.605-2.005 0s-.617 1.362 0 1.967 1.388.605 2.005 0c.463-.605.463-1.513 0-1.967zM960.942 517.785c-.309-.303-.771-.303-.926 0-.308.303-.308.756 0 .908.309.302.772.302.926 0 .308-.152.308-.605 0-.908zM987.469 573.766c-.308-.303-.771-.303-.925 0-.309.302-.309.756 0 .907.308.303.771.303.925 0 .309-.151.309-.605 0-.907zM906.657 584.508c-.309-.303-.771-.303-.926 0-.308.302-.308.756 0 .907.309.303.772.303.926 0 .308-.151.308-.605 0-.907z" fill="#F2EFFB"/><path opacity=".3" d="M945.056 516.877c.426 0 .771.339.771.757a.764.764 0 0 1-.771.757.764.764 0 0 1-.771-.757c0-.418.345-.757.771-.757z" fill="#F2EFFB"/><path opacity=".3" fill-rule="evenodd" clip-rule="evenodd" d="M965.261 529.132c-.617-.605-1.388-.605-2.005 0s-.617 1.362 0 1.967 1.388.605 2.005 0c.462-.605.462-1.513 0-1.967zM1059.96 528.226c-.62-.606-1.39-.606-2.01 0-.61.605-.61 1.361 0 1.966.62.606 1.39.606 2.01 0 .62-.453.62-1.361 0-1.966zM921.151 574.22c-.617-.605-1.388-.605-2.005 0s-.617 1.361 0 1.967c.617.605 1.388.605 2.005 0 .463-.454.463-1.362 0-1.967zM51.291 769.852a.756.756 0 0 0-1.08 0 .723.723 0 0 0 0 1.06.756.756 0 0 0 1.08 0 .723.723 0 0 0 0-1.06z" fill="#F2EFFB"/><path opacity=".3" d="M39.103 805.712c.426 0 .771.338.771.756a.763.763 0 0 1-.77.756.763.763 0 0 1-.772-.756c0-.418.345-.756.771-.756z" fill="#F2EFFB"/><path opacity=".3" fill-rule="evenodd" clip-rule="evenodd" d="M83.83 744.282a.756.756 0 0 0-1.08 0 .722.722 0 0 0 0 1.059.755.755 0 0 0 1.08 0c.309-.151.309-.756 0-1.059zM1144.17 821.9c0 2.421 2 4.237 4.32 4.237 2.46 0 4.31-1.967 4.31-4.237 0-2.269-2-4.236-4.31-4.236-2.32 0-4.32 1.967-4.32 4.236zM1255.52 467.552c0 2.421 2.01 4.237 4.32 4.237 2.47 0 4.32-1.967 4.32-4.237 0-2.42-2-4.236-4.32-4.236-2.31 0-4.32 1.967-4.32 4.236zM1291.77 506.59c0 2.42 2 4.236 4.32 4.236 2.31 0 4.32-1.967 4.32-4.236 0-2.421-2.01-4.237-4.32-4.237-2.32 0-4.32 1.967-4.32 4.237z" fill="#F2EFFB"/><path opacity=".3" fill-rule="evenodd" clip-rule="evenodd" d="M1460.8 741.408c0 2.421 2.01 4.236 4.32 4.236 2.32 0 4.32-1.966 4.32-4.236 0-2.421-2-4.237-4.32-4.237-2.31 0-4.32 1.967-4.32 4.237z" fill="#FDEFFB"/><path opacity=".3" fill-rule="evenodd" clip-rule="evenodd" d="M1653.44 494.787c0 2.421 2.01 4.236 4.32 4.236 2.31 0 4.32-1.967 4.32-4.236 0-2.27-2.01-4.237-4.32-4.237-2.31 0-4.32 1.816-4.32 4.237zM1697.24 657.738c0 2.421 2.01 4.236 4.32 4.236 2.31 0 4.32-1.966 4.32-4.236 0-2.269-2.01-4.236-4.32-4.236-2.31 0-4.32 1.815-4.32 4.236zM1636.94 716.443c0 2.421 2 4.237 4.32 4.237 2.31 0 4.31-1.967 4.31-4.237 0-2.421-2-4.236-4.31-4.236-2.32 0-4.32 1.967-4.32 4.236zM1888.95 592.98c0 2.421 2.01 4.237 4.32 4.237 2.47 0 4.32-1.967 4.32-4.237 0-2.269-2-4.236-4.32-4.236-2.31 0-4.32 1.967-4.32 4.236zM1148.49 741.408c0 2.421 2 4.236 4.32 4.236 2.31 0 4.32-1.966 4.32-4.236 0-2.421-2.01-4.237-4.32-4.237-2.32 0-4.32 1.967-4.32 4.237z" fill="#F2EFFB"/><path opacity=".3" d="M1469.44 574.22c2.39 0 4.32 1.897 4.32 4.237s-1.93 4.236-4.32 4.236c-2.38 0-4.32-1.896-4.32-4.236s1.94-4.237 4.32-4.237z" fill="#F2EFFB"/><path opacity=".3" fill-rule="evenodd" clip-rule="evenodd" d="M1087.72 839.45c0 1.665 1.39 3.026 3.09 3.026 1.69 0 3.08-1.361 3.08-3.026 0-1.664-1.39-3.026-3.08-3.026-1.7 0-3.09 1.362-3.09 3.026zM1510.16 741.407c0 1.665 1.38 3.026 3.08 3.026 1.7 0 3.09-1.361 3.09-3.026 0-1.664-1.39-3.026-3.09-3.026s-3.08 1.362-3.08 3.026zM1212.34 794.363c0 1.664 1.39 3.026 3.08 3.026 1.7 0 3.09-1.362 3.09-3.026 0-1.665-1.39-3.026-3.09-3.026-1.69 0-3.08 1.361-3.08 3.026zM1060.89 535.488c0 1.664 1.38 3.026 3.08 3.026 1.7 0 3.09-1.362 3.09-3.026 0-1.665-1.39-3.026-3.09-3.026s-3.08 1.361-3.08 3.026zM1058.57 750.939c0 1.664 1.39 3.026 3.08 3.026 1.7 0 3.09-1.362 3.09-3.026 0-1.665-1.39-3.026-3.09-3.026-1.69 0-3.08 1.361-3.08 3.026zM1235.47 758.959c0 1.21 1.08 2.269 2.32 2.269 1.23 0 2.31-1.059 2.31-2.269 0-1.211-1.08-2.27-2.31-2.27-1.24.152-2.32 1.059-2.32 2.27zM1386.46 726.43c0 1.21 1.08 2.269 2.32 2.269 1.23 0 2.31-1.059 2.31-2.269 0-1.211-1.08-2.27-2.31-2.27-1.24.151-2.32 1.059-2.32 2.27zM1587.59 790.73c0 1.211 1.08 2.27 2.31 2.27s2.31-1.059 2.31-2.27c0-1.21-1.08-2.269-2.31-2.269-1.39.151-2.31 1.059-2.31 2.269zM1587.59 740.197c0 1.211 1.08 2.27 2.31 2.27s2.31-1.059 2.31-2.27c0-1.21-1.08-2.269-2.31-2.269-1.39 0-2.31 1.059-2.31 2.269z" fill="#F2EFFB"/><path opacity=".3" d="M1547.95 520.205c1.27 0 2.31 1.016 2.31 2.27 0 1.253-1.04 2.269-2.31 2.269-1.28 0-2.32-1.016-2.32-2.269 0-1.254 1.04-2.27 2.32-2.27z" fill="#F2EFFB"/><path opacity=".3" fill-rule="evenodd" clip-rule="evenodd" d="M1138.93 805.105c0 .756.61 1.362 1.38 1.362.77 0 1.39-.606 1.39-1.362 0-.757-.62-1.362-1.39-1.362-.61 0-1.38.605-1.38 1.362zM1222.05 792.849c0 .757.62 1.362 1.39 1.362.77 0 1.39-.605 1.39-1.362 0-.756-.62-1.362-1.39-1.362-.77 0-1.39.606-1.39 1.362zM1220.52 826.136c0 .757.61 1.362 1.38 1.362.77 0 1.39-.605 1.39-1.362 0-.756-.62-1.361-1.39-1.361-.61 0-1.38.605-1.38 1.361zM1202 817.664c0 .756.62 1.361 1.39 1.361.77 0 1.39-.605 1.39-1.361 0-.757-.62-1.362-1.39-1.362-.77 0-1.39.605-1.39 1.362zM1240.72 823.867c0 .756.62 1.361 1.39 1.361.77 0 1.38-.605 1.38-1.361 0-.757-.61-1.362-1.38-1.362-.77 0-1.39.605-1.39 1.362zM1663 871.828c0 .756.62 1.361 1.39 1.361.77 0 1.39-.605 1.39-1.361 0-.757-.62-1.362-1.39-1.362-.77 0-1.39.605-1.39 1.362zM1126.12 713.72c0 .757.62 1.362 1.39 1.362.77 0 1.39-.605 1.39-1.362 0-.756-.62-1.361-1.39-1.361-.61-.152-1.39.453-1.39 1.361z" fill="#F2EFFB"/><path opacity=".3" d="M1197.38 794.211c.43 0 .77.339.77.757a.76.76 0 0 1-.77.756.76.76 0 0 1-.77-.756.76.76 0 0 1 .77-.757z" fill="#F2EFFB"/><path opacity=".3" fill-rule="evenodd" clip-rule="evenodd" d="M1515.56 893.616c0 .454.31.757.77.757s.77-.303.77-.757c0-.453-.31-.756-.77-.756-.46.151-.77.454-.77.756zM1369.81 795.724c0 .454.31.756.77.756s.77-.302.77-.756-.31-.757-.77-.757-.77.303-.77.757zM1533.76 785.739c0 .454.31.757.77.757s.77-.303.77-.757c0-.453-.31-.756-.77-.756s-.77.303-.77.756zM1286.68 784.982c0 .454.3.756.77.756.46 0 .77-.302.77-.756s-.31-.757-.77-.757c-.47.151-.77.454-.77.757zM1388.01 791.487c0 .454.31.757.77.757s.77-.303.77-.757c0-.453-.31-.756-.77-.756s-.77.303-.77.756zM1636.17 795.271c0 .454.31.756.77.756s.77-.302.77-.756-.31-.757-.77-.757-.77.303-.77.757zM1662.23 792.849c0 .454.31.756.77.756s.77-.302.77-.756-.31-.757-.77-.757c-.31.152-.77.454-.77.757zM1207.56 806.618c0 .454.31.757.77.757s.77-.303.77-.757-.31-.756-.77-.756-.77.302-.77.756zM1344.36 807.374c0 .454.31.757.77.757s.77-.303.77-.757-.31-.756-.77-.756-.77.302-.77.756zM1534.53 809.341c0 .454.31.757.77.757s.77-.303.77-.757-.31-.757-.77-.757-.77.454-.77.757zM1202 783.621c0 .756.62 1.361 1.39 1.361.77 0 1.39-.605 1.39-1.361 0-.757-.62-1.362-1.39-1.362-.77 0-1.39.605-1.39 1.362zM1268.32 782.259c0 .757.62 1.362 1.39 1.362.77 0 1.39-.605 1.39-1.362 0-.756-.62-1.361-1.39-1.361-.61-.152-1.39.453-1.39 1.361zM1542.7 722.193c0 .756.62 1.362 1.39 1.362.77 0 1.39-.606 1.39-1.362 0-.757-.62-1.362-1.39-1.362-.77-.151-1.39.605-1.39 1.362zM1240.72 524.593c0 .757.62 1.362 1.39 1.362.77 0 1.38-.605 1.38-1.362 0-.756-.61-1.361-1.38-1.361-.77 0-1.39.605-1.39 1.361zM1295.01 432.148c0 .756.61 1.362 1.39 1.362.77 0 1.38-.606 1.38-1.362 0-.757-.61-1.362-1.38-1.362-.78-.151-1.39.454-1.39 1.362zM1316.14 830.07c0 .756.61 1.361 1.38 1.361.78 0 1.39-.605 1.39-1.361 0-.757-.61-1.362-1.39-1.362-.61-.151-1.38.454-1.38 1.362zM1550.11 720.679c0 .757.61 1.362 1.38 1.362.77 0 1.39-.605 1.39-1.362 0-.756-.62-1.362-1.39-1.362-.77 0-1.38.606-1.38 1.362zM1574.01 550.316c0 .756.62 1.362 1.39 1.362.77 0 1.39-.606 1.39-1.362 0-.757-.62-1.362-1.39-1.362-.77 0-1.39.605-1.39 1.362zM1629.23 551.828c0 .756.61 1.361 1.38 1.361.78 0 1.39-.605 1.39-1.361 0-.757-.61-1.362-1.39-1.362-.77 0-1.38.454-1.38 1.362zM1449.7 471.789c0 .756.62 1.361 1.39 1.361.77 0 1.39-.605 1.39-1.361 0-.757-.62-1.362-1.39-1.362-.77 0-1.39.605-1.39 1.362zM1328.79 434.873c0 .756.61 1.361 1.38 1.361.77 0 1.39-.605 1.39-1.361 0-.757-.62-1.362-1.39-1.362-.77 0-1.38.605-1.38 1.362zM1388.47 579.062c0 .756.62 1.362 1.39 1.362.77 0 1.39-.606 1.39-1.362 0-.757-.62-1.362-1.39-1.362-.77-.151-1.39.454-1.39 1.362zM1592.05 732.783c0 .756.62 1.361 1.39 1.361.77 0 1.39-.605 1.39-1.361 0-.757-.62-1.362-1.39-1.362-.77 0-1.39.605-1.39 1.362zM1630.77 547.439c0 .756.62 1.362 1.39 1.362.77 0 1.39-.606 1.39-1.362 0-.757-.62-1.362-1.39-1.362-.77 0-1.39.605-1.39 1.362zM1551.65 547.439c0 .756.62 1.362 1.39 1.362.77 0 1.38-.606 1.38-1.362 0-.757-.61-1.362-1.38-1.362-.77 0-1.39.605-1.39 1.362zM1423.48 490.55c0 .757.62 1.362 1.39 1.362.77 0 1.39-.605 1.39-1.362 0-.756-.62-1.361-1.39-1.361-.62-.152-1.39.454-1.39 1.361zM1287.3 715.081c0 .757.61 1.362 1.38 1.362.78 0 1.39-.605 1.39-1.362 0-.756-.61-1.361-1.39-1.361-.77 0-1.38.605-1.38 1.361zM1527.59 528.982c0 .756.61 1.362 1.38 1.362.78 0 1.39-.606 1.39-1.362 0-.757-.61-1.362-1.39-1.362-.77 0-1.38.605-1.38 1.362zM1665.93 502.353c0 .757.62 1.362 1.39 1.362.77 0 1.39-.605 1.39-1.362 0-.756-.62-1.362-1.39-1.362-.77 0-1.39.606-1.39 1.362zM1313.21 561.812c0 .756.61 1.362 1.39 1.362.77 0 1.38-.606 1.38-1.362 0-.756-.61-1.362-1.38-1.362-.78 0-1.39.606-1.39 1.362zM1530.82 455.751c0 .757.62 1.362 1.39 1.362.77 0 1.39-.605 1.39-1.362 0-.756-.62-1.361-1.39-1.361-.77 0-1.39.605-1.39 1.361zM1214.04 706.912c0 .756.61 1.361 1.38 1.361.77 0 1.39-.605 1.39-1.361 0-.757-.62-1.362-1.39-1.362-.77 0-1.38.605-1.38 1.362z" fill="#F2EFFB"/><path opacity=".3" d="M878.275 503.109c2.385 0 4.319 1.897 4.319 4.236 0 2.34-1.934 4.237-4.319 4.237s-4.318-1.897-4.318-4.237c0-2.339 1.933-4.236 4.318-4.236z" fill="#F2EFFB"/><path opacity=".3" fill-rule="evenodd" clip-rule="evenodd" d="M1061.66 515.969c-1.7-1.664-4.48-1.664-6.17 0a4.228 4.228 0 0 0 0 6.052c1.69 1.665 4.47 1.665 6.17 0a4.246 4.246 0 0 0 0-6.052zM936.266 564.235c-1.697-1.665-4.473-1.665-6.169 0a4.234 4.234 0 0 0 0 6.052c1.696 1.664 4.472 1.664 6.169 0 1.696-1.816 1.696-4.388 0-6.052z" fill="#F2EFFB"/><path opacity=".3" d="M906.499 451.817c1.703 0 3.084 1.355 3.084 3.026 0 1.671-1.381 3.026-3.084 3.026-1.704 0-3.085-1.355-3.085-3.026 0-1.671 1.381-3.026 3.085-3.026zM850.975 570.135c1.704 0 3.085 1.355 3.085 3.026 0 1.672-1.381 3.026-3.085 3.026-1.703 0-3.084-1.354-3.084-3.026 0-1.671 1.381-3.026 3.084-3.026zM990.862 494.182c1.704 0 3.085 1.355 3.085 3.026 0 1.671-1.381 3.026-3.085 3.026s-3.085-1.355-3.085-3.026c0-1.671 1.381-3.026 3.085-3.026z" fill="#F2EFFB"/><path opacity=".3" fill-rule="evenodd" clip-rule="evenodd" d="M862.081 700.103c-.925-.908-2.313-.908-3.239 0-.925.908-.925 2.269 0 3.177.926.908 2.314.908 3.239 0 .926-.908.926-2.269 0-3.177z" fill="#F2EFFB"/><path opacity=".3" d="M896.165 512.187c.767 0 1.388.609 1.388 1.361s-.621 1.362-1.388 1.362c-.766 0-1.388-.61-1.388-1.362 0-.752.622-1.361 1.388-1.361zM846.193 578.456c.766 0 1.388.61 1.388 1.362 0 .752-.622 1.362-1.388 1.362-.767 0-1.388-.61-1.388-1.362 0-.752.621-1.362 1.388-1.362z" fill="#F2EFFB"/><path opacity=".3" fill-rule="evenodd" clip-rule="evenodd" d="M824.292 554.247c-.617-.605-1.542-.605-2.005 0-.617.605-.617 1.513 0 1.967.617.605 1.542.605 2.005 0 .617-.605.617-1.362 0-1.967z" fill="#F2EFFB"/><path opacity=".3" d="M842.493 546.985c.767 0 1.389.61 1.389 1.362 0 .752-.622 1.362-1.389 1.362-.766 0-1.388-.61-1.388-1.362 0-.752.622-1.362 1.388-1.362z" fill="#F2EFFB"/><path opacity=".3" fill-rule="evenodd" clip-rule="evenodd" d="M972.202 568.319c-.617-.605-1.542-.605-2.005 0-.617.606-.617 1.513 0 1.967.617.605 1.542.605 2.005 0 .463-.454.463-1.361 0-1.967zM863.624 559.694a.757.757 0 0 0-1.08 0 .72.72 0 0 0 0 1.059.755.755 0 0 0 1.08 0 .722.722 0 0 0 0-1.059zM807.174 717.198a.756.756 0 0 0-1.079 0 .72.72 0 0 0 0 1.059.754.754 0 0 0 1.079 0 .72.72 0 0 0 0-1.059zM1050.09 441.075a.757.757 0 0 0-1.08 0 .72.72 0 0 0 0 1.059c.31.303.77.303 1.08 0 .15-.454.15-.907 0-1.059zM847.584 559.091a.754.754 0 0 0-1.079 0 .72.72 0 0 0 0 1.059.756.756 0 0 0 1.079 0c.309-.454.309-.908 0-1.059z" fill="#F2EFFB"/><path opacity=".3" d="M867.017 571.042c.767 0 1.388.61 1.388 1.362 0 .752-.621 1.362-1.388 1.362-.767 0-1.388-.61-1.388-1.362 0-.752.621-1.362 1.388-1.362zM821.212 706.155c.767 0 1.388.61 1.388 1.362 0 .752-.621 1.362-1.388 1.362-.766 0-1.388-.61-1.388-1.362 0-.752.622-1.362 1.388-1.362zM1108.24 441.528c.76 0 1.38.61 1.38 1.362 0 .752-.62 1.362-1.38 1.362-.77 0-1.39-.61-1.39-1.362 0-.752.62-1.362 1.39-1.362z" fill="#F2EFFB"/><path opacity=".3" fill-rule="evenodd" clip-rule="evenodd" d="M857.143 767.128c-.616-.605-1.542-.605-2.005 0-.616.605-.616 1.513 0 1.967.617.605 1.543.605 2.005 0 .617-.454.617-1.362 0-1.967z" fill="#F2EFFB"/><path opacity=".3" d="M913.904 721.737c.766 0 1.388.61 1.388 1.362 0 .752-.622 1.362-1.388 1.362-.767 0-1.388-.61-1.388-1.362 0-.752.621-1.362 1.388-1.362z" fill="#F2EFFB"/><path opacity=".3" d="M706.307 580.576c2.385 0 4.318 1.897 4.318 4.236 0 2.34-1.933 4.237-4.318 4.237s-4.319-1.897-4.319-4.237c0-2.339 1.934-4.236 4.319-4.236z" fill="#FDEFFB"/><path opacity=".3" d="M494.858 494.787c2.385 0 4.318 1.897 4.318 4.236 0 2.34-1.933 4.237-4.318 4.237s-4.319-1.897-4.319-4.237c0-2.339 1.934-4.236 4.319-4.236z" fill="#F2EFFB"/><path opacity=".3" d="M618.549 518.996c2.385 0 4.318 1.896 4.318 4.236s-1.933 4.237-4.318 4.237-4.319-1.897-4.319-4.237 1.934-4.236 4.319-4.236z" fill="#FDEFFB"/><path opacity=".3" d="M761.213 728.547c2.385 0 4.318 1.896 4.318 4.236s-1.933 4.236-4.318 4.236-4.318-1.896-4.318-4.236 1.933-4.236 4.318-4.236zM747.795 772.726c2.385 0 4.318 1.897 4.318 4.237 0 2.339-1.933 4.236-4.318 4.236s-4.318-1.897-4.318-4.236c0-2.34 1.933-4.237 4.318-4.237zM734.53 529.436c1.703 0 3.085 1.355 3.085 3.026 0 1.671-1.382 3.026-3.085 3.026-1.704 0-3.085-1.355-3.085-3.026 0-1.671 1.381-3.026 3.085-3.026zM563.796 451.364c1.703 0 3.084 1.355 3.084 3.026 0 1.671-1.381 3.026-3.084 3.026-1.704 0-3.085-1.355-3.085-3.026 0-1.671 1.381-3.026 3.085-3.026zM588.319 474.815c1.704 0 3.085 1.355 3.085 3.026 0 1.671-1.381 3.026-3.085 3.026s-3.085-1.355-3.085-3.026c0-1.671 1.381-3.026 3.085-3.026zM678.854 735.809c1.704 0 3.085 1.355 3.085 3.026 0 1.671-1.381 3.026-3.085 3.026-1.703 0-3.084-1.355-3.084-3.026 0-1.671 1.381-3.026 3.084-3.026zM818.893 571.647c1.704 0 3.085 1.355 3.085 3.026 0 1.671-1.381 3.026-3.085 3.026-1.703 0-3.084-1.355-3.084-3.026 0-1.671 1.381-3.026 3.084-3.026z" fill="#F2EFFB"/><path opacity=".3" fill-rule="evenodd" clip-rule="evenodd" d="M690.113 777.72c-.926-.908-2.314-.908-3.239 0-.926.908-.926 2.269 0 3.177.925.908 2.313.908 3.239 0 .925-.908.925-2.421 0-3.177z" fill="#F2EFFB"/><path opacity=".3" d="M670.528 820.236c1.278 0 2.314 1.016 2.314 2.27 0 1.253-1.036 2.269-2.314 2.269-1.277 0-2.313-1.016-2.313-2.269 0-1.254 1.036-2.27 2.313-2.27z" fill="#F2EFFB"/><path opacity=".3" fill-rule="evenodd" clip-rule="evenodd" d="M758.441 764.405c-.926-.907-2.314-.907-3.239 0-.926.908-.926 2.27 0 3.178.925.908 2.313.908 3.239 0 .925-.908.925-2.27 0-3.178zM889.226 845.503c-.926-.908-2.314-.908-3.239 0-.925.908-.925 2.27 0 3.177.925.908 2.313.908 3.239 0 .925-.907.925-2.269 0-3.177z" fill="#F2EFFB"/><path opacity=".3" d="M724.197 589.653c.766 0 1.388.61 1.388 1.362 0 .752-.622 1.362-1.388 1.362-.767 0-1.388-.61-1.388-1.362 0-.752.621-1.362 1.388-1.362z" fill="#F2EFFB"/><path opacity=".3" fill-rule="evenodd" clip-rule="evenodd" d="M675.308 744.282c-.617-.605-1.543-.605-2.005 0-.617.605-.617 1.513 0 1.967.616.605 1.542.605 2.005 0 .616-.454.616-1.362 0-1.967z" fill="#F2EFFB"/><path opacity=".3" d="M746.56 762.288c.767 0 1.388.61 1.388 1.362 0 .752-.621 1.362-1.388 1.362-.767 0-1.388-.61-1.388-1.362 0-.752.621-1.362 1.388-1.362zM585.236 731.421c.766 0 1.388.61 1.388 1.362 0 .752-.622 1.361-1.388 1.361-.767 0-1.388-.609-1.388-1.361s.621-1.362 1.388-1.362zM541.283 720.831c.766 0 1.388.61 1.388 1.362 0 .752-.622 1.362-1.388 1.362-.767 0-1.388-.61-1.388-1.362 0-.752.621-1.362 1.388-1.362z" fill="#F2EFFB"/><path opacity=".3" fill-rule="evenodd" clip-rule="evenodd" d="M652.327 719.772c-.617-.605-1.542-.605-2.005 0-.617.606-.617 1.513 0 1.967.617.606 1.542.606 2.005 0 .617-.454.617-1.361 0-1.967zM960.327 527.923c-.617-.605-1.542-.605-2.005 0-.617.605-.617 1.513 0 1.967.617.605 1.542.605 2.005 0 .617-.454.617-1.362 0-1.967zM462.007 456.206c-.617-.605-1.543-.605-2.005 0-.617.605-.617 1.513 0 1.967.617.605 1.542.605 2.005 0 .617-.454.617-1.362 0-1.967z" fill="#F2EFFB"/><path opacity=".3" d="M670.529 712.659c.766 0 1.388.61 1.388 1.362 0 .752-.622 1.362-1.388 1.362-.767 0-1.388-.61-1.388-1.362 0-.752.621-1.362 1.388-1.362z" fill="#F2EFFB"/><path opacity=".3" fill-rule="evenodd" clip-rule="evenodd" d="M569.351 614.013c-.617-.606-1.543-.606-2.005 0-.617.605-.617 1.513 0 1.967.616.605 1.542.605 2.005 0 .616-.606.616-1.362 0-1.967zM800.233 733.843c-.617-.606-1.542-.606-2.005 0-.617.605-.617 1.513 0 1.967.617.605 1.543.605 2.005 0 .463-.454.463-1.362 0-1.967zM1128.59 517.937c-.61-.606-1.54-.606-2 0-.62.605-.62 1.512 0 1.966.61.606 1.54.606 2 0 .62-.454.62-1.361 0-1.966zM691.655 725.218a.755.755 0 0 0-1.08 0 .722.722 0 0 0 0 1.059.757.757 0 0 0 1.08 0 .722.722 0 0 0 0-1.059zM805.788 748.216a.755.755 0 0 0-1.08 0 .72.72 0 0 0 0 1.059.757.757 0 0 0 1.08 0 .722.722 0 0 0 0-1.059zM786.045 735.204a.754.754 0 0 0-1.079 0 .72.72 0 0 0 0 1.059.754.754 0 0 0 1.079 0 1.264 1.264 0 0 0 0-1.059zM916.678 521.87a.754.754 0 0 0-1.079 0 .72.72 0 0 0 0 1.059.754.754 0 0 0 1.079 0 1.271 1.271 0 0 0 0-1.059zM635.209 794.665a.754.754 0 0 0-1.079 0 .72.72 0 0 0 0 1.059.754.754 0 0 0 1.079 0 .72.72 0 0 0 0-1.059zM634.588 844.444a.756.756 0 0 0-1.079 0 .72.72 0 0 0 0 1.059.754.754 0 0 0 1.079 0 .72.72 0 0 0 0-1.059zM1080.63 780.747a.755.755 0 0 0-1.08 0 .72.72 0 0 0 0 1.059c.31.303.77.303 1.08 0a.72.72 0 0 0 0-1.059zM662.045 845.2a.754.754 0 0 0-1.079 0 .72.72 0 0 0 0 1.059.754.754 0 0 0 1.079 0 .72.72 0 0 0 0-1.059zM662.815 835.819a.757.757 0 0 0-1.08 0 .722.722 0 0 0 0 1.059.755.755 0 0 0 1.08 0 .722.722 0 0 0 0-1.059zM752.733 771.667a.755.755 0 0 0-1.08 0 .722.722 0 0 0 0 1.059.755.755 0 0 0 1.08 0c.154-.454.154-.756 0-1.059z" fill="#F2EFFB"/><path opacity=".3" d="M675.154 724.311c.426 0 .771.339.771.757a.764.764 0 0 1-.771.756.764.764 0 0 1-.771-.756c0-.418.345-.757.771-.757z" fill="#F2EFFB"/><path opacity=".3" fill-rule="evenodd" clip-rule="evenodd" d="M757.358 761.077a.757.757 0 0 0-1.08 0 .722.722 0 0 0 0 1.059.755.755 0 0 0 1.08 0 .722.722 0 0 0 0-1.059z" fill="#F2EFFB"/><path opacity=".3" d="M695.048 736.718c.767 0 1.388.61 1.388 1.362 0 .752-.621 1.361-1.388 1.361-.766 0-1.388-.609-1.388-1.361s.622-1.362 1.388-1.362z" fill="#F2EFFB"/><path opacity=".3" fill-rule="evenodd" clip-rule="evenodd" d="M784.347 759.866c-.617-.605-1.543-.605-2.005 0-.617.605-.617 1.513 0 1.967.616.605 1.542.605 2.005 0 .462-.454.462-1.362 0-1.967zM765.222 761.227c-.617-.605-1.543-.605-2.005 0-.617.606-.617 1.514 0 1.967.617.606 1.542.606 2.005 0 .462-.453.462-1.361 0-1.967zM1094.82 555.61c-.62-.605-1.55-.605-2.01 0-.62.606-.62 1.513 0 1.967.62.605 1.54.605 2.01 0 .61-.454.61-1.361 0-1.967zM1070.76 508.555c-1.24-1.211-3.09-1.211-4.32 0-1.24 1.21-1.24 3.026 0 4.236 1.23 1.211 3.08 1.211 4.32 0 1.23-1.21 1.23-3.177 0-4.236z" fill="#F2EFFB"/><path opacity=".3" d="M1040.99 491.308c.76 0 1.38.609 1.38 1.361s-.62 1.362-1.38 1.362c-.77 0-1.39-.61-1.39-1.362 0-.752.62-1.361 1.39-1.361z" fill="#F2EFFB"/><path opacity=".3" fill-rule="evenodd" clip-rule="evenodd" d="M1061.19 484.801c-.61-.605-1.54-.605-2 0-.62.606-.62 1.514 0 1.968.62.605 1.54.605 2 0 .62-.454.62-1.362 0-1.968zM1081.4 497.058a.755.755 0 0 0-1.08 0 .72.72 0 0 0 0 1.059c.31.302.77.302 1.08 0a.72.72 0 0 0 0-1.059zM1065.36 496.452a.755.755 0 0 0-1.08 0 .72.72 0 0 0 0 1.059c.31.303.77.303 1.08 0a.72.72 0 0 0 0-1.059z" fill="#F2EFFB"/><path opacity=".3" d="M1084.79 508.556c.77 0 1.39.609 1.39 1.362 0 .752-.62 1.361-1.39 1.361-.77 0-1.39-.609-1.39-1.361 0-.753.62-1.362 1.39-1.362z" fill="#F2EFFB"/><path opacity=".3" fill-rule="evenodd" clip-rule="evenodd" d="M650.167 784.075c-.617-.605-1.542-.605-2.005 0-.617.605-.617 1.513 0 1.967.617.605 1.542.605 2.005 0 .617-.454.617-1.362 0-1.967z" fill="#F2EFFB"/><path opacity=".3" fill-rule="evenodd" clip-rule="evenodd" d="M478.815 566.958c-.617-.605-1.542-.605-2.005 0-.617.605-.617 1.513 0 1.967.617.605 1.543.605 2.005 0 .463-.605.463-1.513 0-1.967z" fill="#EBCBF8"/><path opacity=".3" fill-rule="evenodd" clip-rule="evenodd" d="M514.909 785.437c-.617-.606-1.542-.606-2.005 0-.617.605-.617 1.513 0 1.966.617.606 1.542.606 2.005 0 .617-.453.617-1.361 0-1.966z" fill="#F2EFFB"/><path opacity=".3" d="M710.626 834.308c.767 0 1.388.609 1.388 1.361s-.621 1.362-1.388 1.362c-.766 0-1.388-.61-1.388-1.362 0-.752.622-1.361 1.388-1.361z" fill="#F2EFFB"/><path opacity=".3" fill-rule="evenodd" clip-rule="evenodd" d="M458.768 554.247c-.616-.605-1.542-.605-2.005 0-.616.605-.616 1.513 0 1.967.617.605 1.543.605 2.005 0 .617-.605.617-1.362 0-1.967z" fill="#EBCBF8"/><path opacity=".3" d="M991.944 763.649c1.704 0 3.085 1.355 3.085 3.026 0 1.671-1.381 3.026-3.085 3.026s-3.085-1.355-3.085-3.026c0-1.671 1.381-3.026 3.085-3.026zM987.78 584.055c1.703 0 3.085 1.355 3.085 3.026 0 1.672-1.382 3.026-3.085 3.026-1.704 0-3.085-1.354-3.085-3.026 0-1.671 1.381-3.026 3.085-3.026zM1513.24 769.852c1.7 0 3.09 1.355 3.09 3.026 0 1.671-1.39 3.026-3.09 3.026s-3.08-1.355-3.08-3.026c0-1.671 1.38-3.026 3.08-3.026z" fill="#F2EFFB"/><path opacity=".3" fill-rule="evenodd" clip-rule="evenodd" d="M1003.2 805.56c-.92-.908-2.31-.908-3.236 0-.926.907-.926 2.269 0 3.177.926.908 2.316.908 3.236 0 .93-.908.93-2.27 0-3.177zM664.667 643.97c-.925-.908-2.313-.908-3.239 0-.925.908-.925 2.269 0 3.177.926.908 2.314.908 3.239 0a2.471 2.471 0 0 0 0-3.177zM988.397 772.273c-.617-.606-1.542-.606-2.005 0-.617.605-.617 1.512 0 1.966.617.606 1.543.606 2.005 0 .463-.454.463-1.361 0-1.966zM1065.82 657.435c-.62-.606-1.54-.606-2.01 0-.61.605-.61 1.513 0 1.966.62.606 1.55.606 2.01 0 .62-.453.62-1.361 0-1.966zM965.417 747.763c-.617-.606-1.542-.606-2.005 0-.617.605-.617 1.513 0 1.967.617.605 1.542.605 2.005 0 .617-.454.617-1.362 0-1.967zM938.577 575.128c-.617-.605-1.542-.605-2.005 0-.617.605-.617 1.513 0 1.967.617.605 1.542.605 2.005 0 .617-.454.617-1.362 0-1.967zM984.694 740.954c-.617-.605-1.542-.605-2.005 0-.617.605-.617 1.513 0 1.967.617.605 1.542.605 2.005 0 .463-.605.463-1.513 0-1.967zM1004.74 753.208a.755.755 0 0 0-1.08 0c-.3.303-.3.756 0 1.059.31.303.78.303 1.08 0a.72.72 0 0 0 0-1.059zM1032.35 811.46a.755.755 0 0 0-1.08 0 .72.72 0 0 0 0 1.059c.31.303.77.303 1.08 0a.72.72 0 0 0 0-1.059zM948.299 822.657a.756.756 0 0 0-1.079 0 .72.72 0 0 0 0 1.059.754.754 0 0 0 1.079 0 .72.72 0 0 0 0-1.059zM988.702 752.605a.755.755 0 0 0-1.08 0 .722.722 0 0 0 0 1.059.757.757 0 0 0 1.08 0c.308-.454.308-.908 0-1.059zM1009.22 765.011c-.62-.606-1.54-.606-2.01 0-.61.605-.61 1.513 0 1.967.62.605 1.54.605 2.01 0 .46-.606.46-1.362 0-1.967zM1107.77 764.103c-.61-.606-1.54-.606-2 0-.62.605-.62 1.513 0 1.966.61.606 1.54.606 2 0 .62-.453.62-1.361 0-1.966zM1617.66 762.893c1.54 1.664 4.16 1.967 5.86.454 1.69-1.513 2-4.085.46-5.75-1.54-1.664-4.17-1.967-5.86-.454-1.7 1.513-1.85 3.934-.46 5.75zM1527.28 660.311c1.54 1.664 4.16 1.967 5.86.454 1.69-1.513 2-4.086.46-5.75-1.54-1.664-4.16-1.967-5.86-.454-1.7 1.513-2 4.085-.46 5.75zM1531.75 411.42c1.54 1.664 4.16 1.967 5.86.454 1.7-1.513 2.01-4.085.46-5.75-1.54-1.664-4.16-1.966-5.86-.453-1.69 1.361-1.85 3.933-.46 5.749zM1583.11 418.229c1.54 1.664 4.16 1.967 5.86.454 1.7-1.513 2.01-4.086.46-5.75-1.54-1.664-4.16-1.967-5.86-.454-1.85 1.362-2 3.934-.46 5.75z" fill="#F2EFFB"/><path opacity=".3" fill-rule="evenodd" clip-rule="evenodd" d="M1799.8 423.676c1.55 1.664 4.17 1.967 5.86.454 1.7-1.513 2.01-4.085.47-5.75-1.54-1.664-4.17-1.966-5.86-.453-1.7 1.361-1.85 3.933-.47 5.749z" fill="#FDEFFB"/><path opacity=".3" fill-rule="evenodd" clip-rule="evenodd" d="M1570.16 612.953c1.54 1.665 4.16 1.967 5.86.454 1.69-1.513 2-4.085.46-5.749-1.54-1.664-4.17-1.967-5.86-.454-1.7 1.513-1.85 4.085-.46 5.749z" fill="#F2EFFB"/><path opacity=".3" fill-rule="evenodd" clip-rule="evenodd" d="M1755.69 365.879c1.55 1.664 4.17 1.967 5.87.454 1.69-1.513 2-4.085.46-5.749-1.54-1.665-4.17-1.967-5.86-.454-1.7 1.361-1.85 3.934-.47 5.749z" fill="#FDEFFB"/><path opacity=".3" fill-rule="evenodd" clip-rule="evenodd" d="M1836.2 393.718c1.08 1.21 2.93 1.361 4.17.302 1.23-1.059 1.38-2.875.31-4.085-1.08-1.21-2.94-1.362-4.17-.303-1.23 1.06-1.39 2.875-.31 4.086zM1650.51 613.255c1.08 1.21 2.93 1.361 4.16.302 1.24-1.059 1.39-2.874.31-4.085-1.08-1.21-2.93-1.362-4.16-.302-1.24.907-1.39 2.874-.31 4.085zM1645.27 573.16c.77.908 2.16 1.059 3.08.303.93-.757 1.08-2.118.31-3.026-.77-.908-2.16-1.059-3.08-.303-.93.757-1.08 2.118-.31 3.026zM1735.8 457.719c.77.908 2.16 1.059 3.08.302.93-.756 1.08-2.118.31-3.026-.77-.907-2.16-1.059-3.08-.302-.93.756-1.08 2.118-.31 3.026zM1892.35 345.756c.77.908 2.15 1.059 3.08.302.93-.756 1.08-2.118.31-3.026-.77-.907-2.16-1.059-3.09-.302-.92.756-1.08 2.118-.3 3.026zM1603.31 753.664c.47.605 1.39.605 2.01.151.62-.454.62-1.362.15-1.967-.46-.605-1.38-.605-2-.151-.62.605-.62 1.513-.16 1.967zM1656.68 606.297c.46.605 1.39.605 2 .151.62-.454.62-1.362.16-1.967-.47-.605-1.39-.605-2.01-.151-.62.605-.62 1.361-.15 1.967zM1676.57 719.621c.46.605 1.39.605 2.01.151.61-.454.61-1.362.15-1.967-.46-.605-1.39-.605-2-.151-.62.605-.62 1.513-.16 1.967zM1657.6 724.613c.47.605 1.39.605 2.01.151.62-.454.62-1.361.15-1.967-.46-.605-1.39-.605-2-.151-.62.605-.62 1.513-.16 1.967zM1689.84 705.851c.46.605 1.39.605 2 .151.62-.453.62-1.361.16-1.966-.47-.606-1.39-.606-2.01-.152-.46.454-.61 1.362-.15 1.967zM1536.22 606.144c.47.605 1.39.605 2.01.152.62-.454.62-1.362.15-1.967-.46-.606-1.38-.606-2-.152-.62.454-.62 1.362-.16 1.967zM1639.41 711.298c.3.303.61.303.92.151.31-.302.31-.605.16-.908-.31-.302-.62-.302-.93-.151-.46.152-.46.605-.15.908zM1877.69 714.022c.31.302.93.453 1.24.151.3-.303.46-.908.15-1.211-.31-.302-.93-.454-1.23-.151-.47.303-.47.908-.16 1.211zM1767.11 518.693c.31.302.62.302.92.151.31-.303.31-.605.16-.908-.31-.303-.62-.302-.93-.151-.31.302-.31.605-.15.908zM1881.39 412.025c.31.302.62.302.93.151.3-.303.3-.605.15-.908-.31-.302-.62-.302-.93-.151-.3.151-.3.605-.15.908zM1699.25 561.359c.3.302.61.302.92.151.31-.303.31-.605.16-.908-.31-.303-.62-.303-.93-.151-.31.151-.46.605-.15.908zM1777.9 504.622c.31.303.62.303.93.152.31-.152.31-.606.15-.908-.31-.303-.61-.303-.92-.152-.31.152-.47.606-.16.908z" fill="#F2EFFB"/><path opacity=".3" fill-rule="evenodd" clip-rule="evenodd" d="M1654.68 713.265c.3.302.61.302.92.151.31-.302.31-.605.16-.908-.31-.302-.62-.302-.93-.151-.46.151-.46.605-.15.908z" fill="#FDEFFB"/><path opacity=".3" fill-rule="evenodd" clip-rule="evenodd" d="M1755.85 542.599c.31.302.62.302.93.151.31-.302.31-.605.15-.908-.31-.302-.62-.302-.92-.151-.47.303-.47.605-.16.908zM1896.82 428.972c.3.302.61.302.92.151.31-.302.31-.605.16-.908-.31-.302-.62-.302-.93-.151-.31.151-.31.605-.15.908zM1636.17 611.591c.46.606 1.38.606 2 .152.62-.454.62-1.362.16-1.967-.47-.605-1.39-.605-2.01-.151-.62.453-.77 1.361-.15 1.966zM1683.98 570.287c.46.605 1.39.605 2 .151.62-.454.62-1.362.16-1.967-.47-.605-1.39-.605-2.01-.151-.61.454-.61 1.362-.15 1.967zM1848.08 359.675c.46.606 1.38.606 2 .152.62-.454.62-1.362.16-1.967-.47-.605-1.39-.605-2.01-.152-.62.606-.62 1.514-.15 1.967zM1556.74 462.408c.46.605 1.38.605 2 .151.62-.454.62-1.362.16-1.967-.47-.605-1.39-.605-2.01-.151-.46.605-.62 1.362-.15 1.967zM1749.37 576.49c.46.605 1.39.605 2 .151.62-.454.62-1.362.16-1.967-.46-.605-1.39-.605-2.01-.151-.61.454-.61 1.362-.15 1.967zM1852.55 354.228c.47.605 1.39.606 2.01.152.61-.454.61-1.362.15-1.967-.46-.606-1.39-.606-2-.152-.62.454-.62 1.362-.16 1.967zM1655.75 509.463c.46.605 1.39.605 2.01.151.61-.454.61-1.362.15-1.967-.46-.605-1.39-.605-2-.151-.62.454-.77 1.361-.16 1.967zM1633.54 445.765c.47.606 1.39.606 2.01.152.62-.454.62-1.362.15-1.967-.46-.605-1.38-.605-2-.152-.62.606-.62 1.362-.16 1.967zM1596.53 547.894c.46.605 1.39.605 2 .151.62-.453.62-1.361.16-1.966-.46-.606-1.39-.606-2.01-.152-.61.605-.61 1.362-.15 1.967zM1470.21 525.501c-.77 0-1.38.454-1.54 1.211 0 .756.46 1.361 1.24 1.512.77 0 1.38-.453 1.54-1.21 0-.908-.46-1.513-1.24-1.513zM1858.41 412.025c-1.69-.152-3.08 1.059-3.24 2.572a2.92 2.92 0 0 0 2.63 3.177c1.69.151 3.08-1.059 3.23-2.572.31-1.664-.92-3.026-2.62-3.177z" fill="#F2EFFB"/><path opacity=".3" fill-rule="evenodd" clip-rule="evenodd" d="M1753.84 846.714c1.55 1.815 4.32 1.967 6.17.454 1.85-1.513 2.01-4.237.47-6.052-1.55-1.816-4.32-1.967-6.17-.454-1.7 1.513-2.01 4.236-.47 6.052z" fill="#FDEFFB"/><path opacity=".3" fill-rule="evenodd" clip-rule="evenodd" d="M1664.39 484.499c1.54 1.815 4.32 1.967 6.17.454 1.85-1.513 2.01-4.237.46-6.052-1.54-1.816-4.32-1.967-6.17-.454-1.69 1.513-2 4.236-.46 6.052zM1717.75 491.61c1.55 1.816 4.32 1.967 6.17.454 1.85-1.513 2.01-4.236.47-6.052-1.55-1.816-4.32-1.967-6.17-.454-1.7 1.513-2.01 4.236-.47 6.052z" fill="#F2EFFB"/><path opacity=".3" fill-rule="evenodd" clip-rule="evenodd" d="M1704.33 782.259c1.55 1.815 4.32 1.966 6.17.453 1.85-1.513 2.01-4.236.46-6.052-1.54-1.815-4.31-1.967-6.16-.454-1.86 1.513-2.01 4.388-.47 6.053z" fill="#EBCBF8"/><path opacity=".3" fill-rule="evenodd" clip-rule="evenodd" d="M1897.43 437.141c1.55 1.816 4.32 1.967 6.17.454 1.85-1.513 2.01-4.236.47-6.052-1.55-1.815-4.32-1.967-6.17-.454-1.85 1.513-2.01 4.237-.47 6.052zM1722.07 895.735c1.08 1.211 3.09 1.362 4.32.303 1.24-1.059 1.39-3.026.31-4.237-1.08-1.21-3.08-1.361-4.32-.302-1.23 1.059-1.39 2.874-.31 4.236z" fill="#F2EFFB"/><path opacity=".3" fill-rule="evenodd" clip-rule="evenodd" d="M1787.93 782.561c1.08 1.211 3.08 1.362 4.32.303 1.23-1.059 1.39-3.026.31-4.236-1.08-1.211-3.09-1.362-4.32-.303-1.24 1.059-1.39 2.875-.31 4.236z" fill="#EBCBF8"/><path opacity=".3" fill-rule="evenodd" clip-rule="evenodd" d="M1559.82 747.307c1.08 1.211 3.09 1.362 4.32.303 1.24-1.059 1.39-3.026.31-4.236-1.08-1.211-3.08-1.362-4.32-.303-1.23 1.059-1.39 3.026-.31 4.236zM1782.53 740.953c.77.908 2.16 1.059 3.24.303.93-.757 1.08-2.118.31-3.178-.77-.907-2.16-1.059-3.24-.302-1.08.756-1.23 2.269-.31 3.177zM1876.76 532.611c.78.908 2.16 1.059 3.24.303.93-.757 1.08-2.118.31-3.177-.77-.908-2.16-1.06-3.24-.303-1.08.908-1.23 2.27-.31 3.177zM1738.88 837.181c.47.605 1.39.605 2.01.152.62-.454.62-1.362.15-1.967-.46-.605-1.38-.605-2-.152-.62.454-.62 1.362-.16 1.967z" fill="#F2EFFB"/><path opacity=".3" fill-rule="evenodd" clip-rule="evenodd" d="M1794.4 775.298c.47.606 1.39.606 2.01.152.62-.454.62-1.362.15-1.967-.46-.605-1.38-.605-2-.151-.62.605-.77 1.361-.16 1.966zM1815.08 801.777c.46.605 1.38.605 2 .151.62-.454.62-1.361.16-1.967-.47-.605-1.39-.605-2.01-.151-.62.454-.62 1.362-.15 1.967z" fill="#EBCBF8"/><path opacity=".3" fill-rule="evenodd" clip-rule="evenodd" d="M1795.33 806.922c.47.605 1.39.605 2.01.151.62-.454.62-1.362.15-1.967-.46-.605-1.38-.605-2-.151-.62.454-.77 1.361-.16 1.967z" fill="#F2EFFB"/><path opacity=".3" fill-rule="evenodd" clip-rule="evenodd" d="M1828.95 787.252c.47.605 1.39.605 2.01.151.62-.454.62-1.362.15-1.967-.46-.605-1.38-.605-2-.151-.62.605-.62 1.361-.16 1.967z" fill="#EBCBF8"/><path opacity=".3" fill-rule="evenodd" clip-rule="evenodd" d="M1669.02 775.148c.46.605 1.39.605 2 .151.62-.453.62-1.361.16-1.966-.47-.606-1.39-.606-2.01-.152-.62.454-.62 1.362-.15 1.967z" fill="#F2EFFB"/><path opacity=".3" fill-rule="evenodd" clip-rule="evenodd" d="M1776.36 793.001c.31.303.77.303 1.08.151.31-.302.31-.756.16-1.059-.31-.302-.77-.302-1.08-.151-.31.303-.46.757-.16 1.059z" fill="#EBCBF8"/><path opacity=".3" fill-rule="evenodd" clip-rule="evenodd" d="M1909.31 596.159c.31.303.77.303 1.08.152.31-.303.31-.757.15-1.06-.31-.302-.77-.302-1.08-.151-.31.303-.31.757-.15 1.059zM1838.67 728.546c.31.303.77.303 1.08.151.31-.302.31-.756.16-1.059-.31-.302-.78-.302-1.08-.151-.31.303-.47.757-.16 1.059zM1792.25 794.968c.3.303.77.303 1.08.151.3-.302.3-.756.15-1.059-.31-.303-.77-.303-1.08-.151-.31.302-.46.756-.15 1.059zM1897.59 709.181c.3.302.77.302 1.08.151.3-.303.3-.756.15-1.059-.31-.303-.77-.303-1.08-.151-.46.302-.46.756-.15 1.059z" fill="#F2EFFB"/><path opacity=".3" fill-rule="evenodd" clip-rule="evenodd" d="M1772.97 780.896c.46.605 1.39.605 2.01.151.61-.453.61-1.361.15-1.966-.46-.606-1.39-.606-2.01-.152-.61.454-.61 1.362-.15 1.967z" fill="#EBCBF8"/><path opacity=".3" fill-rule="evenodd" clip-rule="evenodd" d="M1822.78 737.927c.47.606 1.39.606 2.01.152.61-.454.61-1.362.15-1.967-.46-.605-1.39-.605-2-.152-.62.454-.62 1.362-.16 1.967zM1690.45 537.605c.47.605 1.39.605 2.01.151.62-.454.62-1.361.15-1.967-.46-.605-1.38-.605-2-.151-.62.454-.62 1.362-.16 1.967zM1671.33 432.451c.46.605 1.39.605 2 .151.62-.454.62-1.362.16-1.967-.46-.605-1.39-.605-2.01-.151-.61.454-.61 1.362-.15 1.967zM1890.8 744.283c.47.605 1.39.605 2.01.151.61-.454.61-1.362.15-1.967-.46-.605-1.39-.605-2-.151-.62.454-.62 1.362-.16 1.967zM1815.85 365.273c.46.605 1.38.605 2 .152.62-.454.62-1.362.15-1.967-.46-.605-1.38-.606-2-.152-.62.454-.77 1.362-.15 1.967zM1699.09 413.236c.46.605 1.39.605 2.01.151.61-.454.61-1.362.15-1.967-.46-.605-1.39-.605-2-.151-.62.454-.62 1.362-.16 1.967zM1807.98 395.988c.46.605 1.39.605 2 .151.62-.454.62-1.361.16-1.967-.46-.605-1.39-.605-2.01-.151-.46.454-.61 1.362-.15 1.967zM1793.33 586.476c.46.605 1.38.605 2 .152.62-.454.62-1.362.16-1.967-.47-.606-1.39-.606-2.01-.152-.62.454-.62 1.362-.15 1.967zM1912.86 359.826c.46.605 1.39.605 2 .151.62-.454.62-1.362.16-1.967-.47-.605-1.39-.605-2.01-.151-.46.454-.62 1.362-.15 1.967zM1770.35 520.357c.46.605 1.38.605 2 .151.62-.454.62-1.361.15-1.967-.46-.605-1.38-.605-2-.151-.62.454-.62 1.362-.15 1.967zM1731.79 714.627c.46.605 1.39.605 2.01.151.61-.454.61-1.362.15-1.967-.46-.605-1.39-.605-2-.151-.62.454-.62 1.361-.16 1.967zM1535.61 557.123c-.77 0-1.54.454-1.54 1.362 0 .757.46 1.513 1.38 1.513.78 0 1.55-.454 1.55-1.362 0-.756-.62-1.361-1.39-1.513zM1600.39 603.119c-.78 0-1.55.454-1.55 1.362 0 .756.47 1.513 1.39 1.513.77 0 1.54-.454 1.54-1.362 0-.756-.61-1.361-1.38-1.513zM1678.11 855.337c-.46 0-.77.303-.77.606 0 .453.31.756.62.756.46 0 .77-.302.77-.605.16-.454-.15-.757-.62-.757zM1599.15 741.408c-.77 0-1.54.454-1.54 1.362 0 .757.46 1.513 1.39 1.513.77 0 1.54-.454 1.54-1.362 0-.756-.62-1.513-1.39-1.513zM1549.8 720.527c-1.7-.151-3.24 1.059-3.4 2.723a3.071 3.071 0 0 0 2.78 3.329c1.7.151 3.24-1.059 3.39-2.724.16-1.815-1.08-3.177-2.77-3.328zM1550.42 705.095c-.47 0-.78.303-.78.605 0 .454.31.757.62.757.46 0 .77-.303.77-.605.16-.454-.15-.757-.61-.757zM1537.77 714.626c-.47 0-.77.303-.77.606 0 .454.3.756.61.756s.77-.302.77-.605-.3-.605-.61-.757zM1561.52 711.299c-.77 0-1.54.454-1.54 1.362 0 .756.46 1.513 1.38 1.513.78 0 1.55-.454 1.55-1.362 0-.757-.62-1.513-1.39-1.513zM1687.99 825.379c-.77 0-1.54.454-1.54 1.362 0 .756.46 1.513 1.38 1.513.77 0 1.55-.454 1.55-1.362 0-.756-.47-1.362-1.39-1.513zM1831.88 787.706c.62 1.06 1.86 1.362 2.93.757 1.08-.605 1.39-1.816.78-2.875-.62-1.059-1.85-1.362-2.93-.756-.93.454-1.24 1.815-.78 2.874zM1784.69 808.888c.15.303.62.454.93.303.3-.152.46-.606.3-.908-.15-.303-.61-.454-.92-.303-.46.151-.46.454-.31.908zM1874.61 768.491c.15.303.61.454.92.303.31-.151.46-.605.31-.908-.15-.302-.62-.454-.93-.302-.46.151-.61.605-.3.907zM1895.12 754.269c.15.302.62.454.92.302.31-.151.47-.605.31-.907-.15-.303-.61-.454-.92-.303-.31.151-.47.454-.31.908zM1796.88 828.103c.15.302.61.454.92.302.31-.151.46-.605.31-.907-.16-.303-.62-.454-.93-.303-.46.151-.61.605-.3.908z" fill="#F2EFFB"/><path opacity=".3" fill-rule="evenodd" clip-rule="evenodd" d="M1830.5 903.451c1.23 1.967 3.85 2.723 5.86 1.513 2-1.211 2.77-3.783 1.54-5.75-1.23-1.966-3.86-2.723-5.86-1.513-2.16 1.06-2.78 3.632-1.54 5.75z" fill="#FDEFFB"/><path opacity=".3" fill-rule="evenodd" clip-rule="evenodd" d="M1795.95 836.273c1.23 1.967 3.86 2.724 5.86 1.513 2.01-1.21 2.78-3.782 1.54-5.749-1.23-1.967-3.85-2.724-5.86-1.513-2 1.21-2.77 3.782-1.54 5.749zM1873.22 879.243c.77 1.513 2.78 1.966 4.17 1.059 1.54-.757 2-2.724 1.08-4.085-.78-1.513-2.78-1.967-4.17-1.06-1.39.757-2 2.573-1.08 4.086zM1758.47 926.904c.62 1.059 2.01 1.361 3.09.756s1.39-1.967.77-3.026c-.62-1.059-2.01-1.362-3.09-.756-.92.605-1.38 1.967-.77 3.026zM1779.29 994.988c.16.302.62.453.93.302.31-.151.46-.605.31-.908-.16-.302-.62-.454-.93-.302-.31.151-.46.605-.31.908zM1916.25 906.023c.15.302.62.454.93.302.3-.151.46-.605.3-.908-.15-.302-.61-.453-.92-.302-.46.151-.62.605-.31.908zM1793.02 982.431c.15.302.62.454.93.302.3-.151.46-.605.3-.907-.15-.303-.61-.454-.92-.303-.46.151-.62.605-.31.908zM1763.25 1017.53c.16.31.62.46.93.31.31-.16.46-.61.31-.91-.16-.31-.62-.46-.93-.31-.46.16-.46.46-.31.91zM1891.57 846.562c.46.605 1.24.908 2.01.454.61-.454.92-1.211.46-1.967-.46-.605-1.23-.908-2.01-.454-.61.303-.77 1.21-.46 1.967zM1897.28 841.72c.46.605 1.23.908 2 .454.62-.454.93-1.21.47-1.967-.47-.605-1.24-.908-2.01-.454-.61.303-.77 1.211-.46 1.967zM1876.15 758.656c.46.605 1.23.907 2 .453.62-.453.93-1.21.47-1.966-.47-.606-1.24-.908-2.01-.454-.62.302-.92 1.21-.46 1.967zM1855.18 767.128c.46.605 1.23.908 2 .454.62-.454.93-1.21.46-1.967-.46-.605-1.23-.908-2-.454-.62.454-.93 1.362-.46 1.967zM1892.65 901.939c-1.69-.454-3.39.454-3.7 2.118-.46 1.664.46 3.329 2.16 3.631 1.7.454 3.39-.454 3.7-2.118.46-1.513-.46-3.177-2.16-3.631zM1904.68 814.789c2.16.757 4.63-.302 5.4-2.42.77-2.119-.31-4.54-2.47-5.296-2.16-.757-4.63.303-5.4 2.421-.77 2.118.31 4.539 2.47 5.295zM1871.68 825.531c.77.302 1.54-.152 1.85-.757.31-.756-.16-1.513-.77-1.816-.77-.302-1.54.152-1.85.757-.31.756.15 1.513.77 1.816zM1894.35 745.491c.77.303 1.54-.151 1.85-.756.31-.757-.16-1.513-.77-1.816-.78-.302-1.55.152-1.85.757-.31.756 0 1.513.77 1.815zM1919.34 859.877c1.54.605 3.39-.303 3.85-1.816.62-1.513-.31-3.329-1.85-3.782-1.54-.606-3.39.302-3.86 1.815-.61 1.513.16 3.178 1.86 3.783zM1846.23 783.318c-.77.302-1.08 1.21-.77 1.815.31.757 1.23 1.059 1.85.757.77-.303 1.08-1.211.77-1.816-.31-.756-1.08-1.059-1.85-.756z" fill="#F2EFFB"/><path opacity=".3" fill-rule="evenodd" clip-rule="evenodd" d="M1896.82 841.569c-1.54.757-2.16 2.421-1.54 3.934.77 1.513 2.46 2.118 4.01 1.513 1.54-.756 2.15-2.421 1.54-3.934-.62-1.513-2.47-2.269-4.01-1.513zM1889.57 827.953c-.31.151-.46.605-.31.908.15.302.62.453.93.302.3-.151.46-.605.3-.908-.15-.302-.61-.454-.92-.302zM1883.55 842.476c-.31.152-.46.605-.31.908.16.303.62.454.93.303.31-.152.46-.606.31-.908-.16-.303-.62-.454-.93-.303zM1902.37 827.8c-.77.303-1.08 1.211-.77 1.816.31.756 1.23 1.059 1.85.756.77-.302 1.08-1.21.77-1.815-.31-.757-1.08-1.059-1.85-.757zM10.11 908.898c.154.302.617.454.925.302.309-.151.463-.605.309-.908-.155-.302-.617-.453-.926-.302-.463.151-.617.454-.308.908zM.394 842.629c1.543.605 3.393-.303 3.856-1.816.617-1.513-.308-3.329-1.85-3.783-1.543-.605-3.394.303-3.856 1.816a3.1 3.1 0 0 0 1.85 3.783z" fill="#F2EFFB"/><path opacity=".3" d="M962.329 811.612c.767 0 1.389.61 1.389 1.362 0 .752-.622 1.362-1.389 1.362-.766 0-1.388-.61-1.388-1.362 0-.752.622-1.362 1.388-1.362z" fill="#F2EFFB"/><path opacity=".3" fill-rule="evenodd" clip-rule="evenodd" d="M685.179 844.747c-.617-.605-1.543-.605-2.005 0-.617.605-.617 1.513 0 1.967.617.605 1.542.605 2.005 0 .617-.605.617-1.513 0-1.967zM664.819 908.747c-.617-.605-1.542-.605-2.005 0-.617.605-.617 1.513 0 1.967.617.605 1.543.605 2.005 0 .463-.605.463-1.513 0-1.967zM743.015 799.507c-.617-.605-1.543-.605-2.005 0-.617.605-.617 1.513 0 1.967.617.605 1.542.605 2.005 0 .462-.454.462-1.362 0-1.967z" fill="#F2EFFB"/><path opacity=".3" fill-rule="evenodd" clip-rule="evenodd" d="M422.52 604.178c0 2.42 2.005 4.236 4.318 4.236 2.468 0 4.318-1.967 4.318-4.236 0-2.421-2.005-4.237-4.318-4.237-2.313 0-4.318 1.967-4.318 4.237zM426.84 523.685c0 2.421 2.005 4.237 4.318 4.237 2.314 0 4.319-1.967 4.319-4.237 0-2.269-2.005-4.236-4.319-4.236-2.313 0-4.318 1.967-4.318 4.236zM366.074 709.786c0 1.665 1.388 3.026 3.085 3.026 1.696 0 3.084-1.361 3.084-3.026 0-1.664-1.388-3.026-3.084-3.026-1.697 0-3.085 1.362-3.085 3.026z" fill="#EBCBF8"/><path opacity=".3" fill-rule="evenodd" clip-rule="evenodd" d="M490.691 576.64c0 1.664 1.388 3.026 3.085 3.026s3.085-1.362 3.085-3.026c0-1.664-1.388-3.026-3.085-3.026s-3.085 1.362-3.085 3.026zM339.238 405.671c0 1.664 1.388 3.026 3.085 3.026 1.696 0 3.085-1.362 3.085-3.026 0-1.664-1.389-3.026-3.085-3.026-1.851.151-3.085 1.513-3.085 3.026z" fill="#F2EFFB"/><path opacity=".3" fill-rule="evenodd" clip-rule="evenodd" d="M336.77 533.218c0 1.664 1.388 3.026 3.084 3.026 1.697 0 3.085-1.362 3.085-3.026 0-1.664-1.388-3.026-3.085-3.026-1.696 0-3.084 1.362-3.084 3.026z" fill="#EBCBF8"/><path opacity=".3" fill-rule="evenodd" clip-rule="evenodd" d="M513.828 541.387c0 1.21 1.08 2.269 2.314 2.269 1.233 0 2.313-1.059 2.313-2.269 0-1.211-1.08-2.27-2.313-2.27-1.388 0-2.314.908-2.314 2.27z" fill="#F2EFFB"/><path opacity=".3" fill-rule="evenodd" clip-rule="evenodd" d="M417.277 587.535a1.37 1.37 0 0 0 1.388 1.361 1.37 1.37 0 0 0 1.389-1.361 1.37 1.37 0 0 0-1.389-1.362c-.771-.151-1.388.454-1.388 1.362z" fill="#EBCBF8"/><path opacity=".3" fill-rule="evenodd" clip-rule="evenodd" d="M500.254 575.128a1.37 1.37 0 0 0 1.388 1.362 1.37 1.37 0 0 0 1.388-1.362 1.37 1.37 0 0 0-1.388-1.361 1.37 1.37 0 0 0-1.388 1.361z" fill="#F2EFFB"/><path opacity=".3" fill-rule="evenodd" clip-rule="evenodd" d="M498.867 608.414a1.37 1.37 0 0 0 1.388 1.361 1.37 1.37 0 0 0 1.388-1.361 1.37 1.37 0 0 0-1.388-1.362 1.37 1.37 0 0 0-1.388 1.362z" fill="#EBCBF8"/><path opacity=".3" fill-rule="evenodd" clip-rule="evenodd" d="M480.359 599.941a1.37 1.37 0 0 0 1.388 1.362 1.37 1.37 0 0 0 1.389-1.362 1.37 1.37 0 0 0-1.389-1.362 1.37 1.37 0 0 0-1.388 1.362zM518.918 606.144a1.37 1.37 0 0 0 1.388 1.362 1.37 1.37 0 0 0 1.388-1.362 1.37 1.37 0 0 0-1.388-1.362 1.37 1.37 0 0 0-1.388 1.362z" fill="#F2EFFB"/><path opacity=".3" fill-rule="evenodd" clip-rule="evenodd" d="M404.477 495.997c0 .757.616 1.362 1.388 1.362a1.37 1.37 0 0 0 1.388-1.362 1.37 1.37 0 0 0-1.388-1.361c-.772-.152-1.388.605-1.388 1.361zM474.961 577.245c0 .454.308.757.771.757s.771-.303.771-.757-.308-.756-.771-.756c-.463.151-.771.454-.771.756z" fill="#EBCBF8"/><path opacity=".3" fill-rule="evenodd" clip-rule="evenodd" d="M485.758 588.896c0 .454.308.756.771.756s.771-.302.771-.756-.308-.757-.771-.757-.771.303-.771.757zM480.359 565.898a1.37 1.37 0 0 0 1.388 1.362 1.37 1.37 0 0 0 1.389-1.362 1.37 1.37 0 0 0-1.389-1.362 1.37 1.37 0 0 0-1.388 1.362zM518.918 394.929a1.37 1.37 0 0 0 1.388 1.362 1.37 1.37 0 0 0 1.388-1.362 1.37 1.37 0 0 0-1.388-1.362 1.37 1.37 0 0 0-1.388 1.362zM492.234 489.189a1.37 1.37 0 0 0 1.388 1.362 1.37 1.37 0 0 0 1.388-1.362c0-.757-.616-1.362-1.388-1.362a1.37 1.37 0 0 0-1.388 1.362zM159.715 374.655c-1.696-1.665-4.473-1.665-6.169 0a4.234 4.234 0 0 0 0 6.052c1.696 1.664 4.473 1.664 6.169 0a4.234 4.234 0 0 0 0-6.052zM339.856 386.305c-1.697-1.664-4.473-1.664-6.17 0a4.235 4.235 0 0 0 0 6.052c1.697 1.664 4.473 1.664 6.17 0a4.235 4.235 0 0 0 0-6.052z" fill="#F2EFFB"/><path opacity=".3" d="M211.533 433.359c2.385 0 4.319 1.897 4.319 4.237 0 2.339-1.934 4.236-4.319 4.236s-4.318-1.897-4.318-4.236c0-2.34 1.933-4.237 4.318-4.237z" fill="#FDEFFB"/><path opacity=".3" d="M129.174 440.471c1.704 0 3.085 1.355 3.085 3.026 0 1.672-1.381 3.026-3.085 3.026-1.703 0-3.084-1.354-3.084-3.026 0-1.671 1.381-3.026 3.084-3.026zM269.217 364.516c1.704 0 3.085 1.355 3.085 3.026 0 1.671-1.381 3.026-3.085 3.026-1.703 0-3.084-1.355-3.084-3.026 0-1.671 1.381-3.026 3.084-3.026zM138.892 481.623c1.277 0 2.313 1.016 2.313 2.269 0 1.254-1.036 2.27-2.313 2.27-1.278 0-2.314-1.016-2.314-2.27 0-1.253 1.036-2.269 2.314-2.269z" fill="#F2EFFB"/><path opacity=".3" fill-rule="evenodd" clip-rule="evenodd" d="M175.444 382.825c-.617-.605-1.542-.605-2.005 0-.617.605-.617 1.513 0 1.967.617.605 1.543.605 2.005 0 .463-.454.463-1.362 0-1.967zM125.628 449.095c-.617-.606-1.542-.606-2.005 0-.617.605-.617 1.513 0 1.966.617.606 1.542.606 2.005 0 .463-.453.463-1.361 0-1.966zM102.647 424.583c-.617-.605-1.542-.605-2.005 0-.617.605-.617 1.513 0 1.967.617.605 1.543.605 2.005 0 .463-.605.463-1.362 0-1.967z" fill="#F2EFFB"/><path opacity=".3" d="M120.849 417.321c.767 0 1.388.61 1.388 1.362 0 .752-.621 1.362-1.388 1.362-.767 0-1.388-.61-1.388-1.362 0-.752.621-1.362 1.388-1.362zM249.474 438.353c.767 0 1.388.609 1.388 1.361s-.621 1.362-1.388 1.362c-.767 0-1.388-.61-1.388-1.362 0-.752.621-1.361 1.388-1.361z" fill="#F2EFFB"/><path opacity=".3" fill-rule="evenodd" clip-rule="evenodd" d="M141.975 430.03a.757.757 0 0 0-1.08 0 .722.722 0 0 0 0 1.059.755.755 0 0 0 1.08 0 .722.722 0 0 0 0-1.059zM85.53 499.478a.755.755 0 0 0-1.08 0 .722.722 0 0 0 0 1.059.756.756 0 0 0 1.08 0 .722.722 0 0 0 0-1.059zM125.936 429.425a.755.755 0 0 0-1.08 0 .722.722 0 0 0 0 1.059.757.757 0 0 0 1.08 0c.308-.454.308-.908 0-1.059zM146.448 441.831c-.617-.605-1.542-.605-2.005 0-.617.605-.617 1.513 0 1.967.617.605 1.542.605 2.005 0 .463-.605.463-1.513 0-1.967z" fill="#F2EFFB"/><path opacity=".3" d="M99.408 488.433c.766 0 1.388.609 1.388 1.362 0 .752-.622 1.361-1.388 1.361-.767 0-1.389-.609-1.389-1.361 0-.753.622-1.362 1.389-1.362z" fill="#F2EFFB"/><path opacity=".3" fill-rule="evenodd" clip-rule="evenodd" d="M135.499 549.407c-.617-.605-1.542-.605-2.005 0-.617.605-.617 1.513 0 1.967.617.605 1.542.605 2.005 0 .463-.454.463-1.362 0-1.967z" fill="#F2EFFB"/><path opacity=".3" d="M192.255 504.017c.767 0 1.388.609 1.388 1.362 0 .752-.621 1.361-1.388 1.361-.766 0-1.388-.609-1.388-1.361 0-.753.622-1.362 1.388-1.362z" fill="#F2EFFB"/><path opacity=".3" fill-rule="evenodd" clip-rule="evenodd" d="M42.653 512.035c-1.697-1.664-4.473-1.664-6.17 0a4.236 4.236 0 0 0 0 6.053c1.697 1.664 4.473 1.664 6.17 0a4.236 4.236 0 0 0 0-6.053z" fill="#F2EFFB"/><path opacity=".3" d="M26.15 555.004c2.386 0 4.319 1.896 4.319 4.236s-1.934 4.236-4.319 4.236c-2.384 0-4.318-1.896-4.318-4.236s1.933-4.236 4.319-4.236zM12.885 399.77c1.704 0 3.085 1.355 3.085 3.026 0 1.671-1.381 3.026-3.085 3.026-1.703 0-3.084-1.355-3.084-3.026 0-1.671 1.38-3.026 3.084-3.026zM97.249 441.983c1.703 0 3.084 1.355 3.084 3.026 0 1.671-1.38 3.026-3.084 3.026-1.704 0-3.085-1.355-3.085-3.026 0-1.671 1.381-3.026 3.085-3.026z" fill="#F2EFFB"/><path opacity=".3" fill-rule="evenodd" clip-rule="evenodd" d="M36.792 546.683c-.925-.908-2.313-.908-3.239 0-.925.908-.925 2.269 0 3.177.926.908 2.314.908 3.24 0 .925-.908.925-2.269 0-3.177zM167.577 715.837c-.925-.908-2.313-.908-3.238 0-.926.908-.926 2.27 0 3.177.925.908 2.313.908 3.238 0a2.469 2.469 0 0 0 0-3.177z" fill="#F2EFFB"/><path opacity=".3" d="M2.396 459.987c.767 0 1.388.61 1.388 1.362 0 .752-.621 1.362-1.388 1.362-.767 0-1.388-.61-1.388-1.362 0-.752.621-1.362 1.388-1.362z" fill="#F2EFFB"/><path opacity=".3" fill-rule="evenodd" clip-rule="evenodd" d="M25.839 545.018c-.617-.605-1.542-.605-2.005 0-.617.606-.617 1.514 0 1.967.617.606 1.542.606 2.005 0 .617-.605.617-1.513 0-1.967z" fill="#F2EFFB"/><path opacity=".3" d="M237.599 397.954c.767 0 1.388.61 1.388 1.362 0 .752-.621 1.362-1.388 1.362-.767 0-1.388-.61-1.388-1.362 0-.752.621-1.362 1.388-1.362zM77.51 515.817c.766 0 1.387.61 1.387 1.362 0 .752-.621 1.362-1.388 1.362-.766 0-1.388-.61-1.388-1.362 0-.752.622-1.362 1.388-1.362zM405.865 387.968c.766 0 1.388.61 1.388 1.362 0 .752-.622 1.361-1.388 1.361-.767 0-1.388-.609-1.388-1.361s.621-1.362 1.388-1.362z" fill="#F2EFFB"/><path opacity=".3" fill-rule="evenodd" clip-rule="evenodd" d="M84.143 530.493a.756.756 0 0 0-1.08 0 .722.722 0 0 0 0 1.059.755.755 0 0 0 1.08 0 1.27 1.27 0 0 0 0-1.059zM64.245 517.481a.757.757 0 0 0-1.08 0 .723.723 0 0 0 0 1.06.757.757 0 0 0 1.08 0 .723.723 0 0 0 0-1.06zM194.877 392.206a.754.754 0 0 0-1.079 0 .72.72 0 0 0 0 1.059.754.754 0 0 0 1.079 0 .72.72 0 0 0 0-1.059z" fill="#F2EFFB"/><path opacity=".3" fill-rule="evenodd" clip-rule="evenodd" d="M358.979 563.024a.757.757 0 0 0-1.08 0 .722.722 0 0 0 0 1.059.755.755 0 0 0 1.08 0 1.271 1.271 0 0 0 0-1.059z" fill="#EBCBF8"/><path opacity=".3" d="M30.466 553.643c.426 0 .772.339.772.757a.764.764 0 0 1-.771.756.764.764 0 0 1-.772-.756c0-.418.346-.757.771-.757z" fill="#F2EFFB"/><path opacity=".3" fill-rule="evenodd" clip-rule="evenodd" d="M35.713 543.355a.755.755 0 0 0-1.08 0 .722.722 0 0 0 0 1.059.756.756 0 0 0 1.08 0 .722.722 0 0 0 0-1.059zM62.546 542.144c-.617-.606-1.542-.606-2.005 0-.617.605-.617 1.513 0 1.966.617.606 1.542.606 2.005 0 .617-.453.617-1.361 0-1.966z" fill="#F2EFFB"/><path opacity=".3" d="M42.498 543.202c.766 0 1.388.61 1.388 1.362 0 .752-.622 1.362-1.389 1.362-.766 0-1.388-.61-1.388-1.362 0-.752.622-1.362 1.389-1.362z" fill="#F2EFFB"/><path opacity=".3" fill-rule="evenodd" clip-rule="evenodd" d="M373.167 425.946c-.617-.605-1.542-.605-2.005 0-.617.605-.617 1.513 0 1.967.617.605 1.542.605 2.005 0 .617-.454.617-1.362 0-1.967z" fill="#F2EFFB"/><path opacity=".3" d="M346.952 377.983c1.703 0 3.084 1.355 3.084 3.026 0 1.671-1.381 3.026-3.084 3.026-1.704 0-3.085-1.355-3.085-3.026 0-1.671 1.381-3.026 3.085-3.026z" fill="#F2EFFB"/><path opacity=".3" fill-rule="evenodd" clip-rule="evenodd" d="M320.265 361.944c-.617-.605-1.543-.605-2.005 0-.617.606-.617 1.513 0 1.967.616.605 1.542.605 2.005 0 .616-.454.616-1.361 0-1.967z" fill="#F2EFFB"/><path opacity=".3" d="M338.466 354.833c.767 0 1.388.61 1.388 1.362 0 .752-.621 1.362-1.388 1.362-.766 0-1.388-.61-1.388-1.362 0-.752.622-1.362 1.388-1.362z" fill="#F2EFFB"/><path opacity=".3" fill-rule="evenodd" clip-rule="evenodd" d="M359.596 367.392a.755.755 0 0 0-1.08 0 .722.722 0 0 0 0 1.059.757.757 0 0 0 1.08 0 .72.72 0 0 0 0-1.059zM343.713 366.786a.754.754 0 0 0-1.079 0 .72.72 0 0 0 0 1.059.754.754 0 0 0 1.079 0 1.264 1.264 0 0 0 0-1.059z" fill="#F2EFFB"/><path opacity=".3" d="M363.146 378.89c.766 0 1.388.609 1.388 1.361s-.622 1.362-1.388 1.362c-.767 0-1.388-.61-1.388-1.362 0-.752.621-1.361 1.388-1.361z" fill="#F2EFFB"/><path opacity=".3" fill-rule="evenodd" clip-rule="evenodd" d="M666.359 400.376c0 1.665 1.388 3.026 3.085 3.026s3.085-1.361 3.085-3.026c0-1.664-1.388-3.026-3.085-3.026s-3.085 1.362-3.085 3.026z" fill="#FDEFFB"/><path opacity=".3" d="M664.049 379.646c2.385 0 4.318 1.897 4.318 4.237 0 2.339-1.933 4.236-4.318 4.236s-4.319-1.897-4.319-4.236c0-2.34 1.934-4.237 4.319-4.237zM596.342 359.071c1.704 0 3.085 1.355 3.085 3.026 0 1.671-1.381 3.026-3.085 3.026-1.703 0-3.084-1.355-3.084-3.026 0-1.671 1.381-3.026 3.084-3.026zM733.146 382.523c.767 0 1.388.609 1.388 1.361s-.621 1.362-1.388 1.362c-.767 0-1.388-.61-1.388-1.362 0-.752.621-1.361 1.388-1.361zM699.369 420.196c.766 0 1.388.61 1.388 1.362 0 .752-.622 1.362-1.388 1.362-.767 0-1.389-.61-1.389-1.362 0-.752.622-1.362 1.389-1.362z" fill="#F2EFFB"/><path opacity=".3" fill-rule="evenodd" clip-rule="evenodd" d="M589.401 649.417c-.617-.605-1.542-.605-2.005 0-.617.605-.617 1.513 0 1.967.617.605 1.543.605 2.005 0 .463-.454.463-1.362 0-1.967z" fill="#F2EFFB"/><path opacity=".3" d="M674.073 372.536c1.703 0 3.084 1.354 3.084 3.026 0 1.671-1.381 3.026-3.084 3.026-1.704 0-3.085-1.355-3.085-3.026 0-1.672 1.381-3.026 3.085-3.026zM646.466 356.194c.767 0 1.388.61 1.388 1.362 0 .752-.621 1.362-1.388 1.362-.766 0-1.388-.61-1.388-1.362 0-.752.622-1.362 1.388-1.362z" fill="#F2EFFB"/><path opacity=".3" fill-rule="evenodd" clip-rule="evenodd" d="M666.823 349.841c-.617-.605-1.542-.605-2.005 0-.617.605-.617 1.513 0 1.967.617.605 1.543.605 2.005 0 .463-.605.463-1.513 0-1.967zM686.877 362.095a.754.754 0 0 0-1.079 0 .72.72 0 0 0 0 1.059.756.756 0 0 0 1.079 0 .72.72 0 0 0 0-1.059zM670.834 361.341a.754.754 0 0 0-1.079 0 .72.72 0 0 0 0 1.059.756.756 0 0 0 1.079 0 .72.72 0 0 0 0-1.059zM691.347 373.897c-.617-.605-1.543-.605-2.005 0-.617.606-.617 1.513 0 1.967.616.606 1.542.606 2.005 0 .462-.605.462-1.513 0-1.967z" fill="#F2EFFB"/><path opacity=".3" d="M270.296 545.926c1.703 0 3.084 1.355 3.084 3.026 0 1.672-1.381 3.026-3.084 3.026-1.704 0-3.085-1.354-3.085-3.026 0-1.671 1.381-3.026 3.085-3.026z" fill="#F2EFFB"/><path opacity=".3" fill-rule="evenodd" clip-rule="evenodd" d="M268.295 455.297c-1.234-1.21-3.085-1.21-4.319 0s-1.234 3.026 0 4.236c1.234 1.211 3.085 1.211 4.319 0 1.233-1.21 1.233-3.177 0-4.236zM281.558 587.837c-.926-.908-2.314-.908-3.239 0-.925.908-.925 2.27 0 3.177.925.908 2.313.908 3.239 0a2.471 2.471 0 0 0 0-3.177z" fill="#F2EFFB"/><path opacity=".3" d="M265.669 554.249c.767 0 1.388.61 1.388 1.362 0 .752-.621 1.362-1.388 1.362-.766 0-1.388-.61-1.388-1.362 0-.752.622-1.362 1.388-1.362z" fill="#F2EFFB"/><path opacity=".3" fill-rule="evenodd" clip-rule="evenodd" d="M243.616 530.04c-.617-.605-1.542-.605-2.005 0-.617.605-.617 1.513 0 1.967.617.605 1.542.605 2.005 0 .617-.454.617-1.362 0-1.967zM606.827 741.56c-.617-.606-1.542-.606-2.005 0-.617.605-.617 1.513 0 1.966.617.606 1.542.606 2.005 0 .617-.605.617-1.513 0-1.966z" fill="#F2EFFB"/><path opacity=".3" d="M215.853 445.161c.767 0 1.388.61 1.388 1.362 0 .752-.621 1.362-1.388 1.362-.767 0-1.388-.61-1.388-1.362 0-.752.621-1.362 1.388-1.362zM261.966 522.778c.767 0 1.388.61 1.388 1.362 0 .752-.621 1.362-1.388 1.362-.766 0-1.388-.61-1.388-1.362 0-.752.622-1.362 1.388-1.362z" fill="#F2EFFB"/><path opacity=".3" fill-rule="evenodd" clip-rule="evenodd" d="M282.944 535.487a.757.757 0 0 0-1.08 0 .722.722 0 0 0 0 1.059.755.755 0 0 0 1.08 0 .722.722 0 0 0 0-1.059z" fill="#F2EFFB"/><path opacity=".3" fill-rule="evenodd" clip-rule="evenodd" d="M310.705 593.89a.754.754 0 0 0-1.079 0 .72.72 0 0 0 0 1.059.756.756 0 0 0 1.079 0c.309-.454.309-.908 0-1.059z" fill="#EBCBF8"/><path opacity=".3" fill-rule="evenodd" clip-rule="evenodd" d="M226.651 604.934a.757.757 0 0 0-1.08 0 .724.724 0 0 0 0 1.06.757.757 0 0 0 1.08 0 .724.724 0 0 0 0-1.06zM267.057 534.882a.755.755 0 0 0-1.08 0 .722.722 0 0 0 0 1.059.757.757 0 0 0 1.08 0c.308-.454.308-.757 0-1.059zM185.315 610.532a.757.757 0 0 0-1.08 0 .722.722 0 0 0 0 1.059.755.755 0 0 0 1.08 0 .722.722 0 0 0 0-1.059zM287.417 547.288c-.617-.605-1.542-.605-2.005 0-.617.605-.617 1.513 0 1.967.617.605 1.542.605 2.005 0 .617-.454.617-1.362 0-1.967z" fill="#F2EFFB"/><path opacity=".3" d="M385.044 546.077c.767 0 1.388.61 1.388 1.362 0 .752-.621 1.362-1.388 1.362-.766 0-1.388-.61-1.388-1.362 0-.752.622-1.362 1.388-1.362z" fill="#EBCBF8"/><path opacity=".3" fill-rule="evenodd" clip-rule="evenodd" d="M241.608 594.343c-.617-.605-1.542-.605-2.005 0-.617.605-.617 1.513 0 1.967.617.605 1.543.605 2.005 0 .463-.606.463-1.513 0-1.967zM21.214 581.936c-.617-.605-1.542-.605-2.005 0-.617.606-.617 1.513 0 1.967.617.606 1.542.606 2.005 0 .617-.605.617-1.513 0-1.967zM123.313 817.512c-1.697-1.664-4.473-1.664-6.17 0a4.235 4.235 0 0 0 0 6.052c1.697 1.664 4.473 1.664 6.17 0a4.235 4.235 0 0 0 0-6.052z" fill="#F2EFFB"/></g><g opacity=".3"><path opacity=".3" fill-rule="evenodd" clip-rule="evenodd" d="M1444.77 793.304c0 2.269 1.85 4.085 4.16 4.085s4.16-1.816 4.16-4.085c0-2.27-1.85-4.086-4.16-4.086s-4.16 1.816-4.16 4.086z" fill="#94D6EA"/><path opacity=".3" d="M1483.63 826.742c2.3 0 4.17 1.829 4.17 4.085 0 2.256-1.87 4.085-4.17 4.085s-4.16-1.829-4.16-4.085c0-2.256 1.86-4.085 4.16-4.085z" fill="#94D6EA"/><path opacity=".3" fill-rule="evenodd" clip-rule="evenodd" d="M1584.19 958.524c0 2.27 1.85 4.085 4.17 4.085 2.31 0 4.16-1.815 4.16-4.085 0-2.269-1.85-4.085-4.16-4.085-2.16 0-4.17 1.816-4.17 4.085zM1612.57 841.267c0 2.269 1.85 4.085 4.16 4.085s4.16-1.816 4.16-4.085c0-2.27-1.85-4.086-4.16-4.086s-4.16 1.967-4.16 4.086zM1403.28 1038.87c0 2.27 1.85 4.08 4.16 4.08s4.17-1.81 4.17-4.08-1.86-4.09-4.17-4.09c-2.31 0-4.16 1.82-4.16 4.09zM1014.92 997.561c0 1.664 1.39 2.879 2.93 2.879 1.7 0 2.93-1.366 2.93-2.879 0-1.664-1.39-2.875-2.93-2.875-1.69 0-2.93 1.211-2.93 2.875zM1480.7 985.153c0 1.211.92 2.118 2.16 2.118 1.23 0 2.16-.907 2.16-2.118 0-1.21-.93-2.118-2.16-2.118-1.24 0-2.16.908-2.16 2.118zM1430.42 848.076c0 .756.62 1.362 1.39 1.362.77 0 1.39-.606 1.39-1.362 0-.757-.62-1.362-1.39-1.362-.77 0-1.39.757-1.39 1.362zM1482.7 759.261c0 .757.62 1.362 1.39 1.362.77 0 1.39-.605 1.39-1.362 0-.756-.62-1.361-1.39-1.361-.77 0-1.39.605-1.39 1.361zM1508 1011.93c0 .76.62 1.36 1.39 1.36.77 0 1.39-.6 1.39-1.36 0-.75-.62-1.36-1.39-1.36-.77 0-1.39.61-1.39 1.36zM1561.05 1013.29c0 .76.62 1.37 1.39 1.37.77 0 1.39-.61 1.39-1.37 0-.75-.62-1.36-1.39-1.36-.77 0-1.39.61-1.39 1.36zM1631.23 797.388c0 .757.62 1.362 1.39 1.362.77 0 1.39-.605 1.39-1.362 0-.756-.62-1.361-1.39-1.361-.77 0-1.39.605-1.39 1.361zM1515.09 761.984c0 .756.62 1.362 1.39 1.362.77 0 1.39-.606 1.39-1.362 0-.757-.62-1.362-1.39-1.362-.77 0-1.39.605-1.39 1.362zM1562.44 1009.21c0 .76.62 1.36 1.39 1.36.77 0 1.39-.6 1.39-1.36 0-.76-.62-1.36-1.39-1.36-.77 0-1.39.6-1.39 1.36zM1486.41 1009.21c0 .76.61 1.36 1.38 1.36.78 0 1.39-.6 1.39-1.36 0-.76-.61-1.36-1.39-1.36-.77 0-1.38.6-1.38 1.36zM1606.09 815.394c0 .757.62 1.362 1.39 1.362.77 0 1.39-.605 1.39-1.362 0-.756-.62-1.362-1.39-1.362-.77 0-1.39.606-1.39 1.362zM1463.27 991.357c0 .757.62 1.362 1.39 1.362.77 0 1.39-.605 1.39-1.362 0-.756-.62-1.362-1.39-1.362-.62 0-1.39.606-1.39 1.362zM1596.38 965.787c0 .756.61 1.361 1.38 1.361.77 0 1.39-.605 1.39-1.361 0-.757-.62-1.362-1.39-1.362-.77 0-1.38.605-1.38 1.362zM1257.38 1022.98c0 .75.61 1.36 1.38 1.36.77 0 1.39-.61 1.39-1.36 0-.76-.62-1.36-1.39-1.36-.77 0-1.38.6-1.38 1.36zM1466.51 921.002c0 .756.62 1.361 1.39 1.361.77 0 1.39-.605 1.39-1.361 0-.757-.62-1.362-1.39-1.362-.77 0-1.39.605-1.39 1.362zM34.63 1028.43c-.925-.91-2.468-.91-3.393 0-.925.9-.925 2.42 0 3.32.925.91 2.468.91 3.393 0 1.08-.9 1.08-2.42 0-3.32zM1015.54 978.799c-1.7-1.664-4.32-1.664-5.86 0-1.7 1.665-1.7 4.237 0 5.75 1.7 1.664 4.32 1.664 5.86 0 1.7-1.513 1.7-4.085 0-5.75zM895.086 1025.25c-1.696-1.67-4.318-1.67-5.86 0-1.697 1.66-1.697 4.23 0 5.75 1.696 1.66 4.318 1.66 5.86 0 1.697-1.67 1.697-4.24 0-5.75zM868.712 918.126c-1.079-1.059-3.084-1.059-4.164 0-1.08 1.06-1.08 3.026 0 4.086 1.08 1.059 3.085 1.059 4.164 0 1.08-1.211 1.08-3.026 0-4.086zM949.685 958.675c-1.08-1.059-3.085-1.059-4.164 0-1.08 1.059-1.08 3.026 0 4.085 1.079 1.059 3.084 1.059 4.164 0 1.234-1.059 1.234-2.874 0-4.085zM929.636 1029.18c-.617-.6-1.388-.6-2.005 0-.617.61-.617 1.36 0 1.97.617.6 1.388.6 2.005 0 .462-.61.462-1.51 0-1.97z" fill="#94D6EA"/><path opacity=".3" d="M1003.97 906.628c.43 0 .78.338.78.756a.77.77 0 0 1-.78.757.767.767 0 0 1-.77-.757c0-.418.35-.756.77-.756z" fill="#94D6EA"/><path opacity=".3" fill-rule="evenodd" clip-rule="evenodd" d="M1304.11 768.642c-.62-.606-1.39-.606-2.01 0-.61.605-.61 1.361 0 1.967.62.605 1.39.605 2.01 0 .62-.606.62-1.362 0-1.967zM918.378 990.45c-.617-.605-1.388-.605-2.005 0s-.617 1.362 0 1.967 1.388.605 2.005 0c.462-.605.462-1.513 0-1.967zM1322.77 841.72c-.62-.605-1.39-.605-2.01 0-.61.605-.61 1.362 0 1.967.62.605 1.39.605 2.01 0 .62-.605.62-1.362 0-1.967zM876.27 984.549c-.308-.303-.771-.303-.925 0-.309.302-.309.756 0 .908.308.302.771.302.925 0 .308-.152.308-.606 0-.908zM1047.62 1017.08c-.61-.61-1.38-.61-2 0-.62.6-.62 1.36 0 1.96.62.61 1.39.61 2 0 .47-.6.47-1.51 0-1.96z" fill="#94D6EA"/><path opacity=".3" d="M1107.31 792.245c1.61 0 2.93 1.287 2.93 2.874 0 1.588-1.32 2.875-2.93 2.875-1.62 0-2.93-1.287-2.93-2.875 0-1.587 1.31-2.874 2.93-2.874z" fill="#94D6EA"/><path opacity=".3" fill-rule="evenodd" clip-rule="evenodd" d="M996.725 955.499c-.616-.605-1.388-.605-2.005 0-.616.605-.616 1.362 0 1.967.617.605 1.389.605 2.005 0 .617-.605.617-1.362 0-1.967zM1015.23 948.993c-.61-.605-1.38-.605-2 0-.62.605-.62 1.362 0 1.967s1.39.605 2 0c.62-.605.62-1.513 0-1.967zM1117.02 987.12c-.61-.605-1.39-.605-2 0-.62.605-.62 1.362 0 1.967.61.605 1.39.605 2 0 .62-.605.62-1.513 0-1.967zM1277.27 821.598c-.31-.303-.77-.303-.93 0-.3.302-.3.756 0 .907.31.303.78.303.93 0 .31-.151.31-.605 0-.907zM1019.24 960.037c-.31-.302-.77-.302-.92 0-.31.303-.31.757 0 .908.31.303.77.303.92 0 .16-.151.16-.605 0-.908zM1281.59 832.944c-.62-.605-1.39-.605-2.01 0-.61.606-.61 1.362 0 1.967.62.606 1.39.606 2.01 0 .62-.454.62-1.361 0-1.967z" fill="#94D6EA"/><path opacity=".3" d="M944.751 1044.31c1.618 0 2.93 1.29 2.93 2.88 0 1.59-1.312 2.87-2.93 2.87-1.619 0-2.931-1.28-2.931-2.87s1.312-2.88 2.931-2.88z" fill="#94D6EA"/><path opacity=".3" fill-rule="evenodd" clip-rule="evenodd" d="M897.397 1035.84c-.617-.61-1.388-.61-2.005 0-.617.6-.617 1.36 0 1.97.617.6 1.388.6 2.005 0 .463-.61.463-1.52 0-1.97zM1255.52 1072c0 2.42 2.01 4.24 4.32 4.24 2.47 0 4.32-1.97 4.32-4.24 0-2.42-2-4.24-4.32-4.24-2.31 0-4.32 1.97-4.32 4.24zM1295.01 1036.6c0 .75.61 1.36 1.39 1.36.77 0 1.38-.61 1.38-1.36 0-.76-.61-1.37-1.38-1.37-.78-.15-1.39.61-1.39 1.37zM1328.79 1039.32c0 .76.61 1.36 1.38 1.36.77 0 1.39-.6 1.39-1.36 0-.76-.62-1.36-1.39-1.36-.77 0-1.38.6-1.38 1.36zM1058.73 923.877c0 .756.61 1.361 1.38 1.361.78 0 1.39-.605 1.39-1.361 0-.757-.61-1.362-1.39-1.362-.61 0-1.38.605-1.38 1.362zM1039.6 913.74c0 .756.61 1.362 1.39 1.362.77 0 1.38-.606 1.38-1.362 0-.757-.61-1.362-1.38-1.362-.78 0-1.39.605-1.39 1.362z" fill="#94D6EA"/><path opacity=".3" d="M906.499 1056.26c1.703 0 3.084 1.36 3.084 3.03 0 1.67-1.381 3.03-3.084 3.03-1.704 0-3.085-1.36-3.085-3.03 0-1.67 1.381-3.03 3.085-3.03z" fill="#94D6EA"/><path opacity=".3" fill-rule="evenodd" clip-rule="evenodd" d="M1050.09 1045.52a.76.76 0 0 0-1.08 0c-.31.31-.31.76 0 1.06.31.3.77.3 1.08 0 .15-.45.15-.75 0-1.06zM1109.32 1046.43c-.62-.6-1.55-.6-2.01 0-.62.61-.62 1.51 0 1.97.62.6 1.54.6 2.01 0 .46-.61.46-1.52 0-1.97zM1069.37 675.29c-1.7-1.665-4.48-1.665-6.17 0a4.228 4.228 0 0 0 0 6.052c1.69 1.664 4.47 1.664 6.17 0 1.69-1.816 1.69-4.388 0-6.052z" fill="#94D6EA"/><path opacity=".3" d="M563.796 1055.81c1.703 0 3.084 1.36 3.084 3.03 0 1.67-1.381 3.02-3.084 3.02-1.704 0-3.085-1.35-3.085-3.02s1.381-3.03 3.085-3.03zM461.079 1060.35c.767 0 1.389.61 1.389 1.36 0 .75-.622 1.36-1.389 1.36-.766 0-1.388-.61-1.388-1.36 0-.75.622-1.36 1.388-1.36z" fill="#94D6EA"/><path opacity=".3" fill-rule="evenodd" clip-rule="evenodd" d="M614.694 832.339a.755.755 0 0 0-1.08 0 .722.722 0 0 0 0 1.059.755.755 0 0 0 1.08 0 .722.722 0 0 0 0-1.059z" fill="#94D6EA"/><path opacity=".3" d="M1097.74 875.762c1.71 0 3.09 1.355 3.09 3.026 0 1.672-1.38 3.026-3.09 3.026-1.7 0-3.08-1.354-3.08-3.026 0-1.671 1.38-3.026 3.08-3.026z" fill="#94D6EA"/><path opacity=".3" fill-rule="evenodd" clip-rule="evenodd" d="M1531.75 1015.87c1.54 1.66 4.16 1.96 5.86.45 1.7-1.51 2.01-4.08.46-5.75-1.54-1.66-4.16-1.96-5.86-.45-1.69 1.36-1.85 3.93-.46 5.75zM1583.11 1022.68c1.54 1.66 4.16 1.96 5.86.45 1.7-1.51 2.01-4.09.46-5.75-1.54-1.66-4.16-1.97-5.86-.45-1.85 1.36-2 3.93-.46 5.75z" fill="#94D6EA"/><path opacity=".3" fill-rule="evenodd" clip-rule="evenodd" d="M1799.8 1028.12c1.55 1.67 4.17 1.97 5.86.46 1.7-1.52 2.01-4.09.47-5.75-1.54-1.67-4.17-1.97-5.86-.46-1.7 1.52-1.85 4.09-.47 5.75z" fill="#B5EAFF"/><path opacity=".3" fill-rule="evenodd" clip-rule="evenodd" d="M1841.6 794.514c1.54 1.664 4.17 1.967 5.86.454 1.7-1.513 2.01-4.085.47-5.749-1.55-1.665-4.17-1.967-5.87-.454-1.69 1.513-2 4.085-.46 5.749zM1913.63 902.998c1.54 1.665 4.16 1.967 5.86.454 1.7-1.513 2-4.085.46-5.749-1.54-1.664-4.16-1.967-5.86-.454-1.7 1.362-1.85 3.934-.46 5.749z" fill="#94D6EA"/><path opacity=".3" fill-rule="evenodd" clip-rule="evenodd" d="M1755.69 970.326c1.55 1.665 4.17 1.967 5.87.454 1.69-1.513 2-4.085.46-5.749-1.54-1.664-4.17-1.967-5.86-.454-1.7 1.362-1.85 3.934-.47 5.749z" fill="#B5EAFF"/><path opacity=".3" fill-rule="evenodd" clip-rule="evenodd" d="M1836.2 998.165c1.08 1.21 2.93 1.362 4.17.303 1.23-1.06 1.38-2.875.31-4.086-1.08-1.21-2.94-1.361-4.17-.302s-1.39 2.875-.31 4.085zM1735.8 1062.17c.77.9 2.16 1.06 3.08.3.93-.76 1.08-2.12.31-3.03-.77-.91-2.16-1.06-3.08-.3-.93.76-1.08 2.12-.31 3.03zM1892.35 950.203c.77.908 2.15 1.059 3.08.303.93-.757 1.08-2.118.31-3.026-.77-.908-2.16-1.059-3.09-.303-.92.757-1.08 2.118-.3 3.026zM1779.76 880.301c.77.908 2.15 1.059 3.08.303.93-.757 1.08-2.119.31-3.026-.77-.908-2.16-1.06-3.09-.303-.92.756-1.08 2.118-.3 3.026zM1881.39 1016.47c.31.3.62.3.93.15.3-.3.3-.6.15-.9-.31-.31-.62-.31-.93-.16-.3.16-.3.61-.15.91zM1896.82 1033.42c.3.3.61.3.92.15.31-.3.31-.6.16-.91-.31-.3-.62-.3-.93-.15-.31.15-.31.61-.15.91zM1848.08 964.123c.46.605 1.38.605 2 .151.62-.454.62-1.362.16-1.967-.47-.605-1.39-.605-2.01-.151-.62.605-.62 1.513-.15 1.967zM1556.74 1066.86c.46.6 1.38.6 2 .15.62-.46.62-1.37.16-1.97-.47-.61-1.39-.61-2.01-.15-.46.6-.62 1.36-.15 1.97zM1852.55 958.676c.47.605 1.39.605 2.01.151.61-.454.61-1.362.15-1.967-.46-.605-1.39-.605-2-.151-.62.454-.62 1.361-.16 1.967zM1818.31 883.631c.46.605 1.39.605 2.01.151.61-.454.61-1.362.15-1.967-.46-.605-1.39-.605-2.01-.151-.61.454-.61 1.361-.15 1.967zM1859.8 851.101c.46.606 1.39.606 2 .152.62-.454.62-1.362.16-1.967-.46-.606-1.39-.606-2.01-.152-.61.606-.61 1.362-.15 1.967zM1677.35 901.181c.46.606 1.38.606 2 .152.62-.454.62-1.362.16-1.967-.47-.605-1.39-.605-2.01-.151-.62.605-.77 1.361-.15 1.966zM1890.96 942.033c.46.605 1.38.605 2 .151.62-.454.62-1.361.15-1.967-.46-.605-1.38-.605-2-.151-.46.605-.62 1.362-.15 1.967zM1858.1 847.166c.47.605 1.39.605 2.01.151.62-.454.62-1.362.15-1.967-.46-.605-1.39-.605-2-.151-.46.454-.62 1.362-.16 1.967zM1799.96 895.129c.46.605 1.39.605 2 .151.62-.454.62-1.362.16-1.967-.46-.605-1.39-.605-2.01-.151-.61.454-.61 1.361-.15 1.967zM1669.79 930.836c.46.605 1.39.605 2.01.151.61-.454.61-1.362.15-1.967-.46-.605-1.39-.605-2.01-.151-.61.605-.61 1.361-.15 1.967zM1770.65 896.037c.47.605 1.39.605 2.01.151.62-.454.62-1.361.15-1.967-.46-.605-1.38-.605-2-.151-.62.605-.77 1.362-.16 1.967zM1855.63 792.549c.47.605 1.39.605 2.01.151.62-.454.62-1.362.15-1.967-.46-.605-1.38-.605-2-.151-.62.454-.62 1.361-.16 1.967zM1633.54 1050.21c.47.61 1.39.61 2.01.15.62-.45.62-1.36.15-1.96-.46-.61-1.38-.61-2-.15-.62.6-.62 1.51-.16 1.96zM1858.41 1016.47c-1.69-.15-3.08 1.06-3.24 2.57a2.918 2.918 0 0 0 2.63 3.18c1.69.15 3.08-1.06 3.23-2.57.31-1.66-.92-3.03-2.62-3.18zM1897.43 1041.59c1.55 1.81 4.32 1.97 6.17.45 1.85-1.51 2.01-4.23.47-6.05-1.55-1.82-4.32-1.97-6.17-.45-1.7 1.51-2.01 4.23-.47 6.05zM1671.33 1036.9c.46.6 1.39.6 2 .15.62-.45.62-1.36.16-1.97-.46-.6-1.39-.6-2.01-.15-.61.46-.61 1.36-.15 1.97zM1815.85 969.72c.46.606 1.38.606 2 .152.62-.454.62-1.362.15-1.967-.46-.605-1.38-.605-2-.151-.62.453-.77 1.361-.15 1.966zM1699.09 1017.68c.46.61 1.39.61 2.01.15.61-.45.61-1.36.15-1.96-.46-.61-1.39-.61-2-.15-.62.45-.62 1.36-.16 1.96zM1807.98 1000.44c.46.6 1.39.6 2 .15.62-.46.62-1.365.16-1.97-.46-.605-1.39-.605-2.01-.152-.46.454-.61 1.362-.15 1.972zM1912.86 964.275c.46.605 1.39.605 2 .151.62-.453.62-1.361.16-1.967-.47-.605-1.39-.605-2.01-.151-.46.454-.62 1.362-.15 1.967zM1867.51 906.176c.47.605 1.39.605 2.01.151.62-.454.62-1.362.15-1.967-.46-.605-1.38-.605-2-.151-.62.453-.77 1.361-.16 1.967zM339.238 1010.27c0 1.66 1.388 3.02 3.085 3.02 1.696 0 3.085-1.36 3.085-3.02 0-1.67-1.389-3.03-3.085-3.03-1.851 0-3.085 1.36-3.085 3.03zM518.918 999.375c0 .755.617 1.365 1.388 1.365.771 0 1.388-.61 1.388-1.365a1.37 1.37 0 0 0-1.388-1.362 1.37 1.37 0 0 0-1.388 1.362z" fill="#94D6EA"/><path opacity=".3" d="M156.627 977.89c2.385 0 4.319 1.897 4.319 4.237s-1.934 4.236-4.319 4.236-4.318-1.896-4.318-4.236 1.933-4.237 4.318-4.237z" fill="#94D6EA"/><path opacity=".3" fill-rule="evenodd" clip-rule="evenodd" d="M339.856 990.752c-1.697-1.664-4.473-1.664-6.17 0a4.237 4.237 0 0 0 0 6.053c1.697 1.664 4.473 1.664 6.17 0a4.237 4.237 0 0 0 0-6.053z" fill="#94D6EA"/><path opacity=".3" d="M211.533 1037.81c2.385 0 4.319 1.89 4.319 4.23 0 2.34-1.934 4.24-4.319 4.24s-4.318-1.9-4.318-4.24c0-2.34 1.933-4.23 4.318-4.23z" fill="#B5EAFF"/><path opacity=".3" d="M184.854 926.6c1.704 0 3.085 1.355 3.085 3.026 0 1.672-1.381 3.026-3.085 3.026-1.703 0-3.084-1.354-3.084-3.026 0-1.671 1.381-3.026 3.084-3.026zM106.659 841.267c1.703 0 3.084 1.354 3.084 3.026 0 1.671-1.381 3.026-3.084 3.026-1.704 0-3.085-1.355-3.085-3.026 0-1.672 1.381-3.026 3.085-3.026zM129.174 1044.92c1.704 0 3.085 1.35 3.085 3.02s-1.381 3.03-3.085 3.03c-1.703 0-3.084-1.36-3.084-3.03 0-1.67 1.381-3.02 3.084-3.02zM269.217 968.964c1.704 0 3.085 1.354 3.085 3.026 0 1.671-1.381 3.026-3.085 3.026-1.703 0-3.084-1.355-3.084-3.026 0-1.672 1.381-3.026 3.084-3.026zM174.365 986.968c.766 0 1.388.61 1.388 1.362 0 .752-.622 1.361-1.388 1.361-.767 0-1.388-.609-1.388-1.361s.621-1.362 1.388-1.362z" fill="#94D6EA"/><path opacity=".3" fill-rule="evenodd" clip-rule="evenodd" d="M193.183 833.247c-.617-.605-1.543-.605-2.005 0-.617.605-.617 1.513 0 1.967.616.605 1.542.605 2.005 0 .616-.605.616-1.513 0-1.967z" fill="#94D6EA"/><path opacity=".3" d="M124.548 1053.24c.767 0 1.388.61 1.388 1.36 0 .75-.621 1.36-1.388 1.36-.766 0-1.388-.61-1.388-1.36 0-.75.622-1.36 1.388-1.36z" fill="#94D6EA"/><path opacity=".3" fill-rule="evenodd" clip-rule="evenodd" d="M102.647 1029.03c-.617-.6-1.542-.6-2.005 0-.617.61-.617 1.51 0 1.97.617.6 1.543.6 2.005 0 .463-.46.463-1.36 0-1.97z" fill="#94D6EA"/><path opacity=".3" d="M120.849 1021.77c.767 0 1.388.61 1.388 1.36 0 .75-.621 1.36-1.388 1.36-.767 0-1.388-.61-1.388-1.36 0-.75.621-1.36 1.388-1.36zM249.474 1042.8c.767 0 1.388.61 1.388 1.36 0 .75-.621 1.36-1.388 1.36-.767 0-1.388-.61-1.388-1.36 0-.75.621-1.36 1.388-1.36z" fill="#94D6EA"/><path opacity=".3" fill-rule="evenodd" clip-rule="evenodd" d="M141.975 1034.48a.76.76 0 0 0-1.08 0c-.308.3-.308.75 0 1.06.309.3.772.3 1.08 0 .308-.31.308-.76 0-1.06z" fill="#94D6EA"/><path opacity=".3" d="M327.826 915.555c.426 0 .771.339.771.757a.763.763 0 0 1-.771.756.763.763 0 0 1-.771-.756c0-.418.345-.757.771-.757z" fill="#94D6EA"/><path opacity=".3" fill-rule="evenodd" clip-rule="evenodd" d="M125.936 1033.87a.76.76 0 0 0-1.08 0 .724.724 0 0 0 0 1.06c.309.3.771.3 1.08 0 .308-.45.308-.91 0-1.06zM146.448 1046.28c-.617-.61-1.542-.61-2.005 0-.617.6-.617 1.51 0 1.97.617.6 1.542.6 2.005 0 .463-.46.463-1.37 0-1.97zM387.515 916.767c-.617-.606-1.543-.606-2.005 0-.617.605-.617 1.513 0 1.967.616.605 1.542.605 2.005 0 .617-.606.617-1.513 0-1.967z" fill="#94D6EA"/><path opacity=".3" d="M12.885 1004.22c1.704 0 3.085 1.35 3.085 3.02s-1.381 3.03-3.085 3.03c-1.703 0-3.084-1.36-3.084-3.03 0-1.67 1.38-3.02 3.084-3.02zM97.249 1046.43c1.703 0 3.084 1.36 3.084 3.03 0 1.67-1.38 3.02-3.084 3.02-1.704 0-3.085-1.35-3.085-3.02s1.381-3.03 3.085-3.03zM2.396 1064.43c.767 0 1.388.61 1.388 1.37 0 .75-.621 1.36-1.388 1.36-.767 0-1.388-.61-1.388-1.36 0-.76.621-1.37 1.388-1.37zM237.599 1002.4c.767 0 1.388.61 1.388 1.36 0 .76-.621 1.36-1.388 1.36-.767 0-1.388-.6-1.388-1.36 0-.75.621-1.36 1.388-1.36z" fill="#94D6EA"/><path opacity=".3" fill-rule="evenodd" clip-rule="evenodd" d="M406.944 992.718c-.617-.605-1.542-.605-2.005 0-.617.605-.617 1.513 0 1.967.617.605 1.543.605 2.005 0 .617-.454.617-1.362 0-1.967zM194.877 996.804a.754.754 0 0 0-1.079 0 .72.72 0 0 0 0 1.059.756.756 0 0 0 1.079 0c.309-.454.309-.908 0-1.059zM373.167 1030.39c-.617-.6-1.542-.6-2.005 0-.617.61-.617 1.51 0 1.97.617.6 1.542.6 2.005 0 .617-.46.617-1.36 0-1.97z" fill="#94D6EA"/><path opacity=".3" d="M346.952 982.43c1.703 0 3.084 1.355 3.084 3.026 0 1.672-1.381 3.026-3.084 3.026-1.704 0-3.085-1.354-3.085-3.026 0-1.671 1.381-3.026 3.085-3.026zM319.345 966.089c.767 0 1.388.61 1.388 1.362 0 .752-.621 1.361-1.388 1.361-.767 0-1.388-.609-1.388-1.361s.621-1.362 1.388-1.362zM338.466 959.281c.767 0 1.388.609 1.388 1.361s-.621 1.362-1.388 1.362c-.766 0-1.388-.61-1.388-1.362 0-.752.622-1.361 1.388-1.361z" fill="#94D6EA"/><path opacity=".3" fill-rule="evenodd" clip-rule="evenodd" d="M359.596 971.839a.755.755 0 0 0-1.08 0 .722.722 0 0 0 0 1.059.755.755 0 0 0 1.08 0 .72.72 0 0 0 0-1.059zM343.713 971.233a.756.756 0 0 0-1.079 0 .722.722 0 0 0 0 1.06.756.756 0 0 0 1.079 0 1.266 1.266 0 0 0 0-1.06zM364.069 983.64c-.617-.606-1.542-.606-2.005 0-.617.605-.617 1.513 0 1.967.617.605 1.543.605 2.005 0 .617-.454.617-1.362 0-1.967z" fill="#94D6EA"/><path opacity=".3" fill-rule="evenodd" clip-rule="evenodd" d="M666.359 1004.82c0 1.67 1.388 3.03 3.085 3.03s3.085-1.36 3.085-3.03c0-1.66-1.388-3.02-3.085-3.02s-3.085 1.36-3.085 3.02z" fill="#B5EAFF"/><path opacity=".3" fill-rule="evenodd" clip-rule="evenodd" d="M563.797 857.153c-1.696-1.664-4.473-1.664-6.169 0a4.234 4.234 0 0 0 0 6.052c1.696 1.664 4.473 1.664 6.169 0a4.234 4.234 0 0 0 0-6.052z" fill="#94D6EA"/><path opacity=".3" d="M596.342 963.518c1.704 0 3.085 1.355 3.085 3.026 0 1.672-1.381 3.026-3.085 3.026-1.703 0-3.084-1.354-3.084-3.026 0-1.671 1.381-3.026 3.084-3.026z" fill="#94D6EA"/><path opacity=".3" fill-rule="evenodd" clip-rule="evenodd" d="M655.565 910.411a.757.757 0 0 0-1.08 0 .722.722 0 0 0 0 1.059.755.755 0 0 0 1.08 0 .722.722 0 0 0 0-1.059z" fill="#94D6EA"/><path opacity=".3" d="M713.708 911.015c.767 0 1.388.61 1.388 1.362 0 .752-.621 1.361-1.388 1.361-.766 0-1.388-.609-1.388-1.361s.622-1.362 1.388-1.362z" fill="#94D6EA"/><path opacity=".3" fill-rule="evenodd" clip-rule="evenodd" d="M734.226 987.423c-.617-.605-1.543-.605-2.005 0-.617.605-.617 1.513 0 1.967.616.605 1.542.605 2.005 0 .462-.605.462-1.362 0-1.967z" fill="#94D6EA"/><path opacity=".3" d="M699.369 1024.79c.766 0 1.388.61 1.388 1.37 0 .75-.622 1.36-1.388 1.36-.767 0-1.389-.61-1.389-1.36 0-.76.622-1.37 1.389-1.37zM674.073 976.983c1.703 0 3.084 1.355 3.084 3.026 0 1.671-1.381 3.026-3.084 3.026-1.704 0-3.085-1.355-3.085-3.026 0-1.671 1.381-3.026 3.085-3.026z" fill="#94D6EA"/><path opacity=".3" fill-rule="evenodd" clip-rule="evenodd" d="M647.546 961.097c-.617-.605-1.542-.605-2.005 0-.617.605-.617 1.513 0 1.967.617.605 1.542.605 2.005 0 .617-.606.617-1.362 0-1.967zM666.823 954.288c-.617-.605-1.542-.605-2.005 0-.617.605-.617 1.513 0 1.967.617.605 1.543.605 2.005 0 .463-.605.463-1.513 0-1.967zM686.877 966.544a.754.754 0 0 0-1.079 0 .72.72 0 0 0 0 1.059.754.754 0 0 0 1.079 0 .72.72 0 0 0 0-1.059zM670.834 965.939a.754.754 0 0 0-1.079 0 .72.72 0 0 0 0 1.059.756.756 0 0 0 1.079 0c.309-.454.309-.908 0-1.059zM691.347 978.345c-.617-.605-1.543-.605-2.005 0-.617.605-.617 1.513 0 1.967.616.605 1.542.605 2.005 0 .462-.605.462-1.513 0-1.967zM268.295 1059.74c-1.234-1.21-3.085-1.21-4.319 0s-1.234 3.03 0 4.24c1.234 1.21 3.085 1.21 4.319 0 1.233-1.21 1.233-3.18 0-4.24zM216.933 1050.06c-.617-.6-1.543-.6-2.005 0-.617.61-.617 1.51 0 1.97.616.6 1.542.6 2.005 0 .462-.61.462-1.51 0-1.97z" fill="#94D6EA"/></g><path fill-rule="evenodd" clip-rule="evenodd" d="M635.512 579.667c0 1.665 1.388 3.026 3.084 3.026 1.697 0 3.085-1.361 3.085-3.026 0-1.664-1.388-3.026-3.085-3.026-1.696 0-3.084 1.362-3.084 3.026zM619.781 897.55c0 1.664 1.388 3.026 3.085 3.026 1.696 0 3.085-1.362 3.085-3.026 0-1.664-1.389-3.026-3.085-3.026-1.697.151-3.085 1.513-3.085 3.026zM1587.43 895.281c0 1.664 1.39 3.026 3.08 3.026 1.7 0 3.09-1.362 3.09-3.026 0-1.665-1.39-3.026-3.09-3.026-1.85.151-3.08 1.513-3.08 3.026zM1022.17 865.324c0 1.664 1.39 3.026 3.09 3.026 1.69 0 3.08-1.362 3.08-3.026 0-1.665-1.39-3.026-3.08-3.026-1.7.151-3.09 1.361-3.09 3.026zM437.328 405.673c0 1.665 1.388 3.026 3.085 3.026 1.696 0 3.084-1.361 3.084-3.026 0-1.664-1.388-3.026-3.084-3.026-1.697.151-3.085 1.513-3.085 3.026z" fill="#F1A8CA" fill-opacity=".26"/><path d="M1157.74 411.874c1.7 0 3.08 1.355 3.08 3.026 0 1.671-1.38 3.026-3.08 3.026-1.71 0-3.09-1.355-3.09-3.026 0-1.671 1.38-3.026 3.09-3.026z" fill="#F1A8CA" fill-opacity=".26"/><path fill-rule="evenodd" clip-rule="evenodd" d="M669.754 444.406c0 1.664 1.388 3.026 3.085 3.026 1.696 0 3.084-1.362 3.084-3.026 0-1.665-1.388-3.026-3.084-3.026-1.697 0-3.085 1.361-3.085 3.026z" fill="#F1A8CA" fill-opacity=".26"/><path d="M588.319 786.95c1.704 0 3.085 1.355 3.085 3.026 0 1.671-1.381 3.026-3.085 3.026s-3.085-1.355-3.085-3.026c0-1.671 1.381-3.026 3.085-3.026z" fill="#F1A8CA" fill-opacity=".26"/><path fill-rule="evenodd" clip-rule="evenodd" d="M1819.39 509.917c0 1.665 1.39 3.026 3.09 3.026 1.69 0 3.08-1.361 3.08-3.026 0-1.664-1.39-3.026-3.08-3.026-1.7 0-3.09 1.362-3.09 3.026zM1847.46 608.716c0 1.664 1.39 3.026 3.09 3.026 1.69 0 3.08-1.362 3.08-3.026 0-1.664-1.39-3.026-3.08-3.026-1.7 0-3.09 1.362-3.09 3.026zM724.504 439.714c0 1.665 1.388 3.026 3.085 3.026 1.696 0 3.084-1.361 3.084-3.026 0-1.664-1.388-3.026-3.084-3.026-1.697 0-3.085 1.362-3.085 3.026z" fill="#F1A8CA" fill-opacity=".26"/><path d="M1455.1 429.88c1.7 0 3.08 1.354 3.08 3.026 0 1.671-1.38 3.026-3.08 3.026-1.7 0-3.08-1.355-3.08-3.026 0-1.672 1.38-3.026 3.08-3.026z" fill="#F1A8CA" fill-opacity=".26"/><path fill-rule="evenodd" clip-rule="evenodd" d="M1452.02 627.328c0 1.664 1.38 3.026 3.08 3.026 1.7 0 3.08-1.362 3.08-3.026 0-1.665-1.38-3.027-3.08-3.027-1.7.152-3.08 1.514-3.08 3.027z" fill="#F1A8CA" fill-opacity=".26"/></g><defs><linearGradient id="b" x1="-824.525" y1="240.087" x2="1984.84" y2="1849.31" gradientUnits="userSpaceOnUse"><stop stop-color="#F1A8CA"/><stop offset=".193" stop-color="#5C519A"/><stop offset=".599" stop-color="#5B60A2"/><stop offset=".953" stop-color="#53BBD1"/></linearGradient><linearGradient id="c" x1="66" y1="468.489" x2="1949.03" y2="1334.67" gradientUnits="userSpaceOnUse"><stop stop-color="#F1A8CA"/><stop offset=".458" stop-color="#5C519A"/><stop offset="1" stop-color="#53BBD1"/></linearGradient><filter id="a" x="-525" y="0" width="2944" height="1550" filterUnits="userSpaceOnUse" color-interpolation-filters="sRGB"><feFlood flood-opacity="0" result="BackgroundImageFix"/><feBlend in="SourceGraphic" in2="BackgroundImageFix" result="shape"/><feGaussianBlur stdDeviation="100" result="effect1_foregroundBlur_36_77606"/></filter></defs></svg>