<svg width="27" height="27" viewBox="0 0 27 27" fill="none" xmlns="http://www.w3.org/2000/svg">
<g clip-path="url(#clip0_36_78764)">
<path d="M27 13.5529C27 16.6422 27 19.7422 27 22.8315C27 25.3072 25.3079 27 22.8331 27C16.6146 27 10.396 27 4.16686 27C1.69213 27 0 25.3072 0 22.8315C0 16.6105 0 10.3895 0 4.1685C0 1.68221 1.69213 0 4.17744 0C10.396 0 16.6146 0 22.8437 0C25.329 0 27.0106 1.68221 27.0106 4.1685C27 7.30016 27 10.4318 27 13.5529ZM20.6228 13.5529C20.6228 9.63832 17.4289 6.44318 13.5159 6.4326C9.59225 6.4326 6.40893 9.596 6.3772 13.5212C6.35605 17.4463 9.57109 20.6732 13.5053 20.6732C17.4289 20.6732 20.6228 17.4675 20.6228 13.5529ZM22.1986 6.4326C23.0552 6.4326 23.7744 5.73433 23.785 4.86677C23.7955 4.0098 23.0975 3.29036 22.2303 3.2692C21.342 3.25862 20.6122 3.97806 20.6228 4.85619C20.6228 5.72375 21.342 6.4326 22.1986 6.4326Z" fill="#EA9DC3"/>
<path d="M19.0259 13.5741C19.0153 16.6317 16.53 19.1074 13.4841 19.0968C10.4383 19.0862 7.96358 16.5999 7.97415 13.5423C7.98473 10.4847 10.4595 8.01959 13.5159 8.01959C16.5617 8.01959 19.0364 10.5165 19.0259 13.5741Z" fill="#EA9DC3"/>
</g>
<defs>
<clipPath id="clip0_36_78764">
<rect width="27" height="27" fill="white"/>
</clipPath>
</defs>
</svg>
