<svg width="1920" height="1240" fill="none" xmlns="http://www.w3.org/2000/svg"><g filter="url(#a)"><path fill="url(#b)" d="M-146 160h2169v920H-146z"/></g><mask id="d" style="mask-type:alpha" maskUnits="userSpaceOnUse" x="0" y="310" width="1920" height="770"><path fill="url(#c)" d="M0 310h1920v770H0z"/></mask><g mask="url(#d)"><g opacity=".3"><path opacity=".3" fill-rule="evenodd" clip-rule="evenodd" d="M1065.73 514.045c-.95-.95-2.54-.95-3.49 0-.95.95-.95 2.534 0 3.484.95.951 2.54.951 3.49 0 .95-.95.95-2.534 0-3.484zM1818.71 390.034c-1.74-1.742-4.44-1.742-6.02 0-1.74 1.742-1.74 4.435 0 6.019 1.74 1.742 4.44 1.742 6.02 0 1.74-1.742 1.74-4.435 0-6.019zM1049.26 553.483c-.64-.633-1.75-.633-2.54 0-.63.634-.63 1.742 0 2.534.64.634 1.74.634 2.54 0 .79-.633.79-1.742 0-2.534zM1874.79 320.345c-1.11-1.108-3.17-1.108-4.28 0-1.11 1.109-1.11 3.168 0 4.277 1.11 1.108 3.17 1.108 4.28 0 1.27-1.109 1.27-3.01 0-4.277zM1054.64 577.714c-.47-.475-1.27-.475-1.9 0-.48.475-.48 1.267 0 1.9.47.475 1.27.475 1.9 0 .48-.475.48-1.425 0-1.9zM1074.92 518.955a.767.767 0 0 0-1.11 0 .776.776 0 0 0 0 1.108c.32.317.79.317 1.11 0a.76.76 0 0 0 0-1.108zM1045.93 558.076a.767.767 0 0 0-1.11 0 .776.776 0 0 0 0 1.108c.32.317.8.317 1.11 0a.76.76 0 0 0 0-1.108zM1032.62 543.505a.768.768 0 0 0-1.11 0 .777.777 0 0 0 0 1.109c.32.317.8.317 1.11 0 .32-.158.32-.792 0-1.109zM1043.87 539.544a.768.768 0 0 0-1.11 0 .76.76 0 0 0 0 1.109c.32.317.79.317 1.11 0a.76.76 0 0 0 0-1.109zM1854.19 394.151c-.63-.633-1.42-.633-2.05 0-.64.634-.64 1.426 0 2.059.63.634 1.42.634 2.05 0 .48-.633.48-1.583 0-2.059zM1055.44 546.83a.489.489 0 0 0-.64 0 .477.477 0 0 0 0 .633c.16.159.48.159.64 0 .15-.316.15-.475 0-.633z" fill="#F2EFFB"/><path opacity=".3" d="M1022.48 587.692a.475.475 0 1 1 0 .951.473.473 0 0 1-.47-.476c0-.262.21-.475.47-.475zM1045.93 546.196c.26 0 .47.213.47.475 0 .263-.21.475-.47.475a.48.48 0 0 1-.48-.475c0-.262.22-.475.48-.475z" fill="#F2EFFB"/><path opacity=".3" fill-rule="evenodd" clip-rule="evenodd" d="M1057.97 553.798a.768.768 0 0 0-1.11 0 .777.777 0 0 0 0 1.109c.32.317.79.317 1.11 0a.76.76 0 0 0 0-1.109zM1031.36 581.515a.767.767 0 0 0-1.11 0 .76.76 0 0 0 0 1.109c.32.317.79.317 1.11 0 .32-.159.32-.792 0-1.109zM1051.63 709.488a.767.767 0 0 0-1.11 0 .776.776 0 0 0 0 1.108c.32.317.79.317 1.11 0 .32-.158.32-.791 0-1.108zM1797.64 460.196c-.63-.633-1.43-.633-2.06 0-.63.634-.63 1.426 0 2.059.63.634 1.43.634 2.06 0 .63-.633.63-1.425 0-2.059zM965.929 559.817a2.486 2.486 0 0 0-3.486 0c-.95.95-.95 2.534 0 3.484.951.95 2.535.95 3.486 0 1.109-.792 1.109-2.534 0-3.484zM915.073 523.389a2.487 2.487 0 0 0-3.485 0 2.484 2.484 0 0 0 0 3.484c.95.951 2.535.951 3.485 0 .951-.792.951-2.376 0-3.484zM997.772 687.473a2.487 2.487 0 0 0-3.485 0c-.95.95-.95 2.534 0 3.484.951.95 2.535.95 3.485 0 1.109-.95 1.109-2.534 0-3.484zM1012.34 657.697a2.48 2.48 0 0 0-3.48 0 2.487 2.487 0 0 0 0 3.485c.95.95 2.53.95 3.48 0 .95-.792.95-2.534 0-3.485zM990.011 713.604a2.486 2.486 0 0 0-3.486 0c-.95.95-.95 2.534 0 3.484.951.95 2.535.95 3.486 0 .95-.95.95-2.534 0-3.484zM936.46 647.086a2.487 2.487 0 0 0-3.485 0 2.484 2.484 0 0 0 0 3.484c.95.951 2.534.951 3.485 0 .95-.791.95-2.375 0-3.484zM981.928 529.409c-.634-.634-1.743-.634-2.535 0-.633.633-.633 1.742 0 2.534.634.633 1.743.633 2.535 0 .634-.792.634-1.901 0-2.534zM882.756 483.319c-.634-.634-1.743-.634-2.535 0-.633.633-.633 1.742 0 2.534.634.634 1.743.634 2.535 0 .792-.792.792-1.901 0-2.534zM897.014 497.098c-.634-.633-1.743-.633-2.535 0-.634.634-.634 1.742 0 2.534.634.634 1.743.634 2.535 0 .792-.633.792-1.9 0-2.534zM949.612 691.432c-.634-.633-1.743-.633-2.535 0-.634.634-.634 1.742 0 2.534.634.634 1.742.634 2.535 0 .633-.633.633-1.742 0-2.534zM1030.72 554.432c-.63-.633-1.74-.633-2.53 0-.64.634-.64 1.742 0 2.534.63.634 1.74.634 2.53 0 .79-.792.79-1.9 0-2.534zM954.84 715.663c-.476-.475-1.268-.475-1.902 0-.475.475-.475 1.267 0 1.901.476.475 1.268.475 1.902 0 .475-.476.475-1.267 0-1.901zM944.383 741.321c-.476-.475-1.268-.475-1.902 0-.475.475-.475 1.267 0 1.901.476.475 1.268.475 1.902 0 .475-.634.475-1.426 0-1.901zM994.445 707.903c-.475-.475-1.267-.475-1.901 0-.475.475-.475 1.267 0 1.901.475.475 1.267.475 1.901 0 .475-.634.475-1.426 0-1.901z" fill="#F2EFFB"/><path opacity=".3" d="M1069.38 755.575c.7 0 1.26.568 1.26 1.267 0 .7-.56 1.267-1.26 1.267s-1.27-.567-1.27-1.267c0-.699.57-1.267 1.27-1.267z" fill="#F2EFFB"/><path opacity=".3" fill-rule="evenodd" clip-rule="evenodd" d="M975.116 564.726a.766.766 0 0 0-1.109 0 .766.766 0 0 0 0 1.109.767.767 0 0 0 1.109 0 .766.766 0 0 0 0-1.109zM946.284 696.025a.766.766 0 0 0-1.109 0 .766.766 0 0 0 0 1.109.767.767 0 0 0 1.109 0 .766.766 0 0 0 0-1.109zM988.104 706.953a.765.765 0 0 0-1.109 0 .766.766 0 0 0 0 1.108.765.765 0 0 0 1.109 0 .764.764 0 0 0 0-1.108zM894.64 688.582a.765.765 0 0 0-1.109 0 .764.764 0 0 0 0 1.108.765.765 0 0 0 1.109 0c.316-.158.316-.792 0-1.108zM869.132 590.226a.766.766 0 0 0-1.109 0 .766.766 0 0 0 0 1.109.767.767 0 0 0 1.109 0 .766.766 0 0 0 0-1.109zM932.975 589.435a.764.764 0 0 0-1.108 0 .766.766 0 0 0 0 1.109.766.766 0 0 0 1.108 0 .766.766 0 0 0 0-1.109zM1842.63 353.607c-.63-.634-1.42-.634-2.06 0-.63.633-.63 1.425 0 2.058.64.634 1.43.634 2.06 0 .48-.633.48-1.583 0-2.058z" fill="#F2EFFB"/><path opacity=".3" d="M943.433 585.158a.793.793 0 1 1-.001 1.585.793.793 0 0 1 .001-1.585zM1018.05 689.69c.43 0 .79.354.79.792a.794.794 0 0 1-1.59 0c0-.438.36-.792.8-.792zM955.471 592.444a.476.476 0 1 1 0 .951.476.476 0 0 1 0-.951zM1021.53 698.241c.26 0 .48.213.48.475a.48.48 0 0 1-.96 0c0-.262.22-.475.48-.475z" fill="#F2EFFB"/><path opacity=".3" fill-rule="evenodd" clip-rule="evenodd" d="M1010.44 690.64c-.15-.158-.47-.158-.63 0a.479.479 0 0 0 0 .634c.16.158.48.158.63 0a.479.479 0 0 0 0-.634z" fill="#F2EFFB"/><path opacity=".3" d="M1798.91 347.111c.44 0 .79.355.79.792 0 .438-.35.792-.79.792a.788.788 0 0 1-.79-.792c0-.437.35-.792.79-.792zM922.678 725.642a.475.475 0 1 1 .002.95.475.475 0 0 1-.002-.95zM922.362 755.1a.476.476 0 1 1-.001.951.476.476 0 0 1 .001-.951z" fill="#F2EFFB"/><path opacity=".3" fill-rule="evenodd" clip-rule="evenodd" d="M938.518 755.576c-.158-.159-.475-.159-.634 0a.482.482 0 0 0 0 .633c.159.159.476.159.634 0a.48.48 0 0 0 0-.633z" fill="#F2EFFB"/><path opacity=".3" d="M938.678 749.874a.476.476 0 1 1 0 .951.476.476 0 0 1 0-.951zM990.799 712.02a.476.476 0 1 1 0 .952.476.476 0 0 1 0-.952z" fill="#F2EFFB"/><path opacity=".3" fill-rule="evenodd" clip-rule="evenodd" d="M946.44 592.285c-.158-.159-.475-.159-.634 0a.482.482 0 0 0 0 .633c.159.159.476.159.634 0 .158-.316.158-.475 0-.633zM993.811 706.004c-.158-.159-.475-.159-.634 0a.482.482 0 0 0 0 .633c.159.158.476.158.634 0 .159-.317.159-.475 0-.633zM958.323 691.747a.767.767 0 0 0-1.109 0 .766.766 0 0 0 0 1.109.766.766 0 0 0 1.109 0 .766.766 0 0 0 0-1.109zM1009.49 705.21a.768.768 0 0 0-1.11 0 .777.777 0 0 0 0 1.109c.32.317.79.317 1.11 0a.76.76 0 0 0 0-1.109zM998.405 706.003a.767.767 0 0 0-1.109 0 .766.766 0 0 0 0 1.109.766.766 0 0 0 1.109 0c.317-.158.317-.792 0-1.109zM931.71 719.464a.767.767 0 0 0-1.109 0 .766.766 0 0 0 0 1.109.766.766 0 0 0 1.109 0c.317-.158.317-.792 0-1.109zM853.132 720.415a.767.767 0 0 0-1.109 0 .766.766 0 0 0 0 1.109.766.766 0 0 0 1.109 0c.475-.317.475-.792 0-1.109zM967.354 749.4a.765.765 0 0 0-1.109 0 .767.767 0 0 0 0 1.109.767.767 0 0 0 1.109 0c.317-.159.317-.792 0-1.109z" fill="#F2EFFB"/><path opacity=".3" d="M1873.69 502.167a3.01 3.01 0 0 1 3.01 3.009c0 1.662-1.35 3.01-3.01 3.01a3.005 3.005 0 0 1-3.01-3.01 3.005 3.005 0 0 1 3.01-3.009z" fill="#F2EFFB"/><path opacity=".3" fill-rule="evenodd" clip-rule="evenodd" d="M1871.78 410.781c-1.1-1.109-3.16-1.109-4.27 0-1.11 1.109-1.11 3.168 0 4.276 1.11 1.109 3.17 1.109 4.27 0 1.27-1.108 1.27-3.009 0-4.276z" fill="#F2EFFB"/><path opacity=".3" d="M1883.35 543.663c1.22 0 2.21.993 2.21 2.217a2.214 2.214 0 1 1-4.43 0c0-1.224.99-2.217 2.22-2.217z" fill="#F2EFFB"/><path opacity=".3" fill-rule="evenodd" clip-rule="evenodd" d="M1870.19 510.72c-.63-.634-1.42-.634-2.05 0-.64.633-.64 1.425 0 2.059.63.633 1.42.633 2.05 0 .48-.634.48-1.426 0-2.059zM1847.54 486.013c-.63-.634-1.42-.634-2.06 0-.63.633-.63 1.425 0 2.059.64.633 1.43.633 2.06 0 .48-.475.48-1.426 0-2.059zM1821.09 401.12c-.64-.633-1.43-.633-2.06 0-.64.634-.64 1.426 0 2.059.63.634 1.42.634 2.06 0 .47-.633.47-1.584 0-2.059zM1866.55 479.202c-.63-.633-1.42-.633-2.06 0-.63.634-.63 1.426 0 2.059.64.634 1.43.634 2.06 0 .48-.633.48-1.584 0-2.059zM1886.36 491.554c-.32-.316-.8-.316-.95 0-.32.317-.32.792 0 .951.31.316.79.316.95 0 .31-.159.31-.634 0-.951zM1913.61 550.156c-.32-.317-.8-.317-.95 0-.32.317-.32.792 0 .95.31.317.79.317.95 0 .31-.158.31-.633 0-.95zM1830.59 561.402c-.31-.317-.79-.317-.95 0-.31.317-.31.792 0 .95.32.317.8.317.95 0 .32-.158.32-.633 0-.95z" fill="#F2EFFB"/><path opacity=".3" d="M1870.04 490.606c.44 0 .79.354.79.792 0 .437-.35.791-.79.791a.788.788 0 0 1-.79-.791c0-.438.35-.792.79-.792z" fill="#F2EFFB"/><path opacity=".3" fill-rule="evenodd" clip-rule="evenodd" d="M1890.79 503.435c-.63-.634-1.42-.634-2.06 0-.63.633-.63 1.425 0 2.059.64.633 1.43.633 2.06 0 .48-.634.48-1.584 0-2.059zM1845.48 550.632c-.63-.633-1.43-.633-2.06 0-.63.634-.63 1.425 0 2.059.63.633 1.43.633 2.06 0 .48-.475.48-1.425 0-2.059zM951.987 755.417a.767.767 0 0 0-1.109 0 .766.766 0 0 0 0 1.109.766.766 0 0 0 1.109 0 .766.766 0 0 0 0-1.109z" fill="#F2EFFB"/><path opacity=".3" d="M939.472 792.953a.793.793 0 1 1-.001 1.585.793.793 0 0 1 .001-1.585z" fill="#F2EFFB"/><path opacity=".3" fill-rule="evenodd" clip-rule="evenodd" d="M985.413 728.652a.766.766 0 0 0-1.109 0 .764.764 0 0 0 0 1.108.766.766 0 0 0 1.109 0c.317-.158.317-.791 0-1.108z" fill="#F2EFFB"/><path opacity=".3" d="M1801.44 476.193a4.44 4.44 0 0 1 4.44 4.435 4.438 4.438 0 0 1-4.44 4.434 4.43 4.43 0 0 1-4.43-4.434 4.43 4.43 0 0 1 4.43-4.435z" fill="#F2EFFB"/><path opacity=".3" fill-rule="evenodd" clip-rule="evenodd" d="M1861.01 540.178c-1.75-1.742-4.6-1.742-6.34 0a4.498 4.498 0 0 0 0 6.336c1.74 1.742 4.59 1.742 6.34 0 1.74-1.901 1.74-4.593 0-6.336z" fill="#F2EFFB"/><path opacity=".3" d="M1830.43 422.501c1.75 0 3.17 1.418 3.17 3.167a3.17 3.17 0 0 1-3.17 3.168 3.16 3.16 0 0 1-3.16-3.168 3.16 3.16 0 0 1 3.16-3.167zM1773.4 546.354a3.17 3.17 0 0 1 3.17 3.168 3.169 3.169 0 0 1-3.17 3.167 3.169 3.169 0 0 1-3.17-3.167 3.17 3.17 0 0 1 3.17-3.168zM1917.09 466.848a3.17 3.17 0 0 1 3.17 3.168 3.17 3.17 0 0 1-6.34 0 3.17 3.17 0 0 1 3.17-3.168z" fill="#F2EFFB"/><path opacity=".3" fill-rule="evenodd" clip-rule="evenodd" d="M1784.81 682.405c-.96-.951-2.38-.951-3.33 0-.95.95-.95 2.375 0 3.326.95.95 2.37.95 3.33 0 .95-.951.95-2.376 0-3.326z" fill="#F2EFFB"/><path opacity=".3" d="M1819.82 485.696c.79 0 1.43.638 1.43 1.425 0 .788-.64 1.426-1.43 1.426-.79 0-1.43-.638-1.43-1.426 0-.787.64-1.425 1.43-1.425zM1768.49 555.067c.79 0 1.43.638 1.43 1.426 0 .787-.64 1.425-1.43 1.425-.79 0-1.42-.638-1.42-1.425 0-.788.63-1.426 1.42-1.426z" fill="#F2EFFB"/><path opacity=".3" fill-rule="evenodd" clip-rule="evenodd" d="M1746 529.724c-.64-.634-1.59-.634-2.06 0-.64.633-.64 1.584 0 2.059.63.633 1.58.633 2.06 0 .63-.634.63-1.426 0-2.059z" fill="#F2EFFB"/><path opacity=".3" d="M1764.69 522.122a1.425 1.425 0 1 1-.01 2.85 1.425 1.425 0 0 1 .01-2.85z" fill="#F2EFFB"/><path opacity=".3" fill-rule="evenodd" clip-rule="evenodd" d="M1897.92 544.455c-.63-.634-1.58-.634-2.06 0-.63.633-.63 1.583 0 2.059.64.633 1.59.633 2.06 0 .48-.476.48-1.426 0-2.059zM1786.39 535.427a.767.767 0 0 0-1.11 0 .777.777 0 0 0 0 1.109c.32.317.8.317 1.11 0a.76.76 0 0 0 0-1.109zM1728.41 700.3a.768.768 0 0 0-1.11 0 .76.76 0 0 0 0 1.109c.32.317.79.317 1.11 0a.76.76 0 0 0 0-1.109zM1769.92 534.794a.768.768 0 0 0-1.11 0 .76.76 0 0 0 0 1.109c.31.317.79.317 1.11 0 .31-.475.31-.95 0-1.109z" fill="#F2EFFB"/><path opacity=".3" d="M1789.88 547.305c.79 0 1.42.639 1.42 1.426 0 .787-.63 1.425-1.42 1.425-.79 0-1.43-.638-1.43-1.425s.64-1.426 1.43-1.426zM1742.83 688.739c.79 0 1.42.638 1.42 1.425a1.42 1.42 0 0 1-1.42 1.426c-.79 0-1.43-.638-1.43-1.426 0-.787.64-1.425 1.43-1.425z" fill="#F2EFFB"/><path opacity=".3" fill-rule="evenodd" clip-rule="evenodd" d="M1779.74 752.566c-.64-.634-1.59-.634-2.06 0-.64.633-.64 1.583 0 2.058.63.634 1.58.634 2.06 0 .63-.475.63-1.425 0-2.058z" fill="#F2EFFB"/><path opacity=".3" d="M1838.04 705.052c.79 0 1.42.638 1.42 1.425s-.63 1.425-1.42 1.425c-.79 0-1.43-.638-1.43-1.425s.64-1.425 1.43-1.425z" fill="#F2EFFB"/><path opacity=".3" d="M1624.8 557.283a4.44 4.44 0 0 1 4.44 4.435 4.438 4.438 0 0 1-4.44 4.434 4.43 4.43 0 0 1-4.43-4.434 4.43 4.43 0 0 1 4.43-4.435z" fill="#FDEFFB"/><path opacity=".3" d="M1407.61 467.482a4.43 4.43 0 0 1 4.43 4.435 4.43 4.43 0 0 1-4.43 4.435 4.44 4.44 0 0 1-4.44-4.435 4.44 4.44 0 0 1 4.44-4.435z" fill="#F2EFFB"/><path opacity=".3" d="M1534.66 492.822a4.43 4.43 0 0 1 4.43 4.435 4.43 4.43 0 0 1-4.43 4.434 4.438 4.438 0 0 1-4.44-4.434 4.44 4.44 0 0 1 4.44-4.435z" fill="#FDEFFB"/><path opacity=".3" d="M1681.2 712.18c2.45 0 4.44 1.985 4.44 4.434a4.44 4.44 0 0 1-4.44 4.435 4.43 4.43 0 0 1-4.43-4.435 4.43 4.43 0 0 1 4.43-4.434zM1667.42 758.426a4.43 4.43 0 0 1 4.43 4.434 4.43 4.43 0 0 1-4.43 4.435 4.44 4.44 0 0 1-4.44-4.435 4.438 4.438 0 0 1 4.44-4.434zM1653.79 503.751c1.75 0 3.17 1.418 3.17 3.167a3.17 3.17 0 0 1-6.34 0 3.169 3.169 0 0 1 3.17-3.167zM1478.42 422.026a3.17 3.17 0 0 1 3.17 3.168 3.169 3.169 0 0 1-3.17 3.167 3.169 3.169 0 0 1-3.17-3.167 3.17 3.17 0 0 1 3.17-3.168zM1503.61 446.575a3.17 3.17 0 0 1 3.17 3.168 3.169 3.169 0 0 1-3.17 3.167 3.169 3.169 0 0 1-3.17-3.167 3.17 3.17 0 0 1 3.17-3.168zM1596.6 719.782a3.17 3.17 0 0 1 3.17 3.168 3.169 3.169 0 0 1-3.17 3.167 3.169 3.169 0 0 1-3.17-3.167 3.17 3.17 0 0 1 3.17-3.168zM1740.45 547.938a3.17 3.17 0 0 1 3.17 3.168 3.169 3.169 0 0 1-3.17 3.167 3.169 3.169 0 0 1-3.17-3.167 3.17 3.17 0 0 1 3.17-3.168z" fill="#F2EFFB"/><path opacity=".3" fill-rule="evenodd" clip-rule="evenodd" d="M1608.17 763.653c-.95-.951-2.38-.951-3.33 0-.95.95-.95 2.375 0 3.326.95.95 2.38.95 3.33 0 .95-.951.95-2.534 0-3.326z" fill="#F2EFFB"/><path opacity=".3" d="M1588.05 808.159c1.31 0 2.37 1.063 2.37 2.375a2.372 2.372 0 0 1-2.37 2.376 2.38 2.38 0 0 1-2.38-2.376 2.38 2.38 0 0 1 2.38-2.375z" fill="#F2EFFB"/><path opacity=".3" fill-rule="evenodd" clip-rule="evenodd" d="M1678.35 749.715c-.95-.95-2.38-.95-3.33 0-.95.95-.95 2.376 0 3.326.95.95 2.38.95 3.33 0 .95-.95.95-2.376 0-3.326zM1812.69 834.608c-.95-.951-2.37-.951-3.32 0-.96.95-.96 2.375 0 3.326.95.95 2.37.95 3.32 0 .95-.951.95-2.376 0-3.326z" fill="#F2EFFB"/><path opacity=".3" d="M1643.18 566.786a1.425 1.425 0 1 1-.01 2.85 1.425 1.425 0 0 1 .01-2.85z" fill="#F2EFFB"/><path opacity=".3" fill-rule="evenodd" clip-rule="evenodd" d="M1592.96 728.652c-.63-.634-1.58-.634-2.06 0-.63.633-.63 1.583 0 2.058.63.634 1.59.634 2.06 0 .63-.475.63-1.425 0-2.058z" fill="#F2EFFB"/><path opacity=".3" d="M1666.15 747.499c.79 0 1.43.638 1.43 1.425s-.64 1.426-1.43 1.426a1.42 1.42 0 0 1-1.42-1.426c0-.787.63-1.425 1.42-1.425zM1500.44 715.188c.79 0 1.43.638 1.43 1.426 0 .787-.64 1.425-1.43 1.425-.79 0-1.42-.638-1.42-1.425 0-.788.63-1.426 1.42-1.426zM1455.29 704.102c.79 0 1.43.638 1.43 1.426a1.425 1.425 0 1 1-1.43-1.426z" fill="#F2EFFB"/><path opacity=".3" fill-rule="evenodd" clip-rule="evenodd" d="M1569.36 702.993c-.64-.633-1.59-.633-2.06 0-.64.634-.64 1.584 0 2.059.63.634 1.58.634 2.06 0 .63-.475.63-1.425 0-2.059zM1885.72 502.167c-.63-.633-1.58-.633-2.06 0-.63.634-.63 1.584 0 2.059.64.634 1.59.634 2.06 0 .64-.475.64-1.425 0-2.059zM1373.86 427.095c-.63-.634-1.58-.634-2.06 0-.63.633-.63 1.584 0 2.059.64.633 1.59.633 2.06 0 .64-.475.64-1.426 0-2.059z" fill="#F2EFFB"/><path opacity=".3" d="M1588.05 695.55c.79 0 1.43.638 1.43 1.425s-.64 1.425-1.43 1.425c-.79 0-1.43-.638-1.43-1.425s.64-1.425 1.43-1.425z" fill="#F2EFFB"/><path opacity=".3" fill-rule="evenodd" clip-rule="evenodd" d="M1484.12 592.284c-.63-.633-1.58-.633-2.05 0-.64.634-.64 1.584 0 2.059.63.634 1.58.634 2.05 0 .64-.633.64-1.425 0-2.059zM1721.28 717.724c-.63-.634-1.58-.634-2.06 0-.63.633-.63 1.584 0 2.059.64.633 1.59.633 2.06 0 .48-.475.48-1.426 0-2.059zM1609.75 708.695a.767.767 0 0 0-1.11 0 .776.776 0 0 0 0 1.108c.32.317.8.317 1.11 0a.76.76 0 0 0 0-1.108zM1726.99 732.769a.767.767 0 0 0-1.11 0 .76.76 0 0 0 0 1.109c.32.316.79.316 1.11 0a.777.777 0 0 0 0-1.109zM1706.71 719.148a.767.767 0 0 0-1.11 0 .76.76 0 0 0 0 1.109c.31.316.79.316 1.11 0 .15-.317.15-.792 0-1.109zM1840.89 495.832a.767.767 0 0 0-1.11 0 .76.76 0 0 0 0 1.108c.32.317.79.317 1.11 0 .16-.317.16-.792 0-1.108zM1551.77 781.392a.767.767 0 0 0-1.11 0 .777.777 0 0 0 0 1.109c.32.316.8.316 1.11 0a.76.76 0 0 0 0-1.109zM1551.14 833.499a.768.768 0 0 0-1.11 0 .76.76 0 0 0 0 1.109c.31.317.79.317 1.11 0a.777.777 0 0 0 0-1.109zM1579.33 834.29a.757.757 0 0 0-1.1 0 .76.76 0 0 0 0 1.109c.31.317.79.317 1.1 0a.76.76 0 0 0 0-1.109zM1580.13 824.472a.767.767 0 0 0-1.11 0 .76.76 0 0 0 0 1.109c.32.317.79.317 1.11 0a.777.777 0 0 0 0-1.109zM1672.49 757.318a.767.767 0 0 0-1.11 0 .76.76 0 0 0 0 1.109c.32.316.79.316 1.11 0 .16-.476.16-.792 0-1.109z" fill="#F2EFFB"/><path opacity=".3" d="M1592.8 707.744c.44 0 .8.355.8.792a.795.795 0 0 1-1.59 0c0-.437.36-.792.79-.792z" fill="#F2EFFB"/><path opacity=".3" fill-rule="evenodd" clip-rule="evenodd" d="M1677.24 746.232a.767.767 0 0 0-1.11 0 .777.777 0 0 0 0 1.109c.32.316.79.316 1.11 0a.76.76 0 0 0 0-1.109z" fill="#F2EFFB"/><path opacity=".3" d="M1613.24 720.731c.79 0 1.42.638 1.42 1.426 0 .787-.63 1.425-1.42 1.425-.79 0-1.43-.638-1.43-1.425 0-.788.64-1.426 1.43-1.426z" fill="#F2EFFB"/><path opacity=".3" fill-rule="evenodd" clip-rule="evenodd" d="M1704.96 744.964c-.63-.634-1.58-.634-2.06 0-.63.633-.63 1.584 0 2.059.64.633 1.59.633 2.06 0 .48-.475.48-1.426 0-2.059zM1685.32 746.39c-.64-.634-1.59-.634-2.06 0-.64.633-.64 1.584 0 2.059.63.633 1.58.633 2.06 0 .47-.475.47-1.426 0-2.059zM1567.14 770.306c-.64-.634-1.59-.634-2.06 0-.64.633-.64 1.584 0 2.059.63.633 1.58.633 2.06 0 .63-.475.63-1.426 0-2.059z" fill="#F2EFFB"/><path opacity=".3" fill-rule="evenodd" clip-rule="evenodd" d="M1391.13 543.028c-.63-.633-1.58-.633-2.06 0-.63.634-.63 1.584 0 2.059.64.634 1.59.634 2.06 0 .48-.633.48-1.583 0-2.059z" fill="#EBCBF8"/><path opacity=".3" fill-rule="evenodd" clip-rule="evenodd" d="M1428.2 771.732c-.63-.634-1.58-.634-2.06 0-.63.633-.63 1.583 0 2.058.64.634 1.59.634 2.06 0 .64-.475.64-1.425 0-2.058z" fill="#F2EFFB"/><path opacity=".3" d="M1629.24 822.887c.79 0 1.42.639 1.42 1.426 0 .787-.63 1.425-1.42 1.425-.79 0-1.43-.638-1.43-1.425s.64-1.426 1.43-1.426z" fill="#F2EFFB"/><path opacity=".3" fill-rule="evenodd" clip-rule="evenodd" d="M1370.53 529.724c-.63-.634-1.58-.634-2.05 0-.64.633-.64 1.584 0 2.059.63.633 1.58.633 2.05 0 .64-.634.64-1.426 0-2.059z" fill="#EBCBF8"/><path opacity=".3" d="M1918.2 748.925c1.75 0 3.17 1.418 3.17 3.167a3.17 3.17 0 0 1-6.34 0 3.169 3.169 0 0 1 3.17-3.167zM1913.92 560.927c1.75 0 3.17 1.418 3.17 3.167a3.17 3.17 0 0 1-6.34 0 3.169 3.169 0 0 1 3.17-3.167z" fill="#F2EFFB"/><path opacity=".3" fill-rule="evenodd" clip-rule="evenodd" d="M1582.03 623.645c-.95-.951-2.38-.951-3.33 0-.95.95-.95 2.376 0 3.326.95.95 2.38.95 3.33 0a2.63 2.63 0 0 0 0-3.326zM1914.55 757.952c-.63-.633-1.58-.633-2.06 0-.63.634-.63 1.584 0 2.059.64.634 1.59.634 2.06 0 .48-.475.48-1.425 0-2.059zM1890.95 732.294c-.63-.634-1.58-.634-2.06 0-.63.634-.63 1.584 0 2.059.64.634 1.59.634 2.06 0 .64-.475.64-1.425 0-2.059zM1863.39 551.581c-.64-.633-1.59-.633-2.06 0-.64.634-.64 1.584 0 2.059.63.634 1.58.634 2.06 0 .63-.475.63-1.425 0-2.059zM1910.75 725.167c-.63-.633-1.58-.633-2.06 0-.63.634-.63 1.584 0 2.059.64.634 1.59.634 2.06 0 .48-.633.48-1.584 0-2.059zM1873.37 810.693a.767.767 0 0 0-1.11 0 .76.76 0 0 0 0 1.108c.31.317.79.317 1.11 0a.776.776 0 0 0 0-1.108zM1914.87 737.363a.767.767 0 0 0-1.11 0 .76.76 0 0 0 0 1.108c.32.317.79.317 1.11 0 .32-.475.32-.95 0-1.108zM852.499 851.871c.793 1.583 2.852 2.059 4.278 1.108 1.584-.792 2.059-2.851 1.109-4.276-.792-1.584-2.852-2.059-4.278-1.109-1.584.792-2.059 2.693-1.109 4.277zM896.539 879.904c.158.317.633.475.95.317.317-.158.476-.633.317-.95-.158-.317-.634-.475-.95-.317-.317.158-.476.475-.317.95zM909.688 900.969c.159.317.634.475.951.317.317-.159.475-.634.317-.951-.159-.317-.634-.475-.951-.317-.475.159-.634.476-.317.951zM871.354 817.661c.475.634 1.267.951 2.059.475.634-.475.951-1.267.475-2.059-.475-.633-1.267-.95-2.059-.475-.634.317-.792 1.267-.475 2.059zM877.213 812.435c.475.633 1.268.95 2.06.475.633-.475.95-1.267.475-2.059-.475-.634-1.267-.95-2.06-.475-.633.475-.95 1.425-.475 2.059zM872.459 875.629c-1.742-.475-3.485.475-3.802 2.217-.475 1.743.475 3.485 2.218 3.802 1.743.475 3.485-.476 3.802-2.218.475-1.584-.634-3.326-2.218-3.801zM850.914 795.487c.792.317 1.584-.158 1.901-.792.316-.792-.159-1.584-.793-1.9-.792-.317-1.584.158-1.901.791-.316.951 0 1.743.793 1.901zM899.706 831.598c1.584.634 3.485-.316 3.961-1.9.633-1.584-.317-3.485-1.902-3.96-1.584-.633-3.485.317-3.96 1.901-.475 1.584.317 3.326 1.901 3.959z" fill="#F2EFFB"/><path opacity=".3" fill-rule="evenodd" clip-rule="evenodd" d="M876.733 812.434c-1.584.792-2.218 2.535-1.584 4.118.792 1.584 2.535 2.218 4.119 1.584 1.584-.792 2.218-2.534 1.584-4.118-.633-1.584-2.534-2.375-4.119-1.584zM869.289 798.181c-.317.158-.475.633-.317.95.159.317.634.475.951.317.317-.159.475-.634.317-.951-.159-.316-.634-.475-.951-.316zM862.953 813.384c-.317.158-.475.633-.317.95.159.317.634.475.951.317.317-.159.475-.634.317-.951-.159-.316-.476-.475-.951-.316zM882.437 798.022c-.792.317-1.109 1.267-.792 1.901.317.792 1.267 1.108 1.901.792.792-.317 1.109-1.267.792-1.901-.317-.792-1.109-1.109-1.901-.792z" fill="#F2EFFB"/><path opacity=".3" d="M1887.78 799.13c.79 0 1.43.638 1.43 1.425s-.64 1.425-1.43 1.425c-.79 0-1.42-.638-1.42-1.425s.63-1.425 1.42-1.425z" fill="#F2EFFB"/><path opacity=".3" fill-rule="evenodd" clip-rule="evenodd" d="M1603.1 833.815c-.63-.633-1.58-.633-2.06 0-.63.634-.63 1.584 0 2.059.64.634 1.59.634 2.06 0 .63-.633.63-1.583 0-2.059zM1582.19 900.812c-.64-.634-1.59-.634-2.06 0-.64.633-.64 1.583 0 2.059.63.633 1.58.633 2.06 0 .47-.634.47-1.584 0-2.059zM1662.51 786.46c-.64-.633-1.59-.633-2.06 0-.64.634-.64 1.584 0 2.059.63.634 1.58.634 2.06 0 .47-.475.47-1.425 0-2.059z" fill="#F2EFFB"/><path opacity=".3" fill-rule="evenodd" clip-rule="evenodd" d="M1333.3 581.991c0 2.534 2.06 4.435 4.44 4.435 2.54 0 4.44-2.059 4.44-4.435 0-2.534-2.06-4.434-4.44-4.434-2.38 0-4.44 2.058-4.44 4.434zM1337.74 497.731c0 2.534 2.06 4.435 4.44 4.435 2.37 0 4.43-2.059 4.43-4.435 0-2.375-2.06-4.434-4.43-4.434-2.38 0-4.44 2.059-4.44 4.434zM1275.32 692.539a3.18 3.18 0 0 0 3.17 3.168c1.75 0 3.17-1.425 3.17-3.168a3.174 3.174 0 0 0-3.17-3.167 3.18 3.18 0 0 0-3.17 3.167z" fill="#EBCBF8"/><path opacity=".3" fill-rule="evenodd" clip-rule="evenodd" d="M1403.33 553.164a3.174 3.174 0 0 0 3.17 3.168c1.74 0 3.16-1.425 3.16-3.168a3.171 3.171 0 0 0-3.16-3.167 3.174 3.174 0 0 0-3.17 3.167zM1247.76 374.196a3.174 3.174 0 0 0 3.17 3.167c1.74 0 3.16-1.425 3.16-3.167a3.172 3.172 0 0 0-3.16-3.168c-1.9.158-3.17 1.584-3.17 3.168z" fill="#F2EFFB"/><path opacity=".3" fill-rule="evenodd" clip-rule="evenodd" d="M1245.23 507.711a3.172 3.172 0 0 0 3.16 3.168c1.75 0 3.17-1.425 3.17-3.168a3.174 3.174 0 0 0-3.17-3.167 3.171 3.171 0 0 0-3.16 3.167z" fill="#EBCBF8"/><path opacity=".3" fill-rule="evenodd" clip-rule="evenodd" d="M1427.09 516.263c0 1.267 1.11 2.376 2.38 2.376 1.26 0 2.37-1.109 2.37-2.376s-1.11-2.376-2.37-2.376c-1.43 0-2.38.951-2.38 2.376z" fill="#F2EFFB"/><path opacity=".3" fill-rule="evenodd" clip-rule="evenodd" d="M1327.92 564.569c0 .792.63 1.425 1.42 1.425.8 0 1.43-.633 1.43-1.425s-.63-1.426-1.43-1.426c-.79-.158-1.42.475-1.42 1.426z" fill="#EBCBF8"/><path opacity=".3" fill-rule="evenodd" clip-rule="evenodd" d="M1413.15 551.58c0 .792.64 1.426 1.43 1.426.79 0 1.42-.634 1.42-1.426 0-.792-.63-1.425-1.42-1.425-.79 0-1.43.633-1.43 1.425z" fill="#F2EFFB"/><path opacity=".3" fill-rule="evenodd" clip-rule="evenodd" d="M1411.73 586.426c0 .792.63 1.426 1.42 1.426a1.425 1.425 0 1 0 0-2.851c-.79 0-1.42.633-1.42 1.425z" fill="#EBCBF8"/><path opacity=".3" fill-rule="evenodd" clip-rule="evenodd" d="M1392.71 577.557c0 .792.64 1.425 1.43 1.425a1.424 1.424 0 1 0 0-2.85c-.79 0-1.43.633-1.43 1.425zM1432.32 584.049c0 .792.63 1.426 1.43 1.426.79 0 1.42-.634 1.42-1.426 0-.792-.63-1.425-1.42-1.425-.8 0-1.43.633-1.43 1.425z" fill="#F2EFFB"/><path opacity=".3" fill-rule="evenodd" clip-rule="evenodd" d="M1314.77 468.748c0 .792.63 1.426 1.43 1.426.79 0 1.42-.634 1.42-1.426 0-.792-.63-1.425-1.42-1.425-.8-.159-1.43.633-1.43 1.425zM1387.17 553.798c0 .475.32.792.79.792.48 0 .8-.317.8-.792 0-.475-.32-.792-.8-.792-.47.158-.79.475-.79.792z" fill="#EBCBF8"/><path opacity=".3" fill-rule="evenodd" clip-rule="evenodd" d="M1398.26 565.993c0 .475.32.792.79.792.48 0 .8-.317.8-.792 0-.475-.32-.792-.8-.792-.47 0-.79.317-.79.792zM1392.71 541.92c0 .792.64 1.426 1.43 1.426a1.425 1.425 0 1 0 0-2.851c-.79 0-1.43.633-1.43 1.425zM1432.32 362.95c0 .792.63 1.425 1.43 1.425.79 0 1.42-.633 1.42-1.425s-.63-1.426-1.42-1.426c-.8 0-1.43.634-1.43 1.426zM1404.91 461.621c0 .792.64 1.426 1.43 1.426a1.425 1.425 0 1 0 0-2.851c-.79 0-1.43.633-1.43 1.425zM1063.36 341.727c-1.74-1.742-4.6-1.742-6.34 0a4.497 4.497 0 0 0 0 6.335c1.74 1.743 4.6 1.743 6.34 0a4.497 4.497 0 0 0 0-6.335zM1248.39 353.923a4.485 4.485 0 0 0-6.33 0 4.478 4.478 0 0 0 0 6.335 4.487 4.487 0 0 0 6.33 0 4.478 4.478 0 0 0 0-6.335z" fill="#F2EFFB"/><path opacity=".3" d="M1116.59 403.18a4.43 4.43 0 0 1 4.43 4.434 4.43 4.43 0 0 1-4.43 4.435 4.44 4.44 0 0 1-4.44-4.435 4.438 4.438 0 0 1 4.44-4.434z" fill="#FDEFFB"/><path opacity=".3" d="M1031.99 410.622c1.75 0 3.17 1.418 3.17 3.167a3.17 3.17 0 0 1-6.34 0 3.169 3.169 0 0 1 3.17-3.167zM1175.84 331.116a3.16 3.16 0 0 1 3.16 3.168 3.16 3.16 0 0 1-3.16 3.167 3.169 3.169 0 0 1-3.17-3.167 3.17 3.17 0 0 1 3.17-3.168zM1041.97 453.702a2.38 2.38 0 0 1 2.38 2.375 2.381 2.381 0 0 1-4.76 0 2.38 2.38 0 0 1 2.38-2.375z" fill="#F2EFFB"/><path opacity=".3" fill-rule="evenodd" clip-rule="evenodd" d="M1079.52 350.28c-.64-.633-1.59-.633-2.06 0-.64.634-.64 1.584 0 2.059.63.634 1.58.634 2.06 0 .47-.475.47-1.425 0-2.059zM1028.35 419.65c-.64-.634-1.59-.634-2.06 0-.64.633-.64 1.583 0 2.058.63.634 1.58.634 2.06 0 .47-.475.47-1.425 0-2.058zM1004.74 393.993c-.63-.633-1.58-.633-2.06 0-.63.634-.63 1.584 0 2.059.64.634 1.59.634 2.06 0 .48-.633.48-1.425 0-2.059z" fill="#F2EFFB"/><path opacity=".3" d="M1023.43 386.391c.79 0 1.43.639 1.43 1.426a1.425 1.425 0 1 1-1.43-1.426zM1155.55 408.405c.79 0 1.43.638 1.43 1.425a1.425 1.425 0 1 1-1.43-1.425z" fill="#F2EFFB"/><path opacity=".3" fill-rule="evenodd" clip-rule="evenodd" d="M1045.14 399.695a.767.767 0 0 0-1.11 0 .76.76 0 0 0 0 1.108c.31.317.79.317 1.11 0a.776.776 0 0 0 0-1.108zM987.159 472.392a.766.766 0 0 0-1.109 0 .766.766 0 0 0 0 1.109.767.767 0 0 0 1.109 0 .766.766 0 0 0 0-1.109zM1028.66 399.06a.767.767 0 0 0-1.11 0 .777.777 0 0 0 0 1.109c.32.316.8.316 1.11 0 .32-.475.32-.951 0-1.109zM1049.73 412.048c-.63-.633-1.58-.633-2.06 0-.63.634-.63 1.584 0 2.059.63.633 1.58.633 2.06 0 .48-.634.48-1.584 0-2.059z" fill="#F2EFFB"/><path opacity=".3" d="M1001.41 460.829c.79 0 1.43.638 1.43 1.425a1.427 1.427 0 0 1-2.852 0c0-.787.642-1.425 1.422-1.425z" fill="#F2EFFB"/><path opacity=".3" fill-rule="evenodd" clip-rule="evenodd" d="M1038.48 524.657c-.63-.633-1.58-.633-2.06 0-.63.634-.63 1.584 0 2.059.64.634 1.59.634 2.06 0 .48-.475.48-1.425 0-2.059z" fill="#F2EFFB"/><path opacity=".3" d="M1096.78 477.143c.79 0 1.43.639 1.43 1.426 0 .787-.64 1.425-1.43 1.425-.79 0-1.42-.638-1.42-1.425s.63-1.426 1.42-1.426zM883.549 421.551a4.435 4.435 0 1 1 0 8.869 4.436 4.436 0 1 1 0-8.869z" fill="#F2EFFB"/><path opacity=".3" fill-rule="evenodd" clip-rule="evenodd" d="M943.113 485.536a4.495 4.495 0 0 0-6.337 0 4.491 4.491 0 0 0 0 6.335 4.495 4.495 0 0 0 6.337 0 4.493 4.493 0 0 0 0-6.335z" fill="#F2EFFB"/><path opacity=".3" d="M926.162 530.517a4.436 4.436 0 1 1 0 8.871 4.436 4.436 0 0 1 0-8.871zM912.54 368.018a3.168 3.168 0 1 1 0 6.336 3.168 3.168 0 0 1 0-6.336z" fill="#F2EFFB"/><path opacity=".3" fill-rule="evenodd" clip-rule="evenodd" d="M857.57 492.822c-1.267-1.267-3.169-1.267-4.436 0s-1.267 3.168 0 4.435c1.267 1.267 3.169 1.267 4.436 0s1.267-3.326 0-4.435z" fill="#F2EFFB"/><path opacity=".3" d="M999.196 412.206a3.161 3.161 0 0 1 3.164 3.167c0 1.75-1.41 3.168-3.164 3.168a3.168 3.168 0 1 1 0-6.335z" fill="#F2EFFB"/><path opacity=".3" fill-rule="evenodd" clip-rule="evenodd" d="M866.915 535.744c-.951-.95-2.377-.95-3.327 0-.951.951-.951 2.376 0 3.326.95.951 2.376.951 3.327 0 .95-.95.95-2.534 0-3.326zM937.094 521.805c-.95-.95-2.376-.95-3.326 0-.951.95-.951 2.376 0 3.326.95.95 2.376.95 3.326 0 .951-.95.951-2.376 0-3.326zM1071.44 698.875c-.95-.95-2.38-.95-3.33 0-.95.951-.95 2.376 0 3.326.95.951 2.38.951 3.33 0a2.63 2.63 0 0 0 0-3.326z" fill="#F2EFFB"/><path opacity=".3" d="M901.766 431.053a1.426 1.426 0 1 1-.002 2.852 1.426 1.426 0 0 1 .002-2.852z" fill="#F2EFFB"/><path opacity=".3" fill-rule="evenodd" clip-rule="evenodd" d="M925.847 520.064c-.633-.634-1.584-.634-2.059 0-.634.633-.634 1.583 0 2.059.633.633 1.584.633 2.059 0 .634-.634.634-1.584 0-2.059z" fill="#F2EFFB"/><path opacity=".3" d="M1143.36 366.118c.79 0 1.43.638 1.43 1.425 0 .788-.64 1.426-1.43 1.426-.79 0-1.43-.638-1.43-1.426 0-.787.64-1.425 1.43-1.425zM978.918 489.497a1.426 1.426 0 1 1 0 2.852 1.426 1.426 0 0 1 0-2.852zM1316.2 355.665a1.425 1.425 0 1 1-.01 2.85 1.425 1.425 0 0 1 .01-2.85z" fill="#F2EFFB"/><path opacity=".3" fill-rule="evenodd" clip-rule="evenodd" d="M868.499 480.785a.766.766 0 0 0-1.109 0 .764.764 0 0 0 0 1.108.766.766 0 0 0 1.109 0 .764.764 0 0 0 0-1.108zM985.733 504.859a.766.766 0 0 0-1.109 0 .767.767 0 0 0 0 1.109.767.767 0 0 0 1.109 0 1.349 1.349 0 0 0 0-1.109zM965.292 491.238a.766.766 0 0 0-1.109 0 .764.764 0 0 0 0 1.108.766.766 0 0 0 1.109 0 .764.764 0 0 0 0-1.108zM1099.48 360.099a.767.767 0 0 0-1.11 0 .76.76 0 0 0 0 1.109c.31.317.79.317 1.11 0a.777.777 0 0 0 0-1.109z" fill="#F2EFFB"/><path opacity=".3" fill-rule="evenodd" clip-rule="evenodd" d="M1268.04 538.912a.767.767 0 0 0-1.11 0 .76.76 0 0 0 0 1.108c.32.317.79.317 1.11 0 .16-.317.16-.792 0-1.108z" fill="#EBCBF8"/><path opacity=".3" d="M930.601 529.092a.793.793 0 1 1-.001 1.585.793.793 0 0 1 .001-1.585z" fill="#F2EFFB"/><path opacity=".3" fill-rule="evenodd" clip-rule="evenodd" d="M852.022 480.152a.765.765 0 0 0-1.109 0 .766.766 0 0 0 0 1.108.765.765 0 0 0 1.109 0 .764.764 0 0 0 0-1.108zM935.987 518.322a.766.766 0 0 0-1.109 0 .764.764 0 0 0 0 1.108.766.766 0 0 0 1.109 0 .764.764 0 0 0 0-1.108z" fill="#F2EFFB"/><path opacity=".3" d="M871.984 492.823a1.425 1.425 0 1 1 .002 2.85 1.425 1.425 0 0 1-.002-2.85z" fill="#F2EFFB"/><path opacity=".3" fill-rule="evenodd" clip-rule="evenodd" d="M963.55 517.054c-.633-.634-1.584-.634-2.059 0-.634.633-.634 1.584 0 2.059.634.633 1.584.633 2.059 0 .634-.475.634-1.426 0-2.059z" fill="#F2EFFB"/><path opacity=".3" d="M942.957 518.163a1.426 1.426 0 1 1 0 2.852 1.426 1.426 0 0 1 0-2.852z" fill="#F2EFFB"/><path opacity=".3" fill-rule="evenodd" clip-rule="evenodd" d="M1282.61 395.419c-.63-.634-1.58-.634-2.06 0-.63.634-.63 1.584 0 2.059.64.634 1.59.634 2.06 0 .64-.475.64-1.425 0-2.059z" fill="#F2EFFB"/><path opacity=".3" d="M1255.68 345.212c1.75 0 3.17 1.418 3.17 3.167a3.17 3.17 0 0 1-6.34 0 3.169 3.169 0 0 1 3.17-3.167z" fill="#F2EFFB"/><path opacity=".3" fill-rule="evenodd" clip-rule="evenodd" d="M1228.27 328.423c-.63-.633-1.58-.633-2.06 0-.63.634-.63 1.584 0 2.059.64.633 1.59.633 2.06 0 .64-.475.64-1.425 0-2.059z" fill="#F2EFFB"/><path opacity=".3" d="M1246.96 320.979c.79 0 1.43.638 1.43 1.426a1.425 1.425 0 1 1-1.43-1.426z" fill="#F2EFFB"/><path opacity=".3" fill-rule="evenodd" clip-rule="evenodd" d="M1268.67 334.124a.768.768 0 0 0-1.11 0 .777.777 0 0 0 0 1.109c.32.317.79.317 1.11 0a.76.76 0 0 0 0-1.109zM1252.35 333.492a.755.755 0 0 0-1.1 0 .76.76 0 0 0 0 1.108c.31.317.79.317 1.1 0 .16-.316.16-.792 0-1.108z" fill="#F2EFFB"/><path opacity=".3" d="M1272.32 346.161a1.425 1.425 0 1 1-.01 2.85 1.425 1.425 0 0 1 .01-2.85z" fill="#F2EFFB"/><path opacity=".3" fill-rule="evenodd" clip-rule="evenodd" d="M1583.77 368.653a3.18 3.18 0 0 0 3.17 3.167 3.18 3.18 0 0 0 3.17-3.167 3.18 3.18 0 0 0-3.17-3.168 3.18 3.18 0 0 0-3.17 3.168z" fill="#FDEFFB"/><path opacity=".3" d="M1581.4 346.953a4.43 4.43 0 0 1 4.43 4.435 4.43 4.43 0 0 1-4.43 4.434 4.438 4.438 0 0 1-4.44-4.434c0-2.45 1.99-4.435 4.44-4.435zM1511.85 325.415c1.75 0 3.17 1.418 3.17 3.167a3.17 3.17 0 0 1-6.34 0 3.169 3.169 0 0 1 3.17-3.167zM1652.37 349.964a1.425 1.425 0 1 1-.01 2.85 1.425 1.425 0 0 1 .01-2.85zM1617.67 389.399c.79 0 1.43.638 1.43 1.425 0 .788-.64 1.426-1.43 1.426a1.42 1.42 0 0 1-1.42-1.426c0-.787.63-1.425 1.42-1.425z" fill="#F2EFFB"/><path opacity=".3" fill-rule="evenodd" clip-rule="evenodd" d="M1504.72 629.347c-.64-.634-1.59-.634-2.06 0-.63.633-.63 1.584 0 2.059.63.633 1.58.633 2.06 0 .47-.475.47-1.426 0-2.059z" fill="#F2EFFB"/><path opacity=".3" d="M1591.69 339.51a3.17 3.17 0 1 1 .002 6.334 3.17 3.17 0 0 1-.002-6.334zM1563.34 322.405a1.425 1.425 0 1 1-.01 2.85 1.425 1.425 0 0 1 .01-2.85z" fill="#F2EFFB"/><path opacity=".3" fill-rule="evenodd" clip-rule="evenodd" d="M1584.25 315.753c-.64-.633-1.59-.633-2.06 0-.64.634-.64 1.584 0 2.059.63.633 1.58.633 2.06 0 .47-.634.47-1.584 0-2.059zM1604.84 328.582a.767.767 0 0 0-1.11 0 .776.776 0 0 0 0 1.108c.32.317.8.317 1.11 0a.76.76 0 0 0 0-1.108zM1588.37 327.791a.767.767 0 0 0-1.11 0 .76.76 0 0 0 0 1.108c.31.317.79.317 1.11 0a.776.776 0 0 0 0-1.108zM1609.43 340.935c-.63-.634-1.58-.634-2.06 0-.63.633-.63 1.583 0 2.059.64.633 1.59.633 2.06 0 .48-.634.48-1.584 0-2.059z" fill="#F2EFFB"/><path opacity=".3" d="M887.984 687.155a1.425 1.425 0 1 1 .002 2.85 1.425 1.425 0 0 1-.002-2.85zM1176.95 521.014c1.75 0 3.16 1.419 3.16 3.168a3.161 3.161 0 0 1-3.16 3.168 3.17 3.17 0 0 1-3.17-3.168 3.17 3.17 0 0 1 3.17-3.168z" fill="#F2EFFB"/><path opacity=".3" fill-rule="evenodd" clip-rule="evenodd" d="M1174.89 426.144c-1.27-1.267-3.17-1.267-4.44 0-1.27 1.267-1.27 3.168 0 4.435 1.27 1.267 3.17 1.267 4.44 0 1.26-1.267 1.26-3.326 0-4.435zM1188.51 564.885c-.95-.95-2.38-.95-3.33 0-.95.95-.95 2.376 0 3.326.95.95 2.38.95 3.33 0a2.63 2.63 0 0 0 0-3.326z" fill="#F2EFFB"/><path opacity=".3" d="M1172.19 529.725c.79 0 1.43.639 1.43 1.426 0 .787-.64 1.425-1.43 1.425-.79 0-1.42-.638-1.42-1.425s.63-1.426 1.42-1.426z" fill="#F2EFFB"/><path opacity=".3" fill-rule="evenodd" clip-rule="evenodd" d="M1149.54 504.384c-.64-.634-1.59-.634-2.06 0-.63.633-.63 1.584 0 2.059.63.633 1.58.633 2.06 0 .63-.475.63-1.426 0-2.059zM1522.62 725.8c-.63-.634-1.58-.634-2.06 0-.63.633-.63 1.584 0 2.059.63.633 1.59.633 2.06 0 .63-.634.63-1.584 0-2.059z" fill="#F2EFFB"/><path opacity=".3" d="M1121.02 415.532c.79 0 1.43.638 1.43 1.425a1.425 1.425 0 1 1-1.43-1.425zM1168.39 496.782c.79 0 1.43.638 1.43 1.425 0 .788-.64 1.426-1.43 1.426-.79 0-1.43-.638-1.43-1.426 0-.787.64-1.425 1.43-1.425z" fill="#F2EFFB"/><path opacity=".3" fill-rule="evenodd" clip-rule="evenodd" d="M1189.94 510.085a.768.768 0 0 0-1.11 0 .76.76 0 0 0 0 1.109c.31.317.79.317 1.11 0a.777.777 0 0 0 0-1.109z" fill="#F2EFFB"/><path opacity=".3" fill-rule="evenodd" clip-rule="evenodd" d="M1218.45 571.22a.767.767 0 0 0-1.11 0 .777.777 0 0 0 0 1.109c.32.317.8.317 1.11 0 .32-.475.32-.95 0-1.109z" fill="#EBCBF8"/><path opacity=".3" fill-rule="evenodd" clip-rule="evenodd" d="M1132.11 582.783a.767.767 0 0 0-1.11 0 .776.776 0 0 0 0 1.108c.32.317.8.317 1.11 0a.76.76 0 0 0 0-1.108zM1173.62 509.453a.767.767 0 0 0-1.11 0 .76.76 0 0 0 0 1.108c.31.317.79.317 1.11 0 .31-.475.31-.792 0-1.108zM1089.66 588.642a.767.767 0 0 0-1.11 0 .76.76 0 0 0 0 1.109c.31.316.79.316 1.11 0a.777.777 0 0 0 0-1.109zM1194.53 522.441c-.63-.634-1.58-.634-2.06 0-.63.633-.63 1.583 0 2.058.64.634 1.59.634 2.06 0 .63-.475.63-1.425 0-2.058z" fill="#F2EFFB"/><path opacity=".3" d="M1294.81 521.173c.79 0 1.42.638 1.42 1.425s-.63 1.425-1.42 1.425c-.79 0-1.43-.638-1.43-1.425s.64-1.425 1.43-1.425z" fill="#EBCBF8"/><path opacity=".3" fill-rule="evenodd" clip-rule="evenodd" d="M1147.48 571.696c-.63-.633-1.58-.633-2.06 0-.63.634-.63 1.584 0 2.059.63.634 1.58.634 2.06 0 .48-.633.48-1.583 0-2.059zM861.843 698.083c-.633-.633-1.584-.633-2.059 0-.634.634-.634 1.584 0 2.059.634.634 1.584.634 2.059 0 .476-.633.476-1.584 0-2.059zM921.093 558.708c-.633-.633-1.584-.633-2.059 0-.634.634-.634 1.584 0 2.059.634.634 1.584.634 2.059 0 .634-.633.634-1.584 0-2.059zM1025.97 805.307c-1.74-1.742-4.6-1.742-6.34 0a4.498 4.498 0 0 0 0 6.336c1.74 1.742 4.6 1.742 6.34 0a4.498 4.498 0 0 0 0-6.336z" fill="#F2EFFB"/></g><g opacity=".3"><path opacity=".3" fill-rule="evenodd" clip-rule="evenodd" d="M934.874 1026.09a2.487 2.487 0 0 0-3.485 0 2.479 2.479 0 0 0 0 3.48c.95.95 2.534.95 3.485 0 1.109-.95 1.109-2.53 0-3.48zM1818.71 1022.76c-1.74-1.74-4.44-1.74-6.02 0-1.74 1.75-1.74 4.44 0 6.02 1.74 1.75 4.44 1.75 6.02 0 1.74-1.74 1.74-4.43 0-6.02zM1791.62 910.631c-1.11-1.109-3.17-1.109-4.28 0-1.11 1.108-1.11 3.167 0 4.276 1.11 1.108 3.17 1.108 4.28 0 1.11-1.267 1.11-3.168 0-4.276zM1874.79 953.078c-1.11-1.109-3.17-1.109-4.28 0-1.11 1.108-1.11 3.167 0 4.276s3.17 1.109 4.28 0c1.27-1.109 1.27-3.009 0-4.276zM1854.19 1026.88c-.63-.63-1.42-.63-2.05 0-.64.64-.64 1.43 0 2.06.63.64 1.42.64 2.05 0 .48-.63.48-1.58 0-2.06zM1842.63 986.337c-.63-.634-1.42-.634-2.06 0-.63.633-.63 1.425 0 2.059.64.633 1.43.633 2.06 0 .48-.634.48-1.584 0-2.059zM1799.38 980.16c-.31-.317-.79-.317-.95 0-.31.317-.31.792 0 .95.32.317.8.317.95 0 .32-.158.32-.633 0-.95z" fill="#94D6EA"/><path opacity=".3" d="M1869.72 1042.72c1.66 0 3.01 1.35 3.01 3.01 0 1.66-1.35 3.01-3.01 3.01-1.66 0-3.01-1.35-3.01-3.01 0-1.66 1.35-3.01 3.01-3.01z" fill="#94D6EA"/><path opacity=".3" fill-rule="evenodd" clip-rule="evenodd" d="M1821.09 1033.85c-.64-.63-1.43-.63-2.06 0-.64.63-.64 1.43 0 2.06.63.63 1.42.63 2.06 0 .47-.63.47-1.58 0-2.06z" fill="#94D6EA"/><path opacity=".3" d="M1830.43 1055.23a3.171 3.171 0 0 1 0 6.34c-1.75 0-3.16-1.42-3.16-3.17s1.41-3.17 3.16-3.17zM1478.42 1054.76c1.75 0 3.17 1.42 3.17 3.16a3.171 3.171 0 0 1-6.34 0c0-1.74 1.42-3.16 3.17-3.16zM1503.61 1079.31c1.75 0 3.17 1.41 3.17 3.16a3.171 3.171 0 0 1-6.34 0c0-1.75 1.42-3.16 3.17-3.16zM1372.91 1059.51c.79 0 1.43.64 1.43 1.42 0 .79-.64 1.43-1.43 1.43a1.425 1.425 0 0 1 0-2.85z" fill="#94D6EA"/><path opacity=".3" fill-rule="evenodd" clip-rule="evenodd" d="M1530.7 820.83a.767.767 0 0 0-1.11 0 .776.776 0 0 0 0 1.108c.32.317.8.317 1.11 0a.76.76 0 0 0 0-1.108zM1247.76 1007.08c0 1.75 1.42 3.17 3.17 3.17 1.74 0 3.16-1.42 3.16-3.17 0-1.74-1.42-3.16-3.16-3.16-1.9 0-3.17 1.42-3.17 3.16zM1432.32 995.682c0 .792.63 1.426 1.43 1.426.79 0 1.42-.634 1.42-1.426 0-.792-.63-1.425-1.42-1.425-.8 0-1.43.633-1.43 1.425z" fill="#94D6EA"/><path opacity=".3" d="M1060.19 973.191a4.44 4.44 0 0 1 4.44 4.435 4.44 4.44 0 0 1-4.44 4.435 4.44 4.44 0 0 1-4.44-4.435 4.44 4.44 0 0 1 4.44-4.435z" fill="#94D6EA"/><path opacity=".3" fill-rule="evenodd" clip-rule="evenodd" d="M1248.39 986.653a4.487 4.487 0 0 0-6.33 0 4.478 4.478 0 0 0 0 6.335 4.487 4.487 0 0 0 6.33 0 4.478 4.478 0 0 0 0-6.335z" fill="#94D6EA"/><path opacity=".3" d="M1116.59 1035.91c2.45 0 4.43 1.99 4.43 4.43a4.434 4.434 0 1 1-4.43-4.43z" fill="#B5EAFF"/><path opacity=".3" d="M1089.18 919.501c1.75 0 3.17 1.418 3.17 3.167a3.17 3.17 0 0 1-6.34 0 3.169 3.169 0 0 1 3.17-3.167zM1008.86 830.175c1.75 0 3.17 1.418 3.17 3.167a3.17 3.17 0 0 1-6.34 0 3.169 3.169 0 0 1 3.17-3.167zM1031.99 1043.35a3.171 3.171 0 0 1 0 6.34 3.171 3.171 0 0 1 0-6.34zM1175.84 963.846c1.75 0 3.16 1.419 3.16 3.168a3.161 3.161 0 0 1-3.16 3.168 3.17 3.17 0 0 1-3.17-3.168 3.17 3.17 0 0 1 3.17-3.168zM1078.41 982.694a1.425 1.425 0 1 1-.01 2.85 1.425 1.425 0 0 1 .01-2.85z" fill="#94D6EA"/><path opacity=".3" fill-rule="evenodd" clip-rule="evenodd" d="M1097.73 821.78c-.63-.633-1.58-.633-2.06 0-.63.634-.63 1.584 0 2.059.64.634 1.59.634 2.06 0 .64-.633.64-1.583 0-2.059z" fill="#94D6EA"/><path opacity=".3" d="M1027.24 1052.07c.79 0 1.42.63 1.42 1.42 0 .79-.63 1.43-1.42 1.43-.79 0-1.43-.64-1.43-1.43 0-.79.64-1.42 1.43-1.42z" fill="#94D6EA"/><path opacity=".3" fill-rule="evenodd" clip-rule="evenodd" d="M1004.74 1026.72c-.63-.63-1.58-.63-2.06 0-.63.64-.63 1.59 0 2.06.64.64 1.59.64 2.06 0 .48-.47.48-1.42 0-2.06z" fill="#94D6EA"/><path opacity=".3" d="M1023.43 1019.12c.79 0 1.43.64 1.43 1.43a1.425 1.425 0 1 1-1.43-1.43zM1155.55 1041.14c.79 0 1.43.64 1.43 1.42 0 .79-.64 1.43-1.43 1.43a1.425 1.425 0 0 1 0-2.85z" fill="#94D6EA"/><path opacity=".3" fill-rule="evenodd" clip-rule="evenodd" d="M1045.14 1032.43a.762.762 0 0 0-1.11 0 .75.75 0 0 0 0 1.1c.31.32.79.32 1.11 0 .31-.31.31-.79 0-1.1z" fill="#94D6EA"/><path opacity=".3" d="M1236.04 907.94c.44 0 .79.354.79.792 0 .437-.35.791-.79.791a.788.788 0 0 1-.79-.791c0-.438.35-.792.79-.792z" fill="#94D6EA"/><path opacity=".3" fill-rule="evenodd" clip-rule="evenodd" d="M1028.66 1031.79a.779.779 0 0 0-1.11 0c-.31.32-.31.79 0 1.11.32.32.8.32 1.11 0 .32-.47.32-.95 0-1.11zM1049.73 1044.78c-.63-.63-1.58-.63-2.06 0-.63.63-.63 1.58 0 2.06.63.63 1.58.63 2.06 0 .48-.48.48-1.43 0-2.06zM1297.35 909.206c-.64-.633-1.59-.633-2.06 0-.64.634-.64 1.584 0 2.059.63.634 1.58.634 2.06 0 .63-.633.63-1.584 0-2.059z" fill="#94D6EA"/><path opacity=".3" d="M883.549 1054.28a4.44 4.44 0 0 1 4.436 4.44 4.43 4.43 0 0 1-4.436 4.43 4.43 4.43 0 0 1-4.436-4.43 4.44 4.44 0 0 1 4.436-4.44zM912.54 1000.75a3.17 3.17 0 0 1 0 6.34 3.17 3.17 0 0 1 0-6.34zM999.196 1044.94a3.163 3.163 0 0 1 3.164 3.17c0 1.75-1.41 3.16-3.164 3.16a3.162 3.162 0 0 1-3.169-3.16 3.17 3.17 0 0 1 3.169-3.17zM901.766 1063.79c.787 0 1.425.63 1.425 1.42 0 .79-.638 1.43-1.425 1.43-.788 0-1.426-.64-1.426-1.43 0-.79.638-1.42 1.426-1.42zM1143.36 998.849c.79 0 1.43.638 1.43 1.421a1.43 1.43 0 1 1-2.86 0c0-.783.64-1.421 1.43-1.421z" fill="#94D6EA"/><path opacity=".3" fill-rule="evenodd" clip-rule="evenodd" d="M1317.3 988.712c-.63-.634-1.58-.634-2.06 0-.63.633-.63 1.584 0 2.059.64.633 1.59.633 2.06 0 .64-.475.64-1.426 0-2.059zM1099.48 992.99a.767.767 0 0 0-1.11 0 .76.76 0 0 0 0 1.108c.31.317.79.317 1.11 0 .31-.475.31-.95 0-1.108zM1282.61 1028.15c-.63-.63-1.58-.63-2.06 0-.63.63-.63 1.58 0 2.06.64.63 1.59.63 2.06 0 .64-.48.64-1.43 0-2.06z" fill="#94D6EA"/><path opacity=".3" d="M1255.68 977.942a3.17 3.17 0 0 1 3.17 3.168 3.169 3.169 0 0 1-3.17 3.167 3.169 3.169 0 0 1-3.17-3.167 3.17 3.17 0 0 1 3.17-3.168zM1227.32 960.839c.79 0 1.43.638 1.43 1.425s-.64 1.425-1.43 1.425a1.425 1.425 0 0 1 0-2.85zM1246.96 953.712c.79 0 1.43.638 1.43 1.425s-.64 1.425-1.43 1.425a1.425 1.425 0 0 1 0-2.85z" fill="#94D6EA"/><path opacity=".3" fill-rule="evenodd" clip-rule="evenodd" d="M1268.67 966.857a.767.767 0 0 0-1.11 0 .777.777 0 0 0 0 1.109c.32.316.79.316 1.11 0a.76.76 0 0 0 0-1.109zM1252.35 966.222a.755.755 0 0 0-1.1 0 .76.76 0 0 0 0 1.109c.31.317.79.317 1.1 0 .16-.317.16-.792 0-1.109zM1273.27 979.21c-.64-.634-1.59-.634-2.06 0-.64.634-.64 1.584 0 2.059.63.634 1.58.634 2.06 0 .63-.475.63-1.425 0-2.059z" fill="#94D6EA"/><path opacity=".3" fill-rule="evenodd" clip-rule="evenodd" d="M1583.77 1001.38c0 1.75 1.43 3.17 3.17 3.17s3.17-1.42 3.17-3.17a3.18 3.18 0 0 0-3.17-3.164 3.18 3.18 0 0 0-3.17 3.164z" fill="#B5EAFF"/><path opacity=".3" fill-rule="evenodd" clip-rule="evenodd" d="M1478.42 846.803c-1.74-1.742-4.59-1.742-6.34 0a4.498 4.498 0 0 0 0 6.336c1.75 1.742 4.6 1.742 6.34 0a4.498 4.498 0 0 0 0-6.336z" fill="#94D6EA"/><path opacity=".3" d="M1511.85 958.145a3.17 3.17 0 0 1 3.17 3.168 3.169 3.169 0 0 1-3.17 3.167 3.169 3.169 0 0 1-3.17-3.167 3.17 3.17 0 0 1 3.17-3.168z" fill="#94D6EA"/><path opacity=".3" fill-rule="evenodd" clip-rule="evenodd" d="M1572.68 902.554a.767.767 0 0 0-1.11 0 .777.777 0 0 0 0 1.109c.32.317.8.317 1.11 0a.76.76 0 0 0 0-1.109z" fill="#94D6EA"/><path opacity=".3" d="M1632.41 903.186a1.425 1.425 0 1 1-.01 2.85 1.425 1.425 0 0 1 .01-2.85z" fill="#94D6EA"/><path opacity=".3" fill-rule="evenodd" clip-rule="evenodd" d="M1653.48 983.169c-.64-.634-1.59-.634-2.06 0-.64.634-.64 1.584 0 2.059.63.634 1.58.634 2.06 0a1.68 1.68 0 0 0 0-2.059z" fill="#94D6EA"/><path opacity=".3" d="M1617.67 1022.29c.79 0 1.43.64 1.43 1.43 0 .78-.64 1.42-1.43 1.42-.79 0-1.42-.64-1.42-1.42 0-.79.63-1.43 1.42-1.43zM1591.69 972.241a3.17 3.17 0 0 1 3.17 3.168 3.169 3.169 0 0 1-3.17 3.167 3.169 3.169 0 0 1-3.17-3.167 3.17 3.17 0 0 1 3.17-3.168z" fill="#94D6EA"/><path opacity=".3" fill-rule="evenodd" clip-rule="evenodd" d="M1564.44 955.61c-.63-.633-1.58-.633-2.05 0-.64.634-.64 1.584 0 2.059.63.634 1.58.634 2.05 0 .64-.633.64-1.425 0-2.059zM1584.25 948.483c-.64-.633-1.59-.633-2.06 0-.64.634-.64 1.584 0 2.059.63.634 1.58.634 2.06 0 .47-.633.47-1.583 0-2.059zM1604.84 961.312a.767.767 0 0 0-1.11 0 .777.777 0 0 0 0 1.109c.32.316.8.316 1.11 0a.76.76 0 0 0 0-1.109zM1588.37 960.679a.767.767 0 0 0-1.11 0 .76.76 0 0 0 0 1.109c.31.317.79.317 1.11 0 .31-.475.31-.95 0-1.109zM1609.43 973.667c-.63-.633-1.58-.633-2.06 0-.63.634-.63 1.584 0 2.059.64.634 1.59.634 2.06 0 .48-.633.48-1.584 0-2.059zM1174.89 1058.88c-1.27-1.27-3.17-1.27-4.44 0-1.27 1.26-1.27 3.16 0 4.43 1.27 1.27 3.17 1.27 4.44 0 1.26-1.27 1.26-3.33 0-4.43zM1122.13 1048.74c-.63-.63-1.58-.63-2.06 0-.63.63-.63 1.58 0 2.06.64.63 1.59.63 2.06 0 .48-.63.48-1.59 0-2.06z" fill="#94D6EA"/></g><path fill-rule="evenodd" clip-rule="evenodd" d="M883.391 606.223a3.177 3.177 0 0 0 3.168 3.168 3.177 3.177 0 0 0 3.168-3.168 3.177 3.177 0 0 0-3.168-3.168c-1.901.159-3.168 1.584-3.168 3.168zM1552.09 556.334a3.18 3.18 0 0 0 3.17 3.168 3.18 3.18 0 0 0 3.17-3.168 3.18 3.18 0 0 0-3.17-3.167 3.18 3.18 0 0 0-3.17 3.167zM966.402 1077.72c0 1.75 1.426 3.17 3.169 3.17a3.174 3.174 0 0 0 3.168-3.17c0-1.74-1.426-3.16-3.168-3.16-1.743.15-3.169 1.42-3.169 3.16zM1535.93 889.092a3.18 3.18 0 0 0 3.17 3.168 3.18 3.18 0 0 0 3.17-3.168 3.18 3.18 0 0 0-3.17-3.168c-1.74.159-3.17 1.584-3.17 3.168zM1348.52 374.198a3.171 3.171 0 0 0 3.16 3.167c1.75 0 3.17-1.425 3.17-3.167a3.174 3.174 0 0 0-3.17-3.168c-1.74.158-3.16 1.584-3.16 3.168zM1587.26 414.743a3.174 3.174 0 0 0 3.17 3.167c1.74 0 3.16-1.425 3.16-3.167a3.172 3.172 0 0 0-3.16-3.168 3.174 3.174 0 0 0-3.17 3.168z" fill="#F1A8CA" fill-opacity=".26"/><path d="M1503.61 773.315a3.17 3.17 0 0 1 3.17 3.168 3.169 3.169 0 0 1-3.17 3.167 3.169 3.169 0 0 1-3.17-3.167 3.17 3.17 0 0 1 3.17-3.168z" fill="#F1A8CA" fill-opacity=".26"/><path fill-rule="evenodd" clip-rule="evenodd" d="M1643.5 409.832a3.18 3.18 0 0 0 3.17 3.168 3.18 3.18 0 0 0 3.17-3.168 3.18 3.18 0 0 0-3.17-3.167 3.18 3.18 0 0 0-3.17 3.167z" fill="#F1A8CA" fill-opacity=".26"/><g opacity=".3" fill-rule="evenodd" clip-rule="evenodd"><path opacity=".3" d="M139.145 612.749c0 .771.616 1.388 1.387 1.388.772 0 1.389-.617 1.389-1.388 0-.771-.617-1.388-1.389-1.388-.771 0-1.387.617-1.387 1.388zM24.242 630.481c0 2.468 2.005 4.318 4.319 4.318 2.313 0 4.318-2.005 4.318-4.318 0-2.312-2.005-4.317-4.318-4.317-2.314 0-4.319 1.85-4.319 4.317zM215.953 564.487c0 2.467 2.005 4.318 4.319 4.318 2.467 0 4.318-2.005 4.318-4.318 0-2.313-2.005-4.317-4.318-4.317-2.314 0-4.319 2.004-4.319 4.317z" fill="#F2EFFB"/><path opacity=".3" d="M126.804 391.948c1.543 1.696 4.164 2.004 5.861.462s2.005-4.163.463-5.859c-1.543-1.696-4.165-2.005-5.861-.463-1.697 1.388-1.851 4.009-.463 5.86zM82.695 333.047c1.542 1.696 4.164 2.005 5.86.463 1.697-1.542 2.006-4.163.463-5.86-1.542-1.696-4.164-2.004-5.86-.462-1.697 1.388-1.851 4.009-.463 5.859z" fill="#FDEFFB"/><path opacity=".3" d="M163.202 361.419c1.08 1.234 2.931 1.388 4.165.308 1.233-1.079 1.388-2.929.308-4.163-1.08-1.233-2.93-1.387-4.164-.308-1.234 1.079-1.388 2.93-.309 4.163zM62.798 426.641c.772.925 2.16 1.08 3.085.309.925-.771 1.08-2.159.309-3.084-.772-.925-2.16-1.079-3.085-.308-.925.77-1.08 2.158-.309 3.083zM251.271 350.471c.771.926 2.159 1.08 3.085.309.925-.771 1.079-2.159.308-3.084-.771-.925-2.159-1.079-3.084-.308-.926.771-1.08 2.158-.309 3.083zM219.345 312.54c.772.925 2.16 1.079 3.085.308.925-.771 1.08-2.159.308-3.084-.771-.925-2.159-1.079-3.084-.308-.926.771-1.08 2.159-.309 3.084zM3.572 693.545c.463.617 1.388.617 2.005.155.617-.463.617-1.388.154-2.005-.462-.617-1.388-.617-2.005-.154-.617.617-.617 1.542-.154 2.004zM16.838 679.514c.463.617 1.388.617 2.005.154.617-.462.617-1.387.154-2.004-.462-.617-1.388-.617-2.005-.154-.463.462-.617 1.387-.154 2.004zM204.692 687.842c.308.308.925.462 1.233.154.309-.308.463-.925.155-1.234-.309-.308-.926-.462-1.234-.154-.463.309-.463.925-.154 1.234zM94.11 488.78c.308.308.616.308.924.154.309-.309.31-.617.155-.925-.309-.309-.617-.309-.926-.154-.308.308-.308.616-.154.925zM208.39 380.075c.309.308.617.308.926.154.308-.309.308-.617.154-.925-.308-.309-.617-.309-.925-.154-.309.154-.309.616-.155.925zM26.246 532.262c.309.309.617.308.926.154.308-.308.308-.616.154-.925-.309-.308-.617-.308-.925-.154-.309.154-.463.617-.155.925zM104.903 474.44c.308.308.616.308.925.154.308-.154.309-.617.154-.925-.308-.308-.617-.309-.925-.154-.309.154-.463.616-.154.925zM82.852 513.143c.308.308.617.308.925.154.308-.308.308-.617.154-.925-.308-.308-.617-.308-.925-.154-.463.308-.463.617-.154.925zM223.816 397.344c.309.309.617.309.926.154.308-.308.308-.616.154-.925-.309-.308-.617-.308-.926-.154-.308.154-.308.617-.154.925zM10.978 541.36c.463.617 1.388.617 2.005.154.617-.463.617-1.388.154-2.004-.462-.617-1.388-.617-2.004-.155-.617.463-.617 1.388-.155 2.005zM175.076 326.725c.463.617 1.388.617 2.005.154.617-.462.617-1.387.154-2.004-.462-.617-1.388-.617-2.005-.154-.617.616-.617 1.542-.154 2.004zM76.369 547.68c.463.617 1.388.617 2.005.154.617-.462.617-1.387.154-2.004-.463-.617-1.388-.617-2.005-.154-.617.462-.617 1.387-.154 2.004zM179.552 321.174c.463.617 1.389.617 2.006.154.617-.462.616-1.387.154-2.004-.463-.617-1.388-.617-2.005-.154-.617.462-.617 1.387-.155 2.004zM185.412 380.075c-1.696-.154-3.085 1.079-3.239 2.621-.154 1.696 1.08 3.084 2.622 3.238 1.697.154 3.085-1.079 3.239-2.621.308-1.696-.925-3.084-2.622-3.238z" fill="#F2EFFB"/><path opacity=".3" d="M80.844 823.066c1.542 1.85 4.318 2.005 6.17.463 1.85-1.542 2.004-4.318.462-6.168-1.542-1.85-4.319-2.004-6.17-.462-1.696 1.541-2.004 4.317-.462 6.167z" fill="#FDEFFB"/><path opacity=".3" d="M44.754 461.179c1.543 1.851 4.319 2.005 6.17.463 1.85-1.542 2.005-4.317.462-6.168-1.542-1.85-4.318-2.004-6.169-.462-1.697 1.542-2.005 4.317-.463 6.167z" fill="#F2EFFB"/><path opacity=".3" d="M31.333 757.381c1.542 1.85 4.318 2.004 6.17.462 1.85-1.542 2.004-4.317.462-6.167-1.543-1.851-4.319-2.005-6.17-.463-1.85 1.542-2.004 4.472-.462 6.168z" fill="#EBCBF8"/><path opacity=".3" d="M224.434 405.672c1.543 1.85 4.319 2.004 6.17.462 1.85-1.542 2.005-4.317.462-6.167-1.542-1.851-4.318-2.005-6.169-.463-1.851 1.542-2.005 4.317-.463 6.168zM49.074 873.025c1.08 1.233 3.084 1.387 4.318.308 1.234-1.079 1.388-3.084.308-4.317-1.08-1.234-3.084-1.388-4.318-.309-1.234 1.08-1.388 2.93-.308 4.318z" fill="#F2EFFB"/><path opacity=".3" d="M114.929 757.689c1.08 1.233 3.085 1.387 4.318.308 1.234-1.079 1.388-3.084.309-4.317-1.08-1.234-3.085-1.388-4.318-.309-1.234 1.08-1.389 2.93-.309 4.318z" fill="#EBCBF8"/><path opacity=".3" d="M109.533 715.286c.771.925 2.159 1.079 3.239.308.925-.771 1.08-2.158.309-3.238-.771-.925-2.159-1.079-3.239-.308-1.08.771-1.234 2.313-.309 3.238zM203.764 502.966c.771.925 2.159 1.079 3.239.308.925-.771 1.079-2.159.308-3.238-.771-.925-2.159-1.079-3.239-.308-1.079.925-1.234 2.312-.308 3.238zM249.42 310.227c.771.925 2.159 1.08 3.238.309.926-.771 1.08-2.159.309-3.238-.771-.926-2.159-1.08-3.239-.309-.925.771-1.08 2.159-.308 3.238zM65.885 813.352c.462.617 1.387.617 2.004.154.617-.462.617-1.387.155-2.004-.463-.617-1.388-.617-2.005-.154-.617.462-.617 1.387-.154 2.004z" fill="#F2EFFB"/><path opacity=".3" d="M121.404 750.288c.463.616 1.388.616 2.005.154.617-.463.617-1.388.154-2.005-.462-.617-1.387-.617-2.004-.154-.617.617-.771 1.388-.155 2.005zM142.076 777.272c.463.617 1.388.617 2.005.154.617-.462.617-1.388.154-2.004-.463-.617-1.388-.617-2.005-.155-.617.463-.617 1.388-.154 2.005z" fill="#EBCBF8"/><path opacity=".3" d="M122.334 782.514c.463.617 1.388.617 2.005.154.617-.462.617-1.387.154-2.004-.462-.617-1.388-.617-2.005-.154-.617.462-.771 1.387-.154 2.004z" fill="#F2EFFB"/><path opacity=".3" d="M155.955 762.469c.462.617 1.388.617 2.005.154.617-.462.617-1.387.154-2.004-.463-.617-1.388-.617-2.005-.154-.617.617-.617 1.387-.154 2.004zM103.363 768.329c.309.308.772.308 1.08.154.309-.309.309-.771.154-1.08-.308-.308-.771-.308-1.079-.154-.309.309-.463.771-.155 1.08z" fill="#EBCBF8"/><path opacity=".3" d="M236.308 567.725c.309.308.771.308 1.08.154.308-.308.308-.771.154-1.079-.308-.309-.771-.309-1.079-.154-.309.308-.309.771-.155 1.079zM165.672 702.643c.309.308.771.308 1.08.154.308-.308.308-.771.154-1.079-.308-.308-.771-.308-1.08-.154-.308.308-.462.771-.154 1.079zM247.567 552.77c.308.308.771.308 1.079.154.309-.308.309-.771.154-1.079-.308-.309-.771-.309-1.079-.154-.463.308-.463.771-.154 1.079zM119.246 770.332c.309.309.771.309 1.08.155.308-.309.308-.771.154-1.08-.308-.308-.771-.308-1.08-.154-.308.308-.462.771-.154 1.079zM224.586 682.907c.308.308.771.308 1.08.154.308-.309.308-.771.154-1.08-.309-.308-.771-.308-1.08-.154-.462.309-.462.771-.154 1.08z" fill="#F2EFFB"/><path opacity=".3" d="M99.97 755.993c.463.616 1.388.616 2.005.154.617-.463.617-1.388.155-2.005-.463-.616-1.388-.616-2.005-.154-.617.463-.617 1.388-.154 2.005z" fill="#EBCBF8"/><path opacity=".3" d="M149.783 712.204c.463.616 1.388.616 2.005.154.617-.463.617-1.388.154-2.005-.463-.616-1.388-.616-2.005-.154-.617.463-.617 1.388-.154 2.005zM17.455 508.053c.463.617 1.388.617 2.005.154.617-.462.617-1.387.154-2.004-.463-.617-1.388-.617-2.005-.154-.617.462-.617 1.387-.154 2.004zM-1.67 400.891c.462.617 1.388.617 2.005.154.617-.462.617-1.387.154-2.004-.463-.617-1.388-.617-2.005-.154-.617.462-.617 1.387-.154 2.004zM217.802 718.68c.463.617 1.388.617 2.005.154.617-.462.617-1.387.155-2.004-.463-.617-1.388-.617-2.005-.154-.617.462-.617 1.387-.155 2.004zM142.846 332.43c.462.617 1.388.617 2.005.154.617-.462.617-1.387.154-2.004-.463-.617-1.388-.617-2.005-.154-.617.462-.771 1.387-.154 2.004zM26.092 381.309c.462.617 1.388.617 2.005.154.617-.462.616-1.387.154-2.004-.463-.617-1.388-.617-2.005-.154-.617.462-.617 1.387-.154 2.004zM134.979 363.731c.462.617 1.388.617 2.005.154.617-.462.617-1.388.154-2.004-.463-.617-1.388-.617-2.005-.155-.463.463-.617 1.388-.154 2.005zM120.326 557.858c.463.617 1.388.617 2.005.154.617-.462.617-1.388.154-2.004-.463-.617-1.388-.617-2.005-.155-.617.463-.617 1.388-.154 2.005zM239.858 326.879c.462.617 1.388.617 2.005.155.617-.463.617-1.388.154-2.005-.463-.617-1.388-.617-2.005-.154-.463.462-.617 1.388-.154 2.004zM97.345 490.477c.463.617 1.389.617 2.005.154.617-.462.617-1.387.155-2.004-.463-.617-1.388-.617-2.005-.155-.617.463-.617 1.388-.155 2.005zM58.79 688.457c.463.617 1.389.617 2.006.155.617-.463.617-1.388.154-2.005-.463-.617-1.388-.617-2.005-.154-.617.463-.617 1.388-.154 2.004zM5.115 831.854c-.463 0-.771.309-.771.617 0 .463.308.771.617.771.462 0 .771-.308.771-.617.154-.462-.154-.771-.617-.771zM14.988 801.326c-.771 0-1.543.463-1.543 1.388 0 .771.463 1.542 1.388 1.542.771 0 1.543-.463 1.543-1.388 0-.771-.463-1.388-1.388-1.542zM158.884 762.932c.617 1.08 1.851 1.388 2.931.771 1.079-.617 1.388-1.85.771-2.929-.617-1.08-1.851-1.388-2.93-.771-.926.462-1.234 1.85-.772 2.929zM111.69 784.518c.154.308.617.462.925.308.309-.154.463-.617.309-.925-.154-.308-.617-.462-.926-.308-.462.154-.462.462-.308.925zM201.606 743.35c.154.308.617.462.925.308.309-.154.463-.616.309-.925-.155-.308-.617-.462-.926-.308-.462.154-.617.617-.308.925zM222.119 728.856c.154.308.617.462.925.308.309-.154.463-.617.309-.925-.154-.308-.617-.463-.925-.308-.309.154-.463.462-.309.925zM123.875 804.1c.155.308.617.462.926.308.308-.154.462-.616.308-.925-.154-.308-.617-.462-.925-.308-.463.154-.617.616-.309.925z" fill="#F2EFFB"/><path opacity=".3" d="M157.496 880.887c1.234 2.005 3.856 2.776 5.861 1.542 2.005-1.233 2.776-3.854 1.542-5.859-1.234-2.004-3.856-2.775-5.861-1.542-2.159 1.08-2.776 3.701-1.542 5.859z" fill="#FDEFFB"/><path opacity=".3" d="M122.95 812.427c1.234 2.004 3.855 2.775 5.86 1.541 2.005-1.233 2.776-3.854 1.543-5.859-1.234-2.004-3.856-2.775-5.861-1.542-2.005 1.234-2.776 3.855-1.542 5.86zM200.221 856.217c.771 1.542 2.776 2.005 4.164 1.08 1.543-.771 2.005-2.776 1.08-4.163-.771-1.542-2.776-2.005-4.164-1.08a2.99 2.99 0 0 0-1.08 4.163zM85.472 904.788c.617 1.079 2.005 1.387 3.085.771 1.08-.617 1.388-2.005.771-3.084-.617-1.079-2.005-1.388-3.085-.771-.925.617-1.388 2.004-.77 3.084zM106.295 974.174c.154.308.617.463.925.308.309-.154.463-.616.309-.925-.154-.308-.617-.462-.926-.308-.308.154-.462.617-.308.925zM243.25 883.51c.155.308.617.463.926.308.308-.154.462-.616.308-.925-.154-.308-.617-.462-.925-.308-.463.154-.617.617-.309.925zM120.02 961.375c.154.309.617.463.925.309.309-.155.463-.617.309-.926-.155-.308-.617-.462-.926-.308-.462.154-.617.617-.308.925zM90.252 997.149c.155.308.617.462.926.308.308-.154.463-.617.308-.925-.154-.308-.617-.463-.925-.308-.463.154-.463.462-.309.925zM218.572 822.912c.463.617 1.234.926 2.005.463.617-.463.926-1.234.463-2.005-.463-.616-1.234-.925-2.005-.462-.617.308-.771 1.233-.463 2.004zM224.279 817.979c.463.617 1.234.925 2.005.462.617-.462.926-1.233.463-2.004-.463-.617-1.234-.925-2.005-.463-.617.309-.771 1.234-.463 2.005zM203.149 733.326c.462.617 1.233.926 2.004.463.617-.463.926-1.233.463-2.004-.462-.617-1.234-.926-2.005-.463-.617.308-.925 1.234-.462 2.004zM251.576 706.959c.463.617 1.234.925 2.005.463.617-.463.925-1.234.463-2.005-.463-.616-1.234-.925-2.005-.462-.617.462-.771 1.233-.463 2.004zM250.654 702.489c.463.616 1.234.925 2.005.462.617-.462.925-1.233.463-2.004-.463-.617-1.234-.926-2.005-.463-.617.308-.771 1.234-.463 2.005zM182.176 741.961c.463.617 1.234.925 2.005.463.617-.463.925-1.234.463-2.005-.463-.616-1.234-.925-2.005-.462-.617.462-.926 1.387-.463 2.004zM219.652 879.346c-1.696-.462-3.393.463-3.701 2.159-.463 1.696.462 3.392 2.159 3.701 1.696.462 3.393-.463 3.701-2.159.463-1.542-.462-3.238-2.159-3.701zM231.681 790.533c2.159.771 4.627-.309 5.398-2.467.771-2.159-.308-4.626-2.468-5.397-2.159-.771-4.627.308-5.398 2.467-.771 2.159.309 4.626 2.468 5.397zM198.678 801.48c.771.308 1.542-.154 1.851-.771.308-.771-.155-1.542-.771-1.85-.772-.309-1.543.154-1.851.771-.309.771.154 1.542.771 1.85zM221.346 719.912c.772.308 1.543-.155 1.851-.771.309-.771-.154-1.542-.771-1.851-.771-.308-1.542.155-1.851.771-.308.771 0 1.542.771 1.851zM246.335 836.481c1.543.616 3.393-.309 3.856-1.851.617-1.542-.309-3.392-1.851-3.855-1.542-.616-3.393.309-3.856 1.851-.616 1.542.155 3.238 1.851 3.855zM173.229 758.46c-.771.308-1.079 1.233-.771 1.85.308.771 1.234 1.079 1.851.771.771-.308 1.079-1.234.771-1.85-.309-.771-1.08-1.08-1.851-.771zM252.655 766.786c-.771.308-1.08 1.233-.771 1.85.308.771 1.234 1.08 1.85.771.772-.308 1.08-1.233.772-1.85-.155-.771-1.08-1.079-1.851-.771z" fill="#F2EFFB"/><path opacity=".3" d="M223.818 817.824c-1.543.771-2.159 2.467-1.543 4.009.772 1.542 2.468 2.159 4.011 1.542 1.542-.771 2.159-2.467 1.542-4.009-.617-1.542-2.468-2.313-4.01-1.542zM216.568 803.946c-.308.154-.462.617-.308.925.154.309.617.463.925.309.309-.154.463-.617.308-.925-.154-.309-.616-.463-.925-.309zM210.552 818.749c-.308.154-.462.617-.308.925.154.309.617.463.925.308.309-.154.463-.616.309-.925-.154-.308-.617-.462-.926-.308zM229.37 803.792c-.771.308-1.08 1.233-.771 1.85.308.771 1.233 1.079 1.85.771.772-.308 1.08-1.233.772-1.85-.309-.771-1.08-1.079-1.851-.771z" fill="#F2EFFB"/></g><g opacity=".3" fill-rule="evenodd" clip-rule="evenodd"><path opacity=".3" d="M126.804 1007.94c1.543 1.7 4.164 2.01 5.861.46 1.697-1.54 2.005-4.16.463-5.86-1.543-1.69-4.165-2-5.861-.46-1.697 1.54-1.851 4.17-.463 5.86z" fill="#B5EAFF"/><path opacity=".3" d="M168.602 769.869c1.542 1.696 4.164 2.005 5.861.463 1.696-1.542 2.005-4.163.462-5.859-1.542-1.696-4.164-2.005-5.86-.463-1.697 1.542-2.005 4.163-.463 5.859zM240.628 880.426c1.543 1.696 4.165 2.004 5.861.463 1.697-1.542 2.005-4.164.463-5.86-1.543-1.696-4.164-2.004-5.861-.462-1.696 1.388-1.851 4.009-.463 5.859z" fill="#94D6EA"/><path opacity=".3" d="M82.695 949.039c1.542 1.696 4.164 2.005 5.86.463 1.697-1.542 2.006-4.163.463-5.859-1.542-1.696-4.164-2.005-5.86-.463-1.697 1.388-1.851 4.009-.463 5.859z" fill="#B5EAFF"/><path opacity=".3" d="M163.202 977.411c1.08 1.234 2.93 1.388 4.164.309 1.234-1.08 1.388-2.93.309-4.164-1.08-1.233-2.931-1.387-4.164-.308-1.234 1.079-1.388 2.93-.309 4.163zM62.798 1042.63c.772.93 2.16 1.08 3.085.31.925-.77 1.08-2.16.309-3.08-.772-.93-2.16-1.08-3.085-.31-.925.77-1.08 2.16-.309 3.08zM251.271 966.464c.771.925 2.159 1.079 3.085.308.925-.771 1.079-2.159.308-3.084-.771-.925-2.159-1.079-3.084-.308-.926.771-1.08 2.158-.309 3.084zM219.345 928.532c.772.925 2.16 1.079 3.085.308.925-.771 1.08-2.158.308-3.083-.771-.926-2.159-1.08-3.084-.309-.926.771-1.08 2.159-.309 3.084zM106.756 857.296c.771.925 2.159 1.079 3.084.308.926-.771 1.08-2.159.309-3.084-.772-.925-2.16-1.079-3.085-.308-.925.771-1.08 2.158-.308 3.084zM208.39 996.069c.309.308.617.308.926.154.308-.308.308-.617.154-.925-.308-.309-.617-.309-.925-.154-.309.154-.309.616-.155.925zM223.816 1013.34c.309.31.617.31.926.15.308-.31.308-.61.154-.92-.309-.31-.617-.31-.926-.16-.308.16-.308.62-.154.93zM175.076 942.719c.463.617 1.388.617 2.005.154.617-.462.617-1.387.154-2.004-.462-.617-1.388-.617-2.005-.154-.617.617-.617 1.542-.154 2.004zM179.552 937.168c.463.617 1.389.617 2.006.155.617-.463.616-1.388.154-2.005-.463-.617-1.388-.617-2.005-.154-.617.463-.617 1.388-.155 2.004zM145.31 860.688c.463.617 1.388.617 2.005.154.617-.462.617-1.388.154-2.004-.462-.617-1.388-.617-2.004-.155-.617.463-.617 1.388-.155 2.005zM186.798 827.538c.463.616 1.389.616 2.006.154.616-.463.616-1.388.154-2.005-.463-.617-1.388-.617-2.005-.154-.617.617-.617 1.388-.155 2.005zM4.346 878.575c.463.616 1.388.616 2.005.154.617-.463.617-1.388.154-2.005-.462-.616-1.388-.616-2.005-.154-.617.617-.771 1.388-.154 2.005zM217.955 920.206c.463.616 1.388.616 2.005.154.617-.463.617-1.388.154-2.005-.462-.617-1.388-.617-2.005-.154-.462.617-.617 1.388-.154 2.005zM185.104 823.528c.462.617 1.388.617 2.005.154.617-.463.617-1.388.154-2.004-.463-.617-1.388-.617-2.005-.155-.463.463-.617 1.388-.154 2.005zM126.959 872.407c.462.616 1.388.616 2.005.154.617-.463.617-1.388.154-2.005-.463-.616-1.388-.616-2.005-.154-.617.463-.617 1.388-.154 2.005zM97.654 873.332c.463.617 1.388.617 2.005.155.617-.463.617-1.388.155-2.005-.463-.616-1.388-.616-2.005-.154-.617.617-.771 1.388-.155 2.004zM182.635 767.866c.462.616 1.388.616 2.005.154.617-.463.617-1.388.154-2.005-.463-.616-1.388-.616-2.005-.154-.617.463-.617 1.388-.154 2.005zM185.412 996.069c-1.696-.154-3.085 1.079-3.239 2.621a2.96 2.96 0 0 0 2.622 3.24c1.697.15 3.085-1.08 3.239-2.623.308-1.696-.925-3.084-2.622-3.238zM44.755 1077.17c1.542 1.85 4.318 2.01 6.169.47 1.85-1.55 2.005-4.32.462-6.17-1.542-1.85-4.318-2.01-6.169-.46-1.85 1.54-2.005 4.31-.462 6.16zM224.434 1021.66c1.542 1.85 4.318 2.01 6.169.47 1.851-1.55 2.005-4.32.463-6.17-1.542-1.85-4.319-2.01-6.169-.46-1.697 1.54-2.005 4.31-.463 6.16zM249.42 926.219c.771.926 2.159 1.08 3.238.309.926-.771 1.08-2.159.309-3.238-.771-.925-2.159-1.079-3.239-.309-.925.771-1.08 2.159-.308 3.238zM-1.67 1016.88c.462.62 1.388.62 2.005.16.617-.47.617-1.39.154-2.01-.463-.61-1.388-.61-2.005-.15-.617.46-.617 1.39-.154 2zM142.846 948.422c.462.617 1.388.617 2.005.155.617-.463.617-1.388.154-2.005-.463-.617-1.388-.617-2.005-.154-.617.462-.771 1.388-.154 2.004zM26.092 997.301c.462.617 1.388.617 2.005.154.617-.462.616-1.387.154-2.004-.463-.617-1.388-.617-2.005-.154-.617.462-.617 1.387-.154 2.004zM134.979 979.725c.462.617 1.388.617 2.005.154.617-.462.617-1.387.154-2.004-.463-.617-1.388-.617-2.005-.154-.463.462-.617 1.387-.154 2.004zM239.858 942.873c.462.617 1.388.617 2.005.155.617-.463.617-1.388.154-2.005-.463-.617-1.388-.617-2.005-.154-.463.463-.617 1.388-.154 2.004zM194.514 883.663c.462.616 1.388.616 2.005.154.617-.463.617-1.388.154-2.005-.463-.617-1.388-.617-2.005-.154-.617.463-.771 1.388-.154 2.005z" fill="#94D6EA"/></g><path fill-rule="evenodd" clip-rule="evenodd" d="M146.391 479.836a3.093 3.093 0 0 0 3.084 3.084 3.094 3.094 0 0 0 3.085-3.084 3.094 3.094 0 0 0-3.085-3.084 3.093 3.093 0 0 0-3.084 3.084zM174.461 580.524a3.093 3.093 0 0 0 3.085 3.083 3.092 3.092 0 0 0 3.084-3.083 3.093 3.093 0 0 0-3.084-3.084 3.093 3.093 0 0 0-3.085 3.084z" fill="#F1A8CA" fill-opacity=".26"/></g><defs><linearGradient id="b" x1="-881.5" y1="422.857" x2="1888.72" y2="1051.1" gradientUnits="userSpaceOnUse"><stop stop-color="#382C68"/><stop offset=".521" stop-color="#5A65A5"/><stop offset=".997" stop-color="#5C86B6"/></linearGradient><linearGradient id="c" x1="1961.5" y1="658" x2="60.658" y2="439.531" gradientUnits="userSpaceOnUse"><stop stop-color="#6093BD"/><stop offset=".5" stop-color="#6674AF"/><stop offset=".996" stop-color="#587DB1"/></linearGradient><filter id="a" x="-306" y="0" width="2489" height="1240" filterUnits="userSpaceOnUse" color-interpolation-filters="sRGB"><feFlood flood-opacity="0" result="BackgroundImageFix"/><feBlend in="SourceGraphic" in2="BackgroundImageFix" result="shape"/><feGaussianBlur stdDeviation="80" result="effect1_foregroundBlur_36_73962"/></filter></defs></svg>