<svg width="50" height="56" viewBox="0 0 50 56" fill="none" xmlns="http://www.w3.org/2000/svg">
<path d="M0.683594 27.957C0.683594 22.102 0.683594 16.3231 0.683594 10.4682C0.759632 4.53716 5.16986 0.0508958 10.8727 0.202973C12.6216 0.279011 14.2184 0.735241 15.7392 1.6477C21.29 5.06943 26.8408 8.49116 32.3156 11.9889C33.3801 12.6733 33.6842 13.6618 33.0759 14.5742C32.5437 15.4106 31.4791 15.5627 30.4146 14.9544C25.0159 11.5327 19.6171 8.11096 14.1424 4.76528C10.7967 2.71224 6.53855 3.85281 4.8657 7.35058C4.40947 8.26304 4.18136 9.40362 4.18136 10.4682C4.10532 22.1781 4.18136 33.964 4.18136 45.6739C4.18136 48.2592 5.2459 50.3123 7.60309 51.6049C9.88424 52.8215 12.0893 52.6695 14.2945 51.3008C23.7232 45.4458 33.152 39.5909 42.5807 33.6599C46.7628 31.0746 46.9149 25.6758 42.9609 22.7103C41.8964 21.9499 41.6683 20.9615 42.2766 20.125C42.8849 19.2126 43.9494 19.1365 45.014 19.8969C50.7929 23.8509 50.7168 32.4432 44.7859 36.3972C41.6683 38.4503 38.3986 40.4273 35.205 42.4043C28.8178 46.2822 22.4306 50.3123 15.9673 54.2663C11.7092 56.8516 6.61459 56.1672 3.2689 52.5934C1.44398 50.6164 0.683594 48.1832 0.683594 45.4458C0.683594 39.5909 0.683594 33.8119 0.683594 27.957Z" fill="white"/>
</svg>
