<svg width="219" height="67" viewBox="0 0 219 67" fill="none" xmlns="http://www.w3.org/2000/svg">
<g clip-path="url(#clip0_36_77433)">
<path d="M82.5501 12.7066C82.5501 11.7471 82.4213 11.0192 82.1636 10.556C81.906 10.0928 81.3907 9.86118 80.6178 9.86118H80.0703V9.26562H87.2844C89.3133 9.26562 91.0525 9.59649 92.5661 10.2913C94.0476 10.9861 94.7883 12.3096 94.7883 14.2617C94.7883 15.155 94.4985 15.9491 93.8866 16.677C93.3069 17.4049 92.3729 17.9674 91.1491 18.3975C92.856 18.6953 94.0476 19.1915 94.7239 19.9525C95.4003 20.7135 95.7223 21.7061 95.7223 22.9634C95.7223 24.8824 94.9816 26.239 93.5001 26.9669C92.0186 27.7278 90.2151 28.0918 88.0573 28.0918H82.4857V12.7066H82.5501ZM87.703 18.0004C88.476 18.0004 89.1845 17.8681 89.8608 17.5703C90.5372 17.2725 91.0847 16.8424 91.5033 16.2469C91.922 15.6513 92.1475 14.9565 92.1475 14.1624C92.1475 13.3022 91.8898 12.5743 91.4067 12.0118C90.8914 11.4162 90.2795 11.0192 89.5066 10.7214C88.7336 10.4567 87.9607 10.2913 87.1555 10.2913C86.5114 10.2913 85.8029 10.3906 85.0622 10.5891V18.0004H87.703ZM91.6 26.1066C92.5017 25.4118 92.9848 24.4192 92.9848 23.1288C92.9848 21.8385 92.5339 20.8459 91.6322 20.1511C90.7304 19.4562 89.41 19.1254 87.703 19.1254H85.0622V26.7353C85.9639 26.9999 86.8335 27.1323 87.703 27.1323C89.3778 27.1323 90.666 26.7683 91.6 26.1066Z" fill="white"/>
<path d="M99.847 12.7066C99.847 11.7471 99.7182 11.0192 99.4605 10.556C99.2029 10.0928 98.6876 9.86118 97.9146 9.86118H97.3671V9.26562H99.8792C100.556 9.26562 101.071 9.36488 101.425 9.53032C101.779 9.69575 102.005 10.0266 102.166 10.5229C102.327 10.9861 102.391 11.714 102.391 12.7066V25.5441L111.248 9.26562H113.76V28.1249H111.248V11.8464L102.327 28.1249H99.847V12.7066Z" fill="white"/>
<path d="M119.07 12.7066C119.07 11.7471 118.941 11.0192 118.683 10.556C118.426 10.0928 117.91 9.86118 117.137 9.86118H116.59V9.26562H128.281C129.859 9.26562 130.632 10.0266 130.632 11.5486V13.6992H130.084C130.084 11.5155 128.925 10.4236 126.606 10.4236H121.582V17.2725H124.641C126.67 17.2725 128.409 17.6696 129.859 18.4306C131.308 19.2246 132.016 20.6143 132.016 22.6987C132.016 24.7501 131.308 26.1728 129.859 26.9669C128.409 27.7609 126.67 28.1249 124.641 28.1249H119.07V12.7066ZM127.894 26.0074C128.764 25.2794 129.215 24.1545 129.215 22.6987C129.215 21.2429 128.764 20.118 127.894 19.3901C127.025 18.6622 125.801 18.2651 124.223 18.2651C123.353 18.2651 122.483 18.3975 121.582 18.6622V26.7022C122.483 26.9669 123.353 27.0992 124.223 27.0992C125.768 27.1323 127.025 26.7683 127.894 26.0074Z" fill="white"/>
<path d="M135.976 12.7066C135.976 11.7471 135.847 11.0192 135.589 10.556C135.332 10.0928 134.816 9.86118 134.044 9.86118H133.496V9.26562H140.71C142.481 9.26562 144.092 9.66266 145.509 10.4236C146.926 11.2177 147.634 12.7066 147.634 14.9565C147.634 16.4454 147.248 17.5703 146.507 18.3975C145.766 19.1915 144.929 19.7209 144.027 19.9856C143.126 20.2503 142.256 20.3827 141.515 20.3827H138.456V28.1249H135.944V12.7066H135.976ZM142.449 18.9599C143.126 18.6622 143.673 18.1328 144.156 17.4711C144.639 16.7762 144.865 15.916 144.865 14.8572C144.865 13.7985 144.639 12.9382 144.156 12.2434C143.673 11.5486 143.126 11.0523 142.449 10.7545C141.773 10.4567 141.161 10.2913 140.549 10.2913C139.905 10.2913 139.196 10.3906 138.456 10.5891V19.1585C139.196 19.357 139.905 19.4562 140.549 19.4562C141.129 19.4232 141.773 19.2577 142.449 18.9599Z" fill="white"/>
<path d="M161.225 27.4962C160.356 26.9999 159.647 26.0074 159.132 24.5516L158.423 22.6987H150.63L148.44 28.1249H147.184L154.977 9.26562H155.815L161.934 24.5516C162.385 25.6434 162.836 26.4044 163.254 26.8345C163.673 27.2316 164.253 27.4962 164.993 27.5624V28.1249C164.671 28.2241 164.285 28.2572 163.866 28.2572C162.964 28.2572 162.095 28.0256 161.225 27.4962ZM151.08 21.5738H157.876L154.526 13.3022L151.08 21.5738Z" fill="white"/>
<path d="M180.617 29.2829C180.069 28.5219 179.296 28.1249 178.298 28.1249H167.187V12.7066C167.187 11.7471 167.058 11.0192 166.8 10.556C166.543 10.0928 166.027 9.86118 165.254 9.86118H164.707V9.26562H167.219C167.895 9.26562 168.411 9.36488 168.765 9.53032C169.119 9.69575 169.345 10.0266 169.506 10.5229C169.667 10.9861 169.731 11.714 169.731 12.7066V26.9669H178.072V9.26562H180.584V26.9669H182.098C182.388 26.9669 182.613 27.0661 182.807 27.2646C183 27.4632 183.096 27.6948 183.096 27.9925V33.2864H181.84C181.551 31.3673 181.164 30.0439 180.617 29.2829Z" fill="white"/>
<path d="M186.48 12.7066C186.48 11.7471 186.351 11.0192 186.093 10.556C185.836 10.0928 185.32 9.86118 184.547 9.86118H184V9.26562H186.512C187.188 9.26562 187.704 9.36488 188.058 9.53032C188.412 9.69575 188.638 10.0266 188.799 10.5229C188.96 10.9861 189.024 11.714 189.024 12.7066V25.5441L197.881 9.26562H200.393V28.1249H197.881V11.8464L188.992 28.1249H186.48V12.7066Z" fill="white"/>
<path d="M203.164 28.092V27.5627C203.84 27.4965 204.42 27.2649 204.903 26.8678C205.386 26.4708 205.837 25.9414 206.224 25.2797L209.154 20.1513C208.027 19.8535 207.061 19.3241 206.288 18.5301C205.515 17.736 205.129 16.5449 205.129 15.0229C205.129 12.773 205.837 11.251 207.254 10.4901C208.671 9.69598 210.282 9.33203 212.053 9.33203H219.009V9.8945H218.719C217.946 9.8945 217.431 10.1261 217.174 10.5893C216.916 11.0525 216.787 11.7804 216.787 12.7399V28.1251H214.275V20.416H211.602L208.671 25.8422C208.156 26.8017 207.608 27.4965 206.997 27.8604C206.417 28.2244 205.676 28.4229 204.839 28.4229C204.323 28.4229 203.776 28.2906 203.164 28.092ZM214.275 19.1256V10.5562C213.534 10.3577 212.826 10.2585 212.182 10.2585C211.602 10.2585 210.958 10.4239 210.282 10.7217C209.605 11.0194 209.058 11.5488 208.575 12.2106C208.091 12.9054 207.866 13.7656 207.866 14.8244C207.866 15.8831 208.091 16.7434 208.575 17.4382C209.058 18.133 209.605 18.6293 210.282 18.9271C210.958 19.2249 211.57 19.3903 212.182 19.3903C212.858 19.4234 213.534 19.3241 214.275 19.1256Z" fill="white"/>
<path d="M80.0352 55.057C80.0352 54.7592 80.1318 54.5276 80.325 54.3291C80.5182 54.1306 80.7437 54.0313 81.0335 54.0313H82.1607C82.9981 52.1123 83.61 49.9948 83.9965 47.6456C84.3507 45.2965 84.544 42.6496 84.544 39.738C84.544 38.7785 84.4152 38.0506 84.1575 37.5874C83.8999 37.1242 83.3846 36.8925 82.6116 36.8925H82.1285V36.3301H96.0093V54.0313H97.523C97.8128 54.0313 98.0383 54.1306 98.2315 54.3291C98.4247 54.5276 98.5213 54.7592 98.5213 55.057V60.3508H97.2653C97.0399 58.4318 96.6534 57.1083 96.1381 56.3474C95.5906 55.5864 94.8177 55.1893 93.8193 55.1893H84.8016C83.771 55.1893 82.9981 55.5864 82.4828 56.3474C81.9353 57.1083 81.581 58.4318 81.3556 60.3508H80.0996V55.057H80.0352ZM93.5294 54.0313V37.455H86.3153C86.3153 41.3923 86.1543 44.6679 85.8 47.2486C85.4457 49.8293 84.8982 52.0792 84.0931 54.0313H93.5294Z" fill="white"/>
<path d="M102.707 54.6267C103.673 54.6267 104.543 54.4613 105.284 54.1304C106.056 53.7996 106.572 53.2702 106.862 52.4761L107.152 51.7482L101.999 40.0356C101.709 39.3408 101.451 38.8114 101.193 38.4144C100.936 38.0174 100.581 37.6865 100.098 37.3887C99.6475 37.0909 99.0034 36.9255 98.2305 36.8924V36.33H101.58C102.385 36.33 103.029 36.5947 103.544 37.1571C104.06 37.7196 104.511 38.4806 104.929 39.4401L108.697 48.0095L113.689 36.2969H115.364L108.536 52.4761C107.699 54.4613 106.218 55.487 104.124 55.487H102.739V54.6267H102.707Z" fill="white"/>
<path d="M118.878 39.7712C118.878 38.8117 118.749 38.0838 118.492 37.6206C118.234 37.1574 117.719 36.9257 116.946 36.9257H116.398V36.3633H118.91C119.587 36.3633 120.102 36.4625 120.456 36.628C120.811 36.7934 121.036 37.1243 121.197 37.6206C121.358 38.0838 121.423 38.8117 121.423 39.8043V54.0645H127.96V36.3633H130.472V54.0645H137.01V36.3633H139.522V55.2225H118.943V39.7712H118.878Z" fill="white"/>
<path d="M144.769 39.7711C144.769 38.8116 144.64 38.0837 144.382 37.6204C144.125 37.1572 143.61 36.9256 142.837 36.9256H142.289V36.3632H144.801C145.477 36.3632 145.993 36.4624 146.347 36.6279C146.701 36.7933 146.927 37.1242 147.088 37.6204C147.249 38.0837 147.313 38.8116 147.313 39.8042V52.6086L156.202 36.3301H158.714V55.1893H156.202V38.9108L147.313 55.1893H144.801V39.7711H144.769Z" fill="white"/>
<path d="M27.4723 39.1102C27.5689 39.1433 27.6333 39.1433 27.7299 39.1433C28.2452 39.1433 28.7283 38.7794 28.8571 38.2169C28.986 37.5882 28.5995 36.9596 27.9876 36.8273C17.2308 34.3458 9.59802 24.6845 9.5014 13.3028C9.5014 12.6742 8.98611 12.1448 8.34199 12.1448C8.05214 12.1448 7.8267 12.244 7.63346 12.4095C7.50464 12.5087 7.40802 12.6411 7.34361 12.7734C7.2792 12.9389 7.21478 13.1043 7.21478 13.3028C7.2792 19.3576 9.37258 25.247 13.0763 29.9122C16.7155 34.5774 21.8363 37.8199 27.4723 39.1102ZM29.8555 5.2959C29.0826 5.65985 28.3741 6.12306 27.7299 6.71861L27.6977 6.7517C27.2146 7.21491 26.7638 7.71121 26.4095 8.27367C26.3773 8.30676 26.3773 8.33985 26.3451 8.33985C26.2807 8.40602 26.2485 8.50528 26.1841 8.57145C26.1518 8.63763 26.1196 8.67071 26.0874 8.73689C26.0552 8.80306 26.023 8.86923 25.9908 8.9354C25.9586 9.00158 25.9264 9.06775 25.862 9.16701C25.8298 9.2001 25.8298 9.26627 25.7976 9.29935C25.7654 9.39861 25.701 9.49787 25.6688 9.59713C25.6688 9.63022 25.6366 9.6633 25.6366 9.69639C25.5721 9.79565 25.5399 9.928 25.5077 10.0273V10.0603C25.4433 10.1927 25.4111 10.325 25.3789 10.4574C25.1535 11.1522 25.0246 11.847 24.9924 12.608V12.6411C24.9924 12.7734 24.9924 12.9389 24.9924 13.0712C24.9924 13.2697 24.9924 13.5013 25.0246 13.6998C25.0246 13.7329 25.0246 13.7991 25.0246 13.8322C25.0568 14.0307 25.0568 14.2292 25.0891 14.4277C25.0891 14.4608 25.0891 14.527 25.1213 14.5601C25.1535 14.7586 25.1857 14.924 25.2179 15.0895C25.2179 15.1226 25.2179 15.1557 25.2501 15.1557C25.2823 15.3542 25.3467 15.5196 25.4111 15.7181C25.4111 15.7512 25.4433 15.7843 25.4433 15.8174C25.4433 15.8174 25.4433 15.8505 25.4755 15.8505C25.7976 16.7769 26.2807 17.6702 26.8926 18.3981C26.9248 17.4055 27.2791 16.4129 27.9554 15.7512C27.8266 15.4865 27.7299 15.2218 27.6333 14.924C27.6011 14.7917 27.5689 14.6924 27.5367 14.5601C27.5367 14.527 27.5045 14.4939 27.5045 14.4608C27.4723 14.3285 27.4401 14.2292 27.4401 14.0969C27.4401 14.0638 27.4401 14.0307 27.4079 13.9976C27.3757 13.8653 27.3757 13.6998 27.3435 13.5675C27.3435 13.5344 27.3435 13.5013 27.3435 13.4682C27.3435 13.3028 27.3113 13.1705 27.3113 13.005C27.3113 12.9058 27.3113 12.7734 27.3113 12.6742C27.3113 12.6742 27.3113 12.6742 27.3113 12.6411C27.3435 12.0124 27.4723 11.3838 27.6977 10.7882V10.7552C27.7299 10.6559 27.7621 10.5897 27.7943 10.4905C27.7943 10.4574 27.8266 10.4574 27.8266 10.4243C27.8588 10.3581 27.891 10.2919 27.9232 10.2258C27.9232 10.1927 27.9554 10.1596 27.9554 10.1265C27.9876 10.0603 28.0198 10.0273 28.052 9.96108C28.0842 9.928 28.0842 9.86182 28.1164 9.82874C28.1486 9.79565 28.1486 9.76256 28.1808 9.72948C28.213 9.66331 28.2452 9.63022 28.2774 9.56405C28.2774 9.53096 28.3096 9.53096 28.3096 9.49787C28.3418 9.4317 28.4063 9.36553 28.4385 9.29935C28.5351 9.16701 28.6639 9.03466 28.7605 8.90232C28.8249 8.83614 28.8571 8.76997 28.9216 8.73689C28.986 8.67071 29.0504 8.60454 29.1148 8.53837C29.2114 8.43911 29.3402 8.33985 29.4691 8.24059C29.5979 8.14133 29.6945 8.04207 29.8233 7.94281C29.6301 7.08256 29.5657 6.22232 29.8233 5.36207C29.8233 5.36207 29.8233 5.32898 29.8555 5.2959ZM1.06346 27.0006C5.37905 37.4559 14.3323 45.2643 25.0568 47.9112C25.1535 47.9443 25.2501 47.9443 25.3145 47.9443C25.8298 47.9443 26.3129 47.5803 26.4417 47.051C26.6027 46.4223 26.2163 45.7937 25.6043 45.6282C15.4917 43.1468 7.08596 35.7685 3.09243 25.9418C2.83478 25.3463 2.19067 25.0485 1.61096 25.3132C1.54655 25.3463 1.48214 25.3794 1.41772 25.4124C0.966842 25.7102 0.805813 26.3058 0.999048 26.8352C0.999048 26.9013 1.03125 26.9675 1.06346 27.0006ZM3.41449 19.6223C5.79773 31.1033 14.5255 40.4337 25.6043 43.3453C25.701 43.3784 25.7976 43.3784 25.8942 43.3784C26.4095 43.3784 26.8604 43.0144 26.9892 42.485C27.1502 41.8564 26.7638 41.2278 26.1518 41.0623C15.9104 38.3823 7.8589 29.7468 5.6367 19.126C5.50787 18.4974 4.89596 18.1003 4.28405 18.2327C4.12302 18.2658 3.9942 18.3319 3.89758 18.3981C3.57552 18.6297 3.35008 19.0268 3.41449 19.4569C3.38228 19.5231 3.41449 19.5561 3.41449 19.6223ZM28.3741 29.9453C28.4707 29.9784 28.5995 29.9784 28.6961 29.9784C29.1792 29.9784 29.6623 29.6475 29.7911 29.1181C29.9843 28.4895 29.6301 27.8278 29.0182 27.6623C22.738 25.8095 18.358 19.7878 18.358 13.0381C18.358 10.1265 19.1632 7.31417 20.6768 4.86577C21.0311 4.3033 20.8701 3.5754 20.3226 3.24454C19.7751 2.88059 19.0666 3.04602 18.7445 3.60849C17.0054 6.42084 16.0714 9.69639 16.0714 13.0381C16.0714 20.8134 21.1277 27.7616 28.3741 29.9453ZM25.5077 52.7087C25.5721 52.7087 25.6688 52.7418 25.7332 52.7418C26.2807 52.7418 26.7316 52.3448 26.8604 51.7823C26.9892 51.1537 26.5705 50.525 25.9586 50.3927C16.2324 48.4075 7.53684 42.3527 2.09405 33.7502C1.73978 33.2208 1.03125 33.0554 0.51596 33.4194C0.483754 33.4194 0.483754 33.4524 0.451548 33.4855C-0.0315404 33.8495 -0.160364 34.5443 0.193901 35.0737C0.290519 35.2391 0.419342 35.4376 0.548166 35.6031C6.31302 44.404 15.3951 50.6243 25.5077 52.7087ZM40.2258 41.0954C39.6139 41.2608 39.2596 41.8895 39.3885 42.5181C39.5173 43.0475 40.0004 43.4115 40.4835 43.4115C40.5801 43.4115 40.6767 43.4115 40.7733 43.3784C51.8521 40.4668 60.5799 31.1364 62.9632 19.6223C62.9632 19.5561 62.9632 19.5231 62.9954 19.4569C63.0276 19.0268 62.8344 18.6297 62.5123 18.3981C62.3835 18.3319 62.2546 18.2658 62.1258 18.2327C61.5139 18.1003 60.902 18.4974 60.7732 19.126C58.551 29.7468 50.4995 38.3823 40.2258 41.0954ZM40.8377 45.6282C40.2258 45.7937 39.8393 46.4223 40.0004 47.051C40.1292 47.5803 40.5801 47.9443 41.1276 47.9443C41.2242 47.9443 41.3208 47.9443 41.3852 47.9112C52.1098 45.2643 61.063 37.4559 65.3786 27.0006C65.4108 26.9344 65.443 26.8682 65.443 26.8352C65.6685 26.3058 65.4752 25.7102 65.0244 25.4124C64.9599 25.3794 64.8955 25.3463 64.8311 25.3132C64.2514 25.0485 63.5751 25.3463 63.3496 25.9418C59.3239 35.7685 50.9182 43.1468 40.8377 45.6282ZM36.973 8.30676C37.0052 8.33985 37.0374 8.37293 37.1018 8.40602C37.1985 8.47219 37.2629 8.57145 37.3595 8.63763C37.3917 8.67071 37.4239 8.7038 37.4883 8.76997C37.5849 8.86923 37.7138 9.00158 37.8104 9.13392C37.9392 9.26627 38.0358 9.4317 38.1646 9.59713C38.1646 9.63022 38.1968 9.63022 38.1968 9.66331C38.2291 9.72948 38.2613 9.76256 38.2935 9.82874C38.3257 9.86182 38.3257 9.89491 38.3579 9.928C38.3901 9.96108 38.4223 10.0273 38.4223 10.0603C38.4545 10.1265 38.4867 10.1596 38.5189 10.2258C38.5511 10.2589 38.5511 10.2919 38.5511 10.325C38.5833 10.3912 38.6155 10.4574 38.6477 10.5236C38.6477 10.5566 38.6799 10.5566 38.6799 10.5897C38.7121 10.689 38.7444 10.7552 38.7766 10.8544V10.8875C38.8088 10.9868 38.841 11.086 38.8732 11.1853C39.0342 11.6816 39.1308 12.211 39.163 12.7403C39.163 12.7403 39.163 12.7403 39.163 12.7734C39.163 12.8727 39.163 12.9719 39.163 13.1043C39.163 13.2697 39.163 13.4021 39.1308 13.5675C39.1308 13.6006 39.1308 13.6337 39.1308 13.6668C39.1308 13.7991 39.0986 13.9645 39.0664 14.0969C39.0664 14.13 39.0664 14.1631 39.0342 14.1961C39.002 14.3285 39.002 14.4278 38.9698 14.5601C38.9698 14.5932 38.9376 14.6263 38.9376 14.6924C38.9054 14.8248 38.8732 14.924 38.841 15.0564C38.7443 15.3542 38.6477 15.6189 38.5189 15.8836C39.1952 16.5453 39.5173 17.5379 39.5817 18.5305C40.1936 17.7695 40.6767 16.9092 40.9988 15.9828C40.9988 15.9828 40.9988 15.9497 41.031 15.9497C41.031 15.9166 41.0632 15.8836 41.0632 15.8505C41.1276 15.685 41.192 15.4865 41.2242 15.288C41.2242 15.2549 41.2242 15.2218 41.2564 15.1887C41.2886 15.0233 41.3208 14.8248 41.353 14.6594C41.353 14.6263 41.3852 14.5601 41.3852 14.527C41.4174 14.3285 41.4496 14.13 41.4496 13.9315C41.4496 13.8984 41.4496 13.8322 41.4496 13.7991C41.4496 13.6006 41.4818 13.369 41.4818 13.1705C41.4818 13.005 41.4818 12.8727 41.4818 12.7403V12.7073C41.4496 11.9463 41.3208 11.2515 41.0954 10.5566C41.0632 10.4243 40.9988 10.2919 40.9666 10.1596C40.9666 10.1596 40.9666 10.1265 40.9343 10.1265C40.9021 9.99417 40.8377 9.89491 40.8055 9.79565C40.8055 9.76256 40.7733 9.72948 40.7733 9.69639C40.7411 9.59713 40.6767 9.49787 40.6445 9.39861C40.6123 9.36553 40.6123 9.29935 40.5801 9.26627C40.5479 9.2001 40.5157 9.13392 40.4513 9.03466C40.4191 8.96849 40.3868 8.90232 40.3546 8.83614C40.3224 8.76997 40.2902 8.73689 40.258 8.67071C40.2258 8.60454 40.1614 8.50528 40.097 8.43911C40.0648 8.40602 40.0648 8.37293 40.0326 8.37293C39.6783 7.81046 39.2274 7.31417 38.7444 6.85096L38.7121 6.81787C38.068 6.2554 37.3595 5.75911 36.5866 5.39516C36.5866 5.42824 36.6188 5.46133 36.6188 5.5275C36.8442 6.38775 36.812 7.28108 36.6188 8.10824C36.7154 8.10824 36.8442 8.2075 36.973 8.30676ZM38.4223 36.8273C37.8104 36.9596 37.4239 37.5882 37.5527 38.2169C37.6816 38.7794 38.1324 39.1433 38.6799 39.1433C38.7766 39.1433 38.841 39.1433 38.9376 39.1102C44.5736 37.8199 49.6944 34.5443 53.3658 29.9453C57.1017 25.2801 59.1629 19.3576 59.2273 13.3359C59.2273 13.1374 59.1951 12.9719 59.0985 12.8065C59.0341 12.6742 58.9374 12.5418 58.8086 12.4426C58.6154 12.2771 58.3577 12.1779 58.1001 12.1779C57.456 12.1779 56.9407 12.7073 56.9407 13.3359C56.8119 24.6845 49.2113 34.3458 38.4223 36.8273ZM48.0518 13.0381C48.0518 19.7878 43.6718 25.8095 37.3595 27.6954C36.7476 27.8939 36.3933 28.5226 36.5866 29.1512C36.7476 29.6806 37.1985 30.0115 37.6816 30.0115C37.7782 30.0115 37.907 30.0115 38.0036 29.9784C45.2499 27.7947 50.3385 20.8465 50.3385 13.0712C50.3385 9.72948 49.4045 6.45392 47.6654 3.64158C47.3111 3.07911 46.6026 2.94676 46.0873 3.27763C45.5398 3.64158 45.411 4.36948 45.733 4.89886C47.2467 7.31417 48.0518 10.1265 48.0518 13.0381ZM43.6074 13.0381C43.6074 16.446 41.9971 19.6885 39.3241 21.7068C38.8088 22.1038 38.7121 22.8317 39.0664 23.3611C39.2919 23.6919 39.6461 23.8574 40.0004 23.8574C40.2258 23.8574 40.4835 23.7912 40.6767 23.6258C43.9617 21.1774 45.9263 17.2401 45.9263 13.0712C45.9263 6.55318 41.192 0.961576 34.8796 0.134416C34.3321 0.0682427 33.7846 0.0351562 33.2371 0.0351562C32.6896 0.0351562 32.1421 0.0682427 31.5946 0.134416C25.2501 0.961576 20.5158 6.5201 20.5158 13.0381C20.5158 17.207 22.4804 21.1443 25.7654 23.5927C25.9586 23.7581 26.2163 23.8243 26.4417 23.8243C26.796 23.8243 27.1502 23.6589 27.3757 23.328C27.7621 22.7986 27.6333 22.0707 27.118 21.6737C24.4449 19.6554 22.8346 16.446 22.8346 13.005C22.8346 7.64503 26.7316 3.07911 31.8845 2.41738C32.3354 2.35121 32.7863 2.31812 33.2371 2.31812C33.688 2.31812 34.1389 2.35121 34.5898 2.41738C39.7105 3.14528 43.6074 7.67812 43.6074 13.0381ZM60.0646 52.6095C59.7104 52.1463 59.0341 52.047 58.551 52.3779C52.4963 56.5137 45.5076 59.1275 38.2935 59.9216C37.6493 59.9878 37.1985 60.5833 37.2951 61.2119C37.3595 61.8075 37.8426 62.2707 38.4223 62.2707C38.4545 62.2707 38.5189 62.2707 38.5511 62.2707C45.2821 61.5097 51.8521 59.2598 57.6814 55.7196C58.4221 55.2895 59.1307 54.8263 59.8392 54.33C60.3545 53.966 60.5155 53.2381 60.1613 52.7087C60.1291 52.6757 60.0969 52.6426 60.0646 52.6095ZM46.9891 63.925C46.7958 63.3626 46.2161 63.0648 45.6364 63.1971C42.8345 63.925 39.9682 64.4213 37.1018 64.6199C36.4577 64.6529 36.0068 65.2485 36.0391 65.8771C36.0713 66.3073 36.3289 66.6381 36.651 66.8366C36.812 66.9359 36.973 66.969 37.1663 66.969C37.1985 66.969 37.2307 66.969 37.2629 66.969C40.2902 66.7374 43.2854 66.2411 46.1839 65.4801C46.7958 65.3147 47.1823 64.686 47.0213 64.0574C47.0213 64.0243 46.9891 63.9581 46.9891 63.925ZM36.973 34.8421C37.0374 34.8421 37.1018 34.8421 37.1985 34.809C47.3755 32.8569 54.7829 23.6919 54.7829 13.005C54.7829 11.3176 54.5896 9.63022 54.2354 7.9759C54.1066 7.34726 53.4624 6.95022 52.8505 7.08256C52.2386 7.21491 51.8521 7.87664 51.981 8.50528C52.303 9.96108 52.4641 11.4831 52.4641 12.9719C52.4641 22.5008 45.8619 30.7063 36.7476 32.4599C36.1357 32.5922 35.717 33.1878 35.8458 33.8164C35.9424 34.4781 36.4255 34.8421 36.973 34.8421ZM65.9583 33.4524C65.9261 33.4194 65.9261 33.4194 65.8939 33.3863C65.3786 33.0223 64.6701 33.1878 64.3158 33.7171C58.873 42.3196 50.1774 48.3744 40.4513 50.3596C39.8393 50.4919 39.4207 51.1206 39.5495 51.7492C39.6461 52.3117 40.1292 52.7087 40.6767 52.7087C40.7411 52.7087 40.8377 52.7087 40.9021 52.6757C51.047 50.6243 60.0969 44.371 65.8939 35.5369C66.0227 35.3715 66.1194 35.206 66.2482 35.0075C66.538 34.5112 66.4092 33.8164 65.9583 33.4524ZM64.7345 42.485C64.2836 42.0549 63.5751 42.088 63.1564 42.5512C56.8441 49.3008 48.4383 53.8006 39.4851 55.1902C38.8732 55.2895 38.4223 55.885 38.5189 56.5137C38.6155 57.1092 39.0986 57.5063 39.6461 57.5063C39.7105 57.5063 39.7749 57.5063 39.8071 57.5063C48.857 56.0836 57.3594 51.7161 63.8971 45.0989C64.187 44.8011 64.5091 44.5033 64.7989 44.1724C65.2498 43.7092 65.2176 42.9813 64.7345 42.485C64.7667 42.5181 64.7345 42.485 64.7345 42.485ZM29.308 64.6529C26.4095 64.4213 23.5432 63.9581 20.7735 63.2302C20.1938 63.0979 19.6463 63.3957 19.4208 63.9581C19.3886 63.9912 19.3886 64.0574 19.3886 64.0905C19.2276 64.7191 19.6141 65.3477 20.226 65.5132C23.1245 66.2742 26.1518 66.7705 29.147 67.0021C29.1792 67.0021 29.2114 67.0021 29.2436 67.0021C29.4368 67.0021 29.5979 66.9359 29.7589 66.8697C30.1132 66.7043 30.3386 66.3403 30.3708 65.9102C30.403 65.2485 29.9199 64.686 29.308 64.6529ZM27.9554 62.3038C28.5351 62.3038 29.0182 61.8737 29.0826 61.245C29.147 60.5833 28.6961 60.0208 28.0842 59.9547C20.8701 59.1275 13.8814 56.5137 7.8267 52.411C7.34361 52.0801 6.69949 52.1794 6.31302 52.6426C6.28081 52.6757 6.24861 52.7087 6.2164 52.7418C5.86214 53.2712 6.02317 53.9991 6.53846 54.3631C7.24699 54.8263 7.95552 55.2895 8.69626 55.7527C14.5255 59.2929 21.0955 61.5428 27.8266 62.3038C27.891 62.3038 27.9232 62.3038 27.9554 62.3038ZM26.7638 57.5394C27.3113 57.5394 27.7943 57.1092 27.891 56.5468C27.9876 55.9181 27.5689 55.2895 26.9248 55.2233C17.9715 53.8337 9.56581 49.3339 3.25346 42.5843C2.83478 42.1211 2.12625 42.088 1.67537 42.5181C1.67537 42.5181 1.64317 42.5181 1.64317 42.5512C1.19228 43.0144 1.16008 43.7423 1.61096 44.2055C1.90081 44.5033 2.19067 44.8342 2.51272 45.1319C9.05052 51.7492 17.5529 56.1497 26.6027 57.5394C26.6349 57.5394 26.6993 57.5394 26.7638 57.5394ZM29.3724 13.0381C29.3724 13.6337 29.5013 14.1961 29.7267 14.6924C30.5963 14.2623 31.4658 13.766 31.6591 12.9389C31.6591 12.9058 31.6591 12.9058 31.6591 12.8727C31.6591 12.8065 31.6913 12.7403 31.6913 12.7073C31.7557 11.8139 31.176 10.9206 30.6607 10.0934C29.8877 10.8213 29.3724 11.8801 29.3724 13.0381ZM37.0052 13.0381C37.0052 11.8801 36.4899 10.8213 35.717 10.0934C35.2339 10.9206 34.622 11.8139 34.6864 12.7073C34.6864 12.7734 34.7186 12.8396 34.7186 12.8727C34.7186 12.9058 34.7186 12.9058 34.7186 12.9389C34.9118 13.766 35.7814 14.2623 36.651 14.6924C36.8764 14.1961 37.0052 13.6337 37.0052 13.0381ZM29.6301 32.526C20.5158 30.7724 13.9136 22.6001 13.9136 13.0381C13.9136 11.5161 14.0746 10.0273 14.3967 8.57145C14.5255 7.94281 14.1713 7.31417 13.5271 7.14874C12.9152 7.01639 12.3033 7.38034 12.1423 8.04207C11.788 9.6633 11.5948 11.3507 11.5948 13.0712C11.5948 23.725 19.0021 32.89 29.1792 34.8752C29.2436 34.8752 29.308 34.9082 29.4046 34.9082C29.9521 34.9082 30.4352 34.5112 30.5318 33.9487C30.6607 33.2539 30.242 32.6584 29.6301 32.526Z" fill="white"/>
</g>
<defs>
<clipPath id="clip0_36_77433">
<rect width="219" height="67" fill="white"/>
</clipPath>
</defs>
</svg>
