<svg width="1920" height="1240" fill="none" xmlns="http://www.w3.org/2000/svg"><g filter="url(#a)"><path fill="url(#b)" d="M-197 0h2331v1080H-197z"/></g><mask id="d" style="mask-type:alpha" maskUnits="userSpaceOnUse" x="0" y="0" width="1920" height="1080"><path fill="url(#c)" d="M0 0h1920v1080H0z"/></mask><g mask="url(#d)"><g opacity=".3"><path opacity=".3" d="M936.056 88.099a5.067 5.067 0 1 1-5.068 5.066 5.067 5.067 0 0 1 5.068-5.067z" fill="#FDEFFB"/><path opacity=".3" d="M1306.15-7.778c2.8 0 5.07 2.268 5.07 5.066a5.068 5.068 0 0 1-5.07 5.066 5.06 5.06 0 0 1-5.06-5.066 5.06 5.06 0 0 1 5.06-5.066z" fill="#F2EFFB"/><path opacity=".3" d="M941.126-7.778a5.067 5.067 0 1 1 0 10.133 5.067 5.067 0 0 1 0-10.133z" fill="#FDEFFB"/><path opacity=".3" fill-rule="evenodd" clip-rule="evenodd" d="M864.93 113.992c0 2.064 1.689 3.565 3.566 3.565 2.064 0 3.565-1.689 3.565-3.565 0-2.064-1.689-3.565-3.565-3.565-1.877 0-3.566 1.688-3.566 3.565zM1358.89-2.711c0 2.064 1.69 3.565 3.57 3.565 2.06 0 3.56-1.69 3.56-3.565 0-2.064-1.69-3.565-3.56-3.565-2.07 0-3.57 1.688-3.57 3.565z" fill="#F2EFFB"/><path opacity=".3" fill-rule="evenodd" clip-rule="evenodd" d="M1010.75 60.331c0 2.064 1.69 3.566 3.57 3.566 2.06 0 3.56-1.69 3.56-3.566 0-2.063-1.69-3.564-3.56-3.564-2.07 0-3.57 1.688-3.57 3.564z" fill="#EBCBF8"/><path opacity=".3" fill-rule="evenodd" clip-rule="evenodd" d="M830.77 8.734c0 2.064 1.689 3.565 3.565 3.565 2.065 0 3.566-1.689 3.566-3.565 0-2.064-1.689-3.565-3.566-3.565-1.876 0-3.565 1.501-3.565 3.565z" fill="#F2EFFB"/><path opacity=".3" fill-rule="evenodd" clip-rule="evenodd" d="M1037.78 18.303c0 1.5 1.12 2.627 2.62 2.627 1.51 0 2.63-1.126 2.63-2.627s-1.12-2.627-2.63-2.627c-1.5 0-2.62 1.126-2.62 2.627z" fill="#EBCBF8"/><path opacity=".3" fill-rule="evenodd" clip-rule="evenodd" d="M1449.35 56.203c0 1.501 1.12 2.627 2.63 2.627 1.5 0 2.62-1.126 2.62-2.627 0-1.5-1.12-2.626-2.62-2.626-1.32 0-2.63 1.125-2.63 2.626zM924.797 73.276c0 .938.751 1.689 1.689 1.689.938 0 1.689-.75 1.689-1.689 0-.938-.751-1.688-1.689-1.688-.751 0-1.689.75-1.689 1.688z" fill="#F2EFFB"/><path opacity=".3" fill-rule="evenodd" clip-rule="evenodd" d="M1022.01 58.641c0 .939.75 1.69 1.69 1.69s1.69-.752 1.69-1.69-.75-1.688-1.69-1.688-1.69.75-1.69 1.688zM1020.32 98.231c0 .939.75 1.689 1.69 1.689s1.69-.75 1.69-1.689c0-.938-.75-1.688-1.69-1.688s-1.69.75-1.69 1.688zM998.555 88.1c0 .939.75 1.69 1.685 1.69.94 0 1.69-.752 1.69-1.69s-.75-1.688-1.69-1.688a1.68 1.68 0 0 0-1.685 1.688zM1043.78 95.604c0 .938.75 1.689 1.69 1.689s1.69-.75 1.69-1.689c0-.938-.75-1.688-1.69-1.688s-1.69.75-1.69 1.688z" fill="#EBCBF8"/><path opacity=".3" fill-rule="evenodd" clip-rule="evenodd" d="M1537.74 261.843c0 .938.75 1.688 1.69 1.688s1.69-.75 1.69-1.688c0-.939-.75-1.689-1.69-1.689s-1.69.75-1.69 1.689zM992.359 61.269c0 .375.376.938.939.938.375 0 .938-.375.938-.938 0-.375-.375-.938-.938-.938s-.939.375-.939.938zM1212.13 359.407c0 .563.56 1.126 1.13 1.126.56 0 1.12-.563 1.12-1.126 0-.562-.56-1.125-1.12-1.125-.57.187-1.13.563-1.13 1.125zM1194.86 62.019c0 .375.37.938.94.938.37 0 .94-.375.94-.938s-.38-.938-.94-.938c-.57.187-.94.563-.94.938zM1386.48 50.199c0 .375.37.938.93.938.38 0 .94-.376.94-.938 0-.376-.37-.938-.94-.938-.56 0-.93.375-.93.938zM1097.46 49.261c0 .375.37.938.94.938.37 0 .93-.375.93-.938 0-.375-.37-.938-.93-.938-.57.188-.94.563-.94.938zM1216.07 56.954c0 .376.38.939.94.939.37 0 .94-.376.94-.939 0-.375-.38-.938-.94-.938-.56.188-.94.563-.94.938zM1506.21 61.456c0 .376.38.938.94.938.38 0 .94-.375.94-.938 0-.375-.37-.938-.94-.938-.56 0-.94.376-.94.938zM1536.8 58.642c0 .375.38.938.94.938.38 0 .94-.375.94-.938 0-.375-.37-.938-.94-.938-.56.187-.94.563-.94.938z" fill="#F2EFFB"/><path opacity=".3" d="M1005.87 74.028a.939.939 0 1 1 0 1.876.939.939 0 1 1 0-1.876z" fill="#EBCBF8"/><path opacity=".3" fill-rule="evenodd" clip-rule="evenodd" d="M1165.02 75.904c0 .375.37.938.94.938.37 0 .94-.376.94-.938 0-.376-.38-.938-.94-.938-.57 0-.94.375-.94.938zM1387.23 78.343c0 .375.38.938.94.938.37 0 .94-.375.94-.938 0-.375-.38-.938-.94-.938-.56 0-.94.375-.94.938z" fill="#F2EFFB"/><path opacity=".3" fill-rule="evenodd" clip-rule="evenodd" d="M998.555 47.573c0 .938.75 1.689 1.685 1.689.94 0 1.69-.75 1.69-1.689 0-.938-.75-1.689-1.69-1.689a1.68 1.68 0 0 0-1.685 1.69zM1076.25 45.883c0 .939.75 1.69 1.69 1.69s1.69-.751 1.69-1.69c0-.938-.75-1.688-1.69-1.688s-1.69.75-1.69 1.688z" fill="#EBCBF8"/><path opacity=".3" fill-rule="evenodd" clip-rule="evenodd" d="M1132.18 102.923c0 .938.75 1.688 1.69 1.688s1.69-.75 1.69-1.688-.75-1.689-1.69-1.689-1.69.751-1.69 1.689zM1399.24 254.337c0 .938.75 1.688 1.69 1.688s1.69-.75 1.69-1.688-.75-1.689-1.69-1.689-1.69.751-1.69 1.689zM1803.68 163.339c0 .938.75 1.688 1.69 1.688s1.69-.75 1.69-1.688-.75-1.689-1.69-1.689-1.69.751-1.69 1.689z" fill="#F2EFFB"/><path opacity=".3" d="M856.106 43.82a.938.938 0 1 1 .001 1.876.938.938 0 0 1-.001-1.877zM752.886 23.93a3.565 3.565 0 1 1 .002 7.13 3.565 3.565 0 0 1-.002-7.13zM1362.46 31.25a3.56 3.56 0 0 1 3.56 3.564 3.56 3.56 0 0 1-3.56 3.565 3.568 3.568 0 0 1-3.57-3.565c0-1.969 1.6-3.565 3.57-3.565zM764.335 73.09a2.627 2.627 0 1 1 0 5.254 2.627 2.627 0 0 1 0-5.254z" fill="#F2EFFB"/><path opacity=".3" fill-rule="evenodd" clip-rule="evenodd" d="M748.757 34.063c-.751-.751-1.689-.751-2.44 0-.751.75-.751 1.688 0 2.439.751.75 1.689.75 2.44 0 .563-.75.563-1.689 0-2.44zM721.921 4.793c-.751-.75-1.689-.75-2.44 0-.751.75-.751 1.689 0 2.439s1.689.75 2.44 0c.563-.563.563-1.689 0-2.44zM767.9 11.36c-.376-.375-.939-.375-1.127 0-.375.376-.375.939 0 1.126.376.375.939.375 1.127 0 .375-.188.375-.75 0-1.126zM800.181 80.782c-.375-.375-.938-.375-1.126 0-.375.376-.375.938 0 1.126.375.375.938.375 1.126 0 .375-.188.375-.75 0-1.126zM701.837 94.105c-.375-.376-.938-.376-1.126 0-.375.375-.375.938 0 1.125.376.376.939.376 1.126 0 .376-.187.376-.75 0-1.126z" fill="#F2EFFB"/><path opacity=".3" d="M748.567 10.235a.938.938 0 1 1 .001 1.877.938.938 0 0 1-.001-1.877z" fill="#F2EFFB"/><path opacity=".3" fill-rule="evenodd" clip-rule="evenodd" d="M773.155 25.432c-.751-.75-1.689-.75-2.44 0-.75.75-.75 1.688 0 2.439.751.75 1.689.75 2.44 0 .563-.75.563-1.877 0-2.44zM888.389 24.307c-.75-.75-1.689-.75-2.439 0-.751.75-.751 1.688 0 2.439.75.75 1.689.75 2.439 0 .751-.563.751-1.689 0-2.44zM719.479 81.346c-.75-.75-1.689-.75-2.439 0-.751.75-.751 1.688 0 2.439.75.75 1.689.75 2.439 0 .563-.563.563-1.689 0-2.44zM990.859 388.491c0 3.002 2.44 5.253 5.255 5.253 3.003 0 5.256-2.439 5.256-5.253 0-2.815-2.441-5.254-5.256-5.254-2.815 0-5.255 2.439-5.255 5.254zM1170.46-2.525c0 3.002 2.44 5.254 5.26 5.254 2.81 0 5.25-2.44 5.25-5.254 0-3.002-2.44-5.254-5.25-5.254-2.82 0-5.26 2.44-5.26 5.254z" fill="#F2EFFB"/><path opacity=".3" fill-rule="evenodd" clip-rule="evenodd" d="M1376.16 288.672c0 3.002 2.44 5.254 5.25 5.254 2.82 0 5.26-2.439 5.26-5.254 0-3.002-2.44-5.253-5.26-5.253-2.81 0-5.25 2.439-5.25 5.253z" fill="#FDEFFB"/><path opacity=".3" fill-rule="evenodd" clip-rule="evenodd" d="M1663.86 184.914c0 3.002 2.44 5.254 5.26 5.254 2.81 0 5.25-2.439 5.25-5.254 0-2.814-2.44-5.253-5.25-5.253-2.82 0-5.26 2.251-5.26 5.253zM1590.48 257.713c0 3.002 2.44 5.254 5.26 5.254 2.81 0 5.25-2.439 5.25-5.254 0-3.002-2.44-5.253-5.25-5.253-2.82 0-5.26 2.439-5.26 5.253zM1897.14 104.61c0 3.002 2.44 5.253 5.26 5.253 3 0 5.25-2.439 5.25-5.253 0-2.815-2.44-5.254-5.25-5.254-2.82 0-5.26 2.439-5.26 5.254zM996.113 288.672c0 3.002 2.44 5.254 5.257 5.254 2.81 0 5.25-2.439 5.25-5.254 0-3.002-2.44-5.253-5.25-5.253-2.817 0-5.257 2.439-5.257 5.253z" fill="#F2EFFB"/><path opacity=".3" d="M1386.67 81.344c2.9 0 5.25 2.353 5.25 5.254a5.251 5.251 0 0 1-5.25 5.254 5.254 5.254 0 1 1 0-10.508z" fill="#F2EFFB"/><path opacity=".3" fill-rule="evenodd" clip-rule="evenodd" d="M922.168 410.255a3.764 3.764 0 0 0 3.753 3.753 3.764 3.764 0 0 0 3.754-3.753 3.764 3.764 0 0 0-3.754-3.752 3.763 3.763 0 0 0-3.753 3.752zM1436.21 288.673a3.764 3.764 0 0 0 3.75 3.753c2.07 0 3.76-1.689 3.76-3.753a3.765 3.765 0 0 0-3.76-3.752 3.763 3.763 0 0 0-3.75 3.752zM1073.81 354.341a3.766 3.766 0 0 0 3.76 3.753c2.06 0 3.75-1.689 3.75-3.753a3.763 3.763 0 0 0-3.75-3.752 3.765 3.765 0 0 0-3.76 3.752zM889.516 33.312a3.764 3.764 0 0 0 3.753 3.753 3.765 3.765 0 0 0 3.754-3.753 3.765 3.765 0 0 0-3.754-3.753 3.764 3.764 0 0 0-3.753 3.753zM886.699 300.494a3.764 3.764 0 0 0 3.754 3.752 3.764 3.764 0 0 0 3.753-3.752 3.764 3.764 0 0 0-3.753-3.753 3.764 3.764 0 0 0-3.754 3.753zM1101.96 310.438c0 1.501 1.31 2.814 2.82 2.814 1.5 0 2.81-1.313 2.81-2.814 0-1.501-1.31-2.815-2.81-2.815-1.51.188-2.82 1.314-2.82 2.815zM1285.7 270.098c0 1.501 1.31 2.814 2.81 2.814s2.82-1.313 2.82-2.814c0-1.501-1.32-2.815-2.82-2.815-1.5.188-2.81 1.314-2.81 2.815zM1530.43 349.838c0 1.501 1.31 2.814 2.81 2.814s2.82-1.313 2.82-2.814c0-1.501-1.32-2.814-2.82-2.814-1.69.187-2.81 1.313-2.81 2.814zM1530.43 287.172c0 1.501 1.31 2.814 2.81 2.814s2.82-1.313 2.82-2.814c0-1.501-1.32-2.814-2.82-2.814-1.69 0-2.81 1.313-2.81 2.814z" fill="#F2EFFB"/><path opacity=".3" d="M1482.19 14.363c1.55 0 2.82 1.26 2.82 2.815a2.822 2.822 0 0 1-2.82 2.814c-1.55 0-2.81-1.26-2.81-2.814a2.813 2.813 0 0 1 2.81-2.815z" fill="#F2EFFB"/><path opacity=".3" fill-rule="evenodd" clip-rule="evenodd" d="M984.477 367.663c0 .938.75 1.689 1.689 1.689.938 0 1.688-.751 1.688-1.689 0-.938-.75-1.689-1.688-1.689-.751 0-1.689.751-1.689 1.689zM1085.63 352.466c0 .938.75 1.688 1.69 1.688s1.69-.75 1.69-1.688-.75-1.689-1.69-1.689-1.69.751-1.69 1.689zM1083.76 393.743c0 .938.75 1.689 1.69 1.689s1.69-.751 1.69-1.689c0-.938-.75-1.689-1.69-1.689-.75 0-1.69.751-1.69 1.689zM1061.23 383.237c0 .938.76 1.689 1.69 1.689.94 0 1.69-.751 1.69-1.689 0-.938-.75-1.688-1.69-1.688-.93 0-1.69.75-1.69 1.688zM1108.34 390.929c0 .938.75 1.688 1.69 1.688s1.69-.75 1.69-1.688c0-.939-.75-1.689-1.69-1.689s-1.69.75-1.69 1.689zM1622.2 450.407c0 .938.75 1.689 1.69 1.689s1.69-.751 1.69-1.689c0-.938-.75-1.689-1.69-1.689s-1.69.751-1.69 1.689zM968.898 254.337c0 .938.751 1.688 1.69 1.688.938 0 1.689-.75 1.689-1.688s-.751-1.689-1.689-1.689c-.751-.187-1.69.563-1.69 1.689z" fill="#F2EFFB"/><path opacity=".3" d="M1055.61 354.155c.51 0 .93.42.93.938s-.42.938-.93.938a.938.938 0 1 1 0-1.876z" fill="#F2EFFB"/><path opacity=".3" fill-rule="evenodd" clip-rule="evenodd" d="M1442.78 477.425c0 .563.38.938.94.938.56 0 .94-.375.94-.938s-.38-.938-.94-.938c-.56.188-.94.563-.94.938zM1265.43 356.031c0 .562.37.938.93.938.57 0 .94-.376.94-.938 0-.563-.37-.939-.94-.939-.56 0-.93.376-.93.939zM1464.93 343.648c0 .563.37.938.93.938.57 0 .94-.375.94-.938s-.37-.938-.94-.938c-.56 0-.93.375-.93.938zM1164.27 342.708c0 .563.37.938.94.938.56 0 .94-.375.94-.938s-.38-.938-.94-.938c-.57.188-.94.563-.94.938zM1287.57 350.777c0 .563.38.938.94.938.57 0 .94-.375.94-.938s-.37-.938-.94-.938c-.56 0-.94.375-.94.938zM1589.54 355.468c0 .563.38.938.94.938.56 0 .94-.375.94-.938s-.38-.938-.94-.938c-.56 0-.94.375-.94.938zM1621.26 352.466c0 .563.37.938.94.938.56 0 .93-.375.93-.938s-.37-.938-.93-.938c-.38.188-.94.563-.94.938zM1067.99 369.54c0 .563.38.939.94.939.56 0 .94-.376.94-.939 0-.562-.38-.938-.94-.938-.56 0-.94.376-.94.938zM1234.46 370.478c0 .563.38.938.94.938.56 0 .94-.375.94-.938s-.38-.938-.94-.938c-.56 0-.94.375-.94.938zM1465.86 372.917c0 .563.38.938.94.938.56 0 .94-.375.94-.938s-.38-.938-.94-.938c-.56 0-.94.563-.94.938zM1061.23 341.02c0 .939.76 1.689 1.69 1.689.94 0 1.69-.75 1.69-1.689 0-.938-.75-1.688-1.69-1.688-.93 0-1.69.75-1.69 1.688zM1141.94 339.333c0 .938.75 1.688 1.69 1.688a1.687 1.687 0 1 0 0-3.377c-.75-.187-1.69.563-1.69 1.689zM1475.81 264.845c0 .938.75 1.688 1.69 1.688s1.69-.75 1.69-1.688c0-.939-.75-1.689-1.69-1.689-.94-.188-1.69.75-1.69 1.689zM1108.34 19.804c0 .938.75 1.688 1.69 1.688s1.69-.75 1.69-1.688-.75-1.689-1.69-1.689-1.69.75-1.69 1.689zM1200.12 398.622c0 .938.75 1.689 1.69 1.689a1.688 1.688 0 1 0 0-3.378c-.75-.187-1.69.563-1.69 1.689zM1484.82 262.968c0 .938.75 1.688 1.69 1.688s1.69-.75 1.69-1.688c0-.939-.75-1.689-1.69-1.689s-1.69.75-1.69 1.689zM1513.91 51.7c0 .938.75 1.689 1.69 1.689s1.69-.75 1.69-1.689c0-.938-.75-1.689-1.69-1.689s-1.69.751-1.69 1.69zM1581.1 53.577c0 .938.75 1.689 1.69 1.689s1.69-.75 1.69-1.689c0-.938-.75-1.689-1.69-1.689s-1.69.563-1.69 1.689zM1288.14 87.349c0 .938.75 1.688 1.69 1.688.93 0 1.68-.75 1.68-1.689a1.68 1.68 0 0 0-1.68-1.688c-.94-.188-1.69.563-1.69 1.689zM1535.87 277.977c0 .939.75 1.689 1.69 1.689a1.688 1.688 0 1 0 0-3.377c-.94 0-1.69.75-1.69 1.688zM1582.97 48.136c0 .938.75 1.688 1.69 1.688s1.69-.75 1.69-1.688c0-.939-.75-1.69-1.69-1.69s-1.69.751-1.69 1.69zM1486.7 48.136c0 .938.75 1.688 1.68 1.688.94 0 1.69-.75 1.69-1.688 0-.939-.75-1.69-1.69-1.69-.93 0-1.68.751-1.68 1.69zM1165.02 256.026c0 .938.75 1.689 1.69 1.689s1.69-.751 1.69-1.689c0-.938-.75-1.689-1.69-1.689s-1.69.751-1.69 1.689zM1457.42 25.245c0 .938.75 1.689 1.69 1.689s1.69-.751 1.69-1.69c0-.937-.75-1.688-1.69-1.688s-1.69.75-1.69 1.689zM1196.55 65.96c0 .938.75 1.688 1.69 1.688s1.69-.75 1.69-1.688-.75-1.689-1.69-1.689-1.69.75-1.69 1.689zM1075.88 245.893c0 .939.75 1.689 1.68 1.689.94 0 1.69-.75 1.69-1.689 0-.938-.75-1.688-1.69-1.688-.93 0-1.68.75-1.68 1.688z" fill="#F2EFFB"/><path opacity=".3" d="M667.306-6.84a5.254 5.254 0 1 1-5.255 5.254 5.254 5.254 0 0 1 5.255-5.253z" fill="#F2EFFB"/><path opacity=".3" fill-rule="evenodd" clip-rule="evenodd" d="M890.454 9.11c-2.065-2.065-5.443-2.065-7.507 0-2.065 2.063-2.065 5.44 0 7.504 2.064 2.064 5.442 2.064 7.507 0 2.064-2.064 2.064-5.441 0-7.505zM737.872 68.963c-2.065-2.064-5.443-2.064-7.507 0-2.065 2.064-2.065 5.44 0 7.505 2.064 2.064 5.442 2.064 7.507 0 2.064-2.252 2.064-5.442 0-7.505z" fill="#F2EFFB"/><path opacity=".3" d="M634.089 76.28a3.753 3.753 0 1 1 .001 7.507 3.753 3.753 0 0 1-.001-7.507z" fill="#F2EFFB"/><path opacity=".3" fill-rule="evenodd" clip-rule="evenodd" d="M647.598 237.45c-1.126-1.126-2.815-1.126-3.941 0s-1.126 2.814 0 3.94 2.815 1.126 3.941 0 1.126-2.814 0-3.94z" fill="#F2EFFB"/><path opacity=".3" d="M689.076 4.418a1.689 1.689 0 1 1 0 3.377 1.689 1.689 0 0 1 0-3.377zM628.271 86.6a1.689 1.689 0 1 1 0 3.377 1.689 1.689 0 0 1 0-3.378z" fill="#F2EFFB"/><path opacity=".3" fill-rule="evenodd" clip-rule="evenodd" d="M601.62 56.578c-.751-.75-1.877-.75-2.44 0-.75.75-.75 1.876 0 2.44.751.75 1.877.75 2.44 0 .751-.751.751-1.69 0-2.44z" fill="#F2EFFB"/><path opacity=".3" d="M623.763 47.572a1.689 1.689 0 1 1 0 3.377 1.689 1.689 0 0 1 0-3.377z" fill="#F2EFFB"/><path opacity=".3" fill-rule="evenodd" clip-rule="evenodd" d="M781.6 74.027c-.75-.75-1.876-.75-2.439 0-.751.75-.751 1.876 0 2.44.75.75 1.876.75 2.439 0 .563-.564.563-1.69 0-2.44zM649.478 63.333a.907.907 0 0 0-1.314 0 .907.907 0 0 0 0 1.313.908.908 0 0 0 1.314 0 .907.907 0 0 0 0-1.313zM580.787 258.653a.908.908 0 0 0-1.314 0 .908.908 0 0 0 0 1.314.908.908 0 0 0 1.314 0 .908.908 0 0 0 0-1.314zM629.959 62.583a.908.908 0 0 0-1.314 0 .906.906 0 0 0 0 1.313.908.908 0 0 0 1.314 0c.375-.563.375-1.126 0-1.313z" fill="#F2EFFB"/><path opacity=".3" d="M653.607 77.404a1.689 1.689 0 1 1 0 3.377 1.689 1.689 0 0 1 0-3.377zM597.865 244.955a1.689 1.689 0 1 1 0 3.377 1.689 1.689 0 0 1 0-3.377z" fill="#F2EFFB"/><path opacity=".3" fill-rule="evenodd" clip-rule="evenodd" d="M641.593 320.57c-.751-.75-1.877-.75-2.44 0-.751.751-.751 1.877 0 2.439.751.751 1.877.751 2.44 0 .75-.562.75-1.688 0-2.439z" fill="#F2EFFB"/><path opacity=".3" d="M710.658 264.281a1.689 1.689 0 1 1 0 3.378 1.689 1.689 0 0 1 0-3.378z" fill="#F2EFFB"/><path opacity=".3" d="M458.048 89.225a5.254 5.254 0 1 1-5.255 5.254 5.254 5.254 0 0 1 5.255-5.254zM351.263 12.862a5.254 5.254 0 1 1-5.255 5.254 5.254 5.254 0 0 1 5.255-5.254z" fill="#FDEFFB"/><path opacity=".3" fill-rule="evenodd" clip-rule="evenodd" d="M416.571 717.588c-2.064-2.064-5.443-2.064-7.507 0s-2.064 5.441 0 7.505 5.443 2.064 7.507 0 2.064-5.441 0-7.505z" fill="#FDEFFB"/><path opacity=".3" d="M524.86 272.725a5.254 5.254 0 1 1 0 10.507 5.254 5.254 0 1 1 0-10.507zM508.532 327.512a5.255 5.255 0 1 1 0 10.51 5.255 5.255 0 0 1 0-10.51zM492.394 25.808a3.753 3.753 0 1 1 .001 7.506 3.753 3.753 0 0 1-.001-7.506zM424.64 281.729a3.754 3.754 0 1 1 .001 7.507 3.754 3.754 0 0 1-.001-7.507zM595.05 78.155a3.753 3.753 0 1 1 .001 7.507 3.753 3.753 0 0 1-.001-7.507z" fill="#F2EFFB"/><path opacity=".3" fill-rule="evenodd" clip-rule="evenodd" d="M438.34 333.704c-1.126-1.126-2.815-1.126-3.941 0s-1.126 2.814 0 3.94 2.815 1.126 3.941 0 1.126-3.002 0-3.94z" fill="#F2EFFB"/><path opacity=".3" d="M414.507 386.426a2.815 2.815 0 1 1 0 5.63 2.815 2.815 0 0 1 0-5.63z" fill="#F2EFFB"/><path opacity=".3" fill-rule="evenodd" clip-rule="evenodd" d="M521.481 317.192c-1.126-1.126-2.815-1.126-3.941 0s-1.126 2.814 0 3.94 2.815 1.126 3.941 0 1.126-2.814 0-3.94zM680.629 417.76c-1.126-1.125-2.815-1.125-3.941 0-1.126 1.126-1.126 2.815 0 3.941 1.126 1.125 2.815 1.125 3.941 0 1.127-1.126 1.127-2.815 0-3.941z" fill="#F2EFFB"/><path opacity=".3" d="M479.818 100.482a1.689 1.689 0 1 1 0 3.378 1.689 1.689 0 0 1 0-3.378z" fill="#F2EFFB"/><path opacity=".3" fill-rule="evenodd" clip-rule="evenodd" d="M420.327 292.238c-.751-.75-1.877-.75-2.44 0-.75.751-.75 1.877 0 2.439.751.751 1.877.751 2.44 0 .751-.562.751-1.688 0-2.439z" fill="#F2EFFB"/><path opacity=".3" d="M507.033 314.566a1.689 1.689 0 1 1 0 3.378 1.689 1.689 0 0 1 0-3.378zM310.724 276.289a1.689 1.689 0 1 1 0 3.377 1.689 1.689 0 0 1 0-3.377zM257.236 263.156a1.689 1.689 0 1 1 0 3.378 1.689 1.689 0 0 1 0-3.378z" fill="#F2EFFB"/><path opacity=".3" fill-rule="evenodd" clip-rule="evenodd" d="M392.362 261.842c-.751-.751-1.877-.751-2.44 0-.75.75-.75 1.876 0 2.439.751.75 1.877.75 2.44 0 .751-.563.751-1.689 0-2.439zM767.147 23.931c-.75-.75-1.876-.75-2.439 0-.751.751-.751 1.877 0 2.44.75.75 1.876.75 2.439 0 .751-.563.751-1.689 0-2.44z" fill="#F2EFFB"/><path opacity=".3" d="M414.505 253.023a1.689 1.689 0 1 1 0 3.378 1.689 1.689 0 0 1 0-3.378z" fill="#F2EFFB"/><path opacity=".3" fill-rule="evenodd" clip-rule="evenodd" d="M291.393 130.691c-.75-.75-1.876-.75-2.439 0-.751.751-.751 1.877 0 2.439.75.751 1.876.751 2.439 0 .751-.75.751-1.688 0-2.439zM572.343 279.291c-.751-.751-1.877-.751-2.44 0-.751.75-.751 1.876 0 2.439.751.751 1.877.751 2.44 0 .563-.563.563-1.689 0-2.439zM971.901 11.549c-.75-.75-1.877-.75-2.44 0-.75.75-.75 1.876 0 2.439.751.75 1.877.75 2.44 0 .751-.563.751-1.689 0-2.44zM440.22 268.597a.905.905 0 0 0-1.313 0 .905.905 0 0 0 0 1.313.907.907 0 0 0 1.313 0 .905.905 0 0 0 0-1.313zM579.099 297.116a.907.907 0 0 0-1.313 0 .906.906 0 0 0 0 1.314.907.907 0 0 0 1.313 0 .906.906 0 0 0 0-1.314zM555.076 280.979a.908.908 0 0 0-1.314 0 .908.908 0 0 0 0 1.314.908.908 0 0 0 1.314 0c.187-.375.187-.938 0-1.314zM714.037 16.427a.907.907 0 0 0-1.314 0 .907.907 0 0 0 0 1.313.908.908 0 0 0 1.314 0c.187-.375.187-.938 0-1.313zM371.529 354.718a.906.906 0 0 0-1.314 0 .907.907 0 0 0 0 1.313.908.908 0 0 0 1.314 0 .907.907 0 0 0 0-1.313zM370.779 416.446a.908.908 0 0 0-1.314 0 .908.908 0 0 0 0 1.314.908.908 0 0 0 1.314 0 .908.908 0 0 0 0-1.314zM913.537 337.456a.908.908 0 0 0-1.314 0 .907.907 0 0 0 0 1.313.906.906 0 0 0 1.314 0 .907.907 0 0 0 0-1.313zM404.185 417.384a.906.906 0 0 0-1.314 0 .907.907 0 0 0 0 1.313.908.908 0 0 0 1.314 0 .907.907 0 0 0 0-1.313zM405.123 405.753a.908.908 0 0 0-1.314 0 .907.907 0 0 0 0 1.313.908.908 0 0 0 1.314 0 .907.907 0 0 0 0-1.313zM514.537 326.198a.908.908 0 0 0-1.314 0 .908.908 0 0 0 0 1.314.908.908 0 0 0 1.314 0c.187-.563.187-.939 0-1.314z" fill="#F2EFFB"/><path opacity=".3" d="M420.138 267.471a.938.938 0 1 1 0 1.876.938.938 0 0 1 0-1.876z" fill="#F2EFFB"/><path opacity=".3" fill-rule="evenodd" clip-rule="evenodd" d="M520.169 313.063a.907.907 0 0 0-1.313 0 .906.906 0 0 0 0 1.314.907.907 0 0 0 1.313 0 .906.906 0 0 0 0-1.314z" fill="#F2EFFB"/><path opacity=".3" d="M444.349 282.857a1.689 1.689 0 1 1 0 3.378 1.689 1.689 0 0 1 0-3.378z" fill="#F2EFFB"/><path opacity=".3" fill-rule="evenodd" clip-rule="evenodd" d="M553.011 311.562c-.751-.75-1.877-.75-2.44 0-.751.751-.751 1.877 0 2.44.75.75 1.877.75 2.44 0 .563-.563.563-1.689 0-2.44zM529.741 313.252c-.751-.751-1.877-.751-2.44 0-.75.75-.75 1.876 0 2.439.751.751 1.877.751 2.44 0 .563-.563.563-1.689 0-2.439zM930.803 58.268c-.75-.75-1.876-.75-2.439 0-.751.75-.751 1.876 0 2.439.75.75 1.876.75 2.439 0 .751-.563.751-1.689 0-2.44zM901.526-.084c-1.502-1.501-3.754-1.501-5.255 0-1.502 1.5-1.502 3.752 0 5.253 1.501 1.501 3.753 1.501 5.255 0 1.501-1.5 1.501-3.94 0-5.253z" fill="#F2EFFB"/><path opacity=".3" d="M918.603-.084a1.689 1.689 0 1 1 0 3.377 1.689 1.689 0 0 1 0-3.377z" fill="#F2EFFB"/><path opacity=".3" fill-rule="evenodd" clip-rule="evenodd" d="M389.733 341.584c-.75-.751-1.876-.751-2.44 0-.75.75-.75 1.876 0 2.439.751.751 1.877.751 2.44 0 .751-.563.751-1.689 0-2.439z" fill="#F2EFFB"/><path opacity=".3" fill-rule="evenodd" clip-rule="evenodd" d="M181.225 72.34c-.75-.75-1.876-.75-2.439 0-.751.75-.751 1.876 0 2.439.75.75 1.876.75 2.439 0 .563-.75.563-1.876 0-2.44z" fill="#EBCBF8"/><path opacity=".3" fill-rule="evenodd" clip-rule="evenodd" d="M225.143 343.271c-.75-.75-1.876-.75-2.439 0-.751.751-.751 1.877 0 2.44.75.75 1.876.75 2.439 0 .751-.563.751-1.689 0-2.44z" fill="#F2EFFB"/><path opacity=".3" d="M463.302 403.877a1.689 1.689 0 1 1 0 3.377 1.689 1.689 0 0 1 0-3.377z" fill="#F2EFFB"/><path opacity=".3" fill-rule="evenodd" clip-rule="evenodd" d="M156.831 56.578c-.751-.75-1.877-.75-2.44 0-.751.75-.751 1.876 0 2.44.751.75 1.877.75 2.44 0 .751-.751.751-1.69 0-2.44z" fill="#EBCBF8"/><path opacity=".3" d="M805.625 316.253a3.752 3.752 0 1 1 0 7.505 3.754 3.754 0 1 1 0-7.505zM800.554 93.54a3.753 3.753 0 1 1 .001 7.507 3.753 3.753 0 0 1-.001-7.507zM1439.96 323.946c2.08 0 3.76 1.68 3.76 3.753a3.754 3.754 0 0 1-3.76 3.752 3.752 3.752 0 0 1 0-7.505z" fill="#F2EFFB"/><path opacity=".3" fill-rule="evenodd" clip-rule="evenodd" d="M819.321 368.227c-1.126-1.126-2.815-1.126-3.941 0s-1.126 2.815 0 3.94c1.126 1.126 2.815 1.126 3.941 0 1.126-1.125 1.126-2.814 0-3.94zM407.375 167.84c-1.126-1.125-2.815-1.125-3.941 0-1.126 1.126-1.126 2.815 0 3.941 1.126 1.125 2.815 1.125 3.941 0a3.109 3.109 0 0 0 0-3.941zM801.307 326.949c-.75-.75-1.876-.75-2.439 0-.751.751-.751 1.876 0 2.439.75.751 1.876.751 2.439 0 .563-.563.563-1.688 0-2.439zM895.519 184.539c-.751-.75-1.877-.75-2.44 0-.751.751-.751 1.876 0 2.439.75.751 1.877.751 2.44 0 .75-.563.75-1.688 0-2.439zM773.343 296.553c-.751-.751-1.877-.751-2.44 0-.751.75-.751 1.876 0 2.439.751.75 1.877.75 2.44 0 .75-.563.75-1.689 0-2.439zM740.686 82.47c-.75-.75-1.876-.75-2.439 0-.751.751-.751 1.877 0 2.44.75.75 1.876.75 2.439 0 .751-.563.751-1.689 0-2.44zM796.803 288.109c-.75-.75-1.876-.75-2.439 0-.751.751-.751 1.877 0 2.439.75.751 1.876.751 2.439 0 .563-.75.563-1.876 0-2.439zM821.201 303.308a.906.906 0 0 0-1.314 0 .907.907 0 0 0 0 1.313.908.908 0 0 0 1.314 0 .907.907 0 0 0 0-1.313zM854.795 375.544a.908.908 0 0 0-1.314 0 .905.905 0 0 0 0 1.313.908.908 0 0 0 1.314 0 .907.907 0 0 0 0-1.313zM752.509 389.429a.905.905 0 0 0-1.313 0 .905.905 0 0 0 0 1.313.907.907 0 0 0 1.313 0 .905.905 0 0 0 0-1.313zM801.681 302.558a.906.906 0 0 0-1.314 0 .907.907 0 0 0 0 1.313.908.908 0 0 0 1.314 0c.375-.563.375-1.126 0-1.313zM826.643 317.943c-.75-.75-1.876-.75-2.439 0-.751.751-.751 1.877 0 2.439.75.751 1.876.751 2.439 0 .563-.75.563-1.688 0-2.439zM946.565 316.816c-.751-.75-1.876-.75-2.439 0-.751.751-.751 1.877 0 2.439.75.751 1.876.751 2.439 0 .751-.562.751-1.688 0-2.439zM1567.02 315.316c1.88 2.064 5.07 2.439 7.13.563 2.07-1.876 2.44-5.066.57-7.13-1.88-2.064-5.07-2.439-7.13-.563-2.07 1.876-2.26 4.878-.57 7.13zM1457.05 188.105c1.87 2.064 5.06 2.439 7.13.563 2.06-1.876 2.44-5.066.56-7.13s-5.07-2.439-7.13-.563c-2.07 1.876-2.44 5.066-.56 7.13zM1509.22 129.378c1.88 2.064 5.07 2.44 7.13.563 2.06-1.876 2.44-5.066.56-7.129-1.87-2.064-5.06-2.44-7.13-.563-2.06 1.876-2.25 5.066-.56 7.129zM1607 129.752c1.31 1.501 3.56 1.689 5.06.376 1.5-1.314 1.69-3.565.38-5.066-1.32-1.501-3.57-1.689-5.07-.376-1.5 1.126-1.69 3.565-.37 5.066zM1600.62 80.032c.93 1.126 2.62 1.313 3.75.375s1.31-2.627.38-3.752c-.94-1.126-2.63-1.314-3.76-.376-1.12.939-1.31 2.627-.37 3.753zM1549.57 303.87c.56.751 1.69.751 2.44.188s.75-1.689.19-2.439c-.57-.751-1.69-.751-2.44-.188-.75.751-.75 1.876-.19 2.439zM1614.5 121.122c.57.751 1.69.751 2.44.188s.75-1.689.19-2.439c-.56-.751-1.69-.751-2.44-.188-.75.75-.75 1.689-.19 2.439zM1638.71 261.655c.57.751 1.69.751 2.44.188s.75-1.689.19-2.439c-.56-.751-1.69-.751-2.44-.188-.75.751-.75 1.876-.19 2.439zM1615.63 267.847c.56.75 1.69.75 2.44.187s.75-1.688.19-2.439c-.57-.75-1.69-.75-2.44-.188-.76.751-.76 1.877-.19 2.44zM1654.86 244.581c.56.751 1.68.751 2.44.188.75-.563.75-1.689.18-2.439-.56-.751-1.69-.751-2.44-.188-.56.563-.75 1.689-.18 2.439zM1467.93 120.935c.56.75 1.69.75 2.44.187s.75-1.688.19-2.439c-.57-.75-1.69-.75-2.44-.188-.75.563-.75 1.689-.19 2.44zM1593.48 251.336c.38.375.75.375 1.13.187.38-.375.38-.75.19-1.126-.38-.375-.75-.375-1.13-.187-.56.187-.56.75-.19 1.126zM1883.44 254.713c.38.376 1.13.563 1.5.188.38-.375.57-1.126.19-1.501-.38-.375-1.13-.563-1.5-.188-.56.376-.56 1.126-.19 1.501zM1748.88 12.486c.38.375.75.375 1.13.188.37-.376.37-.75.19-1.126-.38-.375-.76-.375-1.13-.188-.38.376-.38.75-.19 1.126zM1666.3 65.396c.38.375.75.375 1.13.188.37-.376.37-.75.19-1.126-.38-.375-.75-.375-1.13-.188-.38.188-.56.75-.19 1.126z" fill="#F2EFFB"/><path opacity=".3" fill-rule="evenodd" clip-rule="evenodd" d="M1612.06 253.775c.38.375.75.375 1.13.188.37-.376.37-.751.19-1.126-.38-.375-.75-.375-1.13-.188-.56.188-.56.751-.19 1.126z" fill="#FDEFFB"/><path opacity=".3" fill-rule="evenodd" clip-rule="evenodd" d="M1735.18 42.13c.37.376.75.376 1.13.188.37-.375.37-.75.18-1.126-.37-.375-.75-.375-1.12-.187-.57.375-.57.75-.19 1.125zM1589.54 127.689c.56.75 1.69.75 2.44.187s.75-1.688.19-2.439c-.57-.75-1.69-.751-2.44-.188s-.94 1.689-.19 2.44zM1647.72 76.466c.56.75 1.69.75 2.44.188.75-.563.75-1.69.19-2.44s-1.69-.75-2.44-.187-.75 1.688-.19 2.439zM1727.3 84.16c.56.75 1.69.75 2.44.187s.75-1.689.18-2.44c-.56-.75-1.69-.75-2.44-.187s-.75 1.689-.18 2.44zM1613.38 1.04c.56.75 1.69.75 2.44.188.75-.563.75-1.689.18-2.44-.56-.75-1.69-.75-2.44-.187s-.93 1.689-.18 2.44zM1541.31 48.698c.56.75 1.69.75 2.44.188.75-.563.75-1.689.19-2.44-.56-.75-1.69-.75-2.44-.187-.75.75-.75 1.689-.19 2.44zM1387.6 20.93c-.94 0-1.69.562-1.87 1.5 0 .939.56 1.689 1.5 1.877.94 0 1.69-.563 1.87-1.501 0-1.126-.56-1.877-1.5-1.877z" fill="#F2EFFB"/><path opacity=".3" fill-rule="evenodd" clip-rule="evenodd" d="M1732.74 419.261c1.87 2.252 5.25 2.44 7.5.563 2.26-1.876 2.44-5.253.57-7.505-1.88-2.251-5.26-2.439-7.51-.563-2.06 1.877-2.44 5.254-.56 7.505z" fill="#FDEFFB"/><path opacity=".3" fill-rule="evenodd" clip-rule="evenodd" d="M1672.49 339.332c1.88 2.251 5.26 2.439 7.51.563 2.25-1.877 2.44-5.254.56-7.506-1.87-2.251-5.25-2.439-7.5-.562-2.25 1.876-2.44 5.441-.57 7.505z" fill="#EBCBF8"/><path opacity=".3" fill-rule="evenodd" clip-rule="evenodd" d="M1694.08 480.053c1.31 1.501 3.75 1.689 5.25.375 1.5-1.313 1.69-3.752.38-5.253-1.32-1.501-3.76-1.689-5.26-.375-1.5 1.313-1.69 3.564-.37 5.253z" fill="#F2EFFB"/><path opacity=".3" fill-rule="evenodd" clip-rule="evenodd" d="M1774.21 339.707c1.32 1.501 3.76 1.689 5.26.376 1.5-1.314 1.69-3.753.37-5.254-1.31-1.501-3.75-1.688-5.25-.375s-1.69 3.565-.38 5.253z" fill="#EBCBF8"/><path opacity=".3" fill-rule="evenodd" clip-rule="evenodd" d="M1496.64 295.991c1.32 1.501 3.76 1.688 5.26.375 1.5-1.314 1.69-3.753.37-5.254-1.31-1.501-3.75-1.688-5.25-.375s-1.69 3.753-.38 5.254zM1767.65 288.11c.93 1.126 2.62 1.313 3.94.375 1.12-.938 1.31-2.626.37-3.94-.94-1.126-2.63-1.313-3.94-.375s-1.5 2.814-.37 3.94zM1882.32 29.749c.94 1.125 2.63 1.313 3.94.375 1.12-.938 1.31-2.627.37-3.94-.93-1.126-2.62-1.314-3.94-.376-1.31 1.126-1.5 2.815-.37 3.94zM1714.53 407.44c.57.751 1.69.751 2.44.188s.75-1.689.19-2.439-1.69-.75-2.44-.188c-.75.563-.75 1.689-.19 2.439z" fill="#F2EFFB"/><path opacity=".3" fill-rule="evenodd" clip-rule="evenodd" d="M1782.1 330.7c.56.751 1.69.751 2.44.188s.75-1.689.19-2.439c-.57-.751-1.69-.751-2.44-.188-.75.751-.94 1.689-.19 2.439zM1807.24 363.536c.57.751 1.69.751 2.44.188.76-.563.76-1.689.19-2.439-.56-.751-1.69-.751-2.44-.188s-.75 1.689-.19 2.439z" fill="#EBCBF8"/><path opacity=".3" fill-rule="evenodd" clip-rule="evenodd" d="M1783.22 369.915c.57.751 1.69.751 2.44.188s.75-1.689.19-2.439c-.56-.751-1.69-.751-2.44-.188s-.94 1.689-.19 2.439z" fill="#F2EFFB"/><path opacity=".3" fill-rule="evenodd" clip-rule="evenodd" d="M1824.14 345.524c.56.751 1.68.751 2.44.188.75-.563.75-1.689.18-2.439-.56-.751-1.69-.751-2.44-.188-.75.751-.75 1.689-.18 2.439z" fill="#EBCBF8"/><path opacity=".3" fill-rule="evenodd" clip-rule="evenodd" d="M1629.52 330.513c.56.75 1.69.75 2.44.187s.75-1.688.19-2.439c-.57-.75-1.69-.75-2.44-.187s-.75 1.688-.19 2.439z" fill="#F2EFFB"/><path opacity=".3" fill-rule="evenodd" clip-rule="evenodd" d="M1760.14 352.654c.37.375.94.375 1.31.188.38-.376.38-.938.19-1.314-.38-.375-.94-.375-1.31-.187-.38.375-.57.938-.19 1.313z" fill="#EBCBF8"/><path opacity=".3" fill-rule="evenodd" clip-rule="evenodd" d="M1835.96 272.724c.37.376.94.376 1.31.188.38-.375.38-.938.19-1.313-.38-.376-.94-.376-1.31-.188-.38.375-.57.938-.19 1.313zM1779.47 355.093c.38.376.94.376 1.31.188.38-.375.38-.938.19-1.313-.37-.376-.94-.376-1.31-.188-.38.375-.57.938-.19 1.313zM1907.65 248.709c.38.375.94.375 1.32.187.37-.375.37-.938.18-1.313-.37-.375-.93-.375-1.31-.188-.56.376-.56.938-.19 1.314z" fill="#F2EFFB"/><path opacity=".3" fill-rule="evenodd" clip-rule="evenodd" d="M1756.01 337.644c.56.75 1.69.75 2.44.187s.75-1.688.19-2.439c-.56-.75-1.69-.75-2.44-.187-.75.562-.75 1.688-.19 2.439z" fill="#EBCBF8"/><path opacity=".3" fill-rule="evenodd" clip-rule="evenodd" d="M1816.63 284.356c.56.751 1.69.751 2.44.188s.75-1.689.19-2.439c-.57-.751-1.69-.751-2.44-.188-.76.563-.76 1.689-.19 2.439zM1655.6 35.938c.57.751 1.69.751 2.44.188s.75-1.688.19-2.439c-.56-.75-1.69-.75-2.44-.188-.75.563-.75 1.689-.19 2.44zM1899.39 292.237c.57.751 1.69.751 2.44.188s.75-1.689.19-2.439c-.56-.751-1.69-.751-2.44-.188s-.75 1.689-.19 2.439zM1780.78 96.542c.57.75 1.69.75 2.44.188.75-.563.75-1.69.19-2.44s-1.69-.75-2.44-.187-.75 1.689-.19 2.439zM1752.82 14.55c.56.75 1.69.75 2.44.188.75-.563.75-1.69.19-2.44-.57-.75-1.69-.75-2.44-.187s-.75 1.688-.19 2.439zM1705.9 255.462c.56.75 1.69.75 2.44.188.75-.563.75-1.689.19-2.44-.56-.75-1.69-.75-2.44-.187s-.75 1.688-.19 2.439zM1467.18 60.144c-.94 0-1.88.563-1.88 1.689 0 .938.56 1.876 1.69 1.876.94 0 1.88-.563 1.88-1.689 0-.938-.75-1.688-1.69-1.876zM1546 117.181c-.94 0-1.88.563-1.88 1.689 0 .938.57 1.876 1.69 1.876.94 0 1.88-.563 1.88-1.689 0-.938-.75-1.688-1.69-1.876zM1640.59 429.956c-.56 0-.94.375-.94.75 0 .563.38.939.75.939.57 0 .94-.376.94-.751.19-.563-.19-.938-.75-.938zM1544.5 288.673c-.94 0-1.88.563-1.88 1.689 0 .938.57 1.876 1.69 1.876.94 0 1.88-.563 1.88-1.688 0-.938-.75-1.877-1.69-1.877zM1484.45 262.78c-2.07-.188-3.95 1.313-4.13 3.377-.19 2.064 1.31 3.94 3.37 4.128 2.07.188 3.95-1.313 4.13-3.377.19-2.252-1.31-3.941-3.37-4.128zM1485.2 243.641c-.57 0-.94.376-.94.751 0 .563.37.938.75.938.56 0 .94-.375.94-.75.18-.563-.19-.939-.75-.939zM1469.81 255.462c-.57 0-.94.375-.94.75 0 .563.37.938.75.938.37 0 .94-.375.94-.75s-.38-.751-.75-.938zM1498.71 251.335c-.94 0-1.88.563-1.88 1.689 0 .938.56 1.876 1.69 1.876.94 0 1.88-.563 1.88-1.688 0-.938-.75-1.877-1.69-1.877zM1652.6 392.806c-.94 0-1.87.563-1.87 1.689 0 .938.56 1.876 1.69 1.876.93 0 1.87-.563 1.87-1.689 0-.938-.56-1.688-1.69-1.876zM1827.7 346.086c.75 1.313 2.26 1.688 3.57.938 1.31-.751 1.69-2.252.94-3.565-.75-1.314-2.25-1.689-3.57-.938-1.12.563-1.5 2.251-.94 3.565zM1770.28 372.354c.18.375.75.563 1.12.375.38-.187.57-.75.38-1.126-.19-.375-.75-.562-1.13-.375-.56.188-.56.563-.37 1.126zM1879.69 322.258c.19.375.75.563 1.12.375.38-.187.57-.75.38-1.125-.19-.375-.75-.563-1.13-.376-.56.188-.75.751-.37 1.126zM1904.65 304.621c.19.376.75.563 1.12.376.38-.188.57-.751.38-1.126-.19-.375-.75-.563-1.13-.375-.37.187-.56.563-.37 1.125zM1785.1 396.182c.19.375.75.563 1.13.375.37-.187.56-.75.37-1.125-.18-.376-.75-.563-1.12-.376-.57.188-.75.751-.38 1.126z" fill="#F2EFFB"/><path opacity=".3" fill-rule="evenodd" clip-rule="evenodd" d="M1826.02 489.622c1.5 2.439 4.69 3.377 7.13 1.876 2.44-1.501 3.38-4.691 1.87-7.13-1.5-2.439-4.69-3.377-7.13-1.876-2.63 1.313-3.38 4.503-1.87 7.13z" fill="#FDEFFB"/><path opacity=".3" fill-rule="evenodd" clip-rule="evenodd" d="M1783.97 406.315c1.5 2.439 4.69 3.377 7.13 1.876 2.44-1.501 3.38-4.69 1.88-7.13-1.5-2.439-4.69-3.377-7.13-1.876-2.44 1.501-3.38 4.691-1.88 7.13zM1878 459.601c.94 1.876 3.38 2.439 5.07 1.314 1.87-.939 2.44-3.378 1.31-5.066-.94-1.877-3.38-2.439-5.07-1.314a3.632 3.632 0 0 0-1.31 5.066zM1738.37 518.703c.75 1.313 2.44 1.688 3.75.938 1.32-.751 1.69-2.439.94-3.753-.75-1.313-2.44-1.688-3.75-.938-1.13.751-1.69 2.439-.94 3.753zM1763.71 603.135c.18.375.75.563 1.12.375.38-.187.57-.75.38-1.125-.19-.376-.75-.563-1.13-.376-.37.188-.56.751-.37 1.126zM1780.41 587.563c.18.375.75.563 1.12.375.38-.188.57-.75.38-1.126-.19-.375-.75-.563-1.13-.375-.56.188-.75.751-.37 1.126zM1744.19 631.092c.18.375.75.563 1.12.375.38-.187.57-.75.38-1.125-.19-.376-.75-.563-1.13-.376-.56.188-.56.563-.37 1.126zM1900.33 419.072c.57.751 1.5 1.126 2.44.563.75-.563 1.13-1.501.56-2.439-.56-.75-1.5-1.126-2.43-.563-.76.375-.94 1.501-.57 2.439zM1907.28 413.068c.56.751 1.5 1.126 2.44.563.75-.563 1.12-1.501.56-2.439-.56-.75-1.5-1.126-2.44-.563-.75.376-.94 1.501-.56 2.439zM1881.56 310.063c.57.75 1.51 1.125 2.44.562.75-.562 1.13-1.501.57-2.439-.57-.75-1.5-1.125-2.44-.563-.75.376-1.13 1.501-.57 2.44zM1856.04 320.568c.56.751 1.5 1.126 2.44.563.75-.563 1.13-1.501.56-2.439-.56-.75-1.5-1.126-2.44-.563-.75.563-1.12 1.689-.56 2.439zM1901.65 487.745c-2.07-.563-4.13.563-4.51 2.627-.56 2.064.57 4.128 2.63 4.503 2.07.563 4.13-.563 4.51-2.627.56-1.876-.57-3.94-2.63-4.503zM1916.29 379.672c2.62.938 5.63-.375 6.56-3.002.94-2.626-.37-5.629-3-6.567-2.63-.938-5.63.376-6.57 3.002-.94 2.627.38 5.629 3.01 6.567zM1876.12 392.994c.94.375 1.88-.188 2.25-.938.38-.938-.19-1.877-.94-2.252-.93-.375-1.87.188-2.25.938-.37.938.19 1.877.94 2.252zM1903.71 293.738c.94.375 1.88-.188 2.25-.938.38-.938-.18-1.876-.94-2.252-.93-.375-1.87.188-2.25.939-.37.938 0 1.876.94 2.251zM1845.16 340.645c-.94.375-1.32 1.501-.94 2.252.37.938 1.5 1.313 2.25.938.94-.376 1.31-1.501.94-2.252-.38-.938-1.32-1.313-2.25-.938z" fill="#F2EFFB"/><path opacity=".3" fill-rule="evenodd" clip-rule="evenodd" d="M1906.72 412.882c-1.88.938-2.63 3.002-1.88 4.878.94 1.876 3 2.627 4.88 1.876 1.87-.938 2.63-3.002 1.87-4.878-.75-1.876-3-2.814-4.87-1.876zM1897.89 395.996c-.37.187-.56.75-.37 1.125.19.376.75.563 1.12.376.38-.188.57-.751.38-1.126-.19-.375-.75-.563-1.13-.375zM1890.57 414.007c-.37.188-.56.751-.37 1.126.19.375.75.563 1.12.375.38-.187.57-.75.38-1.125-.19-.376-.75-.563-1.13-.376zM1913.47 395.807c-.94.376-1.31 1.501-.94 2.252.38.938 1.5 1.313 2.25.938.94-.375 1.32-1.501.94-2.252-.37-.938-1.31-1.313-2.25-.938z" fill="#F2EFFB"/><path opacity=".3" d="M769.587 375.732a1.69 1.69 0 1 1 0 3.38 1.69 1.69 0 0 1 0-3.38z" fill="#F2EFFB"/><path opacity=".3" fill-rule="evenodd" clip-rule="evenodd" d="M432.335 416.822c-.751-.75-1.877-.75-2.44 0-.751.751-.751 1.876 0 2.439.751.751 1.877.751 2.44 0 .751-.75.751-1.876 0-2.439zM407.561 496.187c-.75-.75-1.876-.75-2.439 0-.751.751-.751 1.877 0 2.44.75.75 1.876.75 2.439 0 .563-.751.563-1.877 0-2.44zM502.714 360.721c-.751-.751-1.877-.751-2.44 0-.751.75-.751 1.876 0 2.439.751.75 1.877.75 2.44 0 .563-.563.563-1.689 0-2.439z" fill="#F2EFFB"/><path opacity=".3" fill-rule="evenodd" clip-rule="evenodd" d="M112.727 118.495c0 3.002 2.439 5.253 5.255 5.253 3.002 0 5.254-2.439 5.254-5.253 0-3.002-2.439-5.254-5.254-5.254-2.816 0-5.255 2.439-5.255 5.254zM117.98 18.678c0 3.002 2.44 5.254 5.255 5.254s5.255-2.44 5.255-5.254c0-2.814-2.44-5.254-5.255-5.254s-5.255 2.44-5.255 5.254zM44.035 249.458a3.764 3.764 0 0 0 3.754 3.753 3.764 3.764 0 0 0 3.753-3.753 3.764 3.764 0 0 0-3.753-3.752 3.764 3.764 0 0 0-3.754 3.752z" fill="#EBCBF8"/><path opacity=".3" fill-rule="evenodd" clip-rule="evenodd" d="M195.68 84.347a3.764 3.764 0 0 0 3.753 3.753 3.764 3.764 0 0 0 3.754-3.753 3.764 3.764 0 0 0-3.754-3.752 3.764 3.764 0 0 0-3.753 3.752z" fill="#F2EFFB"/><path opacity=".3" fill-rule="evenodd" clip-rule="evenodd" d="M8.379 30.497a3.764 3.764 0 0 0 3.753 3.753 3.764 3.764 0 0 0 3.754-3.753 3.764 3.764 0 0 0-3.754-3.752 3.764 3.764 0 0 0-3.753 3.752z" fill="#EBCBF8"/><path opacity=".3" fill-rule="evenodd" clip-rule="evenodd" d="M223.828 40.63c0 1.502 1.314 2.815 2.815 2.815 1.502 0 2.815-1.313 2.815-2.814 0-1.501-1.313-2.815-2.815-2.815-1.689 0-2.815 1.126-2.815 2.815z" fill="#F2EFFB"/><path opacity=".3" fill-rule="evenodd" clip-rule="evenodd" d="M106.344 97.856c0 .938.75 1.689 1.689 1.689.938 0 1.689-.75 1.689-1.689 0-.938-.751-1.688-1.689-1.688-.939-.188-1.689.563-1.689 1.688z" fill="#EBCBF8"/><path opacity=".3" fill-rule="evenodd" clip-rule="evenodd" d="M207.312 82.472c0 .938.751 1.688 1.69 1.688.938 0 1.689-.75 1.689-1.688 0-.939-.751-1.69-1.689-1.69-.939 0-1.69.751-1.69 1.69z" fill="#F2EFFB"/><path opacity=".3" fill-rule="evenodd" clip-rule="evenodd" d="M205.625 123.749c0 .938.751 1.689 1.689 1.689.939 0 1.689-.751 1.689-1.689 0-.938-.75-1.689-1.689-1.689-.938 0-1.689.751-1.689 1.689z" fill="#EBCBF8"/><path opacity=".3" fill-rule="evenodd" clip-rule="evenodd" d="M183.105 113.241c0 .938.751 1.689 1.69 1.689.938 0 1.689-.751 1.689-1.689 0-.938-.751-1.689-1.689-1.689-.939 0-1.69.751-1.69 1.689zM230.023 120.934c0 .939.751 1.689 1.69 1.689.938 0 1.689-.75 1.689-1.689 0-.938-.751-1.688-1.689-1.688-.939 0-1.69.75-1.69 1.688z" fill="#F2EFFB"/><path opacity=".3" fill-rule="evenodd" clip-rule="evenodd" d="M176.535 85.097c0 .563.376.938.939.938s.938-.375.938-.938-.375-.938-.938-.938c-.563.188-.939.563-.939.938z" fill="#EBCBF8"/><path opacity=".3" fill-rule="evenodd" clip-rule="evenodd" d="M189.672 99.544c0 .563.375.938.938.938s.939-.375.939-.938-.376-.938-.939-.938-.938.375-.938.938zM183.105 71.026c0 .938.751 1.689 1.69 1.689.938 0 1.689-.75 1.689-1.689 0-.938-.751-1.688-1.689-1.688-.939 0-1.69.75-1.69 1.688z" fill="#F2EFFB"/><path opacity=".3" fill-rule="evenodd" clip-rule="evenodd" d="M35.404 67.46a.907.907 0 0 0-1.314 0 .907.907 0 0 0 0 1.313.907.907 0 0 0 1.314 0c.188-.375.188-.938 0-1.313z" fill="#EBCBF8"/><path opacity=".3" fill-rule="evenodd" clip-rule="evenodd" d="M315.792 174.596c-.751-.751-1.877-.751-2.44 0-.751.75-.751 1.876 0 2.439.751.75 1.877.75 2.44 0 .563-.563.563-1.689 0-2.439zM336.999 288.859c-.751-.75-1.877-.75-2.44 0-.751.751-.751 1.877 0 2.439.751.751 1.877.751 2.44 0 .751-.75.751-1.876 0-2.439z" fill="#F2EFFB"/><path opacity=".3" d="M67.119 46.447a1.689 1.689 0 1 1 0 3.377 1.689 1.689 0 0 1 0-3.377z" fill="#EBCBF8"/></g><g opacity=".3"><path opacity=".3" fill-rule="evenodd" clip-rule="evenodd" d="M930.988 842.922a5.045 5.045 0 0 0 5.068 5.066 5.045 5.045 0 0 0 5.067-5.066 5.046 5.046 0 0 0-5.067-5.066c-2.816-.187-5.068 2.252-5.068 5.066z" fill="#B5EAFF"/><path opacity=".3" fill-rule="evenodd" clip-rule="evenodd" d="M1356.64 353.028a5.043 5.043 0 0 0 5.06 5.066c2.82 0 5.07-2.252 5.07-5.066a5.044 5.044 0 0 0-5.07-5.066 5.042 5.042 0 0 0-5.06 5.066z" fill="#94D6EA"/><path opacity=".3" d="M1403.93 394.495c2.8 0 5.07 2.268 5.07 5.066a5.068 5.068 0 0 1-5.07 5.066c-2.8 0-5.07-2.268-5.07-5.066a5.068 5.068 0 0 1 5.07-5.066zM1306.15 741.792c2.8 0 5.07 2.268 5.07 5.066a5.068 5.068 0 0 1-5.07 5.066 5.06 5.06 0 0 1-5.06-5.066 5.06 5.06 0 0 1 5.06-5.066z" fill="#94D6EA"/><path opacity=".3" fill-rule="evenodd" clip-rule="evenodd" d="M1526.3 557.917a5.042 5.042 0 0 0 5.06 5.065c2.82 0 5.07-2.251 5.07-5.065a5.044 5.044 0 0 0-5.07-5.066c-2.62 0-5.06 2.251-5.06 5.066zM1560.83 412.506a5.044 5.044 0 0 0 5.07 5.066c2.81 0 5.06-2.251 5.06-5.066a5.043 5.043 0 0 0-5.06-5.066c-2.82 0-5.07 2.44-5.07 5.066z" fill="#94D6EA"/><path opacity=".3" d="M941.126 741.792a5.067 5.067 0 1 1 0 10.133 5.067 5.067 0 0 1 0-10.133z" fill="#B5EAFF"/><path opacity=".3" fill-rule="evenodd" clip-rule="evenodd" d="M1306.15 657.547a5.044 5.044 0 0 0 5.07 5.066 5.05 5.05 0 0 0 5.07-5.066 5.051 5.051 0 0 0-5.07-5.066 5.045 5.045 0 0 0-5.07 5.066zM864.93 863.562c0 2.064 1.689 3.565 3.566 3.565 2.064 0 3.565-1.689 3.565-3.565 0-2.064-1.689-3.565-3.565-3.565-1.877 0-3.566 1.689-3.566 3.565zM1358.89 746.857c0 2.064 1.69 3.565 3.57 3.565 2.06 0 3.56-1.689 3.56-3.565 0-2.064-1.69-3.565-3.56-3.565-2.07 0-3.57 1.689-3.57 3.565z" fill="#94D6EA"/><path opacity=".3" fill-rule="evenodd" clip-rule="evenodd" d="M1010.75 809.9c0 2.064 1.69 3.565 3.57 3.565 2.06 0 3.56-1.689 3.56-3.565 0-2.064-1.69-3.565-3.56-3.565-2.07 0-3.57 1.689-3.57 3.565z" fill="#4980A9"/><path opacity=".3" fill-rule="evenodd" clip-rule="evenodd" d="M833.586 606.326c0 2.064 1.689 3.565 3.566 3.565 2.064 0 3.566-1.689 3.566-3.565 0-2.064-1.69-3.565-3.566-3.565-2.065 0-3.566 1.501-3.566 3.565zM830.77 758.302c0 2.064 1.689 3.565 3.565 3.565 2.065 0 3.566-1.688 3.566-3.565 0-2.064-1.689-3.565-3.566-3.565-1.876 0-3.565 1.501-3.565 3.565z" fill="#94D6EA"/><path opacity=".3" fill-rule="evenodd" clip-rule="evenodd" d="M1037.78 767.871c0 1.501 1.12 2.627 2.62 2.627 1.51 0 2.63-1.126 2.63-2.627s-1.12-2.627-2.63-2.627c-1.5 0-2.62 1.126-2.62 2.627z" fill="#4980A9"/><path opacity=".3" fill-rule="evenodd" clip-rule="evenodd" d="M1214.38 729.033c0 1.501 1.13 2.627 2.63 2.627s2.62-1.126 2.62-2.627-1.12-2.626-2.62-2.626-2.63 1.313-2.63 2.626zM1449.35 805.772c0 1.501 1.12 2.626 2.63 2.626 1.5 0 2.62-1.125 2.62-2.626s-1.12-2.627-2.62-2.627c-1.32 0-2.63 1.126-2.63 2.627zM1449.35 745.356c0 1.501 1.12 2.626 2.63 2.626 1.5 0 2.62-1.125 2.62-2.626s-1.12-2.627-2.62-2.627c-1.32 0-2.63 1.313-2.63 2.627zM1400.37 590.94c0 1.501 1.12 2.626 2.62 2.626 1.51 0 2.63-1.125 2.63-2.626s-1.12-2.627-2.63-2.627c-1.5 0-2.62 1.126-2.62 2.627zM924.797 822.846c0 .939.751 1.689 1.689 1.689.938 0 1.689-.75 1.689-1.689 0-.938-.751-1.688-1.689-1.688-.751 0-1.689.75-1.689 1.688z" fill="#94D6EA"/><path opacity=".3" fill-rule="evenodd" clip-rule="evenodd" d="M1022.01 808.212c0 .938.75 1.688 1.69 1.688s1.69-.75 1.69-1.688-.75-1.689-1.69-1.689-1.69.751-1.69 1.689zM1020.32 847.989c0 .938.75 1.689 1.69 1.689s1.69-.751 1.69-1.689c0-.938-.75-1.689-1.69-1.689s-1.69.751-1.69 1.689zM998.555 837.669c0 .938.75 1.688 1.685 1.688.94 0 1.69-.75 1.69-1.688s-.75-1.689-1.69-1.689c-.935 0-1.685.938-1.685 1.689zM1043.78 845.175c0 .938.75 1.688 1.69 1.688s1.69-.75 1.69-1.688-.75-1.689-1.69-1.689-1.69.751-1.69 1.689z" fill="#4980A9"/><path opacity=".3" fill-rule="evenodd" clip-rule="evenodd" d="M1537.74 902.401c0 .938.75 1.689 1.69 1.689s1.69-.751 1.69-1.689c0-.938-.75-1.688-1.69-1.688s-1.69.75-1.69 1.688zM909.969 713.835c0 .938.751 1.688 1.689 1.688.938 0 1.689-.75 1.689-1.688s-.751-1.689-1.689-1.689c-.938 0-1.689.751-1.689 1.689zM992.359 810.837c0 .376.376.938.939.938.375 0 .938-.375.938-.938s-.375-.938-.938-.938-.939.375-.939.938zM1212.13 999.966c0 .564.56 1.124 1.13 1.124.56 0 1.12-.56 1.12-1.124 0-.563-.56-1.126-1.12-1.126-.57 0-1.13.563-1.13 1.126zM1194.86 811.589c0 .375.37.938.94.938.37 0 .94-.375.94-.938 0-.375-.38-.938-.94-.938-.57.188-.94.563-.94.938zM1386.48 799.769c0 .375.37.938.93.938.38 0 .94-.375.94-.938 0-.375-.37-.938-.94-.938-.56 0-.93.375-.93.938zM1097.46 798.829c0 .376.37.939.94.939.37 0 .93-.376.93-.939 0-.375-.37-.938-.93-.938-.57.188-.94.563-.94.938zM1216.07 806.523c0 .375.38.938.94.938.37 0 .94-.375.94-.938 0-.375-.38-.938-.94-.938-.56.187-.94.563-.94.938zM1506.21 811.027c0 .375.38.938.94.938.38 0 .94-.375.94-.938 0-.376-.37-.938-.94-.938-.56.187-.94.562-.94.938zM1536.8 808.212c0 .376.38.938.94.938.38 0 .94-.375.94-.938 0-.375-.37-.938-.94-.938-.56.188-.94.563-.94.938z" fill="#94D6EA"/><path opacity=".3" fill-rule="evenodd" clip-rule="evenodd" d="M1004.93 824.535c0 .375.38.938.94.938.38 0 .94-.376.94-.938 0-.376-.38-.939-.94-.939-.56.188-.94.563-.94.939z" fill="#4980A9"/><path opacity=".3" fill-rule="evenodd" clip-rule="evenodd" d="M1165.02 825.474c0 .375.37.938.94.938.37 0 .94-.375.94-.938 0-.375-.38-.938-.94-.938-.57 0-.94.375-.94.938zM1387.23 827.913c0 .376.38.939.94.939.37 0 .94-.376.94-.939 0-.375-.38-.938-.94-.938-.56 0-.94.376-.94.938z" fill="#94D6EA"/><path opacity=".3" fill-rule="evenodd" clip-rule="evenodd" d="M998.555 797.141c0 .939.75 1.689 1.685 1.689.94 0 1.69-.75 1.69-1.689 0-.938-.75-1.688-1.69-1.688a1.68 1.68 0 0 0-1.685 1.688zM1076.25 795.452c0 .938.75 1.689 1.69 1.689s1.69-.751 1.69-1.689c0-.938-.75-1.689-1.69-1.689s-1.69.751-1.69 1.689z" fill="#4980A9"/><path opacity=".3" fill-rule="evenodd" clip-rule="evenodd" d="M1396.99 723.968c0 .938.75 1.688 1.69 1.688s1.69-.75 1.69-1.688c0-.939-.75-1.689-1.69-1.689s-1.69.75-1.69 1.689zM1339.18 420.95c0 .938.75 1.689 1.69 1.689s1.69-.751 1.69-1.689c0-.938-.75-1.689-1.69-1.689s-1.69.939-1.69 1.689zM1402.8 310.813c0 .938.76 1.689 1.69 1.689.94 0 1.69-.751 1.69-1.689 0-.938-.75-1.688-1.69-1.688-.93 0-1.69.75-1.69 1.688zM1132.18 852.491c0 .938.75 1.689 1.69 1.689s1.69-.751 1.69-1.689c0-.938-.75-1.689-1.69-1.689s-1.69.751-1.69 1.689zM1405.62 722.278c0 .938.75 1.689 1.69 1.689s1.69-.751 1.69-1.689c0-.938-.75-1.689-1.69-1.689s-1.69.751-1.69 1.689zM1433.59 624.149c0 .938.75 1.689 1.69 1.689.93 0 1.68-.751 1.68-1.689 0-.938-.75-1.688-1.68-1.688-.94 0-1.69.75-1.69 1.688zM1498.14 625.839c0 .938.76 1.688 1.69 1.688.94 0 1.69-.75 1.69-1.688s-.75-1.689-1.69-1.689c-.93 0-1.69.751-1.69 1.689zM1583.54 358.095c0 .938.75 1.688 1.68 1.688.94 0 1.69-.75 1.69-1.688 0-.939-.75-1.689-1.69-1.689-.93 0-1.68.75-1.68 1.689zM1442.22 314.19c0 .938.75 1.689 1.69 1.689s1.69-.751 1.69-1.689c0-.938-.75-1.688-1.69-1.688s-1.69.75-1.69 1.688zM1454.79 736.538c0 .938.75 1.689 1.69 1.689s1.69-.751 1.69-1.689c0-.938-.75-1.689-1.69-1.689s-1.69.751-1.69 1.689zM1499.84 620.772c0 .938.75 1.689 1.69 1.689.93 0 1.68-.751 1.68-1.689 0-.938-.75-1.688-1.68-1.688-.94 0-1.69.75-1.69 1.688zM1407.31 620.772c0 .938.75 1.689 1.69 1.689s1.69-.751 1.69-1.689c0-.938-.75-1.688-1.69-1.688s-1.69.75-1.69 1.688zM1552.95 380.423c0 .938.75 1.688 1.68 1.688.94 0 1.69-.75 1.69-1.688s-.75-1.689-1.69-1.689c-.93 0-1.68.751-1.68 1.689zM1098.4 715.524c0 .938.75 1.689 1.69 1.689s1.69-.751 1.69-1.689c0-.938-.75-1.688-1.69-1.688s-1.69.75-1.69 1.688zM1379.16 598.632c0 .938.75 1.688 1.69 1.688s1.69-.75 1.69-1.688-.75-1.689-1.69-1.689c-.75 0-1.69.751-1.69 1.689zM1541.12 566.923c0 .938.75 1.688 1.69 1.688s1.69-.75 1.69-1.688-.75-1.689-1.69-1.689-1.69.751-1.69 1.689zM1128.61 637.846c0 .939.75 1.689 1.69 1.689s1.69-.75 1.69-1.689c0-.938-.75-1.688-1.69-1.688s-1.69.75-1.69 1.688zM1383.1 511.386c0 .938.75 1.688 1.69 1.688s1.69-.75 1.69-1.688c0-.939-.75-1.689-1.69-1.689s-1.69.75-1.69 1.689zM1012.63 705.766c0 .939.75 1.689 1.69 1.689s1.69-.75 1.69-1.689c0-.938-.75-1.688-1.69-1.688s-1.69.75-1.69 1.688zM834.336 583.059c-2.064-2.064-5.255-2.064-7.131 0-2.065 2.064-2.065 5.253 0 7.129 2.064 2.064 5.254 2.064 7.131 0 2.065-1.876 2.065-5.065 0-7.129zM687.762 640.66c-2.065-2.064-5.255-2.064-7.132 0-2.064 2.064-2.064 5.254 0 7.13 2.065 2.064 5.255 2.064 7.132 0 2.064-2.064 2.064-5.254 0-7.13zM655.67 507.82c-1.314-1.313-3.754-1.313-5.068 0-1.313 1.314-1.313 3.753 0 5.066 1.314 1.313 3.754 1.313 5.068 0 1.313-1.501 1.313-3.752 0-5.066zM754.201 558.105c-1.314-1.313-3.754-1.313-5.067 0-1.314 1.314-1.314 3.753 0 5.066 1.313 1.314 3.753 1.314 5.067 0 1.501-1.313 1.501-3.565 0-5.066zM729.803 645.539c-.75-.751-1.689-.751-2.439 0-.751.75-.751 1.689 0 2.439.75.751 1.689.751 2.439 0 .563-.75.563-1.876 0-2.439z" fill="#94D6EA"/><path opacity=".3" d="M820.263 493.561a.938.938 0 1 1 0 1.876.938.938 0 0 1 0-1.876z" fill="#94D6EA"/><path opacity=".3" fill-rule="evenodd" clip-rule="evenodd" d="M1185.48 322.445c-.76-.75-1.69-.75-2.44 0-.76.751-.76 1.689 0 2.439.75.751 1.68.751 2.44 0 .75-.75.75-1.688 0-2.439zM662.804 723.779c-.751-.75-1.69-.75-2.44 0-.751.751-.751 1.689 0 2.439.75.751 1.689.751 2.44 0 .75-.75.75-1.688 0-2.439zM716.1 597.506c-.75-.751-1.689-.751-2.439 0-.751.75-.751 1.688 0 2.439.75.75 1.689.75 2.439 0 .563-.751.563-1.876 0-2.439zM1208.19 413.07c-.75-.75-1.69-.75-2.44 0-.75.751-.75 1.689 0 2.439.75.751 1.69.751 2.44 0 .75-.75.75-1.688 0-2.439zM664.865 590.189c-.376-.376-.939-.376-1.126 0-.376.375-.376.938 0 1.125.375.376.938.376 1.126 0 .375-.187.375-.75 0-1.125zM856.669 793.765c-.375-.376-.938-.376-1.126 0-.375.375-.375.938 0 1.125.376.376.939.376 1.126 0 .376-.187.376-.75 0-1.125zM873.374 630.529c-.751-.75-1.689-.75-2.44 0-.751.751-.751 1.689 0 2.439.751.751 1.689.751 2.44 0 .563-.75.563-1.876 0-2.439z" fill="#94D6EA"/><path opacity=".3" d="M946.003 351.716a3.565 3.565 0 1 1 .002 7.13 3.565 3.565 0 0 1-.002-7.13z" fill="#94D6EA"/><path opacity=".3" fill-rule="evenodd" clip-rule="evenodd" d="M811.44 554.164c-.75-.75-1.689-.75-2.439 0-.751.751-.751 1.689 0 2.439.75.751 1.689.751 2.439 0 .751-.75.751-1.688 0-2.439zM833.964 546.098c-.751-.751-1.689-.751-2.44 0-.751.75-.751 1.688 0 2.439.751.75 1.689.75 2.44 0 .75-.751.75-1.877 0-2.439zM957.827 593.379c-.751-.751-1.689-.751-2.44 0-.75.75-.75 1.688 0 2.439.751.75 1.689.75 2.44 0 .751-.751.751-1.876 0-2.439zM1152.82 388.114c-.37-.375-.94-.375-1.12 0-.38.376-.38.938 0 1.126.37.375.93.375 1.12 0 .38-.188.38-.75 0-1.126zM838.841 559.794c-.375-.375-.938-.375-1.126 0-.375.375-.375.938 0 1.126.375.375.939.375 1.126 0 .188-.188.188-.751 0-1.126zM1158.08 402.187c-.75-.75-1.69-.75-2.44 0-.75.751-.75 1.689 0 2.44.75.75 1.69.75 2.44 0 .75-.563.75-1.689 0-2.44z" fill="#94D6EA"/><path opacity=".3" d="M752.886 773.501a3.565 3.565 0 1 1-3.566 3.565 3.566 3.566 0 0 1 3.566-3.565zM748.195 664.302a3.566 3.566 0 1 1 0 7.131 3.566 3.566 0 0 1 0-7.131zM1362.46 780.817a3.56 3.56 0 0 1 3.56 3.565 3.56 3.56 0 0 1-3.56 3.565 3.568 3.568 0 0 1-3.57-3.565c0-1.969 1.6-3.565 3.57-3.565zM764.335 822.659a2.627 2.627 0 1 1 0 5.253 2.627 2.627 0 0 1 0-5.253z" fill="#94D6EA"/><path opacity=".3" fill-rule="evenodd" clip-rule="evenodd" d="M748.757 783.633c-.751-.751-1.689-.751-2.44 0-.751.75-.751 1.688 0 2.439.751.75 1.689.75 2.44 0 .563-.751.563-1.689 0-2.439zM721.921 754.363c-.751-.75-1.689-.75-2.44 0-.751.751-.751 1.689 0 2.439.751.751 1.689.751 2.44 0 .563-.563.563-1.688 0-2.439zM690.577 653.795c-.751-.751-1.689-.751-2.44 0-.75.75-.75 1.688 0 2.439.751.751 1.689.751 2.44 0 .563-.751.563-1.876 0-2.439zM744.44 746.295c-.75-.751-1.689-.751-2.439 0-.751.75-.751 1.688 0 2.439.75.751 1.689.751 2.439 0 .563-.751.563-1.689 0-2.439z" fill="#94D6EA"/><path opacity=".3" d="M767.337 760.553a.938.938 0 1 1 0 1.877.938.938 0 0 1 0-1.877z" fill="#94D6EA"/><path opacity=".3" fill-rule="evenodd" clip-rule="evenodd" d="M800.181 830.538c-.375-.375-.938-.375-1.126 0-.375.375-.375.938 0 1.126.375.375.938.375 1.126 0 .375-.375.375-.938 0-1.126zM701.839 843.673c-.375-.375-.939-.375-1.126 0-.188.375-.376.938 0 1.126.375.188.938.375 1.126 0 .375-.188.375-.751 0-1.126z" fill="#94D6EA"/><path opacity=".3" d="M748.567 759.803a.938.938 0 1 1 .001 1.877.938.938 0 0 1-.001-1.877z" fill="#94D6EA"/><path opacity=".3" fill-rule="evenodd" clip-rule="evenodd" d="M773.155 775.002c-.751-.751-1.689-.751-2.44 0-.75.75-.75 1.689 0 2.439.751.751 1.689.751 2.44 0 .563-.75.563-1.876 0-2.439zM888.389 773.877c-.75-.751-1.689-.751-2.439 0-.751.75-.751 1.689 0 2.439.75.751 1.689.751 2.439 0 .751-.563.751-1.689 0-2.439zM719.479 831.101c-.75-.75-1.689-.75-2.439 0-.751.751-.751 1.689 0 2.44.75.75 1.689.75 2.439 0 .563-.751.563-1.877 0-2.44zM990.859 1028.86c0 3 2.44 5.25 5.255 5.25 3.003 0 5.256-2.44 5.256-5.25s-2.441-5.25-5.256-5.25c-2.815 0-5.255 2.44-5.255 5.25zM1126.36 698.637c0 3.002 2.44 5.254 5.25 5.254 3.01 0 5.26-2.44 5.26-5.254 0-3.002-2.44-5.253-5.26-5.253-2.81 0-5.25 2.439-5.25 5.253zM1170.46 747.045c0 3.002 2.44 5.254 5.26 5.254 2.81 0 5.25-2.439 5.25-5.254 0-2.814-2.44-5.253-5.25-5.253-2.82 0-5.26 2.439-5.26 5.253z" fill="#94D6EA"/><path opacity=".3" fill-rule="evenodd" clip-rule="evenodd" d="M1376.16 929.231c0 3.002 2.44 5.253 5.25 5.253 2.82 0 5.26-2.439 5.26-5.253 0-3.002-2.44-5.254-5.26-5.254-2.81 0-5.25 2.252-5.25 5.254z" fill="#B5EAFF"/><path opacity=".3" fill-rule="evenodd" clip-rule="evenodd" d="M1610.56 732.411c0 3.002 2.44 5.253 5.26 5.253 2.81 0 5.25-2.439 5.25-5.253 0-2.815-2.44-5.254-5.25-5.254-2.82 0-5.26 2.251-5.26 5.254zM1590.48 898.272c0 3.002 2.44 5.253 5.26 5.253 2.81 0 5.25-2.439 5.25-5.253 0-3.002-2.44-5.254-5.25-5.254-2.82 0-5.26 2.252-5.26 5.254zM996.113 929.231c0 3.002 2.44 5.253 5.257 5.253 2.81 0 5.25-2.439 5.25-5.253 0-3.002-2.44-5.254-5.25-5.254-2.817 0-5.257 2.252-5.257 5.254zM1381.41 836.168c0 3.002 2.44 5.254 5.26 5.254 2.81 0 5.25-2.439 5.25-5.254 0-2.814-2.44-5.253-5.25-5.253-2.82 0-5.26 2.251-5.26 5.253zM922.168 1050.63c0 2.06 1.689 3.75 3.753 3.75a3.764 3.764 0 0 0 3.754-3.75c0-2.07-1.689-3.76-3.754-3.76a3.766 3.766 0 0 0-3.753 3.76zM866.617 1077.83c0 2.07 1.689 3.75 3.754 3.75a3.758 3.758 0 0 0 3.753-3.75c0-2.06-1.689-3.75-3.753-3.75a3.764 3.764 0 0 0-3.754 3.75zM1436.21 929.232a3.763 3.763 0 0 0 3.75 3.752c2.07 0 3.76-1.688 3.76-3.752a3.766 3.766 0 0 0-3.76-3.753 3.764 3.764 0 0 0-3.75 3.753zM1073.81 994.712a3.766 3.766 0 0 0 3.76 3.753c2.06 0 3.75-1.689 3.75-3.753a3.763 3.763 0 0 0-3.75-3.752 3.765 3.765 0 0 0-3.76 3.752zM889.516 782.882a3.764 3.764 0 0 0 3.753 3.753 3.765 3.765 0 0 0 3.754-3.753 3.764 3.764 0 0 0-3.754-3.752 3.763 3.763 0 0 0-3.753 3.752zM886.699 941.052a3.764 3.764 0 0 0 3.754 3.753 3.764 3.764 0 0 0 3.753-3.753 3.763 3.763 0 0 0-3.753-3.752 3.764 3.764 0 0 0-3.754 3.752zM1101.96 950.996c0 1.501 1.31 2.815 2.82 2.815 1.5 0 2.81-1.314 2.81-2.815s-1.31-2.814-2.81-2.814c-1.51 0-2.82 1.313-2.82 2.814zM1285.7 910.656c0 1.501 1.31 2.815 2.81 2.815s2.82-1.314 2.82-2.815-1.32-2.814-2.82-2.814c-1.5 0-2.81 1.126-2.81 2.814zM1530.43 990.397c0 1.501 1.31 2.814 2.81 2.814s2.82-1.313 2.82-2.814c0-1.501-1.32-2.815-2.82-2.815-1.69 0-2.81 1.126-2.81 2.815zM1530.43 927.543c0 1.501 1.31 2.814 2.81 2.814s2.82-1.313 2.82-2.814c0-1.501-1.32-2.814-2.82-2.814-1.69 0-2.81 1.313-2.81 2.814zM1479.38 766.746c0 1.501 1.31 2.815 2.81 2.815s2.82-1.314 2.82-2.815-1.32-2.814-2.82-2.814c-1.5 0-2.81 1.313-2.81 2.814zM984.477 1008.22c0 .94.75 1.69 1.689 1.69.938 0 1.688-.75 1.688-1.69s-.75-1.69-1.688-1.69c-.751-.18-1.689.75-1.689 1.69zM1085.63 993.024c0 .938.75 1.689 1.69 1.689s1.69-.751 1.69-1.689c0-.938-.75-1.688-1.69-1.688-.94-.188-1.69.562-1.69 1.688zM1083.76 1034.11c0 .94.75 1.69 1.69 1.69s1.69-.75 1.69-1.69c0-.93-.75-1.68-1.69-1.68-.75 0-1.69.75-1.69 1.68zM1061.23 1023.61c0 .93.76 1.68 1.69 1.68.94 0 1.69-.75 1.69-1.68 0-.94-.75-1.69-1.69-1.69-.93 0-1.69.75-1.69 1.69zM1108.34 1031.3c0 .94.75 1.69 1.69 1.69s1.69-.75 1.69-1.69-.75-1.69-1.69-1.69-1.69.75-1.69 1.69zM968.898 894.708c0 .938.751 1.688 1.69 1.688.938 0 1.689-.75 1.689-1.688s-.751-1.689-1.689-1.689c-.751-.187-1.69.751-1.69 1.689zM1054.67 995.652c0 .563.37.938.94.938.56 0 .93-.375.93-.938s-.37-.938-.93-.938c-.57 0-.94.375-.94.938zM1265.43 996.402c0 .563.37.938.93.938.57 0 .94-.375.94-.938s-.37-.938-.94-.938c-.56.187-.93.562-.93.938zM1464.93 984.017c0 .563.37.938.93.938.57 0 .94-.375.94-.938s-.37-.938-.94-.938c-.56.187-.93.563-.93.938zM1164.27 983.267c0 .563.37.938.94.938.56 0 .94-.375.94-.938s-.38-.938-.94-.938c-.57 0-.94.375-.94.938zM1287.57 991.148c0 .563.38.938.94.938.57 0 .94-.375.94-.938s-.37-.938-.94-.938c-.56.187-.94.563-.94.938zM1589.54 995.839c0 .563.38.938.94.938.56 0 .94-.375.94-.938s-.38-.938-.94-.938c-.56 0-.94.375-.94.938zM1621.26 993.023c0 .563.37.938.94.938.56 0 .93-.375.93-.938s-.37-.938-.93-.938c-.38 0-.94.375-.94.938zM1067.99 1009.91c0 .56.38.94.94.94.56 0 .94-.38.94-.94 0-.56-.38-.94-.94-.94-.56 0-.94.38-.94.94zM1234.46 1010.85c0 .56.38.94.94.94.56 0 .94-.38.94-.94 0-.56-.38-.94-.94-.94-.56 0-.94.38-.94.94zM1465.86 1013.29c0 .56.38.94.94.94.56 0 .94-.38.94-.94 0-.56-.38-.94-.94-.94-.56.19-.94.56-.94.94zM1061.23 981.391c0 .939.76 1.689 1.69 1.689.94 0 1.69-.75 1.69-1.689 0-.938-.75-1.688-1.69-1.688-.93 0-1.69.75-1.69 1.688zM1141.94 979.702c0 .938.75 1.689 1.69 1.689a1.688 1.688 0 1 0 0-3.378c-.75-.187-1.69.751-1.69 1.689zM1475.81 905.214c0 .938.75 1.688 1.69 1.688s1.69-.75 1.69-1.688-.75-1.689-1.69-1.689-1.69.751-1.69 1.689zM1108.34 769.374c0 .938.75 1.688 1.69 1.688s1.69-.75 1.69-1.688-.75-1.689-1.69-1.689-1.69.751-1.69 1.689zM1174.41 654.733c0 .938.75 1.689 1.69 1.689.93 0 1.68-.751 1.68-1.689 0-.938-.75-1.688-1.68-1.688-.94-.188-1.69.75-1.69 1.688zM1200.12 1038.99c0 .94.75 1.69 1.69 1.69.93 0 1.69-.75 1.69-1.69s-.76-1.69-1.69-1.69c-.75-.18-1.69.75-1.69 1.69zM1484.82 903.526c0 .938.75 1.689 1.69 1.689s1.69-.751 1.69-1.689c0-.938-.75-1.688-1.69-1.688-.94-.188-1.69.75-1.69 1.688zM1513.91 801.268c0 .939.75 1.689 1.69 1.689s1.69-.75 1.69-1.689c0-.938-.75-1.688-1.69-1.688s-1.69.75-1.69 1.688zM1581.1 803.145c0 .938.75 1.689 1.69 1.689s1.69-.751 1.69-1.689c0-.938-.75-1.688-1.69-1.688s-1.69.75-1.69 1.688zM1362.64 703.891c0 .939.76 1.689 1.69 1.689.94 0 1.69-.75 1.69-1.689 0-.938-.75-1.688-1.69-1.688-.93 0-1.69.75-1.69 1.688zM1215.51 658.11c0 .938.75 1.689 1.69 1.689s1.69-.751 1.69-1.689c0-.938-.75-1.688-1.69-1.688s-1.69.75-1.69 1.688zM1535.87 918.348c0 .939.75 1.689 1.69 1.689a1.688 1.688 0 1 0 0-3.377c-.94 0-1.69.75-1.69 1.688zM1582.97 797.891c0 .939.75 1.689 1.69 1.689s1.69-.75 1.69-1.689c0-.938-.75-1.688-1.69-1.688-.94-.188-1.69.563-1.69 1.688zM1486.7 797.891c0 .939.75 1.689 1.68 1.689.94 0 1.69-.75 1.69-1.689 0-.938-.75-1.688-1.69-1.688-.93-.188-1.68.563-1.68 1.688zM1330.74 727.157c0 .938.75 1.689 1.69 1.689s1.69-.751 1.69-1.689c0-.938-.75-1.689-1.69-1.689-.75-.187-1.69.751-1.69 1.689zM1165.02 896.395c0 .938.75 1.689 1.69 1.689s1.69-.751 1.69-1.689c0-.938-.75-1.688-1.69-1.688s-1.69.75-1.69 1.688zM1457.42 774.813c0 .938.75 1.689 1.69 1.689s1.69-.751 1.69-1.689c0-.938-.75-1.688-1.69-1.688s-1.69.75-1.69 1.688zM1625.77 741.792c0 .938.75 1.688 1.68 1.688.94 0 1.69-.75 1.69-1.688s-.75-1.689-1.69-1.689c-.93 0-1.68.751-1.68 1.689zM1196.55 815.528c0 .938.75 1.689 1.69 1.689s1.69-.751 1.69-1.689c0-.938-.75-1.688-1.69-1.688s-1.69.75-1.69 1.688zM886.887 514.95c0 .938.75 1.689 1.689 1.689.938 0 1.689-.751 1.689-1.689 0-.938-.751-1.689-1.689-1.689-.751 0-1.689.751-1.689 1.689zM863.613 502.38c0 .938.751 1.688 1.689 1.688a1.68 1.68 0 0 0 1.689-1.688c0-.938-.75-1.689-1.689-1.689-.938 0-1.689.751-1.689 1.689zM1075.88 886.264c0 .939.75 1.689 1.68 1.689.94 0 1.69-.75 1.69-1.689 0-.938-.75-1.688-1.69-1.688-.93 0-1.68.75-1.68 1.688z" fill="#94D6EA"/><path opacity=".3" d="M667.306 742.729a5.254 5.254 0 1 1-5.255 5.254 5.254 5.254 0 0 1 5.255-5.254z" fill="#94D6EA"/><path opacity=".3" fill-rule="evenodd" clip-rule="evenodd" d="M890.454 758.677c-2.065-2.063-5.443-2.063-7.507 0-2.065 2.064-2.065 5.442 0 7.506 2.064 2.063 5.442 2.063 7.507 0 2.064-2.064 2.064-5.442 0-7.506zM737.872 818.531c-2.064-2.064-5.443-2.064-7.507 0s-2.064 5.441 0 7.505 5.443 2.064 7.507 0 2.064-5.441 0-7.505z" fill="#94D6EA"/><path opacity=".3" d="M701.652 679.124a3.752 3.752 0 1 1 0 7.505 3.754 3.754 0 1 1 0-7.505zM634.089 825.848a3.754 3.754 0 1 1 .001 7.507 3.754 3.754 0 0 1-.001-7.507zM804.308 731.659a3.754 3.754 0 1 1 .001 7.507 3.754 3.754 0 0 1-.001-7.507z" fill="#94D6EA"/><path opacity=".3" fill-rule="evenodd" clip-rule="evenodd" d="M647.598 877.821c-1.126-1.126-2.815-1.126-3.941 0s-1.126 2.814 0 3.94 2.815 1.126 3.941 0 1.126-2.814 0-3.94z" fill="#94D6EA"/><path opacity=".3" d="M689.076 753.988a1.689 1.689 0 1 1 0 3.378 1.689 1.689 0 0 1 0-3.378zM628.271 836.168a1.689 1.689 0 1 1 0 3.377 1.689 1.689 0 0 1 0-3.377z" fill="#94D6EA"/><path opacity=".3" fill-rule="evenodd" clip-rule="evenodd" d="M601.62 806.148c-.751-.75-1.877-.75-2.44 0-.75.751-.75 1.877 0 2.44.751.75 1.877.75 2.44 0 .751-.563.751-1.689 0-2.44zM625.077 797.705c-.751-.75-1.877-.75-2.44 0-.75.751-.75 1.876 0 2.439.751.751 1.877.751 2.44 0 .751-.75.751-1.876 0-2.439zM781.6 823.598c-.75-.751-1.876-.751-2.439 0-.751.75-.751 1.876 0 2.439.75.75 1.876.75 2.439 0 .563-.563.563-1.689 0-2.439zM649.478 812.901a.908.908 0 0 0-1.314 0 .908.908 0 0 0 0 1.314.908.908 0 0 0 1.314 0 .908.908 0 0 0 0-1.314zM580.787 899.022a.908.908 0 0 0-1.314 0 .908.908 0 0 0 0 1.314.908.908 0 0 0 1.314 0 .908.908 0 0 0 0-1.314zM876.376 665.802a.905.905 0 0 0-1.313 0 .905.905 0 0 0 0 1.313.907.907 0 0 0 1.313 0c.188-.563.188-.938 0-1.313zM629.959 812.151a.908.908 0 0 0-1.314 0 .906.906 0 0 0 0 1.314.908.908 0 0 0 1.314 0 .908.908 0 0 0 0-1.314z" fill="#94D6EA"/><path opacity=".3" d="M653.607 827.162a1.689 1.689 0 1 1 0 3.377 1.689 1.689 0 0 1 0-3.377zM597.865 885.326a1.689 1.689 0 1 1 0 3.378 1.689 1.689 0 0 1 0-3.378z" fill="#94D6EA"/><path opacity=".3" fill-rule="evenodd" clip-rule="evenodd" d="M948.444 666.928c-.75-.751-1.876-.751-2.44 0-.75.75-.75 1.876 0 2.439.751.75 1.877.75 2.44 0 .563-.751.563-1.877 0-2.439zM641.593 961.127c-.751-.751-1.877-.751-2.44 0-.751.75-.751 1.876 0 2.439.751.751 1.877.751 2.44 0 .75-.75.75-1.876 0-2.439z" fill="#94D6EA"/><path opacity=".3" d="M710.658 904.652a1.689 1.689 0 1 1 0 3.378 1.689 1.689 0 0 1 0-3.378z" fill="#94D6EA"/><path opacity=".3" d="M458.048 838.796a5.254 5.254 0 1 1-5.255 5.253 5.254 5.254 0 0 1 5.255-5.253z" fill="#B5EAFF"/><path opacity=".3" fill-rule="evenodd" clip-rule="evenodd" d="M204.309 733.912c-2.064-2.064-5.442-2.064-7.507 0-2.064 2.064-2.064 5.441 0 7.505 2.065 2.064 5.443 2.064 7.507 0 2.065-2.064 2.065-5.441 0-7.505z" fill="#94D6EA"/><path opacity=".3" d="M351.263 762.43a5.254 5.254 0 1 1-5.255 5.254 5.254 5.254 0 0 1 5.255-5.254z" fill="#B5EAFF"/><path opacity=".3" fill-rule="evenodd" clip-rule="evenodd" d="M321.985 862.435c-2.064-2.064-5.443-2.064-7.507 0s-2.064 5.441 0 7.505 5.443 2.064 7.507 0c2.065-2.251 2.065-5.628 0-7.505z" fill="#B5EAFF"/><path opacity=".3" d="M524.86 913.094a5.254 5.254 0 1 1 .001 10.509 5.254 5.254 0 0 1-.001-10.509z" fill="#94D6EA"/><path opacity=".3" fill-rule="evenodd" clip-rule="evenodd" d="M512.286 969.57c-2.065-2.064-5.443-2.064-7.507 0-2.065 2.064-2.065 5.441 0 7.505 2.064 2.064 5.442 2.064 7.507 0 2.064-2.251 2.064-5.441 0-7.505zM899.837 206.68c-2.065-2.064-5.443-2.064-7.507 0-2.065 2.063-2.065 5.441 0 7.505 2.064 2.063 5.442 2.063 7.507 0 2.064-2.252 2.064-5.442 0-7.505z" fill="#94D6EA"/><path opacity=".3" d="M492.394 775.376a3.753 3.753 0 1 1 .001 7.507 3.753 3.753 0 0 1-.001-7.507zM284.636 678.561a3.754 3.754 0 1 1 .001 7.507 3.754 3.754 0 0 1-.001-7.507zM314.476 707.643a3.754 3.754 0 1 1 .001 7.507 3.754 3.754 0 0 1-.001-7.507zM424.64 922.1a3.754 3.754 0 1 1 .001 7.507 3.754 3.754 0 0 1-.001-7.507zM595.05 827.725a3.754 3.754 0 1 1 .001 7.507 3.754 3.754 0 0 1-.001-7.507z" fill="#94D6EA"/><path opacity=".3" fill-rule="evenodd" clip-rule="evenodd" d="M438.34 974.073c-1.126-1.126-2.815-1.126-3.941 0s-1.126 2.814 0 3.94 2.815 1.126 3.941 0 1.126-2.814 0-3.94z" fill="#94D6EA"/><path opacity=".3" d="M414.507 1026.8a2.814 2.814 0 1 1 0 5.63 2.814 2.814 0 1 1 0-5.63z" fill="#94D6EA"/><path opacity=".3" fill-rule="evenodd" clip-rule="evenodd" d="M521.481 957.563c-1.126-1.126-2.815-1.126-3.941 0s-1.126 2.815 0 3.94c1.126 1.126 2.815 1.126 3.941 0 1.126-1.125 1.126-2.814 0-3.94zM680.629 1058.32c-1.126-1.13-2.815-1.13-3.941 0-1.126 1.12-1.126 2.81 0 3.94 1.126 1.12 2.815 1.12 3.941 0 1.127-1.13 1.127-3 0-3.94z" fill="#94D6EA"/><path opacity=".3" d="M479.818 850.052a1.689 1.689 0 1 1 0 3.378 1.689 1.689 0 0 1 0-3.378z" fill="#94D6EA"/><path opacity=".3" fill-rule="evenodd" clip-rule="evenodd" d="M420.327 932.795c-.751-.751-1.877-.751-2.44 0-.75.75-.75 1.876 0 2.439.751.751 1.877.751 2.44 0 .751-.751.751-1.876 0-2.439zM293.081 987.769c-.751-.75-1.877-.75-2.44 0-.751.751-.751 1.877 0 2.44.751.75 1.877.75 2.44 0 .751-.563.751-1.689 0-2.44z" fill="#94D6EA"/><path opacity=".3" d="M507.033 955.123a1.689 1.689 0 1 1 0 3.377 1.689 1.689 0 0 1 0-3.377z" fill="#94D6EA"/><path opacity=".3" fill-rule="evenodd" clip-rule="evenodd" d="M312.038 917.223c-.751-.751-1.877-.751-2.44 0-.751.75-.751 1.876 0 2.439.751.75 1.877.75 2.44 0 .563-.751.563-1.877 0-2.439z" fill="#94D6EA"/><path opacity=".3" d="M257.236 903.715a1.689 1.689 0 1 1 0 3.377 1.689 1.689 0 0 1 0-3.377z" fill="#94D6EA"/><path opacity=".3" fill-rule="evenodd" clip-rule="evenodd" d="M392.362 902.4c-.751-.75-1.877-.75-2.44 0-.75.751-.75 1.877 0 2.439.751.751 1.877.751 2.44 0 .751-.75.751-1.876 0-2.439zM767.147 773.5c-.75-.751-1.876-.751-2.439 0-.751.75-.751 1.876 0 2.439.75.751 1.876.751 2.439 0 .751-.563.751-1.689 0-2.439z" fill="#94D6EA"/><path opacity=".3" d="M159.642 684.191a1.689 1.689 0 1 1 0 3.378 1.689 1.689 0 0 1 0-3.378zM414.505 893.394a1.689 1.689 0 1 1 0 3.378 1.689 1.689 0 0 1 0-3.378zM571.029 919.287a1.689 1.689 0 1 1 0 3.377 1.689 1.689 0 0 1 0-3.377z" fill="#94D6EA"/><path opacity=".3" fill-rule="evenodd" clip-rule="evenodd" d="M971.901 761.117c-.75-.75-1.877-.75-2.44 0-.75.751-.75 1.876 0 2.439.751.751 1.877.751 2.44 0 .751-.563.751-1.688 0-2.439zM440.22 909.155a.907.907 0 0 0-1.313 0 .906.906 0 0 0 0 1.314.907.907 0 0 0 1.313 0c.376-.563.376-1.126 0-1.314zM579.099 937.485a.908.908 0 0 0-1.314 0 .908.908 0 0 0 0 1.314.908.908 0 0 0 1.314 0 .908.908 0 0 0 0-1.314zM555.076 921.538a.908.908 0 0 0-1.314 0 .907.907 0 0 0 0 1.313.906.906 0 0 0 1.314 0c.187-.563.187-1.125 0-1.313zM714.037 766.183a.906.906 0 0 0-1.314 0 .907.907 0 0 0 0 1.313.908.908 0 0 0 1.314 0c.187-.563.187-1.126 0-1.313zM371.529 995.276a.908.908 0 0 0-1.314 0 .908.908 0 0 0 0 1.314.908.908 0 0 0 1.314 0 .908.908 0 0 0 0-1.314zM370.779 1057a.916.916 0 0 0-1.314 0 .915.915 0 0 0 0 1.32c.375.37.939.37 1.314 0 .375-.56.375-1.13 0-1.32zM913.537 977.825a.908.908 0 0 0-1.314 0 .907.907 0 0 0 0 1.313.906.906 0 0 0 1.314 0 .907.907 0 0 0 0-1.313zM404.185 1057.75a.916.916 0 0 0-1.314 0 .915.915 0 0 0 0 1.32c.376.37.939.37 1.314 0a.915.915 0 0 0 0-1.32zM405.123 1046.31a.9.9 0 0 0-1.314 0 .903.903 0 0 0 0 1.31.9.9 0 0 0 1.314 0c.375-.56.375-1.12 0-1.31zM514.537 966.569a.908.908 0 0 0-1.314 0 .908.908 0 0 0 0 1.314.908.908 0 0 0 1.314 0c.187-.376.187-.939 0-1.314zM346.568 401.436a.908.908 0 0 0-1.314 0 .908.908 0 0 0 0 1.314.908.908 0 0 0 1.314 0 .908.908 0 0 0 0-1.314zM520.169 953.434a.907.907 0 0 0-1.313 0 .906.906 0 0 0 0 1.314.907.907 0 0 0 1.313 0 .906.906 0 0 0 0-1.314zM445.663 923.601c-.751-.75-1.877-.75-2.44 0-.751.751-.751 1.877 0 2.44.751.75 1.877.75 2.44 0 .751-.563.751-1.689 0-2.44zM553.011 951.934c-.751-.751-1.877-.751-2.44 0-.751.75-.751 1.876 0 2.439.75.75 1.877.75 2.44 0 .563-.563.563-1.689 0-2.439zM565.397 1050.62c-.75-.75-1.876-.75-2.439 0-.751.76-.751 1.88 0 2.44.75.75 1.876.75 2.439 0 .751-.75.751-1.87 0-2.44z" fill="#94D6EA"/><path opacity=".3" d="M528.427 953.248a1.689 1.689 0 1 1 0 3.377 1.689 1.689 0 0 1 0-3.377zM929.677 807.461a1.689 1.689 0 1 1 0 3.377 1.689 1.689 0 0 1 0-3.377zM934.367 455.286a3.752 3.752 0 1 1 0 7.505 3.754 3.754 0 1 1 0-7.505zM865.302 728.095a1.689 1.689 0 1 1 0 3.378 1.689 1.689 0 0 1 0-3.378zM888.763 719.652a1.689 1.689 0 1 1 0 3.378 1.689 1.689 0 0 1 0-3.378z" fill="#94D6EA"/><path opacity=".3" fill-rule="evenodd" clip-rule="evenodd" d="M914.474 735.226a.906.906 0 0 0-1.314 0 .907.907 0 0 0 0 1.313.908.908 0 0 0 1.314 0 .907.907 0 0 0 0-1.313zM894.955 734.474a.906.906 0 0 0-1.314 0 .907.907 0 0 0 0 1.313.908.908 0 0 0 1.314 0 .907.907 0 0 0 0-1.313zM919.917 749.859c-.751-.75-1.877-.75-2.44 0-.751.751-.751 1.877 0 2.439.751.751 1.877.751 2.44 0 .563-.562.563-1.688 0-2.439z" fill="#94D6EA"/><path opacity=".3" d="M388.607 981.58a1.689 1.689 0 1 1 0 3.377 1.689 1.689 0 0 1 0-3.377z" fill="#94D6EA"/><path opacity=".3" fill-rule="evenodd" clip-rule="evenodd" d="M181.225 821.908c-.75-.75-1.876-.75-2.439 0-.751.751-.751 1.876 0 2.439.75.751 1.876.751 2.439 0 .563-.75.563-1.876 0-2.439z" fill="#4980A9"/><path opacity=".3" fill-rule="evenodd" clip-rule="evenodd" d="M225.143 983.83c-.75-.751-1.876-.751-2.439 0-.751.751-.751 1.876 0 2.439.75.751 1.876.751 2.439 0 .751-.75.751-1.876 0-2.439z" fill="#94D6EA"/><path opacity=".3" d="M463.302 1044.25a1.685 1.685 0 1 1 0 3.37 1.686 1.686 0 1 1 0-3.37z" fill="#94D6EA"/><path opacity=".3" d="M155.517 805.773a1.689 1.689 0 1 1 0 3.378 1.689 1.689 0 0 1 0-3.378z" fill="#4980A9"/><path opacity=".3" d="M805.625 956.624a3.752 3.752 0 1 1 0 7.505 3.754 3.754 0 1 1 0-7.505zM800.554 843.11a3.754 3.754 0 1 1 .001 7.507 3.754 3.754 0 0 1-.001-7.507zM1439.96 964.317c2.08 0 3.76 1.68 3.76 3.753a3.754 3.754 0 0 1-3.76 3.752 3.752 3.752 0 0 1 0-7.505zM1360.77 1066.76c2.07 0 3.75 1.68 3.75 3.75a3.756 3.756 0 1 1-3.75-3.75z" fill="#94D6EA"/><path opacity=".3" fill-rule="evenodd" clip-rule="evenodd" d="M819.321 1008.6c-1.126-1.13-2.815-1.13-3.941 0-1.126 1.12-1.126 2.81 0 3.94 1.126 1.12 2.815 1.12 3.941 0 1.126-1.13 1.126-2.82 0-3.94zM801.307 967.318c-.75-.75-1.876-.75-2.439 0-.751.751-.751 1.877 0 2.439.75.751 1.876.751 2.439 0 .563-.562.563-1.688 0-2.439zM773.343 936.924c-.751-.751-1.877-.751-2.44 0-.751.75-.751 1.876 0 2.439.751.75 1.877.75 2.44 0 .75-.563.75-1.689 0-2.439zM740.686 832.228c-.75-.75-1.876-.75-2.439 0-.751.751-.751 1.877 0 2.44.75.75 1.876.75 2.439 0 .751-.751.751-1.877 0-2.44zM796.803 928.48c-.75-.75-1.876-.75-2.439 0-.751.751-.751 1.877 0 2.44.75.75 1.876.75 2.439 0 .563-.563.563-1.689 0-2.44zM821.201 943.679a.906.906 0 0 0-1.314 0 .907.907 0 0 0 0 1.313.908.908 0 0 0 1.314 0 .907.907 0 0 0 0-1.313zM854.795 1016.1a.916.916 0 0 0-1.314 0 .913.913 0 0 0 0 1.32c.375.37.938.37 1.314 0a.915.915 0 0 0 0-1.32zM752.509 1029.8a.899.899 0 0 0-1.313 0 .902.902 0 0 0 0 1.31c.375.38.938.38 1.313 0a.902.902 0 0 0 0-1.31zM801.681 942.927a.906.906 0 0 0-1.314 0 .907.907 0 0 0 0 1.313.908.908 0 0 0 1.314 0 .907.907 0 0 0 0-1.313z" fill="#94D6EA"/><path opacity=".3" d="M825.33 957.937a1.689 1.689 0 1 1 0 3.378 1.689 1.689 0 0 1 0-3.378zM945.443 956.812a1.689 1.689 0 1 1 0 3.378 1.689 1.689 0 0 1 0-3.378z" fill="#94D6EA"/><path opacity=".3" fill-rule="evenodd" clip-rule="evenodd" d="M1567.02 955.687c1.88 2.064 5.07 2.439 7.13.563 2.07-1.876 2.44-5.066.57-7.13-1.88-2.064-5.07-2.439-7.13-.563-2.07 1.876-2.26 5.066-.57 7.13zM1256.05 959.064c1.87 2.064 5.06 2.439 7.13.563 2.06-1.876 2.44-5.066.56-7.13s-5.07-2.439-7.13-.563c-2.07 1.876-2.44 5.066-.56 7.13zM1462.49 629.029c1.87 2.064 5.07 2.439 7.13.563 2.06-1.877 2.44-5.066.56-7.13-1.87-2.064-5.06-2.439-7.13-.563-2.06 1.689-2.25 4.878-.56 7.13zM1524.98 637.472c1.88 2.064 5.07 2.439 7.13.563 2.07-1.876 2.44-5.066.57-7.13-1.88-2.064-5.07-2.439-7.13-.563-2.26 1.689-2.44 4.879-.57 7.13z" fill="#94D6EA"/><path opacity=".3" fill-rule="evenodd" clip-rule="evenodd" d="M1788.67 644.226c1.87 2.064 5.06 2.439 7.13.563 2.06-1.876 2.44-5.066.56-7.13-1.87-2.064-5.07-2.439-7.13-.563-2.06 1.876-2.25 5.066-.56 7.13z" fill="#B5EAFF"/><path opacity=".3" fill-rule="evenodd" clip-rule="evenodd" d="M1839.53 354.531c1.87 2.064 5.06 2.439 7.13.563 2.06-1.877 2.44-5.066.56-7.13s-5.07-2.439-7.13-.563c-2.07 1.876-2.44 5.066-.56 7.13zM1509.22 878.947c1.88 2.064 5.07 2.439 7.13.563 2.06-1.877 2.44-5.066.56-7.13-1.87-2.064-5.06-2.439-7.13-.563-2.06 1.876-2.25 5.066-.56 7.13z" fill="#94D6EA"/><path opacity=".3" fill-rule="evenodd" clip-rule="evenodd" d="M1734.99 572.552c1.88 2.064 5.07 2.439 7.13.563 2.07-1.876 2.44-5.066.57-7.13-1.88-2.064-5.07-2.439-7.14-.563-2.06 1.689-2.25 4.879-.56 7.13z" fill="#B5EAFF"/><path opacity=".3" fill-rule="evenodd" clip-rule="evenodd" d="M1832.96 607.077c1.31 1.501 3.56 1.688 5.06.375 1.51-1.314 1.69-3.565.38-5.066s-3.57-1.689-5.07-.375c-1.5 1.313-1.69 3.565-.37 5.066zM1607 879.323c1.31 1.501 3.56 1.688 5.06.375 1.5-1.314 1.69-3.565.38-5.066-1.32-1.501-3.57-1.689-5.07-.375-1.5 1.313-1.69 3.565-.37 5.066zM1600.62 829.6c.93 1.126 2.62 1.314 3.75.376 1.13-.939 1.31-2.627.38-3.753-.94-1.126-2.63-1.313-3.76-.375-1.12 1.125-1.31 2.626-.37 3.752zM1710.78 686.442c.94 1.126 2.63 1.313 3.75.375 1.13-.938 1.32-2.626.38-3.752-.94-1.126-2.63-1.314-3.75-.375-1.13.938-1.32 2.626-.38 3.752zM1901.27 547.598c.94 1.126 2.63 1.314 3.76.376 1.12-.939 1.31-2.627.37-3.753-.94-1.126-2.63-1.313-3.75-.375-1.13.938-1.32 2.627-.38 3.752zM1764.27 460.915c.94 1.125 2.63 1.313 3.75.375 1.13-.938 1.32-2.627.38-3.753-.94-1.125-2.63-1.313-3.76-.375-1.12.938-1.31 2.627-.37 3.753zM1549.57 944.429c.56.75 1.69.75 2.44.187s.75-1.688.19-2.439c-.57-.75-1.69-.75-2.44-.187-.75.562-.75 1.688-.19 2.439zM1614.5 870.69c.57.751 1.69.751 2.44.188s.75-1.689.19-2.439c-.56-.751-1.69-.751-2.44-.188-.75.751-.75 1.689-.19 2.439zM1638.71 902.212c.57.75 1.69.75 2.44.188.75-.563.75-1.689.19-2.44-.56-.75-1.69-.75-2.44-.187s-.75 1.688-.19 2.439zM1615.63 908.403c.56.751 1.69.751 2.44.188s.75-1.689.19-2.439c-.57-.751-1.69-.751-2.44-.188-.76.563-.76 1.689-.19 2.439zM1654.86 884.95c.56.751 1.68.751 2.44.188.75-.563.75-1.689.18-2.439-.56-.751-1.69-.751-2.44-.188-.56.751-.75 1.689-.18 2.439zM1467.93 870.503c.56.75 1.69.75 2.44.188.75-.563.75-1.689.19-2.44-.57-.75-1.69-.75-2.44-.187-.75.75-.75 1.688-.19 2.439zM1714.16 833.165c.56.751 1.69.751 2.44.188s.75-1.689.19-2.439c-.57-.751-1.69-.751-2.44-.188-.75.75-.75 1.876-.19 2.439zM1593.48 891.705c.38.375.75.375 1.13.187.38-.375.38-.75.19-1.125-.38-.376-.75-.376-1.13-.188-.56.188-.56.751-.19 1.126zM1883.44 895.082c.38.376 1.13.563 1.5.188.38-.375.57-1.126.19-1.501-.37-.375-1.12-.563-1.5-.188-.56.376-.56 1.126-.19 1.501zM1748.88 762.244c.38.375.75.375 1.13.187.37-.375.37-.75.19-1.125-.38-.376-.76-.376-1.13-.188-.38.188-.38.751-.19 1.126zM1887.95 629.779c.37.375.75.375 1.12.188.38-.376.38-.751.19-1.126-.37-.375-.75-.375-1.12-.188-.38.188-.38.751-.19 1.126zM1666.3 814.966c.38.376.75.376 1.13.188.37-.375.37-.75.19-1.126-.38-.375-.75-.375-1.13-.187-.38.187-.56.75-.19 1.125zM1762.02 744.607c.37.375.75.375 1.12.188.38-.376.38-.751.19-1.126-.37-.375-.75-.375-1.13-.188-.37.188-.56.751-.18 1.126z" fill="#94D6EA"/><path opacity=".3" fill-rule="evenodd" clip-rule="evenodd" d="M1612.06 894.144c.38.375.75.375 1.13.188.37-.375.37-.751.19-1.126-.38-.375-.75-.375-1.13-.188-.56.188-.56.751-.19 1.126z" fill="#B5EAFF"/><path opacity=".3" fill-rule="evenodd" clip-rule="evenodd" d="M1735.18 791.701c.37.375.75.375 1.13.187.37-.375.37-.75.18-1.125-.37-.375-.75-.375-1.12-.188-.57.375-.57.938-.19 1.126zM1906.71 650.793c.38.375.75.375 1.13.187.37-.375.37-.75.19-1.125-.38-.376-.75-.376-1.13-.188-.37.188-.37.75-.19 1.126zM1589.54 877.259c.56.75 1.69.75 2.44.187.75-.562.75-1.688.19-2.439-.57-.75-1.69-.75-2.44-.187-.75.75-.94 1.688-.19 2.439zM1647.72 826.036c.57.751 1.69.751 2.44.188s.75-1.689.19-2.439c-.56-.751-1.69-.751-2.44-.188-.56.75-.75 1.689-.19 2.439zM1847.41 564.86c.56.751 1.69.751 2.44.188s.75-1.689.19-2.439c-.57-.751-1.69-.751-2.44-.188-.75.751-.75 1.876-.19 2.439zM1492.89 692.259c.56.75 1.69.75 2.44.187.75-.562.75-1.688.19-2.439-.56-.75-1.69-.75-2.44-.187-.56.75-.75 1.688-.19 2.439zM1727.3 833.729c.56.751 1.69.751 2.44.188s.75-1.689.18-2.439c-.56-.751-1.69-.751-2.44-.188-.75.751-.75 1.689-.18 2.439zM1852.85 558.105c.56.75 1.69.75 2.44.187s.75-1.688.19-2.439c-.56-.75-1.69-.75-2.44-.188-.75.563-.75 1.689-.19 2.44zM1811.19 465.042c.56.751 1.69.75 2.44.188.75-.563.75-1.689.18-2.44-.56-.75-1.69-.75-2.44-.187s-.75 1.689-.18 2.439zM1861.67 424.702c.56.751 1.69.751 2.44.188s.75-1.689.19-2.439c-.56-.751-1.69-.751-2.44-.188-.75.75-.75 1.689-.19 2.439zM1639.65 486.806c.57.75 1.69.75 2.44.187s.75-1.688.19-2.439c-.56-.75-1.69-.75-2.44-.187-.75.75-.94 1.688-.19 2.439zM1899.58 537.466c.57.75 1.69.75 2.44.187.75-.562.75-1.688.19-2.439-.56-.75-1.69-.75-2.44-.187-.56.75-.75 1.688-.19 2.439zM1859.61 419.823c.56.751 1.68.751 2.44.188.75-.563.75-1.689.18-2.439-.56-.751-1.69-.751-2.44-.188-.56.563-.75 1.689-.18 2.439zM1788.85 479.302c.57.75 1.69.75 2.44.187.75-.562.75-1.688.19-2.439-.56-.75-1.69-.75-2.44-.187s-.75 1.688-.19 2.439zM1630.46 523.581c.56.751 1.69.751 2.44.188s.75-1.689.18-2.439c-.56-.751-1.69-.751-2.44-.188-.75.75-.75 1.689-.18 2.439zM1613.38 750.61c.56.751 1.69.751 2.44.188s.75-1.689.18-2.439c-.56-.751-1.69-.751-2.44-.188s-.93 1.689-.18 2.439zM1753.2 480.427c.56.75 1.69.75 2.44.187.75-.562.75-1.688.18-2.439-.56-.75-1.69-.75-2.44-.187-.75.75-.93 1.688-.18 2.439zM1856.6 352.091c.57.75 1.69.75 2.44.187.75-.562.75-1.688.19-2.439-.56-.75-1.69-.75-2.44-.187s-.75 1.688-.19 2.439zM1586.35 671.618c.56.751 1.69.751 2.44.188s.75-1.689.19-2.439c-.56-.751-1.69-.751-2.44-.188-.75.751-.75 1.876-.19 2.439zM1522.36 749.108c.56.751 1.68.751 2.44.188.75-.563.75-1.689.18-2.439-.56-.751-1.69-.751-2.44-.188-.56.751-.75 1.689-.18 2.439zM1541.31 798.267c.56.75 1.69.75 2.44.187s.75-1.688.19-2.439c-.56-.75-1.69-.75-2.44-.188-.75.751-.75 1.689-.19 2.44zM1387.6 770.498c-.94 0-1.69.563-1.87 1.501 0 .938.56 1.688 1.5 1.876.94 0 1.69-.563 1.87-1.501 0-.938-.56-1.876-1.5-1.876zM1859.98 629.778c-2.06-.187-3.75 1.314-3.94 3.19-.18 2.064 1.32 3.752 3.19 3.94 2.07.188 3.76-1.313 3.94-3.19.38-2.064-1.12-3.752-3.19-3.94z" fill="#94D6EA"/><path opacity=".3" fill-rule="evenodd" clip-rule="evenodd" d="M1732.74 1059.63c1.87 2.25 5.25 2.44 7.5.56 2.26-1.87 2.44-5.25.57-7.5-1.88-2.25-5.26-2.44-7.51-.56-2.06 1.87-2.44 5.25-.56 7.5z" fill="#B5EAFF"/><path opacity=".3" fill-rule="evenodd" clip-rule="evenodd" d="M1623.89 719.652c1.88 2.252 5.25 2.439 7.51.563 2.25-1.876 2.44-5.254.56-7.505-1.88-2.252-5.26-2.439-7.51-.563-2.25 1.876-2.44 5.253-.56 7.505zM1688.82 728.47c1.88 2.252 5.26 2.439 7.51.563 2.25-1.876 2.44-5.253.56-7.505-1.87-2.251-5.25-2.439-7.5-.563-2.26 1.877-2.44 5.254-.57 7.505z" fill="#94D6EA"/><path opacity=".3" fill-rule="evenodd" clip-rule="evenodd" d="M1672.49 979.89c1.88 2.252 5.26 2.439 7.51.563 2.25-1.876 2.44-5.253.56-7.505-1.87-2.251-5.25-2.439-7.5-.563-2.07 1.876-2.44 5.254-.57 7.505z" fill="#4980A9"/><path opacity=".3" fill-rule="evenodd" clip-rule="evenodd" d="M1907.46 660.923c1.88 2.252 5.26 2.44 7.51.563 2.25-1.876 2.44-5.253.56-7.505-1.87-2.251-5.25-2.439-7.5-.563-2.07 1.877-2.44 5.254-.57 7.505z" fill="#94D6EA"/><path opacity=".3" fill-rule="evenodd" clip-rule="evenodd" d="M1774.21 980.078c1.32 1.501 3.76 1.689 5.26.376 1.5-1.314 1.69-3.753.37-5.254-1.31-1.501-3.75-1.688-5.25-.375s-1.69 3.752-.38 5.253z" fill="#4980A9"/><path opacity=".3" fill-rule="evenodd" clip-rule="evenodd" d="M1496.64 936.36c1.32 1.501 3.76 1.688 5.26.375s1.69-3.753.37-5.254c-1.31-1.501-3.75-1.688-5.25-.375-1.5 1.501-1.69 3.753-.38 5.254zM1767.65 928.481c.93 1.126 2.62 1.314 3.94.375 1.12-.938 1.31-2.626.37-3.94-.94-1.126-2.63-1.313-3.94-.375-1.31 1.126-1.5 2.814-.37 3.94zM1882.32 779.317c.94 1.126 2.63 1.313 3.94.375 1.12-.938 1.31-2.626.37-3.94-.93-1.126-2.62-1.313-3.94-.375-1.31 1.126-1.5 2.814-.37 3.94zM1714.53 1047.81c.57.75 1.69.75 2.44.19s.75-1.69.19-2.44-1.69-.75-2.44-.19c-.75.57-.75 1.69-.19 2.44z" fill="#94D6EA"/><path opacity=".3" fill-rule="evenodd" clip-rule="evenodd" d="M1782.1 971.259c.56.75 1.69.75 2.44.187.75-.562.75-1.688.19-2.439-.57-.75-1.69-.75-2.44-.187s-.94 1.688-.19 2.439zM1807.24 1003.91c.57.75 1.69.75 2.44.18.76-.56.76-1.68.19-2.43-.56-.75-1.69-.75-2.44-.19s-.75 1.69-.19 2.44z" fill="#4980A9"/><path opacity=".3" fill-rule="evenodd" clip-rule="evenodd" d="M1783.22 1010.29c.57.75 1.69.75 2.44.18.75-.56.75-1.68.19-2.44-.56-.75-1.69-.75-2.44-.18-.75.56-.94 1.69-.19 2.44z" fill="#94D6EA"/><path opacity=".3" fill-rule="evenodd" clip-rule="evenodd" d="M1824.14 986.081c.56.751 1.68.751 2.44.188.75-.563.75-1.689.18-2.439-.56-.751-1.69-.751-2.44-.188s-.75 1.689-.18 2.439z" fill="#4980A9"/><path opacity=".3" fill-rule="evenodd" clip-rule="evenodd" d="M1629.52 970.884c.56.75 1.69.75 2.44.187.75-.562.75-1.688.19-2.439-.57-.75-1.69-.75-2.44-.187-.76.75-.76 1.688-.19 2.439z" fill="#94D6EA"/><path opacity=".3" fill-rule="evenodd" clip-rule="evenodd" d="M1760.14 993.025c.37.375.94.375 1.31.188.38-.376.38-.938.19-1.314-.38-.375-.94-.375-1.31-.187-.38.375-.57.938-.19 1.313z" fill="#4980A9"/><path opacity=".3" fill-rule="evenodd" clip-rule="evenodd" d="M1835.96 913.095c.37.376.94.376 1.31.188.38-.375.38-.938.19-1.313-.38-.376-.94-.376-1.31-.188-.38.375-.57.938-.19 1.313zM1779.47 995.463c.38.375.94.375 1.31.187.38-.375.38-.938.19-1.313-.37-.375-.94-.375-1.31-.188-.38.375-.57.938-.19 1.314zM1907.65 889.078c.38.375.94.375 1.32.187.37-.375.37-.938.18-1.313-.37-.375-.93-.375-1.31-.188-.56.376-.56.939-.19 1.314z" fill="#94D6EA"/><path opacity=".3" fill-rule="evenodd" clip-rule="evenodd" d="M1756.01 978.015c.56.75 1.69.75 2.44.187s.75-1.688.19-2.439c-.56-.75-1.69-.75-2.44-.187-.75.562-.75 1.688-.19 2.439z" fill="#4980A9"/><path opacity=".3" fill-rule="evenodd" clip-rule="evenodd" d="M1816.63 924.728c.56.75 1.69.75 2.44.187s.75-1.688.19-2.439c-.57-.75-1.69-.75-2.44-.188-.76.563-.76 1.689-.19 2.44zM1655.6 785.509c.57.75 1.69.75 2.44.187.75-.562.75-1.688.19-2.439-.56-.75-1.69-.75-2.44-.187s-.75 1.688-.19 2.439zM1632.33 655.108c.56.751 1.69.751 2.44.188s.75-1.689.19-2.439c-.56-.751-1.69-.751-2.44-.188s-.75 1.689-.19 2.439zM1899.39 932.796c.57.75 1.69.75 2.44.188.75-.563.75-1.689.19-2.44-.56-.75-1.69-.75-2.44-.187s-.75 1.688-.19 2.439zM1808.18 571.802c.57.75 1.69.75 2.44.187.75-.562.75-1.688.19-2.439-.56-.75-1.69-.75-2.44-.187-.75.562-.94 1.688-.19 2.439zM1666.11 631.278c.57.751 1.69.751 2.44.188s.75-1.689.19-2.439c-.56-.751-1.69-.751-2.44-.188s-.75 1.689-.19 2.439zM1798.61 609.89c.57.75 1.69.75 2.44.187s.75-1.688.19-2.439c-.56-.75-1.69-.75-2.44-.187-.56.562-.75 1.688-.19 2.439zM1780.78 846.112c.57.751 1.69.751 2.44.188s.75-1.689.19-2.439c-.56-.751-1.69-.751-2.44-.188s-.75 1.689-.19 2.439zM1752.82 764.118c.56.751 1.69.751 2.44.188s.75-1.689.19-2.439c-.57-.751-1.69-.751-2.44-.188s-.75 1.689-.19 2.439zM1871.06 492.999c.56.751 1.69.751 2.44.188s.75-1.689.18-2.44c-.56-.75-1.69-.75-2.44-.187s-.93 1.689-.18 2.439zM1705.9 895.833c.56.751 1.69.751 2.44.188s.75-1.689.19-2.439c-.56-.751-1.69-.751-2.44-.188s-.75 1.689-.19 2.439zM1467.18 809.9c-.94 0-1.88.563-1.88 1.689 0 .938.56 1.876 1.69 1.876.94 0 1.88-.563 1.88-1.689 0-.938-.75-1.876-1.69-1.876zM1546 866.939c-.94 0-1.88.563-1.88 1.689 0 .938.57 1.876 1.69 1.876.94 0 1.88-.563 1.88-1.689 0-1.126-.75-1.876-1.69-1.876zM1640.59 1070.33c-.56 0-.94.37-.94.75 0 .37.38.94.75.94.57 0 .94-.38.94-.75.19-.57-.19-.94-.75-.94zM1544.5 929.043c-.94 0-1.88.562-1.88 1.688 0 .938.57 1.876 1.69 1.876.94 0 1.88-.562 1.88-1.688 0-.938-.75-1.876-1.69-1.876zM1484.45 903.151c-2.07-.188-3.95 1.313-4.13 3.377-.19 2.064 1.31 3.94 3.37 4.128 2.07.188 3.95-1.313 4.13-3.377.19-2.252-1.31-3.94-3.37-4.128zM1485.2 884.013c-.57 0-.94.375-.94.75 0 .563.37.938.75.938.56 0 .94-.375.94-.75.18-.376-.19-.938-.75-.938zM1469.81 896.02c-.57 0-.94.376-.94.751 0 .563.37.938.75.938.56 0 .94-.375.94-.751 0-.562-.38-.938-.75-.938zM1498.71 891.705c-.94 0-1.88.562-1.88 1.688 0 .938.56 1.877 1.69 1.877.94 0 1.88-.563 1.88-1.689 0-.938-.75-1.689-1.69-1.876zM1652.6 1033.18c-.94 0-1.87.56-1.87 1.68 0 .94.56 1.88 1.69 1.88.93 0 1.87-.56 1.87-1.69 0-1.12-.56-1.69-1.69-1.87zM1827.7 986.457c.75 1.313 2.26 1.688 3.57.938 1.31-.751 1.69-2.252.94-3.565-.75-1.313-2.25-1.689-3.57-.938-1.12.75-1.5 2.251-.94 3.565zM1770.28 1012.72c.18.38.75.57 1.12.38.38-.19.57-.75.38-1.13-.19-.37-.75-.56-1.13-.37-.56.19-.56.75-.37 1.12zM1879.69 962.629c.19.376.75.563 1.12.376.38-.188.57-.751.38-1.126-.19-.375-.75-.563-1.13-.375-.56.187-.75.75-.37 1.125zM1904.65 944.991c.19.375.75.562 1.12.375.38-.188.57-.751.38-1.126-.19-.375-.75-.563-1.13-.375-.37.187-.56.75-.37 1.126zM1785.1 1036.74c.19.38.75.56 1.13.38.37-.19.56-.75.37-1.13-.18-.38-.75-.56-1.12-.38-.57.19-.75.57-.38 1.13zM1783.97 1046.69c1.5 2.44 4.69 3.37 7.13 1.87 2.44-1.5 3.38-4.69 1.88-7.13-1.5-2.44-4.69-3.37-7.13-1.87-2.44 1.5-3.38 4.69-1.88 7.13zM1900.33 1059.44c.57.75 1.5 1.13 2.44.57.75-.57 1.13-1.5.56-2.44-.56-.75-1.5-1.13-2.43-.57-.76.57-.94 1.51-.57 2.44zM1907.28 1053.44c.56.75 1.5 1.13 2.44.56.75-.56 1.12-1.5.56-2.44-.56-.75-1.5-1.12-2.44-.56-.75.56-.94 1.5-.56 2.44zM1881.56 950.432c.57.75 1.51 1.125 2.44.563.75-.563 1.13-1.501.57-2.44-.57-.75-1.5-1.125-2.44-.562-.75.562-1.13 1.501-.57 2.439zM1856.04 960.94c.56.75 1.5 1.125 2.44.562.75-.562 1.13-1.501.56-2.439-.56-.75-1.5-1.125-2.44-.563-.75.563-1.12 1.689-.56 2.44zM1916.29 1020.04c2.62.94 5.63-.37 6.56-3 .94-2.63-.37-5.63-3-6.57-2.63-.94-5.63.38-6.57 3-.94 2.63.38 5.63 3.01 6.57zM1876.12 1033.36c.94.38 1.88-.18 2.25-.94.38-.93-.19-1.87-.94-2.25-.93-.37-1.87.19-2.25.94-.37.94.19 1.88.94 2.25zM1903.71 934.109c.94.375 1.88-.188 2.25-.938.38-.938-.18-1.876-.94-2.252-.93-.375-1.87.188-2.25.939-.37.938 0 1.876.94 2.251zM1845.16 981.204c-.94.375-1.32 1.501-.94 2.251.37.938 1.5 1.314 2.25.938.94-.375 1.31-1.501.94-2.251-.38-.938-1.32-1.501-2.25-.938z" fill="#94D6EA"/><path opacity=".3" fill-rule="evenodd" clip-rule="evenodd" d="M1906.72 1053.25c-1.88.94-2.63 3-1.88 4.88.94 1.88 3 2.63 4.88 1.88 1.87-.94 2.63-3 1.87-4.88-.75-1.88-3-2.63-4.87-1.88zM1897.89 1036.36c-.37.19-.56.76-.37 1.13.19.38.75.56 1.12.38.38-.19.57-.75.38-1.13-.19-.38-.75-.56-1.13-.38zM1890.57 1054.38c-.37.19-.56.75-.37 1.12.19.38.75.57 1.12.38.38-.19.57-.75.38-1.13-.19-.37-.75-.56-1.13-.37zM1913.47 1036.37c-.94.37-1.31 1.5-.94 2.25.38.94 1.5 1.31 2.25.94.94-.38 1.32-1.51.94-2.26-.37-.93-1.31-1.31-2.25-.93z" fill="#94D6EA"/><path opacity=".3" d="M769.587 1016.29c.933 0 1.69.75 1.69 1.69 0 .93-.757 1.69-1.69 1.69-.932 0-1.689-.76-1.689-1.69 0-.94.757-1.69 1.689-1.69z" fill="#94D6EA"/><path opacity=".3" fill-rule="evenodd" clip-rule="evenodd" d="M432.335 1057.19c-.751-.75-1.877-.75-2.44 0-.751.75-.751 1.88 0 2.44.751.75 1.877.75 2.44 0 .751-.56.751-1.69 0-2.44zM502.714 1001.28c-.751-.75-1.877-.75-2.44 0-.751.75-.751 1.88 0 2.44.751.75 1.877.75 2.44 0s.563-1.88 0-2.44z" fill="#94D6EA"/><path opacity=".3" fill-rule="evenodd" clip-rule="evenodd" d="M112.727 868.065c0 3.002 2.439 5.253 5.255 5.253 3.002 0 5.254-2.439 5.254-5.253 0-2.815-2.439-5.254-5.254-5.254-2.816 0-5.255 2.439-5.255 5.254zM117.98 768.434c0 3.002 2.44 5.254 5.255 5.254s5.255-2.44 5.255-5.254c0-3.002-2.44-5.254-5.255-5.254s-5.255 2.252-5.255 5.254zM44.035 889.829a3.764 3.764 0 0 0 3.754 3.753 3.764 3.764 0 0 0 3.753-3.753 3.764 3.764 0 0 0-3.753-3.752 3.764 3.764 0 0 0-3.754 3.752z" fill="#4980A9"/><path opacity=".3" fill-rule="evenodd" clip-rule="evenodd" d="M195.68 833.917a3.764 3.764 0 0 0 3.753 3.753 3.764 3.764 0 0 0 3.754-3.753 3.764 3.764 0 0 0-3.754-3.752 3.763 3.763 0 0 0-3.753 3.752zM11.383 622.085a3.764 3.764 0 0 0 3.753 3.753 3.764 3.764 0 0 0 3.754-3.753 3.763 3.763 0 0 0-3.754-3.752c-2.252 0-3.753 1.688-3.753 3.752z" fill="#94D6EA"/><path opacity=".3" fill-rule="evenodd" clip-rule="evenodd" d="M8.379 780.068a3.764 3.764 0 0 0 3.753 3.752 3.764 3.764 0 0 0 3.754-3.752 3.764 3.764 0 0 0-3.754-3.753c-2.064.188-3.753 1.689-3.753 3.753z" fill="#4980A9"/><path opacity=".3" fill-rule="evenodd" clip-rule="evenodd" d="M223.828 790.199c0 1.501 1.314 2.815 2.815 2.815 1.502 0 2.815-1.314 2.815-2.815s-1.313-2.814-2.815-2.814c-1.689 0-2.815 1.313-2.815 2.814z" fill="#94D6EA"/><path opacity=".3" fill-rule="evenodd" clip-rule="evenodd" d="M106.344 847.425c0 .938.75 1.688 1.689 1.688.938 0 1.689-.75 1.689-1.688s-.751-1.689-1.689-1.689c-.939-.188-1.689.563-1.689 1.689z" fill="#4980A9"/><path opacity=".3" fill-rule="evenodd" clip-rule="evenodd" d="M207.312 832.227c0 .938.751 1.689 1.69 1.689.938 0 1.689-.751 1.689-1.689 0-.938-.751-1.688-1.689-1.688-.939-.188-1.69.563-1.69 1.688z" fill="#94D6EA"/><path opacity=".3" fill-rule="evenodd" clip-rule="evenodd" d="M205.625 873.317c0 .938.751 1.689 1.689 1.689.939 0 1.689-.751 1.689-1.689a1.68 1.68 0 0 0-1.689-1.688c-.938 0-1.689.75-1.689 1.688z" fill="#4980A9"/><path opacity=".3" fill-rule="evenodd" clip-rule="evenodd" d="M183.105 862.811c0 .938.751 1.689 1.69 1.689.938 0 1.689-.751 1.689-1.689 0-.938-.751-1.688-1.689-1.688-.939 0-1.69.75-1.69 1.688zM230.023 870.503c0 .938.751 1.688 1.69 1.688.938 0 1.689-.75 1.689-1.688s-.751-1.689-1.689-1.689c-.939 0-1.69.751-1.69 1.689z" fill="#94D6EA"/><path opacity=".3" fill-rule="evenodd" clip-rule="evenodd" d="M90.766 733.911c0 .938.75 1.689 1.689 1.689.938 0 1.689-.751 1.689-1.689 0-.938-.75-1.689-1.69-1.689-.938-.187-1.688.751-1.688 1.689zM176.535 834.855c0 .563.376.938.939.938s.938-.375.938-.938-.375-.938-.938-.938-.939.375-.939.938z" fill="#4980A9"/><path opacity=".3" fill-rule="evenodd" clip-rule="evenodd" d="M189.672 849.115c0 .562.375.938.938.938s.939-.376.939-.938c0-.563-.376-.939-.939-.939s-.938.376-.938.939zM183.105 820.595c0 .938.751 1.688 1.69 1.688.938 0 1.689-.75 1.689-1.688 0-.939-.751-1.689-1.689-1.689-.939 0-1.69.75-1.69 1.689zM230.023 608.577c0 .938.751 1.689 1.69 1.689.938 0 1.689-.751 1.689-1.689 0-.938-.751-1.689-1.689-1.689-.939 0-1.69.751-1.69 1.689zM197.555 725.468c0 .938.75 1.688 1.689 1.688.938 0 1.689-.75 1.689-1.688s-.751-1.689-1.689-1.689c-.939 0-1.689.751-1.689 1.689zM12.13 597.881c-2.065-2.064-5.443-2.064-7.507 0-2.065 2.064-2.065 5.441 0 7.505 2.064 2.064 5.442 2.064 7.506 0 2.065-2.064 2.065-5.441 0-7.505zM70.124 506.133c-.75-.751-1.877-.751-2.44 0-.75.75-.75 1.876 0 2.439.75.75 1.877.75 2.44 0 .75-.751.75-1.876 0-2.439zM93.769 600.32c-.751-.75-1.877-.75-2.44 0-.751.751-.751 1.877 0 2.439.75.751 1.877.751 2.44 0 .75-.562.75-1.688 0-2.439z" fill="#94D6EA"/><path opacity=".3" fill-rule="evenodd" clip-rule="evenodd" d="M35.404 817.03a.908.908 0 0 0-1.314 0 .907.907 0 0 0 0 1.314.908.908 0 0 0 1.314 0c.188-.376.188-.939 0-1.314z" fill="#4980A9"/><path opacity=".3" fill-rule="evenodd" clip-rule="evenodd" d="M52.67 647.041c-.75-.751-1.876-.751-2.439 0-.75.75-.75 1.876 0 2.439.75.751 1.877.751 2.44 0 .75-.563.75-1.689 0-2.439z" fill="#94D6EA"/><path opacity=".3" d="M20.765 587.563a3.753 3.753 0 1 1 .001 7.506 3.753 3.753 0 0 1 0-7.506zM10.443 558.855a1.689 1.689 0 1 1 0 3.378 1.689 1.689 0 0 1 0-3.378z" fill="#94D6EA"/><path opacity=".3" fill-rule="evenodd" clip-rule="evenodd" d="M36.154 574.429a.906.906 0 0 0-1.314 0 .906.906 0 0 0 0 1.313.908.908 0 0 0 1.314 0 .906.906 0 0 0 0-1.313zM16.822 573.679a.906.906 0 0 0-1.314 0 .906.906 0 0 0 0 1.313.908.908 0 0 0 1.314 0c.188-.375.188-.938 0-1.313zM41.596 589.062c-.75-.75-1.876-.75-2.44 0-.75.751-.75 1.877 0 2.44.752.75 1.877.75 2.44 0 .751-.563.751-1.689 0-2.44z" fill="#94D6EA"/><path opacity=".3" fill-rule="evenodd" clip-rule="evenodd" d="M409.441 615.331a3.764 3.764 0 0 0 3.754 3.753 3.764 3.764 0 0 0 3.753-3.753 3.764 3.764 0 0 0-3.753-3.752 3.764 3.764 0 0 0-3.754 3.752z" fill="#B5EAFF"/><path opacity=".3" fill-rule="evenodd" clip-rule="evenodd" d="M284.637 432.207c-2.064-2.064-5.442-2.064-7.507 0-2.064 2.064-2.064 5.441 0 7.505 2.065 2.064 5.443 2.064 7.507 0 2.065-2.064 2.065-5.441 0-7.505z" fill="#94D6EA"/><path opacity=".3" d="M324.234 564.108a3.753 3.753 0 1 1 0 7.505 3.753 3.753 0 0 1 0-7.505z" fill="#94D6EA"/><path opacity=".3" fill-rule="evenodd" clip-rule="evenodd" d="M396.302 498.253a.907.907 0 0 0-1.313 0 .905.905 0 0 0 0 1.313.907.907 0 0 0 1.313 0 .905.905 0 0 0 0-1.313z" fill="#94D6EA"/><path opacity=".3" d="M467.056 499.002a1.689 1.689 0 1 1 0 3.377 1.689 1.689 0 0 1 0-3.377z" fill="#94D6EA"/><path opacity=".3" fill-rule="evenodd" clip-rule="evenodd" d="M492.018 593.754c-.75-.751-1.876-.751-2.439 0-.751.75-.751 1.876 0 2.439.75.75 1.876.75 2.439 0 .563-.751.563-1.689 0-2.439z" fill="#94D6EA"/><path opacity=".3" d="M449.603 640.097a1.689 1.689 0 1 1 0 3.378 1.689 1.689 0 0 1 0-3.378zM418.824 580.807a3.753 3.753 0 1 1 0 7.505 3.753 3.753 0 0 1 0-7.505z" fill="#94D6EA"/><path opacity=".3" fill-rule="evenodd" clip-rule="evenodd" d="M386.546 561.107c-.751-.75-1.877-.75-2.44 0-.751.751-.751 1.877 0 2.439.751.751 1.877.751 2.44 0 .75-.75.75-1.688 0-2.439zM410.003 552.664c-.751-.751-1.877-.751-2.44 0-.751.75-.751 1.876 0 2.439.751.751 1.877.751 2.44 0 .563-.75.563-1.876 0-2.439zM434.4 567.862a.908.908 0 0 0-1.314 0 .908.908 0 0 0 0 1.314.908.908 0 0 0 1.314 0 .908.908 0 0 0 0-1.314zM414.884 567.11a.907.907 0 0 0-1.313 0 .906.906 0 0 0 0 1.314.907.907 0 0 0 1.313 0c.376-.563.376-1.126 0-1.314zM439.843 582.496c-.751-.751-1.877-.751-2.44 0-.751.75-.751 1.876 0 2.439.751.751 1.877.751 2.44 0 .563-.75.563-1.876 0-2.439z" fill="#94D6EA"/><path opacity=".3" fill-rule="evenodd" clip-rule="evenodd" d="M68.433 796.391c-.751-.751-1.877-.751-2.44 0-.751.75-.751 1.876 0 2.439.75.75 1.877.75 2.44 0 .563-.563.563-1.689 0-2.439z" fill="#4980A9"/><path opacity=".3" fill-rule="evenodd" clip-rule="evenodd" d="M247.477 1053.44c.187-1.69-1.126-3-2.628-3.19-1.689-.19-3.003 1.13-3.19 2.63-.188 1.69 1.126 3 2.627 3.19 1.501.37 3.003-.94 3.191-2.63zM66.368 1074.08c.187-1.13-.751-2.25-1.877-2.25-1.126-.19-2.252.75-2.252 1.87-.188 1.13.75 2.25 1.877 2.25 1.126.19 2.064-.75 2.252-1.87zM117.229 1070.89c0-.56-.376-.94-.939-1.13-.563 0-.938.38-1.126.94 0 .57.375.94.938 1.13.563 0 .939-.38 1.127-.94zM59.611 1074.45c0-.56-.375-.93-.938-1.12-.563 0-.939.37-1.126.94 0 .56.375.93.938 1.12.563 0 1.126-.37 1.126-.94zM62.615 1051.38c0-.57-.375-.94-.938-1.13-.563 0-.938.38-1.126.94 0 .56.375.94.938 1.12.563 0 1.126-.37 1.126-.93zM74.814 1058.51c0-.57-.375-.94-.938-1.13-.563 0-.938.37-1.126.94 0 .56.375.94.938 1.12.563 0 .939-.56 1.126-.93zM77.067 1074.45c0-.18-.187-.56-.375-.56s-.563.19-.563.38c0 .18.188.56.375.56.376.19.563 0 .563-.38zM14.946 1076.14c0-.18-.188-.56-.375-.56-.188 0-.563.19-.563.38 0 .18.188.56.375.56.188.19.563 0 .563-.38zM70.31 1065.82c0-.18-.188-.56-.376-.56s-.563.19-.563.38c0 .18.188.56.375.56.376.19.563-.19.563-.38zM27.146 1079.33c0-.56-.375-.94-.938-1.12-.563 0-.938.37-1.126.93 0 .57.375.94.938 1.13.751 0 1.127-.56 1.127-.94zM36.715 994.525c.188-1.125-.75-2.251-1.876-2.251-1.126-.188-2.252.75-2.252 1.876-.188 1.126.75 2.252 1.876 2.252 1.126.187 2.065-.751 2.252-1.877zM51.356 1057.94c.188-1.12-.75-2.25-1.877-2.25-1.126-.19-2.252.75-2.252 1.88-.188 1.12.75 2.25 1.877 2.25 1.126.19 2.064-.75 2.252-1.88zM2.748 1080.08c0-.56-.375-.93-.938-1.12-.563 0-.939.37-1.126.94 0 .56.375.93.938 1.12.75 0 1.126-.37 1.126-.94zM92.455 955.875c0-.563-.376-.939-.751-.939-.563 0-.938.376-.938.751 0 .563.375.938.75.938.376.188.751-.188.939-.75zM114.226 961.315c0-.938-.563-1.876-1.689-1.876-.938 0-1.877.563-1.877 1.689 0 .938.563 1.876 1.689 1.876.939 0 1.877-.751 1.877-1.689zM84.011 1042.18c0-.94-.563-1.87-1.689-1.87-.938 0-1.877.56-1.877 1.68 0 .94.563 1.88 1.69 1.88.938 0 1.876-.56 1.876-1.69zM172.218 1060.01c0-.94-.563-1.88-1.689-1.88-.938 0-1.877.56-1.877 1.69 0 .94.563 1.88 1.689 1.88.939 0 1.69-.76 1.877-1.69zM46.85 926.04c.188-2.814-1.877-5.441-4.88-5.628-2.815-.188-5.442 1.876-5.63 4.878-.188 2.814 1.877 5.441 4.88 5.629 2.815.187 5.442-2.064 5.63-4.879zM2.37 936.735c0-.938-.562-1.876-1.689-1.876-.938 0-1.876.563-1.876 1.689 0 .938.563 1.876 1.689 1.876.938 0 1.877-.751 1.877-1.689zM71.062 962.628c0-.938-.563-1.877-1.69-1.877-.938 0-1.876.563-1.876 1.689 0 .938.563 1.876 1.69 1.876.938 0 1.688-.75 1.876-1.688zM61.865 979.328c0-.563-.376-.938-.75-.938-.564 0-.94.375-.94.75 0 .563.376.938.752.938.375.188.75-.187.938-.75zM58.673 950.621c0-.563-.375-.939-.75-.939-.563 0-.939.376-.939.751 0 .563.376.938.751.938s.75-.375.938-.75zM11.755 944.617c0-.563-.375-.938-.75-.938-.563 0-.939.375-.939.75 0 .563.376.938.751.938s.938-.375.938-.75zM33.902 968.632c0-.938-.563-1.877-1.69-1.877-.938 0-1.876.563-1.876 1.689 0 .938.563 1.876 1.689 1.876.938 0 1.877-.75 1.877-1.688zM17.574 951.934c0-.938-.563-1.876-1.69-1.876-.938 0-1.876.563-1.876 1.689 0 .938.563 1.876 1.689 1.876.938 0 1.877-.75 1.877-1.689z" fill="#94D6EA"/></g><path fill-rule="evenodd" clip-rule="evenodd" d="M371.906 88.099a3.764 3.764 0 0 0 3.754 3.753 3.764 3.764 0 0 0 3.753-3.753 3.764 3.764 0 0 0-3.753-3.753 3.764 3.764 0 0 0-3.754 3.753zM368.152 814.966a3.764 3.764 0 0 0 3.754 3.753 3.764 3.764 0 0 0 3.753-3.753 3.763 3.763 0 0 0-3.753-3.752 3.764 3.764 0 0 0-3.754 3.752zM352.762 482.302a3.764 3.764 0 0 0 3.753 3.753 3.764 3.764 0 0 0 3.754-3.753 3.764 3.764 0 0 0-3.754-3.752c-2.064.187-3.753 1.876-3.753 3.752zM1729.55 833.915a3.764 3.764 0 0 0 3.75 3.753c2.06 0 3.75-1.689 3.75-3.753a3.764 3.764 0 0 0-3.75-3.752 3.764 3.764 0 0 0-3.75 3.752zM1530.24 479.49a3.763 3.763 0 0 0 3.75 3.752c2.07 0 3.76-1.688 3.76-3.752a3.766 3.766 0 0 0-3.76-3.753c-2.25.188-3.75 1.876-3.75 3.753zM842.406 442.339a3.764 3.764 0 0 0 3.754 3.753 3.764 3.764 0 0 0 3.753-3.753 3.763 3.763 0 0 0-3.753-3.752c-2.065.187-3.754 1.688-3.754 3.752zM817.82 853.617a3.764 3.764 0 0 0 3.754 3.752 3.764 3.764 0 0 0 3.753-3.752 3.764 3.764 0 0 0-3.753-3.753c-2.252 0-3.754 1.689-3.754 3.753zM1358.14 1067.89c0 2.06 1.69 3.75 3.75 3.75s3.75-1.69 3.75-3.75c0-2.07-1.69-3.76-3.75-3.76s-3.75 1.69-3.75 3.76z" fill="#F1A8CA" fill-opacity=".26"/><path d="M314.476 345.147a3.754 3.754 0 1 1 .001 7.507 3.754 3.754 0 0 1-.001-7.507z" fill="#F1A8CA" fill-opacity=".26"/><path fill-rule="evenodd" clip-rule="evenodd" d="M1812.5 1.603a3.764 3.764 0 0 0 3.75 3.753c2.07 0 3.76-1.689 3.76-3.753a3.766 3.766 0 0 0-3.76-3.752 3.764 3.764 0 0 0-3.75 3.752zM1846.66 124.124a3.764 3.764 0 0 0 3.75 3.753c2.06 0 3.75-1.689 3.75-3.753a3.763 3.763 0 0 0-3.75-3.752 3.763 3.763 0 0 0-3.75 3.752zM1365.46 147.203a3.764 3.764 0 0 0 3.75 3.752c2.06 0 3.75-1.689 3.75-3.752a3.764 3.764 0 0 0-3.75-3.753c-2.06.188-3.75 1.876-3.75 3.753z" fill="#F1A8CA" fill-opacity=".26"/></g><circle cx="179.5" cy="967.5" r="82.5" fill="url(#e)"/><circle cx="1854.5" cy="327.5" r="123.5" fill="url(#f)"/><circle cx="162" cy="102" r="28" fill="url(#g)"/><circle cx="53.5" cy="15.5" r="83.5" fill="url(#h)"/><defs><linearGradient id="b" x1="-147.223" y1="132" x2="1926.05" y2="1483.91" gradientUnits="userSpaceOnUse"><stop stop-color="#F1A8CA"/><stop offset=".307" stop-color="#5C519A"/><stop offset=".599" stop-color="#5B60A2"/><stop offset=".953" stop-color="#53BBD1"/></linearGradient><linearGradient id="c" x1="66" y1="185.5" x2="2146.82" y2="831.649" gradientUnits="userSpaceOnUse"><stop stop-color="#F1A8CA"/><stop offset=".458" stop-color="#5C519A"/><stop offset="1" stop-color="#53BBD1"/></linearGradient><linearGradient id="e" x1="179.834" y1="910.051" x2="179.834" y2="1074.05" gradientUnits="userSpaceOnUse"><stop stop-color="#7F6BB1" stop-opacity=".69"/><stop offset="1" stop-color="#5B5597" stop-opacity=".08"/></linearGradient><linearGradient id="f" x1="1855" y1="241.5" x2="1855" y2="440.5" gradientUnits="userSpaceOnUse"><stop stop-color="#5694BD" stop-opacity=".11"/><stop offset="1" stop-color="#509BBD"/></linearGradient><linearGradient id="g" x1="162" y1="99" x2="162.168" y2="141.904" gradientUnits="userSpaceOnUse"><stop offset=".021" stop-color="#DA9BC3" stop-opacity=".27"/><stop offset="1" stop-color="#FDB1D4"/></linearGradient><linearGradient id="h" x1="57" y1="-65" x2="54" y2="134.5" gradientUnits="userSpaceOnUse"><stop offset=".021" stop-color="#E8A3C7"/><stop offset="1" stop-color="#FDB1D4"/></linearGradient><filter id="a" x="-357" y="-160" width="2651" height="1400" filterUnits="userSpaceOnUse" color-interpolation-filters="sRGB"><feFlood flood-opacity="0" result="BackgroundImageFix"/><feBlend in="SourceGraphic" in2="BackgroundImageFix" result="shape"/><feGaussianBlur stdDeviation="80" result="effect1_foregroundBlur_36_80432"/></filter></defs></svg>