<svg width="1920" height="1467" fill="none" xmlns="http://www.w3.org/2000/svg"><g filter="url(#a)"><path fill="url(#b)" d="M-325 200h2544v1067H-325z"/></g><mask id="d" style="mask-type:alpha" maskUnits="userSpaceOnUse" x="0" y="346" width="1920" height="743"><path fill="url(#c)" d="M0 346h1920v743H0z"/></mask><g mask="url(#d)"><g opacity=".3"><path opacity=".3" d="M1099.13 586.92c2.3 0 4.17 1.864 4.17 4.163a4.169 4.169 0 0 1-4.17 4.163 4.16 4.16 0 0 1-4.16-4.163 4.16 4.16 0 0 1 4.16-4.163z" fill="#FDEFFB"/><path opacity=".3" fill-rule="evenodd" clip-rule="evenodd" d="M1236.71 368.585a4.145 4.145 0 0 0 4.16 4.163c2.31 0 4.17-1.85 4.17-4.163a4.153 4.153 0 0 0-4.17-4.163c-2.31 0-4.16 1.85-4.16 4.163z" fill="#F2EFFB"/><path opacity=".3" d="M1403.28 508.127a4.16 4.16 0 0 1 4.16 4.163 4.16 4.16 0 0 1-4.16 4.163c-2.3 0-4.17-1.864-4.17-4.163a4.169 4.169 0 0 1 4.17-4.163z" fill="#F2EFFB"/><path opacity=".3" fill-rule="evenodd" clip-rule="evenodd" d="M1584.19 357.02a4.148 4.148 0 0 0 4.17 4.164c2.31 0 4.16-1.851 4.16-4.164a4.145 4.145 0 0 0-4.16-4.163c-2.16 0-4.17 1.851-4.17 4.163zM1568.46 487.929a4.148 4.148 0 0 0 4.17 4.163c2.31 0 4.16-1.851 4.16-4.163a4.145 4.145 0 0 0-4.16-4.163c-2.32 0-4.17 1.85-4.17 4.163z" fill="#F2EFFB"/><path opacity=".3" d="M1103.3 508.127a4.16 4.16 0 0 1 4.16 4.163 4.16 4.16 0 0 1-4.16 4.163c-2.3 0-4.17-1.864-4.17-4.163a4.169 4.169 0 0 1 4.17-4.163z" fill="#FDEFFB"/><path opacity=".3" fill-rule="evenodd" clip-rule="evenodd" d="M1403.28 438.895a4.145 4.145 0 0 0 4.16 4.163c2.31 0 4.17-1.85 4.17-4.163a4.153 4.153 0 0 0-4.17-4.163c-2.31 0-4.16 1.85-4.16 4.163zM1040.68 608.197c0 1.696 1.39 2.93 2.93 2.93 1.7 0 2.93-1.388 2.93-2.93 0-1.696-1.39-2.929-2.93-2.929-1.54 0-2.93 1.387-2.93 2.929zM1446.62 512.291c0 1.696 1.39 2.93 2.93 2.93 1.69 0 2.93-1.388 2.93-2.93 0-1.696-1.39-2.93-2.93-2.93-1.7 0-2.93 1.388-2.93 2.93z" fill="#F2EFFB"/><path opacity=".3" fill-rule="evenodd" clip-rule="evenodd" d="M1160.52 564.098c0 1.696 1.38 2.929 2.93 2.929 1.69 0 2.93-1.387 2.93-2.929 0-1.696-1.39-2.93-2.93-2.93-1.7 0-2.93 1.388-2.93 2.93z" fill="#EBCBF8"/><path opacity=".3" fill-rule="evenodd" clip-rule="evenodd" d="M1014.92 396.801c0 1.696 1.39 2.929 2.93 2.929 1.7 0 2.93-1.387 2.93-2.929 0-1.696-1.39-2.93-2.93-2.93-1.69 0-2.93 1.234-2.93 2.93zM1012.61 521.695c0 1.696 1.39 2.93 2.93 2.93 1.7 0 2.93-1.388 2.93-2.93 0-1.696-1.39-2.929-2.93-2.929-1.54 0-2.93 1.233-2.93 2.929z" fill="#F2EFFB"/><path opacity=".3" fill-rule="evenodd" clip-rule="evenodd" d="M1182.73 529.56c0 1.233.92 2.159 2.16 2.159 1.23 0 2.15-.926 2.15-2.159 0-1.234-.92-2.159-2.15-2.159-1.24 0-2.16.925-2.16 2.159z" fill="#EBCBF8"/><path opacity=".3" fill-rule="evenodd" clip-rule="evenodd" d="M1327.86 497.642c0 1.234.92 2.159 2.16 2.159 1.23 0 2.16-.925 2.16-2.159 0-1.233-.93-2.159-2.16-2.159-1.24 0-2.16.926-2.16 2.159zM1520.95 560.707c0 1.233.93 2.158 2.16 2.158 1.24 0 2.16-.925 2.16-2.158 0-1.234-.92-2.159-2.16-2.159-1.08 0-2.16.925-2.16 2.159zM1520.95 511.056c0 1.234.93 2.159 2.16 2.159 1.24 0 2.16-.925 2.16-2.159 0-1.233-.92-2.158-2.16-2.158-1.08 0-2.16.925-2.16 2.158zM1480.7 384.003c0 1.234.92 2.159 2.16 2.159 1.23 0 2.16-.925 2.16-2.159 0-1.233-.93-2.158-2.16-2.158-1.24 0-2.16 1.079-2.16 2.158zM1089.88 574.737c0 .771.62 1.388 1.39 1.388.77 0 1.39-.617 1.39-1.388 0-.771-.62-1.387-1.39-1.387-.62 0-1.39.616-1.39 1.387z" fill="#F2EFFB"/><path opacity=".3" fill-rule="evenodd" clip-rule="evenodd" d="M1169.77 562.71c0 .771.62 1.388 1.39 1.388.77 0 1.39-.617 1.39-1.388 0-.771-.62-1.388-1.39-1.388-.77 0-1.39.617-1.39 1.388zM1168.38 595.245c0 .771.62 1.388 1.39 1.388.77 0 1.39-.617 1.39-1.388 0-.771-.62-1.388-1.39-1.388-.77 0-1.39.617-1.39 1.388zM1150.49 586.919c0 .771.62 1.388 1.39 1.388.77 0 1.39-.617 1.39-1.388 0-.771-.62-1.388-1.39-1.388-.77 0-1.39.617-1.39 1.388zM1187.66 593.087c0 .771.62 1.388 1.39 1.388.77 0 1.39-.617 1.39-1.388 0-.771-.62-1.388-1.39-1.388-.77 0-1.39.617-1.39 1.388z" fill="#EBCBF8"/><path opacity=".3" fill-rule="evenodd" clip-rule="evenodd" d="M1593.6 729.7c0 .771.61 1.388 1.39 1.388.77 0 1.38-.617 1.38-1.388 0-.771-.61-1.388-1.38-1.388-.78 0-1.39.617-1.39 1.388zM1077.7 485.153c0 .771.61 1.388 1.38 1.388.77 0 1.39-.617 1.39-1.388 0-.771-.62-1.387-1.39-1.387-.77 0-1.38.616-1.38 1.387zM1145.4 564.87c0 .308.31.771.77.771.31 0 .77-.309.77-.771 0-.309-.3-.771-.77-.771-.46 0-.77.308-.77.771zM1326.01 809.88c0 .462.46.925.92.925.47 0 .93-.463.93-.925 0-.463-.46-.926-.93-.926-.46.155-.92.463-.92.926zM1311.82 565.487c0 .308.31.771.77.771.31 0 .77-.309.77-.771 0-.463-.31-.771-.77-.771-.46.154-.77.462-.77.771zM1469.29 555.772c0 .308.31.771.77.771.31 0 .77-.308.77-.771 0-.308-.31-.771-.77-.771s-.77.309-.77.771zM1231.77 555.001c0 .308.31.77.77.77.31 0 .77-.308.77-.77 0-.309-.31-.771-.77-.771-.46.154-.77.462-.77.771zM1329.25 561.323c0 .308.3.771.77.771.31 0 .77-.309.77-.771 0-.309-.31-.771-.77-.771-.47.154-.77.462-.77.771zM1567.69 565.024c0 .308.31.771.77.771.31 0 .77-.308.77-.771 0-.308-.31-.771-.77-.771s-.77.308-.77.771zM1592.83 562.709c0 .309.31.771.77.771.31 0 .77-.308.77-.771 0-.308-.31-.77-.77-.77-.46.154-.77.462-.77.77z" fill="#F2EFFB"/><path opacity=".3" d="M1156.51 575.355c.42 0 .77.345.77.771a.776.776 0 0 1-1.55 0c0-.426.35-.771.78-.771z" fill="#EBCBF8"/><path opacity=".3" fill-rule="evenodd" clip-rule="evenodd" d="M1287.3 576.897c0 .308.31.771.77.771.31 0 .77-.308.77-.771 0-.308-.31-.771-.77-.771s-.77.308-.77.771zM1469.91 578.901c0 .308.3.771.77.771.31 0 .77-.309.77-.771 0-.308-.31-.771-.77-.771-.47 0-.77.308-.77.771z" fill="#F2EFFB"/><path opacity=".3" fill-rule="evenodd" clip-rule="evenodd" d="M1150.49 553.614c0 .771.62 1.388 1.39 1.388.77 0 1.39-.617 1.39-1.388 0-.771-.62-1.388-1.39-1.388-.77 0-1.39.617-1.39 1.388zM1214.34 552.225c0 .771.62 1.388 1.39 1.388.77 0 1.39-.617 1.39-1.388 0-.77-.62-1.387-1.39-1.387-.77 0-1.39.617-1.39 1.387z" fill="#EBCBF8"/><path opacity=".3" fill-rule="evenodd" clip-rule="evenodd" d="M1477.93 493.48c0 .77.61 1.387 1.38 1.387.78 0 1.39-.617 1.39-1.387 0-.771-.61-1.388-1.39-1.388-.77 0-1.38.617-1.38 1.388zM1187.66 386.161c0 .771.62 1.388 1.39 1.388.77 0 1.39-.617 1.39-1.388 0-.771-.62-1.388-1.39-1.388-.77 0-1.39.771-1.39 1.388zM1260.3 599.101c0 .771.62 1.387 1.39 1.387.77 0 1.39-.616 1.39-1.387s-.62-1.388-1.39-1.388c-.77 0-1.39.617-1.39 1.388zM1485.02 492.091c0 .771.62 1.388 1.39 1.388.77 0 1.39-.617 1.39-1.388 0-.771-.62-1.388-1.39-1.388-.77 0-1.39.617-1.39 1.388zM1508 411.45c0 .771.62 1.388 1.39 1.388.77 0 1.39-.617 1.39-1.388 0-.771-.62-1.388-1.39-1.388-.77 0-1.39.617-1.39 1.388zM1479.78 723.532c0 .771.61 1.388 1.39 1.388.77 0 1.38-.617 1.38-1.388 0-.771-.61-1.387-1.38-1.387-.78 0-1.39.616-1.39 1.387zM1561.05 412.837c0 .771.62 1.388 1.39 1.388.77 0 1.39-.617 1.39-1.388 0-.771-.62-1.388-1.39-1.388-.77 0-1.39.617-1.39 1.388zM1525.43 503.81c0 .771.62 1.387 1.39 1.387.77 0 1.39-.616 1.39-1.387s-.62-1.388-1.39-1.388c-.77 0-1.39.617-1.39 1.388zM1812.14 648.749c0 .771.62 1.388 1.39 1.388.77 0 1.39-.617 1.39-1.388 0-.771-.62-1.388-1.39-1.388-.77 0-1.39.617-1.39 1.388zM1562.44 408.675c0 .771.62 1.387 1.39 1.387.77 0 1.39-.616 1.39-1.387s-.62-1.388-1.39-1.388c-.77 0-1.39.617-1.39 1.388zM1486.41 408.675c0 .771.61 1.387 1.38 1.387.78 0 1.39-.616 1.39-1.387s-.61-1.388-1.39-1.388c-.77 0-1.38.617-1.38 1.388zM1363.33 352.856c0 .771.62 1.388 1.39 1.388.77 0 1.39-.617 1.39-1.388 0-.771-.62-1.387-1.39-1.387-.77 0-1.39.616-1.39 1.387zM1232.54 486.54c0 .771.62 1.388 1.39 1.388.77 0 1.39-.617 1.39-1.388 0-.771-.62-1.388-1.39-1.388-.77 0-1.39.617-1.39 1.388zM1463.27 390.48c0 .771.62 1.387 1.39 1.387.77 0 1.39-.616 1.39-1.387s-.62-1.388-1.39-1.388c-.62 0-1.39.617-1.39 1.388zM1596.38 364.421c0 .771.61 1.388 1.38 1.388.77 0 1.39-.617 1.39-1.388 0-.771-.62-1.388-1.39-1.388-.77 0-1.38.617-1.38 1.388zM1257.38 422.706c0 .771.61 1.388 1.38 1.388.77 0 1.39-.617 1.39-1.388 0-.771-.62-1.388-1.39-1.388-.77 0-1.38.617-1.38 1.388zM1162.06 478.522c0 .771.62 1.388 1.39 1.388.77 0 1.38-.617 1.38-1.388 0-.771-.61-1.387-1.38-1.387-.77 0-1.39.616-1.39 1.387zM162.025 545.75a2.421 2.421 0 0 0-3.393 0 2.418 2.418 0 0 0 0 3.392 2.421 2.421 0 0 0 3.393 0 2.42 2.42 0 0 0 0-3.392zM1015.54 377.681c-1.7-1.696-4.32-1.696-5.86 0-1.7 1.696-1.7 4.318 0 5.859 1.7 1.697 4.32 1.697 5.86 0 1.7-1.541 1.7-4.163 0-5.859zM895.086 425.019c-1.696-1.696-4.318-1.696-5.86 0-1.697 1.696-1.697 4.317 0 5.859 1.696 1.696 4.318 1.696 5.86 0 1.697-1.696 1.697-4.317 0-5.859zM145.985 584.145c-.617-.617-1.696-.617-2.468 0-.617.616-.617 1.696 0 2.467.617.616 1.697.616 2.468 0 .771-.617.771-1.696 0-2.467zM949.685 357.174c-1.08-1.08-3.085-1.08-4.164 0-1.08 1.079-1.08 3.084 0 4.163 1.079 1.079 3.084 1.079 4.164 0 1.234-1.079 1.234-2.93 0-4.163zM151.229 607.734c-.463-.462-1.234-.462-1.851 0-.462.463-.462 1.234 0 1.851.463.462 1.234.462 1.851 0 .463-.463.463-1.388 0-1.851zM170.971 550.529a.746.746 0 0 0-1.079 0 .745.745 0 0 0 0 1.08.746.746 0 0 0 1.079 0 .745.745 0 0 0 0-1.08zM142.748 588.615a.746.746 0 0 0-1.079 0 .745.745 0 0 0 0 1.08.746.746 0 0 0 1.079 0 .745.745 0 0 0 0-1.08zM129.791 574.43a.744.744 0 0 0-1.079 0 .744.744 0 0 0 0 1.079.746.746 0 0 0 1.079 0c.309-.154.309-.771 0-1.079zM140.745 570.574a.747.747 0 0 0-1.08 0 .744.744 0 0 0 0 1.079.745.745 0 0 0 1.08 0 .746.746 0 0 0 0-1.079zM929.636 429.027c-.617-.617-1.388-.617-2.005 0s-.617 1.388 0 2.005c.617.616 1.388.616 2.005 0 .462-.617.462-1.542 0-2.005zM152.002 577.668a.47.47 0 0 0-.617 0 .47.47 0 0 0 0 .617.47.47 0 0 0 .617 0c.154-.309.154-.463 0-.617z" fill="#F2EFFB"/><path opacity=".3" d="M119.924 617.448a.462.462 0 1 1 0 .924.462.462 0 0 1 0-.924zM142.748 577.051a.464.464 0 1 1-.002.928.464.464 0 0 1 .002-.928z" fill="#F2EFFB"/><path opacity=".3" fill-rule="evenodd" clip-rule="evenodd" d="M154.471 584.453a.746.746 0 0 0-1.079 0 .744.744 0 0 0 0 1.079.744.744 0 0 0 1.079 0 .744.744 0 0 0 0-1.079zM128.561 611.435a.747.747 0 0 0-1.08 0 .747.747 0 0 0 0 1.08.747.747 0 0 0 1.08 0c.308-.154.308-.771 0-1.08zM148.299 736.021a.746.746 0 0 0-1.079 0 .745.745 0 0 0 0 1.08.746.746 0 0 0 1.079 0c.309-.154.309-.771 0-1.08zM874.573 493.326c-.617-.617-1.388-.617-2.005 0s-.617 1.388 0 2.004c.617.617 1.388.617 2.005 0 .617-.616.617-1.387 0-2.004zM64.86 590.31a2.421 2.421 0 0 0-3.392 0 2.42 2.42 0 0 0 0 3.393 2.421 2.421 0 0 0 3.393 0c1.08-.771 1.08-2.467 0-3.393zM15.353 554.847a2.421 2.421 0 0 0-3.393 0 2.42 2.42 0 0 0 0 3.393 2.421 2.421 0 0 0 3.393 0c.925-.771.925-2.313 0-3.393zM95.86 714.59a2.421 2.421 0 0 0-3.392 0 2.42 2.42 0 0 0 0 3.392 2.421 2.421 0 0 0 3.392 0c1.08-.925 1.08-2.467 0-3.392zM110.048 685.601a2.421 2.421 0 0 0-3.393 0 2.421 2.421 0 0 0 0 3.393 2.421 2.421 0 0 0 3.393 0c.925-.771.925-2.467 0-3.393zM88.306 740.031a2.421 2.421 0 0 0-3.393 0 2.42 2.42 0 0 0 0 3.392 2.421 2.421 0 0 0 3.393 0 2.42 2.42 0 0 0 0-3.392zM36.173 675.271a2.421 2.421 0 0 0-3.393 0 2.42 2.42 0 0 0 0 3.393 2.421 2.421 0 0 0 3.393 0c.925-.771.925-2.313 0-3.393zM80.438 560.707c-.617-.617-1.696-.617-2.468 0-.616.617-.616 1.696 0 2.467.617.617 1.697.617 2.468 0 .617-.771.617-1.85 0-2.467zM48.973 718.443c-.617-.616-1.696-.616-2.467 0-.617.617-.617 1.697 0 2.467.617.617 1.696.617 2.467 0 .617-.616.617-1.696 0-2.467zM127.942 585.068c-.617-.616-1.696-.616-2.468 0-.617.617-.617 1.697 0 2.467.617.617 1.697.617 2.468 0 .771-.77.771-1.85 0-2.467zM54.065 742.035c-.463-.462-1.234-.462-1.85 0-.464.463-.464 1.234 0 1.85.462.463 1.233.463 1.85 0 .463-.462.463-1.233 0-1.85zM43.885 767.014c-.462-.463-1.234-.463-1.85 0-.463.462-.463 1.233 0 1.85.462.463 1.233.463 1.85 0 .463-.617.463-1.388 0-1.85zM92.624 734.481c-.463-.463-1.234-.463-1.851 0-.463.462-.463 1.233 0 1.85.463.462 1.234.462 1.85 0 .463-.617.463-1.388 0-1.85z" fill="#F2EFFB"/><path opacity=".3" d="M165.574 780.892a1.235 1.235 0 1 1-.001 2.47 1.235 1.235 0 0 1 .001-2.47z" fill="#F2EFFB"/><path opacity=".3" fill-rule="evenodd" clip-rule="evenodd" d="M73.807 595.092a.745.745 0 0 0-1.08 0 .745.745 0 0 0 0 1.079.746.746 0 0 0 1.08 0 .745.745 0 0 0 0-1.079zM45.737 722.916a.746.746 0 0 0-1.08 0 .745.745 0 0 0 0 1.079.745.745 0 0 0 1.08 0 .745.745 0 0 0 0-1.079zM86.452 733.555a.745.745 0 0 0-1.08 0 .745.745 0 0 0 0 1.079.746.746 0 0 0 1.08 0 .745.745 0 0 0 0-1.079zM32.78 619.144a.746.746 0 0 0-1.08 0 .746.746 0 0 0 0 1.08.746.746 0 0 0 1.08 0 .746.746 0 0 0 0-1.08zM918.378 389.555c-.617-.617-1.388-.617-2.005 0-.617.616-.617 1.387 0 2.004s1.388.617 2.005 0c.462-.617.462-1.542 0-2.004z" fill="#F2EFFB"/><path opacity=".3" d="M42.959 614.982a.77.77 0 1 1 0 1.541.77.77 0 0 1 0-1.541zM115.603 716.747a.77.77 0 1 1 0 1.542.77.77 0 0 1 0-1.542z" fill="#F2EFFB"/><path opacity=".3" fill-rule="evenodd" clip-rule="evenodd" d="M1080.01 379.685c-.62-.616-1.39-.616-2.01 0-.62.617-.62 1.388 0 2.005s1.39.617 2.01 0c.46-.617.46-1.388 0-2.005z" fill="#F2EFFB"/><path opacity=".3" d="M54.681 622.075a.462.462 0 1 1 .001.925.462.462 0 0 1 0-.925zM118.994 725.075a.463.463 0 1 1 0 .926.463.463 0 0 1 0-.926z" fill="#F2EFFB"/><path opacity=".3" fill-rule="evenodd" clip-rule="evenodd" d="M108.201 717.672c-.154-.154-.462-.154-.617 0-.154.154-.154.462 0 .617.155.154.463.154.617 0 .155-.155.155-.463 0-.617z" fill="#F2EFFB"/><path opacity=".3" d="M875.806 383.231a.771.771 0 1 1 0 1.543.771.771 0 0 1 0-1.543zM22.756 751.749a.462.462 0 1 1 0 .925.462.462 0 0 1 0-.925zM22.447 780.428a.463.463 0 1 1 0 .925.463.463 0 0 1 0-.925zM1033.43 550.53c.43 0 .77.346.77.771 0 .426-.34.771-.77.771a.774.774 0 0 1-.77-.771c0-.425.35-.771.77-.771z" fill="#F2EFFB"/><path opacity=".3" fill-rule="evenodd" clip-rule="evenodd" d="M38.178 780.893a.467.467 0 0 0-.617 0 .468.468 0 0 0 0 .616.467.467 0 0 0 .617 0 .468.468 0 0 0 0-.616z" fill="#F2EFFB"/><path opacity=".3" d="M38.334 775.341a.462.462 0 1 1 0 .925.462.462 0 0 1 0-.925zM89.076 738.489a.462.462 0 1 1 0 .925.462.462 0 0 1 0-.925z" fill="#F2EFFB"/><path opacity=".3" fill-rule="evenodd" clip-rule="evenodd" d="M45.889 621.92a.47.47 0 0 0-.617 0 .47.47 0 0 0 0 .617.47.47 0 0 0 .617 0c.154-.309.154-.463 0-.617zM92.006 732.629a.47.47 0 0 0-.617 0c-.154.154-.154.462 0 .617a.47.47 0 0 0 .617 0c.154-.309.154-.463 0-.617zM57.456 718.752a.745.745 0 0 0-1.08 0 .745.745 0 0 0 0 1.079.745.745 0 0 0 1.08 0 .745.745 0 0 0 0-1.079zM107.272 731.859a.747.747 0 0 0-1.08 0 .747.747 0 0 0 0 1.08.747.747 0 0 0 1.08 0 .747.747 0 0 0 0-1.08zM96.479 732.629a.745.745 0 0 0-1.08 0 .745.745 0 0 0 0 1.079.745.745 0 0 0 1.08 0c.308-.154.308-.771 0-1.079zM1047.62 416.537c-.61-.617-1.38-.617-2 0-.62.617-.62 1.388 0 2.004.62.617 1.39.617 2 0 .47-.462.47-1.387 0-2.004z" fill="#F2EFFB"/><path opacity=".3" d="M1022.33 369.51a2.929 2.929 0 1 1 0 5.859 2.929 2.929 0 1 1 0-5.859z" fill="#F2EFFB"/><path opacity=".3" fill-rule="evenodd" clip-rule="evenodd" d="M996.725 353.935c-.616-.616-1.388-.616-2.005 0-.616.617-.616 1.388 0 2.005.617.617 1.389.617 2.005 0 .617-.617.617-1.542 0-2.005zM1015.23 347.152c-.61-.617-1.38-.617-2 0-.62.617-.62 1.388 0 2.005.62.616 1.39.616 2 0 .62-.463.62-1.388 0-2.005z" fill="#F2EFFB"/><path opacity=".3" d="M1034.05 359.024c.42 0 .77.346.77.771 0 .426-.35.771-.77.771a.767.767 0 0 1-.77-.771c0-.425.34-.771.77-.771z" fill="#F2EFFB"/><path opacity=".3" fill-rule="evenodd" clip-rule="evenodd" d="M1019.24 358.562c-.31-.308-.77-.308-.92 0-.31.309-.31.771 0 .925.31.309.77.309.92 0 .16-.154.16-.616 0-.925zM1038.83 370.744c-.62-.617-1.39-.617-2 0-.62.617-.62 1.388 0 2.004.61.617 1.38.617 2 0 .62-.462.62-1.387 0-2.004zM31.545 745.736a.746.746 0 0 0-1.08 0 .746.746 0 0 0 0 1.08.746.746 0 0 0 1.08 0c.309-.155.309-.771 0-1.08zM66.249 774.877a.746.746 0 0 0-1.08 0 .745.745 0 0 0 0 1.079.745.745 0 0 0 1.08 0c.308-.154.308-.771 0-1.079z" fill="#F2EFFB"/><path opacity=".3" d="M948.606 534.186a2.93 2.93 0 1 1-2.93 2.929 2.93 2.93 0 0 1 2.93-2.929z" fill="#F2EFFB"/><path opacity=".3" fill-rule="evenodd" clip-rule="evenodd" d="M946.755 445.217c-1.079-1.079-3.084-1.079-4.164 0-1.08 1.079-1.08 3.084 0 4.163 1.08 1.079 3.085 1.079 4.164 0 1.234-1.079 1.234-2.93 0-4.163z" fill="#F2EFFB"/><path opacity=".3" d="M1449.55 540.199c1.62 0 2.93 1.312 2.93 2.93s-1.31 2.93-2.93 2.93a2.929 2.929 0 0 1-2.93-2.93c0-1.618 1.31-2.93 2.93-2.93zM958.015 574.583a2.16 2.16 0 1 1-.001 4.319 2.16 2.16 0 0 1 .001-4.319z" fill="#F2EFFB"/><path opacity=".3" fill-rule="evenodd" clip-rule="evenodd" d="M945.21 542.512c-.617-.617-1.388-.617-2.005 0-.617.616-.617 1.387 0 2.004s1.388.617 2.005 0c.463-.617.463-1.388 0-2.004zM923.155 518.459c-.617-.617-1.388-.617-2.005 0-.617.616-.617 1.387 0 2.004s1.388.617 2.005 0c.463-.462.463-1.388 0-2.004zM897.397 435.812c-.617-.616-1.388-.616-2.005 0-.617.617-.617 1.388 0 2.005.617.616 1.388.616 2.005 0 .463-.617.463-1.542 0-2.005zM941.663 511.828c-.617-.617-1.388-.617-2.005 0s-.617 1.388 0 2.004c.617.617 1.388.617 2.005 0 .463-.616.463-1.542 0-2.004zM960.942 523.855c-.309-.308-.771-.308-.926 0-.308.309-.308.771 0 .925.309.309.772.309.926 0 .308-.154.308-.616 0-.925zM987.469 580.906c-.308-.308-.771-.308-.925 0-.309.308-.309.771 0 .925.308.309.771.309.925 0 .309-.154.309-.617 0-.925zM906.657 591.853c-.309-.308-.771-.308-.926 0-.308.309-.308.771 0 .925.309.309.772.309.926 0 .308-.154.308-.616 0-.925z" fill="#F2EFFB"/><path opacity=".3" d="M945.056 522.931a.77.77 0 1 1 0 1.542.77.77 0 0 1 0-1.542z" fill="#F2EFFB"/><path opacity=".3" fill-rule="evenodd" clip-rule="evenodd" d="M965.261 535.42c-.617-.617-1.388-.617-2.005 0-.617.616-.617 1.387 0 2.004s1.388.617 2.005 0c.462-.617.462-1.542 0-2.004zM1059.96 534.494c-.62-.617-1.39-.617-2.01 0-.61.617-.61 1.388 0 2.004.62.617 1.39.617 2.01 0 .62-.462.62-1.387 0-2.004zM921.151 581.369c-.617-.617-1.388-.617-2.005 0s-.617 1.388 0 2.004c.617.617 1.388.617 2.005 0 .463-.462.463-1.387 0-2.004zM51.291 780.738a.746.746 0 0 0-1.08 0 .746.746 0 0 0 0 1.08.746.746 0 0 0 1.08 0 .746.746 0 0 0 0-1.08z" fill="#F2EFFB"/><path opacity=".3" d="M39.103 817.28a.772.772 0 1 1 0 1.543.772.772 0 0 1 0-1.543z" fill="#F2EFFB"/><path opacity=".3" fill-rule="evenodd" clip-rule="evenodd" d="M83.83 754.68a.745.745 0 0 0-1.08 0 .745.745 0 0 0 0 1.079.746.746 0 0 0 1.08 0c.309-.154.309-.771 0-1.079zM1144.17 833.778c0 2.467 2 4.318 4.32 4.318 2.46 0 4.31-2.005 4.31-4.318 0-2.313-2-4.317-4.31-4.317-2.32 0-4.32 2.004-4.32 4.317zM1255.52 472.663c0 2.467 2.01 4.318 4.32 4.318 2.47 0 4.32-2.005 4.32-4.318 0-2.467-2-4.317-4.32-4.317-2.31 0-4.32 2.004-4.32 4.317zM1291.77 512.444c0 2.467 2 4.318 4.32 4.318 2.31 0 4.32-2.005 4.32-4.318 0-2.467-2.01-4.317-4.32-4.317-2.32 0-4.32 2.004-4.32 4.317z" fill="#F2EFFB"/><path opacity=".3" fill-rule="evenodd" clip-rule="evenodd" d="M1460.8 751.749c0 2.467 2.01 4.317 4.32 4.317 2.32 0 4.32-2.004 4.32-4.317 0-2.467-2-4.317-4.32-4.317-2.31 0-4.32 2.004-4.32 4.317z" fill="#FDEFFB"/><path opacity=".3" fill-rule="evenodd" clip-rule="evenodd" d="M1653.44 500.417c0 2.467 2.01 4.317 4.32 4.317 2.31 0 4.32-2.004 4.32-4.317s-2.01-4.317-4.32-4.317c-2.31 0-4.32 1.85-4.32 4.317zM1697.24 666.481c0 2.468 2.01 4.318 4.32 4.318 2.31 0 4.32-2.005 4.32-4.318 0-2.312-2.01-4.317-4.32-4.317-2.31 0-4.32 1.85-4.32 4.317zM1636.94 726.308c0 2.467 2 4.317 4.32 4.317 2.31 0 4.31-2.004 4.31-4.317 0-2.467-2-4.318-4.31-4.318-2.32 0-4.32 2.005-4.32 4.318zM1888.95 600.487c0 2.467 2.01 4.318 4.32 4.318 2.47 0 4.32-2.005 4.32-4.318 0-2.313-2-4.317-4.32-4.317-2.31 0-4.32 2.004-4.32 4.317zM1148.49 751.749c0 2.467 2 4.317 4.32 4.317 2.31 0 4.32-2.004 4.32-4.317 0-2.467-2.01-4.317-4.32-4.317-2.32 0-4.32 2.004-4.32 4.317z" fill="#F2EFFB"/><path opacity=".3" d="M1469.44 581.367c2.39 0 4.32 1.933 4.32 4.318a4.316 4.316 0 0 1-4.32 4.317 4.322 4.322 0 0 1-4.32-4.317 4.323 4.323 0 0 1 4.32-4.318z" fill="#F2EFFB"/><path opacity=".3" fill-rule="evenodd" clip-rule="evenodd" d="M1087.72 851.664a3.096 3.096 0 0 0 3.09 3.084c1.69 0 3.08-1.388 3.08-3.084a3.094 3.094 0 0 0-3.08-3.084c-1.7 0-3.09 1.388-3.09 3.084zM1510.16 751.748a3.087 3.087 0 0 0 3.08 3.084c1.7 0 3.09-1.388 3.09-3.084a3.096 3.096 0 0 0-3.09-3.084c-1.7 0-3.08 1.388-3.08 3.084zM1212.34 805.715a3.094 3.094 0 0 0 3.08 3.084c1.7 0 3.09-1.388 3.09-3.084a3.096 3.096 0 0 0-3.09-3.084 3.094 3.094 0 0 0-3.08 3.084zM1060.89 541.895a3.087 3.087 0 0 0 3.08 3.084c1.7 0 3.09-1.388 3.09-3.084a3.096 3.096 0 0 0-3.09-3.084c-1.7 0-3.08 1.388-3.08 3.084zM1058.57 761.463a3.094 3.094 0 0 0 3.08 3.084c1.7 0 3.09-1.388 3.09-3.084a3.096 3.096 0 0 0-3.09-3.084 3.094 3.094 0 0 0-3.08 3.084zM1235.47 769.636c0 1.234 1.08 2.313 2.32 2.313 1.23 0 2.31-1.079 2.31-2.313 0-1.233-1.08-2.313-2.31-2.313-1.24.155-2.32 1.08-2.32 2.313zM1386.46 736.484c0 1.234 1.08 2.313 2.32 2.313 1.23 0 2.31-1.079 2.31-2.313 0-1.234-1.08-2.313-2.31-2.313-1.24.154-2.32 1.079-2.32 2.313zM1587.59 802.015c0 1.234 1.08 2.313 2.31 2.313s2.31-1.079 2.31-2.313c0-1.233-1.08-2.313-2.31-2.313-1.39.155-2.31 1.08-2.31 2.313zM1587.59 750.515c0 1.234 1.08 2.313 2.31 2.313s2.31-1.079 2.31-2.313c0-1.233-1.08-2.313-2.31-2.313-1.39 0-2.31 1.08-2.31 2.313z" fill="#F2EFFB"/><path opacity=".3" d="M1547.95 526.322c1.27 0 2.31 1.035 2.31 2.312a2.315 2.315 0 0 1-4.63 0 2.317 2.317 0 0 1 2.32-2.312z" fill="#F2EFFB"/><path opacity=".3" fill-rule="evenodd" clip-rule="evenodd" d="M1138.93 816.663c0 .771.61 1.388 1.38 1.388.77 0 1.39-.617 1.39-1.388 0-.771-.62-1.388-1.39-1.388-.61 0-1.38.617-1.38 1.388zM1222.05 804.175c0 .771.62 1.387 1.39 1.387.77 0 1.39-.616 1.39-1.387s-.62-1.388-1.39-1.388c-.77 0-1.39.617-1.39 1.388zM1220.52 838.097c0 .771.61 1.387 1.38 1.387.77 0 1.39-.616 1.39-1.387s-.62-1.388-1.39-1.388c-.61 0-1.38.617-1.38 1.388zM1202 829.462c0 .771.62 1.388 1.39 1.388.77 0 1.39-.617 1.39-1.388 0-.771-.62-1.388-1.39-1.388-.77 0-1.39.617-1.39 1.388zM1240.72 835.784c0 .771.62 1.388 1.39 1.388.77 0 1.38-.617 1.38-1.388 0-.771-.61-1.388-1.38-1.388-.77 0-1.39.617-1.39 1.388zM1663 884.661c0 .771.62 1.388 1.39 1.388.77 0 1.39-.617 1.39-1.388 0-.771-.62-1.388-1.39-1.388-.77 0-1.39.617-1.39 1.388zM1126.12 723.532c0 .771.62 1.388 1.39 1.388.77 0 1.39-.617 1.39-1.388 0-.771-.62-1.387-1.39-1.387-.61-.155-1.39.462-1.39 1.387z" fill="#F2EFFB"/><path opacity=".3" d="M1197.38 805.562c.43 0 .77.345.77.771 0 .425-.34.771-.77.771a.768.768 0 0 1-.77-.771c0-.426.34-.771.77-.771z" fill="#F2EFFB"/><path opacity=".3" fill-rule="evenodd" clip-rule="evenodd" d="M1515.56 906.866c0 .462.31.771.77.771s.77-.309.77-.771c0-.463-.31-.771-.77-.771-.46.154-.77.462-.77.771zM1369.81 807.104c0 .463.31.771.77.771s.77-.308.77-.771-.31-.771-.77-.771-.77.308-.77.771zM1533.76 796.928c0 .463.31.771.77.771s.77-.308.77-.771c0-.462-.31-.771-.77-.771s-.77.309-.77.771zM1286.68 796.157c0 .462.3.771.77.771.46 0 .77-.309.77-.771 0-.463-.31-.771-.77-.771-.47.154-.77.462-.77.771zM1388.01 802.788c0 .462.31.771.77.771s.77-.309.77-.771c0-.463-.31-.771-.77-.771s-.77.308-.77.771zM1636.17 806.641c0 .463.31.771.77.771s.77-.308.77-.771c0-.462-.31-.771-.77-.771s-.77.309-.77.771zM1662.23 804.174c0 .463.31.771.77.771s.77-.308.77-.771c0-.462-.31-.771-.77-.771-.31.155-.77.463-.77.771zM1207.56 818.206c0 .462.31.771.77.771s.77-.309.77-.771c0-.463-.31-.771-.77-.771s-.77.308-.77.771zM1344.36 818.977c0 .463.31.771.77.771s.77-.308.77-.771-.31-.771-.77-.771-.77.308-.77.771zM1534.53 820.981c0 .463.31.771.77.771s.77-.308.77-.771-.31-.771-.77-.771-.77.463-.77.771zM1202 794.769c0 .771.62 1.387 1.39 1.387.77 0 1.39-.616 1.39-1.387s-.62-1.388-1.39-1.388c-.77 0-1.39.617-1.39 1.388zM1268.32 793.382c0 .771.62 1.388 1.39 1.388.77 0 1.39-.617 1.39-1.388 0-.771-.62-1.388-1.39-1.388-.61-.154-1.39.463-1.39 1.388zM1542.7 732.167c0 .771.62 1.388 1.39 1.388.77 0 1.39-.617 1.39-1.388 0-.771-.62-1.388-1.39-1.388-.77-.154-1.39.617-1.39 1.388zM1240.72 530.794c0 .771.62 1.388 1.39 1.388.77 0 1.38-.617 1.38-1.388 0-.771-.61-1.388-1.38-1.388-.77 0-1.39.617-1.39 1.388zM1295.01 436.583c0 .771.61 1.388 1.39 1.388.77 0 1.38-.617 1.38-1.388 0-.771-.61-1.388-1.38-1.388-.78-.154-1.39.463-1.39 1.388zM1316.14 842.104c0 .771.61 1.388 1.38 1.388.78 0 1.39-.617 1.39-1.388 0-.771-.61-1.387-1.39-1.387-.61-.154-1.38.462-1.38 1.387zM1550.11 730.624c0 .771.61 1.388 1.38 1.388.77 0 1.39-.617 1.39-1.388 0-.771-.62-1.388-1.39-1.388-.77 0-1.38.617-1.38 1.388zM1574.01 557.007c0 .771.62 1.388 1.39 1.388.77 0 1.39-.617 1.39-1.388 0-.771-.62-1.388-1.39-1.388-.77 0-1.39.617-1.39 1.388zM1629.23 558.548c0 .771.61 1.388 1.38 1.388.78 0 1.39-.617 1.39-1.388 0-.771-.61-1.388-1.39-1.388-.77 0-1.38.463-1.38 1.388zM1449.7 476.979c0 .771.62 1.388 1.39 1.388.77 0 1.39-.617 1.39-1.388 0-.771-.62-1.387-1.39-1.387-.77 0-1.39.616-1.39 1.387zM1328.79 439.358c0 .771.61 1.388 1.38 1.388.77 0 1.39-.617 1.39-1.388 0-.771-.62-1.387-1.39-1.387-.77 0-1.38.616-1.38 1.387zM1388.47 586.302c0 .771.62 1.387 1.39 1.387.77 0 1.39-.616 1.39-1.387s-.62-1.388-1.39-1.388c-.77-.154-1.39.463-1.39 1.388zM1592.05 742.96c0 .771.62 1.388 1.39 1.388.77 0 1.39-.617 1.39-1.388 0-.771-.62-1.388-1.39-1.388-.77 0-1.39.617-1.39 1.388zM1630.77 554.077c0 .771.62 1.388 1.39 1.388.77 0 1.39-.617 1.39-1.388 0-.771-.62-1.388-1.39-1.388-.77 0-1.39.617-1.39 1.388zM1551.65 554.077c0 .771.62 1.388 1.39 1.388.77 0 1.38-.617 1.38-1.388 0-.771-.61-1.388-1.38-1.388-.77 0-1.39.617-1.39 1.388zM1423.48 496.101c0 .771.62 1.387 1.39 1.387.77 0 1.39-.616 1.39-1.387s-.62-1.388-1.39-1.388c-.62-.154-1.39.463-1.39 1.388zM1287.3 724.921c0 .771.61 1.388 1.38 1.388.78 0 1.39-.617 1.39-1.388 0-.771-.61-1.388-1.39-1.388-.77 0-1.38.617-1.38 1.388zM1527.59 535.265c0 .771.61 1.387 1.38 1.387.78 0 1.39-.616 1.39-1.387s-.61-1.388-1.39-1.388c-.77 0-1.38.617-1.38 1.388zM1665.93 508.128c0 .771.62 1.388 1.39 1.388.77 0 1.39-.617 1.39-1.388 0-.771-.62-1.388-1.39-1.388-.77 0-1.39.617-1.39 1.388zM1313.21 568.724c0 .771.61 1.387 1.39 1.387.77 0 1.38-.616 1.38-1.387s-.61-1.388-1.38-1.388c-.78 0-1.39.617-1.39 1.388zM1530.82 460.636c0 .771.62 1.387 1.39 1.387.77 0 1.39-.616 1.39-1.387s-.62-1.388-1.39-1.388c-.77 0-1.39.617-1.39 1.388zM1214.04 716.593c0 .771.61 1.387 1.38 1.387.77 0 1.39-.616 1.39-1.387s-.62-1.388-1.39-1.388c-.77 0-1.38.617-1.38 1.388z" fill="#F2EFFB"/><path opacity=".3" d="M878.275 508.898a4.319 4.319 0 1 1 0 8.637 4.319 4.319 0 0 1 0-8.637z" fill="#F2EFFB"/><path opacity=".3" fill-rule="evenodd" clip-rule="evenodd" d="M1061.66 522.006c-1.7-1.697-4.48-1.697-6.17 0a4.366 4.366 0 0 0 0 6.167c1.69 1.696 4.47 1.696 6.17 0a4.384 4.384 0 0 0 0-6.167zM936.266 571.191a4.376 4.376 0 0 0-6.169 0 4.373 4.373 0 0 0 0 6.168 4.376 4.376 0 0 0 6.169 0c1.696-1.851 1.696-4.472 0-6.168z" fill="#F2EFFB"/><path opacity=".3" d="M906.499 456.627a3.084 3.084 0 1 1 0 6.169 3.084 3.084 0 0 1 0-6.169zM850.975 577.205a3.085 3.085 0 1 1 0 6.17 3.085 3.085 0 0 1 0-6.17zM990.862 499.801a3.085 3.085 0 1 1 0 6.17 3.085 3.085 0 0 1 0-6.17z" fill="#F2EFFB"/><path opacity=".3" fill-rule="evenodd" clip-rule="evenodd" d="M862.081 709.656c-.925-.925-2.313-.925-3.239 0-.925.925-.925 2.313 0 3.238.926.925 2.314.925 3.239 0 .926-.925.926-2.313 0-3.238z" fill="#F2EFFB"/><path opacity=".3" d="M896.165 518.15a1.388 1.388 0 1 1 0 2.776 1.388 1.388 0 0 1 0-2.776zM846.193 585.686a1.388 1.388 0 1 1 0 2.776 1.388 1.388 0 0 1 0-2.776z" fill="#F2EFFB"/><path opacity=".3" fill-rule="evenodd" clip-rule="evenodd" d="M824.292 561.013c-.617-.616-1.542-.616-2.005 0-.617.617-.617 1.542 0 2.005.617.617 1.542.617 2.005 0 .617-.617.617-1.388 0-2.005z" fill="#F2EFFB"/><path opacity=".3" d="M842.493 553.613a1.388 1.388 0 1 1 .001 2.777 1.388 1.388 0 0 1-.001-2.777z" fill="#F2EFFB"/><path opacity=".3" fill-rule="evenodd" clip-rule="evenodd" d="M972.202 575.355c-.617-.617-1.542-.617-2.005 0-.617.617-.617 1.542 0 2.005.617.616 1.542.616 2.005 0 .463-.463.463-1.388 0-2.005zM863.624 566.566a.747.747 0 0 0-1.08 0 .745.745 0 0 0 0 1.08.747.747 0 0 0 1.08 0 .747.747 0 0 0 0-1.08zM807.174 727.078a.746.746 0 0 0-1.079 0 .744.744 0 0 0 0 1.079.744.744 0 0 0 1.079 0 .744.744 0 0 0 0-1.079zM1050.09 445.68a.745.745 0 0 0-1.08 0 .742.742 0 0 0 0 1.079c.31.308.77.308 1.08 0 .15-.463.15-.925 0-1.079zM847.584 565.949a.746.746 0 0 0-1.079 0 .744.744 0 0 0 0 1.079.744.744 0 0 0 1.079 0c.309-.462.309-.925 0-1.079z" fill="#F2EFFB"/><path opacity=".3" d="M867.017 578.131a1.387 1.387 0 1 1 .002 2.774 1.387 1.387 0 0 1-.002-2.774zM821.212 715.822a1.387 1.387 0 1 1 .001 2.775 1.387 1.387 0 0 1-.001-2.775zM1108.24 446.143c.76 0 1.38.621 1.38 1.387a1.385 1.385 0 1 1-2.77 0c0-.766.62-1.387 1.39-1.387z" fill="#F2EFFB"/><path opacity=".3" fill-rule="evenodd" clip-rule="evenodd" d="M857.143 777.963c-.616-.617-1.542-.617-2.005 0-.616.616-.616 1.542 0 2.004.617.617 1.543.617 2.005 0 .617-.462.617-1.388 0-2.004z" fill="#F2EFFB"/><path opacity=".3" d="M913.904 731.705a1.388 1.388 0 1 1 0 2.776 1.388 1.388 0 0 1 0-2.776z" fill="#F2EFFB"/><path opacity=".3" d="M706.307 587.844a4.317 4.317 0 1 1 0 8.635 4.319 4.319 0 1 1 0-8.635z" fill="#FDEFFB"/><path opacity=".3" d="M494.858 500.418a4.317 4.317 0 1 1 0 8.635 4.319 4.319 0 1 1 0-8.635z" fill="#F2EFFB"/><path opacity=".3" d="M618.549 525.088a4.317 4.317 0 1 1 0 8.635 4.319 4.319 0 1 1 0-8.635z" fill="#FDEFFB"/><path opacity=".3" d="M761.213 738.643a4.317 4.317 0 1 1 .001 8.635 4.317 4.317 0 0 1-.001-8.635zM747.795 783.666a4.317 4.317 0 1 1 .001 8.635 4.317 4.317 0 0 1-.001-8.635zM734.53 535.727a3.085 3.085 0 1 1 0 6.17 3.085 3.085 0 0 1 0-6.17zM563.796 456.164a3.084 3.084 0 1 1 0 6.169 3.084 3.084 0 0 1 0-6.169zM588.319 480.065a3.084 3.084 0 1 1 0 6.167 3.084 3.084 0 1 1 0-6.167zM678.854 746.043a3.085 3.085 0 1 1 0 6.17 3.085 3.085 0 0 1 0-6.17zM818.893 578.746a3.085 3.085 0 1 1 0 6.17 3.085 3.085 0 0 1 0-6.17z" fill="#F2EFFB"/><path opacity=".3" fill-rule="evenodd" clip-rule="evenodd" d="M690.113 788.756c-.926-.926-2.314-.926-3.239 0-.926.925-.926 2.312 0 3.238.925.925 2.313.925 3.239 0 .925-.926.925-2.467 0-3.238z" fill="#F2EFFB"/><path opacity=".3" d="M670.528 832.083a2.314 2.314 0 1 1 0 4.628 2.314 2.314 0 0 1 0-4.628z" fill="#F2EFFB"/><path opacity=".3" fill-rule="evenodd" clip-rule="evenodd" d="M758.441 775.185c-.926-.925-2.314-.925-3.239 0-.926.925-.926 2.313 0 3.238.925.925 2.313.925 3.239 0 .925-.925.925-2.313 0-3.238zM889.226 857.834c-.926-.925-2.314-.925-3.239 0-.925.925-.925 2.313 0 3.238.925.925 2.313.925 3.239 0 .925-.925.925-2.313 0-3.238z" fill="#F2EFFB"/><path opacity=".3" d="M724.197 597.096a1.388 1.388 0 1 1 0 2.776 1.388 1.388 0 0 1 0-2.776z" fill="#F2EFFB"/><path opacity=".3" fill-rule="evenodd" clip-rule="evenodd" d="M675.308 754.68c-.617-.617-1.543-.617-2.005 0-.617.616-.617 1.541 0 2.004.616.617 1.542.617 2.005 0 .616-.463.616-1.388 0-2.004z" fill="#F2EFFB"/><path opacity=".3" d="M746.56 773.027a1.388 1.388 0 1 1 0 2.776 1.388 1.388 0 0 1 0-2.776zM585.236 741.572a1.389 1.389 0 1 1-.001 2.777 1.389 1.389 0 0 1 .001-2.777zM541.283 730.779a1.389 1.389 0 1 1-.001 2.777 1.389 1.389 0 0 1 .001-2.777z" fill="#F2EFFB"/><path opacity=".3" fill-rule="evenodd" clip-rule="evenodd" d="M652.327 729.701c-.617-.617-1.542-.617-2.005 0-.617.617-.617 1.542 0 2.004.617.617 1.542.617 2.005 0 .617-.462.617-1.387 0-2.004zM960.327 534.185c-.617-.617-1.542-.617-2.005 0-.617.617-.617 1.542 0 2.005.617.617 1.542.617 2.005 0 .617-.463.617-1.388 0-2.005zM462.007 461.099c-.617-.616-1.543-.616-2.005 0-.617.617-.617 1.542 0 2.005.617.617 1.542.617 2.005 0 .617-.463.617-1.388 0-2.005z" fill="#F2EFFB"/><path opacity=".3" d="M670.529 722.453a1.388 1.388 0 1 1 0 2.776 1.388 1.388 0 0 1 0-2.776z" fill="#F2EFFB"/><path opacity=".3" fill-rule="evenodd" clip-rule="evenodd" d="M569.351 621.92c-.617-.617-1.543-.617-2.005 0-.617.616-.617 1.542 0 2.004.616.617 1.542.617 2.005 0 .616-.617.616-1.388 0-2.004zM800.233 744.041c-.617-.617-1.542-.617-2.005 0-.617.617-.617 1.542 0 2.004.617.617 1.543.617 2.005 0 .463-.462.463-1.387 0-2.004zM1128.59 524.01c-.61-.617-1.54-.617-2 0-.62.616-.62 1.541 0 2.004.61.617 1.54.617 2 0 .62-.463.62-1.388 0-2.004zM691.655 735.25a.747.747 0 0 0-1.08 0 .746.746 0 0 0 0 1.079.745.745 0 0 0 1.08 0 .746.746 0 0 0 0-1.079zM805.788 758.688a.745.745 0 0 0-1.08 0 .744.744 0 0 0 0 1.079.747.747 0 0 0 1.08 0 .746.746 0 0 0 0-1.079zM786.045 745.428a.744.744 0 0 0-1.079 0 .744.744 0 0 0 0 1.079.746.746 0 0 0 1.079 0 1.31 1.31 0 0 0 0-1.079zM916.678 528.018a.744.744 0 0 0-1.079 0 .744.744 0 0 0 0 1.079.746.746 0 0 0 1.079 0 1.318 1.318 0 0 0 0-1.079zM635.209 806.025a.746.746 0 0 0-1.079 0 .745.745 0 0 0 0 1.08.746.746 0 0 0 1.079 0 .745.745 0 0 0 0-1.08zM634.588 856.754a.744.744 0 0 0-1.079 0 .744.744 0 0 0 0 1.079.744.744 0 0 0 1.079 0 .744.744 0 0 0 0-1.079zM1080.63 791.84a.745.745 0 0 0-1.08 0 .742.742 0 0 0 0 1.079c.31.308.77.308 1.08 0a.742.742 0 0 0 0-1.079zM662.045 857.525a.746.746 0 0 0-1.079 0 .745.745 0 0 0 0 1.08.746.746 0 0 0 1.079 0 .745.745 0 0 0 0-1.08zM662.815 847.965a.745.745 0 0 0-1.08 0 .746.746 0 0 0 0 1.079.747.747 0 0 0 1.08 0 .746.746 0 0 0 0-1.079zM752.733 782.588a.747.747 0 0 0-1.08 0 .746.746 0 0 0 0 1.079.745.745 0 0 0 1.08 0c.154-.462.154-.771 0-1.079z" fill="#F2EFFB"/><path opacity=".3" d="M675.154 734.325a.77.77 0 1 1 0 1.542.77.77 0 0 1 0-1.542z" fill="#F2EFFB"/><path opacity=".3" fill-rule="evenodd" clip-rule="evenodd" d="M757.358 771.795a.745.745 0 0 0-1.08 0 .746.746 0 0 0 0 1.079.745.745 0 0 0 1.08 0 .746.746 0 0 0 0-1.079z" fill="#F2EFFB"/><path opacity=".3" d="M695.048 746.969a1.387 1.387 0 1 1 .002 2.774 1.387 1.387 0 0 1-.002-2.774z" fill="#F2EFFB"/><path opacity=".3" fill-rule="evenodd" clip-rule="evenodd" d="M784.347 770.56c-.617-.616-1.543-.616-2.005 0-.617.617-.617 1.542 0 2.005.616.617 1.542.617 2.005 0 .462-.463.462-1.388 0-2.005zM765.222 771.949c-.617-.617-1.543-.617-2.005 0-.617.617-.617 1.542 0 2.004.617.617 1.542.617 2.005 0 .462-.462.462-1.387 0-2.004zM1094.82 562.402c-.62-.617-1.55-.617-2.01 0-.62.617-.62 1.542 0 2.005.62.616 1.54.616 2.01 0 .61-.463.61-1.388 0-2.005zM1070.76 514.449c-1.24-1.234-3.09-1.234-4.32 0-1.24 1.233-1.24 3.084 0 4.317 1.23 1.234 3.08 1.234 4.32 0 1.23-1.233 1.23-3.238 0-4.317z" fill="#F2EFFB"/><path opacity=".3" d="M1040.99 496.871c.76 0 1.38.621 1.38 1.388a1.385 1.385 0 1 1-2.77 0c0-.767.62-1.388 1.39-1.388z" fill="#F2EFFB"/><path opacity=".3" fill-rule="evenodd" clip-rule="evenodd" d="M1061.19 490.242c-.61-.617-1.54-.617-2 0-.62.617-.62 1.542 0 2.004.62.617 1.54.617 2 0 .62-.462.62-1.387 0-2.004zM1081.4 502.73a.747.747 0 0 0-1.08 0 .743.743 0 0 0 0 1.08c.31.308.77.308 1.08 0a.743.743 0 0 0 0-1.08zM1065.36 502.113a.747.747 0 0 0-1.08 0 .743.743 0 0 0 0 1.08c.31.308.77.308 1.08 0a.743.743 0 0 0 0-1.08z" fill="#F2EFFB"/><path opacity=".3" d="M1084.79 514.449a1.388 1.388 0 1 1 0 2.776 1.388 1.388 0 1 1 0-2.776z" fill="#F2EFFB"/><path opacity=".3" fill-rule="evenodd" clip-rule="evenodd" d="M650.167 795.232c-.617-.617-1.542-.617-2.005 0-.617.617-.617 1.542 0 2.005.617.616 1.542.616 2.005 0 .617-.463.617-1.388 0-2.005z" fill="#F2EFFB"/><path opacity=".3" fill-rule="evenodd" clip-rule="evenodd" d="M478.815 573.967c-.617-.617-1.542-.617-2.005 0-.617.616-.617 1.541 0 2.004.617.617 1.543.617 2.005 0 .463-.617.463-1.542 0-2.004z" fill="#EBCBF8"/><path opacity=".3" fill-rule="evenodd" clip-rule="evenodd" d="M514.909 796.619c-.617-.617-1.542-.617-2.005 0-.617.617-.617 1.542 0 2.004.617.617 1.542.617 2.005 0 .617-.462.617-1.387 0-2.004z" fill="#F2EFFB"/><path opacity=".3" d="M710.626 846.424a1.387 1.387 0 1 1 .002 2.774 1.387 1.387 0 0 1-.002-2.774z" fill="#F2EFFB"/><path opacity=".3" fill-rule="evenodd" clip-rule="evenodd" d="M458.768 561.013c-.616-.616-1.542-.616-2.005 0-.616.617-.616 1.542 0 2.005.617.617 1.543.617 2.005 0 .617-.617.617-1.388 0-2.005z" fill="#EBCBF8"/><path opacity=".3" d="M991.944 774.414a3.085 3.085 0 1 1 0 6.17 3.085 3.085 0 0 1 0-6.17zM987.78 591.391a3.085 3.085 0 1 1 0 6.17 3.085 3.085 0 0 1 0-6.17zM1513.24 780.737c1.7 0 3.09 1.38 3.09 3.083a3.09 3.09 0 0 1-3.09 3.084c-1.7 0-3.08-1.38-3.08-3.084a3.082 3.082 0 0 1 3.08-3.083z" fill="#F2EFFB"/><path opacity=".3" fill-rule="evenodd" clip-rule="evenodd" d="M1003.2 817.127c-.92-.925-2.31-.925-3.236 0-.926.925-.926 2.313 0 3.238.926.925 2.316.925 3.236 0 .93-.925.93-2.313 0-3.238zM664.667 652.451c-.925-.925-2.313-.925-3.239 0-.925.925-.925 2.313 0 3.238.926.925 2.314.925 3.239 0a2.556 2.556 0 0 0 0-3.238zM988.397 783.205c-.617-.617-1.542-.617-2.005 0-.617.617-.617 1.542 0 2.004.617.617 1.543.617 2.005 0 .463-.462.463-1.387 0-2.004zM1065.82 666.174c-.62-.617-1.54-.617-2.01 0-.61.616-.61 1.542 0 2.004.62.617 1.55.617 2.01 0 .62-.462.62-1.388 0-2.004zM965.417 758.224c-.617-.616-1.542-.616-2.005 0-.617.617-.617 1.542 0 2.005.617.617 1.542.617 2.005 0 .617-.463.617-1.388 0-2.005zM938.577 582.293c-.617-.617-1.542-.617-2.005 0-.617.616-.617 1.542 0 2.004.617.617 1.542.617 2.005 0 .617-.462.617-1.388 0-2.004zM984.694 751.287c-.617-.617-1.542-.617-2.005 0-.617.617-.617 1.542 0 2.004.617.617 1.542.617 2.005 0 .463-.616.463-1.542 0-2.004zM1004.74 763.775a.747.747 0 0 0-1.08 0 .76.76 0 0 0 0 1.08c.31.308.78.308 1.08 0a.743.743 0 0 0 0-1.08zM1032.35 823.141a.745.745 0 0 0-1.08 0 .742.742 0 0 0 0 1.079c.31.308.77.308 1.08 0a.742.742 0 0 0 0-1.079zM948.299 834.551a.744.744 0 0 0-1.079 0 .744.744 0 0 0 0 1.079.746.746 0 0 0 1.079 0 .744.744 0 0 0 0-1.079zM988.702 763.16a.747.747 0 0 0-1.08 0 .746.746 0 0 0 0 1.079.745.745 0 0 0 1.08 0c.308-.462.308-.925 0-1.079zM1009.22 775.802c-.62-.616-1.54-.616-2.01 0-.61.617-.61 1.542 0 2.005.62.617 1.54.617 2.01 0 .46-.617.46-1.388 0-2.005zM1107.77 774.879c-.61-.617-1.54-.617-2 0-.62.616-.62 1.542 0 2.004.61.617 1.54.617 2 0 .62-.462.62-1.388 0-2.004zM1617.66 773.645c1.54 1.696 4.16 2.004 5.86.462 1.69-1.542 2-4.163.46-5.859-1.54-1.696-4.17-2.004-5.86-.462-1.7 1.541-1.85 4.008-.46 5.859zM1527.28 669.104c1.54 1.696 4.16 2.004 5.86.462 1.69-1.542 2-4.163.46-5.859-1.54-1.696-4.16-2.004-5.86-.462-1.7 1.541-2 4.163-.46 5.859zM1531.75 415.459c1.54 1.696 4.16 2.005 5.86.463 1.7-1.542 2.01-4.163.46-5.86-1.54-1.696-4.16-2.004-5.86-.462-1.69 1.388-1.85 4.009-.46 5.859zM1583.11 422.397c1.54 1.696 4.16 2.004 5.86.462 1.7-1.542 2.01-4.163.46-5.859-1.54-1.696-4.16-2.005-5.86-.463-1.85 1.388-2 4.009-.46 5.86z" fill="#F2EFFB"/><path opacity=".3" fill-rule="evenodd" clip-rule="evenodd" d="M1799.8 427.948c1.55 1.696 4.17 2.004 5.86.462 1.7-1.542 2.01-4.163.47-5.859-1.54-1.696-4.17-2.005-5.86-.463-1.7 1.388-1.85 4.009-.47 5.86z" fill="#FDEFFB"/><path opacity=".3" fill-rule="evenodd" clip-rule="evenodd" d="M1570.16 620.84c1.54 1.696 4.16 2.005 5.86.463 1.69-1.542 2-4.163.46-5.86-1.54-1.696-4.17-2.004-5.86-.462-1.7 1.542-1.85 4.163-.46 5.859z" fill="#F2EFFB"/><path opacity=".3" fill-rule="evenodd" clip-rule="evenodd" d="M1755.69 369.047c1.55 1.696 4.17 2.005 5.87.463 1.69-1.542 2-4.163.46-5.86-1.54-1.696-4.17-2.004-5.86-.462-1.7 1.388-1.85 4.009-.47 5.859z" fill="#FDEFFB"/><path opacity=".3" fill-rule="evenodd" clip-rule="evenodd" d="M1836.2 397.419c1.08 1.234 2.93 1.388 4.17.308 1.23-1.079 1.38-2.929.31-4.163-1.08-1.233-2.94-1.387-4.17-.308s-1.39 2.93-.31 4.163zM1650.51 621.15c1.08 1.233 2.93 1.387 4.16.308 1.24-1.079 1.39-2.93.31-4.163-1.08-1.234-2.93-1.388-4.16-.309-1.24.925-1.39 2.93-.31 4.164zM1645.27 580.288c.77.925 2.16 1.079 3.08.308.93-.771 1.08-2.158.31-3.084-.77-.925-2.16-1.079-3.08-.308-.93.771-1.08 2.159-.31 3.084zM1735.8 462.641c.77.925 2.16 1.08 3.08.309.93-.771 1.08-2.159.31-3.084-.77-.925-2.16-1.079-3.08-.308-.93.77-1.08 2.158-.31 3.083zM1892.35 348.54c.77.925 2.15 1.079 3.08.308.93-.771 1.08-2.159.31-3.084-.77-.925-2.16-1.079-3.09-.308-.92.771-1.08 2.159-.3 3.084zM1603.31 764.239c.47.616 1.39.617 2.01.154.62-.463.62-1.388.15-2.005-.46-.616-1.38-.616-2-.154-.62.617-.62 1.542-.16 2.005zM1656.68 614.057c.46.617 1.39.617 2 .154.62-.462.62-1.387.16-2.004-.47-.617-1.39-.617-2.01-.154-.62.616-.62 1.387-.15 2.004zM1676.57 729.545c.46.617 1.39.617 2.01.155.61-.463.61-1.388.15-2.005-.46-.617-1.39-.617-2-.154-.62.617-.62 1.542-.16 2.004zM1657.6 734.633c.47.617 1.39.617 2.01.154.62-.462.62-1.387.15-2.004-.46-.617-1.39-.617-2-.154-.62.617-.62 1.542-.16 2.004zM1689.84 715.514c.46.617 1.39.617 2 .154.62-.462.62-1.387.16-2.004-.47-.617-1.39-.617-2.01-.154-.46.462-.61 1.387-.15 2.004zM1536.22 613.903c.47.617 1.39.617 2.01.154.62-.463.62-1.388.15-2.004-.46-.617-1.38-.617-2-.155-.62.463-.62 1.388-.16 2.005zM1639.41 721.065c.3.308.61.308.92.154.31-.308.31-.617.16-.925-.31-.309-.62-.308-.93-.154-.46.154-.46.616-.15.925zM1877.69 723.842c.31.308.93.462 1.24.154.3-.308.46-.925.15-1.234-.31-.308-.93-.462-1.23-.154-.47.309-.47.925-.16 1.234zM1767.11 524.78c.31.308.62.308.92.154.31-.309.31-.617.16-.925-.31-.309-.62-.309-.93-.154-.31.308-.31.616-.15.925zM1881.39 416.075c.31.308.62.308.93.154.3-.309.3-.617.15-.925-.31-.309-.62-.309-.93-.154-.3.154-.3.616-.15.925zM1699.25 568.262c.3.309.61.308.92.154.31-.308.31-.616.16-.925-.31-.308-.62-.308-.93-.154-.31.154-.46.617-.15.925zM1777.9 510.44c.31.308.62.308.93.154.31-.154.31-.617.15-.925-.31-.308-.61-.309-.92-.154-.31.154-.47.616-.16.925z" fill="#F2EFFB"/><path opacity=".3" fill-rule="evenodd" clip-rule="evenodd" d="M1654.68 723.069c.3.308.61.308.92.154.31-.308.31-.617.16-.925-.31-.309-.62-.309-.93-.154-.46.154-.46.616-.15.925z" fill="#FDEFFB"/><path opacity=".3" fill-rule="evenodd" clip-rule="evenodd" d="M1755.85 549.143c.31.308.62.308.93.154.31-.308.31-.617.15-.925-.31-.308-.62-.308-.92-.154-.47.308-.47.617-.16.925zM1896.82 433.344c.3.309.61.309.92.154.31-.308.31-.616.16-.925-.31-.308-.62-.308-.93-.154-.31.154-.31.617-.15.925zM1636.17 619.454c.46.616 1.38.616 2 .154.62-.463.62-1.388.16-2.005-.47-.616-1.39-.616-2.01-.154-.62.463-.77 1.388-.15 2.005zM1683.98 577.36c.46.617 1.39.617 2 .154.62-.463.62-1.388.16-2.004-.47-.617-1.39-.617-2.01-.155-.61.463-.61 1.388-.15 2.005zM1848.08 362.725c.46.617 1.38.617 2 .154.62-.462.62-1.387.16-2.004-.47-.617-1.39-.617-2.01-.154-.62.616-.62 1.542-.15 2.004zM1556.74 467.42c.46.617 1.38.617 2 .155.62-.463.62-1.388.16-2.005-.47-.617-1.39-.617-2.01-.154-.46.617-.62 1.388-.15 2.004zM1749.37 583.68c.46.617 1.39.617 2 .154.62-.462.62-1.387.16-2.004-.46-.617-1.39-.617-2.01-.154-.61.462-.61 1.387-.15 2.004zM1852.55 357.174c.47.617 1.39.617 2.01.154.61-.462.61-1.387.15-2.004-.46-.617-1.39-.617-2-.154-.62.462-.62 1.387-.16 2.004zM1655.75 515.374c.46.616 1.39.616 2.01.154.61-.463.61-1.388.15-2.005-.46-.616-1.39-.617-2-.154-.62.463-.77 1.388-.16 2.005zM1633.54 450.459c.47.617 1.39.617 2.01.155.62-.463.62-1.388.15-2.005-.46-.617-1.38-.617-2-.154-.62.617-.62 1.388-.16 2.004zM1596.53 554.539c.46.617 1.39.617 2 .155.62-.463.62-1.388.16-2.005-.46-.617-1.39-.617-2.01-.154-.61.617-.61 1.388-.15 2.004zM1470.21 531.719c-.77 0-1.38.462-1.54 1.233 0 .771.46 1.388 1.24 1.542.77 0 1.38-.462 1.54-1.233 0-.925-.46-1.542-1.24-1.542zM1858.41 416.075c-1.69-.154-3.08 1.079-3.24 2.621-.15 1.696 1.08 3.084 2.63 3.238 1.69.154 3.08-1.079 3.23-2.621.31-1.696-.92-3.084-2.62-3.238z" fill="#F2EFFB"/><path opacity=".3" fill-rule="evenodd" clip-rule="evenodd" d="M1753.84 859.066c1.55 1.85 4.32 2.005 6.17.463 1.85-1.542 2.01-4.318.47-6.168-1.55-1.85-4.32-2.004-6.17-.462-1.7 1.541-2.01 4.317-.47 6.167z" fill="#FDEFFB"/><path opacity=".3" fill-rule="evenodd" clip-rule="evenodd" d="M1664.39 489.933c1.54 1.851 4.32 2.005 6.17.463 1.85-1.542 2.01-4.317.46-6.168-1.54-1.85-4.32-2.004-6.17-.462-1.69 1.542-2 4.317-.46 6.167zM1717.75 497.179c1.55 1.851 4.32 2.005 6.17.463 1.85-1.542 2.01-4.317.47-6.168-1.55-1.85-4.32-2.004-6.17-.462-1.7 1.542-2.01 4.317-.47 6.167z" fill="#F2EFFB"/><path opacity=".3" fill-rule="evenodd" clip-rule="evenodd" d="M1704.33 793.381c1.55 1.85 4.32 2.004 6.17.462 1.85-1.542 2.01-4.317.46-6.167-1.54-1.851-4.31-2.005-6.16-.463-1.86 1.542-2.01 4.472-.47 6.168z" fill="#EBCBF8"/><path opacity=".3" fill-rule="evenodd" clip-rule="evenodd" d="M1897.43 441.672c1.55 1.85 4.32 2.004 6.17.462 1.85-1.542 2.01-4.317.47-6.167-1.55-1.851-4.32-2.005-6.17-.463-1.85 1.542-2.01 4.317-.47 6.168zM1722.07 909.025c1.08 1.233 3.09 1.387 4.32.308 1.24-1.079 1.39-3.084.31-4.317-1.08-1.234-3.08-1.388-4.32-.309-1.23 1.08-1.39 2.93-.31 4.318z" fill="#F2EFFB"/><path opacity=".3" fill-rule="evenodd" clip-rule="evenodd" d="M1787.93 793.689c1.08 1.233 3.08 1.387 4.32.308 1.23-1.079 1.39-3.084.31-4.317-1.08-1.234-3.09-1.388-4.32-.309-1.24 1.08-1.39 2.93-.31 4.318z" fill="#EBCBF8"/><path opacity=".3" fill-rule="evenodd" clip-rule="evenodd" d="M1559.82 757.763c1.08 1.233 3.09 1.388 4.32.308 1.24-1.079 1.39-3.084.31-4.317-1.08-1.234-3.08-1.388-4.32-.309-1.23 1.08-1.39 3.084-.31 4.318zM1782.53 751.286c.77.925 2.16 1.079 3.24.308.93-.771 1.08-2.158.31-3.238-.77-.925-2.16-1.079-3.24-.308-1.08.771-1.23 2.313-.31 3.238zM1876.76 538.966c.78.925 2.16 1.079 3.24.308.93-.771 1.08-2.159.31-3.238-.77-.925-2.16-1.079-3.24-.308-1.08.925-1.23 2.312-.31 3.238zM1738.88 849.352c.47.617 1.39.617 2.01.154.62-.462.62-1.387.15-2.004-.46-.617-1.38-.617-2-.154-.62.462-.62 1.387-.16 2.004z" fill="#F2EFFB"/><path opacity=".3" fill-rule="evenodd" clip-rule="evenodd" d="M1794.4 786.288c.47.616 1.39.616 2.01.154.62-.463.62-1.388.15-2.005-.46-.617-1.38-.617-2-.154-.62.617-.77 1.388-.16 2.005zM1815.08 813.272c.46.617 1.38.617 2 .154.62-.462.62-1.388.16-2.004-.47-.617-1.39-.617-2.01-.155-.62.463-.62 1.388-.15 2.005z" fill="#EBCBF8"/><path opacity=".3" fill-rule="evenodd" clip-rule="evenodd" d="M1795.33 818.514c.47.617 1.39.617 2.01.154.62-.462.62-1.387.15-2.004-.46-.617-1.38-.617-2-.154-.62.462-.77 1.387-.16 2.004z" fill="#F2EFFB"/><path opacity=".3" fill-rule="evenodd" clip-rule="evenodd" d="M1828.95 798.469c.47.617 1.39.617 2.01.154.62-.462.62-1.387.15-2.004-.46-.617-1.38-.617-2-.154-.62.617-.62 1.387-.16 2.004z" fill="#EBCBF8"/><path opacity=".3" fill-rule="evenodd" clip-rule="evenodd" d="M1669.02 786.133c.46.617 1.39.617 2 .154.62-.462.62-1.387.16-2.004-.47-.617-1.39-.617-2.01-.154-.62.462-.62 1.388-.15 2.004z" fill="#F2EFFB"/><path opacity=".3" fill-rule="evenodd" clip-rule="evenodd" d="M1776.36 804.329c.31.308.77.308 1.08.154.31-.309.31-.771.16-1.08-.31-.308-.77-.308-1.08-.154-.31.309-.46.771-.16 1.08z" fill="#EBCBF8"/><path opacity=".3" fill-rule="evenodd" clip-rule="evenodd" d="M1909.31 603.725c.31.308.77.308 1.08.154.31-.308.31-.771.15-1.079-.31-.309-.77-.309-1.08-.154-.31.308-.31.771-.15 1.079zM1838.67 738.643c.31.308.77.308 1.08.154.31-.308.31-.771.16-1.079-.31-.308-.78-.308-1.08-.154-.31.308-.47.771-.16 1.079zM1792.25 806.332c.3.309.77.309 1.08.155.3-.309.3-.771.15-1.08-.31-.308-.77-.308-1.08-.154-.31.308-.46.771-.15 1.079zM1897.59 718.907c.3.308.77.308 1.08.154.3-.309.3-.771.15-1.08-.31-.308-.77-.308-1.08-.154-.46.309-.46.771-.15 1.08z" fill="#F2EFFB"/><path opacity=".3" fill-rule="evenodd" clip-rule="evenodd" d="M1772.97 791.993c.46.616 1.39.616 2.01.154.61-.463.61-1.388.15-2.005-.46-.616-1.39-.616-2.01-.154-.61.463-.61 1.388-.15 2.005z" fill="#EBCBF8"/><path opacity=".3" fill-rule="evenodd" clip-rule="evenodd" d="M1822.78 748.204c.47.616 1.39.616 2.01.154.61-.463.61-1.388.15-2.005-.46-.616-1.39-.616-2-.154-.62.463-.62 1.388-.16 2.005zM1690.45 544.053c.47.617 1.39.617 2.01.154.62-.462.62-1.387.15-2.004-.46-.617-1.38-.617-2-.154-.62.462-.62 1.387-.16 2.004zM1671.33 436.891c.46.617 1.39.617 2 .154.62-.462.62-1.387.16-2.004-.46-.617-1.39-.617-2.01-.154-.61.462-.61 1.387-.15 2.004zM1890.8 754.68c.47.617 1.39.617 2.01.154.61-.462.61-1.387.15-2.004-.46-.617-1.39-.617-2-.154-.62.462-.62 1.387-.16 2.004zM1815.85 368.43c.46.617 1.38.617 2 .154.62-.462.62-1.387.15-2.004-.46-.617-1.38-.617-2-.154-.62.462-.77 1.387-.15 2.004zM1699.09 417.309c.46.617 1.39.617 2.01.154.61-.462.61-1.387.15-2.004-.46-.617-1.39-.617-2-.154-.62.462-.62 1.387-.16 2.004zM1807.98 399.731c.46.617 1.39.617 2 .154.62-.462.62-1.388.16-2.004-.46-.617-1.39-.617-2.01-.155-.46.463-.61 1.388-.15 2.005zM1793.33 593.858c.46.617 1.38.617 2 .154.62-.462.62-1.388.16-2.004-.47-.617-1.39-.617-2.01-.155-.62.463-.62 1.388-.15 2.005zM1912.86 362.88c.46.616 1.39.616 2 .154.62-.463.62-1.388.16-2.005-.47-.617-1.39-.617-2.01-.154-.46.463-.62 1.388-.15 2.005zM1770.35 526.477c.46.617 1.38.617 2 .154.62-.462.62-1.387.15-2.004-.46-.617-1.38-.617-2-.155-.62.463-.62 1.388-.15 2.005zM1731.79 724.457c.46.617 1.39.617 2.01.155.61-.463.61-1.388.15-2.005-.46-.617-1.39-.617-2-.154-.62.463-.62 1.388-.16 2.004zM1535.61 563.945c-.77 0-1.54.463-1.54 1.388 0 .771.46 1.542 1.38 1.542.78 0 1.55-.463 1.55-1.388 0-.771-.62-1.387-1.39-1.542zM1600.39 610.818c-.78 0-1.55.463-1.55 1.388 0 .771.47 1.542 1.39 1.542.77 0 1.54-.463 1.54-1.388 0-.771-.61-1.387-1.38-1.542zM1678.11 867.854c-.46 0-.77.309-.77.617 0 .463.31.771.62.771.46 0 .77-.308.77-.617.16-.462-.15-.771-.62-.771zM1599.15 751.75c-.77 0-1.54.463-1.54 1.388 0 .771.46 1.542 1.39 1.542.77 0 1.54-.463 1.54-1.388 0-.771-.62-1.542-1.39-1.542zM1549.8 730.472c-1.7-.155-3.24 1.079-3.4 2.775-.15 1.696 1.08 3.238 2.78 3.392 1.7.155 3.24-1.079 3.39-2.775.16-1.85-1.08-3.238-2.77-3.392zM1550.42 714.743c-.47 0-.78.309-.78.617 0 .462.31.771.62.771.46 0 .77-.309.77-.617.16-.462-.15-.771-.61-.771zM1537.77 724.458c-.47 0-.77.308-.77.617 0 .462.3.771.61.771s.77-.309.77-.617-.3-.617-.61-.771zM1561.52 721.064c-.77 0-1.54.463-1.54 1.388 0 .771.46 1.542 1.38 1.542.78 0 1.55-.462 1.55-1.388 0-.771-.62-1.542-1.39-1.542zM1687.99 837.326c-.77 0-1.54.463-1.54 1.388 0 .771.46 1.542 1.38 1.542.77 0 1.55-.463 1.55-1.388 0-.771-.47-1.388-1.39-1.542zM1831.88 798.932c.62 1.08 1.86 1.388 2.93.771 1.08-.617 1.39-1.85.78-2.929-.62-1.08-1.85-1.388-2.93-.771-.93.462-1.24 1.85-.78 2.929zM1784.69 820.518c.15.308.62.462.93.308.3-.154.46-.617.3-.925-.15-.308-.61-.462-.92-.308-.46.154-.46.462-.31.925zM1874.61 779.35c.15.308.61.462.92.308.31-.154.46-.616.31-.925-.15-.308-.62-.462-.93-.308-.46.154-.61.617-.3.925zM1895.12 764.856c.15.308.62.462.92.308.31-.154.47-.617.31-.925-.15-.308-.61-.463-.92-.308-.31.154-.47.462-.31.925zM1796.88 840.1c.15.308.61.462.92.308.31-.154.46-.616.31-.925-.16-.308-.62-.462-.93-.308-.46.154-.61.616-.3.925z" fill="#F2EFFB"/><path opacity=".3" fill-rule="evenodd" clip-rule="evenodd" d="M1830.5 916.887c1.23 2.005 3.85 2.776 5.86 1.542 2-1.233 2.77-3.854 1.54-5.859-1.23-2.004-3.86-2.775-5.86-1.542-2.16 1.08-2.78 3.701-1.54 5.859z" fill="#FDEFFB"/><path opacity=".3" fill-rule="evenodd" clip-rule="evenodd" d="M1795.95 848.427c1.23 2.004 3.86 2.775 5.86 1.541 2.01-1.233 2.78-3.854 1.54-5.859-1.23-2.004-3.85-2.775-5.86-1.542-2 1.234-2.77 3.855-1.54 5.86zM1873.22 892.217c.77 1.542 2.78 2.005 4.17 1.08 1.54-.771 2-2.776 1.08-4.163-.78-1.542-2.78-2.005-4.17-1.08-1.39.771-2 2.622-1.08 4.163zM1758.47 940.788c.62 1.079 2.01 1.387 3.09.771 1.08-.617 1.39-2.005.77-3.084-.62-1.079-2.01-1.388-3.09-.771-.92.617-1.38 2.004-.77 3.084zM1779.29 1010.17c.16.31.62.47.93.31.31-.15.46-.61.31-.92-.16-.31-.62-.47-.93-.31-.31.15-.46.62-.31.92zM1916.25 919.51c.15.308.62.463.93.308.3-.154.46-.616.3-.925-.15-.308-.61-.462-.92-.308-.46.154-.62.617-.31.925zM1793.02 997.375c.15.309.62.463.93.309.3-.155.46-.617.3-.926-.15-.308-.61-.462-.92-.308-.46.154-.62.617-.31.925zM1763.25 1033.15c.16.31.62.46.93.31.31-.16.46-.62.31-.93-.16-.31-.62-.46-.93-.31-.46.16-.46.47-.31.93zM1891.57 858.912c.46.617 1.24.926 2.01.463.61-.463.92-1.234.46-2.005-.46-.616-1.23-.925-2.01-.462-.61.308-.77 1.233-.46 2.004zM1897.28 853.979c.46.617 1.23.925 2 .462.62-.462.93-1.233.47-2.004-.47-.617-1.24-.925-2.01-.463-.61.309-.77 1.234-.46 2.005zM1876.15 769.326c.46.617 1.23.926 2 .463.62-.463.93-1.233.47-2.004-.47-.617-1.24-.926-2.01-.463-.62.308-.92 1.234-.46 2.004zM1855.18 777.961c.46.617 1.23.925 2 .463.62-.463.93-1.234.46-2.005-.46-.616-1.23-.925-2-.462-.62.462-.93 1.387-.46 2.004zM1892.65 915.346c-1.69-.462-3.39.463-3.7 2.159-.46 1.696.46 3.392 2.16 3.701 1.7.462 3.39-.463 3.7-2.159.46-1.542-.46-3.238-2.16-3.701zM1904.68 826.533c2.16.771 4.63-.309 5.4-2.467.77-2.159-.31-4.626-2.47-5.397-2.16-.771-4.63.308-5.4 2.467-.77 2.159.31 4.626 2.47 5.397zM1871.68 837.48c.77.308 1.54-.154 1.85-.771.31-.771-.16-1.542-.77-1.85-.77-.309-1.54.154-1.85.771-.31.771.15 1.542.77 1.85zM1894.35 755.912c.77.308 1.54-.155 1.85-.771.31-.771-.16-1.542-.77-1.851-.78-.308-1.55.155-1.85.771-.31.771 0 1.542.77 1.851zM1919.34 872.481c1.54.616 3.39-.309 3.85-1.851.62-1.542-.31-3.392-1.85-3.855-1.54-.616-3.39.309-3.86 1.851-.61 1.542.16 3.238 1.86 3.855zM1846.23 794.46c-.77.308-1.08 1.233-.77 1.85.31.771 1.23 1.079 1.85.771.77-.308 1.08-1.234.77-1.85-.31-.771-1.08-1.08-1.85-.771z" fill="#F2EFFB"/><path opacity=".3" fill-rule="evenodd" clip-rule="evenodd" d="M1896.82 853.824c-1.54.771-2.16 2.467-1.54 4.009.77 1.542 2.46 2.159 4.01 1.542 1.54-.771 2.15-2.467 1.54-4.009-.62-1.542-2.47-2.313-4.01-1.542zM1889.57 839.946c-.31.154-.46.617-.31.925.15.309.62.463.93.309.3-.154.46-.617.3-.925-.15-.309-.61-.463-.92-.309zM1883.55 854.749c-.31.154-.46.617-.31.925.16.309.62.463.93.308.31-.154.46-.616.31-.925-.16-.308-.62-.462-.93-.308zM1902.37 839.792c-.77.308-1.08 1.233-.77 1.85.31.771 1.23 1.079 1.85.771.77-.308 1.08-1.233.77-1.85-.31-.771-1.08-1.079-1.85-.771zM10.11 922.438c.154.308.617.462.925.308.309-.154.463-.617.309-.925-.155-.308-.617-.463-.926-.308-.463.154-.617.462-.308.925zM.394 854.903c1.543.616 3.393-.309 3.856-1.851.617-1.542-.308-3.392-1.85-3.855-1.543-.616-3.394.309-3.856 1.851-.463 1.542.308 3.238 1.85 3.855z" fill="#F2EFFB"/><path opacity=".3" d="M962.329 823.295a1.388 1.388 0 1 1 .001 2.777 1.388 1.388 0 0 1-.001-2.777z" fill="#F2EFFB"/><path opacity=".3" fill-rule="evenodd" clip-rule="evenodd" d="M685.179 857.062c-.617-.617-1.543-.617-2.005 0-.617.617-.617 1.542 0 2.005.617.616 1.542.616 2.005 0 .617-.617.617-1.542 0-2.005zM664.819 922.285c-.617-.617-1.542-.617-2.005 0-.617.617-.617 1.542 0 2.004.617.617 1.543.617 2.005 0 .463-.616.463-1.542 0-2.004zM743.015 810.959c-.617-.617-1.543-.617-2.005 0-.617.617-.617 1.542 0 2.004.617.617 1.542.617 2.005 0 .462-.462.462-1.387 0-2.004z" fill="#F2EFFB"/><path opacity=".3" fill-rule="evenodd" clip-rule="evenodd" d="M422.52 611.898c0 2.467 2.005 4.317 4.318 4.317 2.468 0 4.318-2.005 4.318-4.317 0-2.468-2.005-4.318-4.318-4.318-2.313 0-4.318 2.005-4.318 4.318zM426.84 529.868c0 2.467 2.005 4.318 4.318 4.318 2.314 0 4.319-2.005 4.319-4.318 0-2.313-2.005-4.317-4.319-4.317-2.313 0-4.318 2.004-4.318 4.317zM366.074 719.524a3.093 3.093 0 0 0 3.085 3.083 3.092 3.092 0 0 0 3.084-3.083 3.093 3.093 0 0 0-3.084-3.084 3.094 3.094 0 0 0-3.085 3.084z" fill="#EBCBF8"/><path opacity=".3" fill-rule="evenodd" clip-rule="evenodd" d="M490.691 583.836a3.094 3.094 0 0 0 3.085 3.084 3.094 3.094 0 0 0 3.085-3.084 3.094 3.094 0 0 0-3.085-3.084 3.094 3.094 0 0 0-3.085 3.084zM339.238 409.6a3.094 3.094 0 0 0 3.085 3.084 3.094 3.094 0 0 0 3.085-3.084 3.094 3.094 0 0 0-3.085-3.084c-1.851.154-3.085 1.542-3.085 3.084z" fill="#F2EFFB"/><path opacity=".3" fill-rule="evenodd" clip-rule="evenodd" d="M336.77 539.582a3.093 3.093 0 0 0 3.084 3.084 3.094 3.094 0 0 0 3.085-3.084 3.094 3.094 0 0 0-3.085-3.084 3.093 3.093 0 0 0-3.084 3.084z" fill="#EBCBF8"/><path opacity=".3" fill-rule="evenodd" clip-rule="evenodd" d="M513.828 547.908c0 1.233 1.08 2.313 2.314 2.313 1.233 0 2.313-1.08 2.313-2.313 0-1.234-1.08-2.313-2.313-2.313-1.388 0-2.314.925-2.314 2.313z" fill="#F2EFFB"/><path opacity=".3" fill-rule="evenodd" clip-rule="evenodd" d="M417.277 594.936c0 .771.617 1.388 1.388 1.388.772 0 1.389-.617 1.389-1.388 0-.77-.617-1.387-1.389-1.387-.771-.154-1.388.462-1.388 1.387z" fill="#EBCBF8"/><path opacity=".3" fill-rule="evenodd" clip-rule="evenodd" d="M500.254 582.292c0 .771.617 1.388 1.388 1.388.771 0 1.388-.617 1.388-1.388 0-.771-.617-1.388-1.388-1.388-.771 0-1.388.617-1.388 1.388z" fill="#F2EFFB"/><path opacity=".3" fill-rule="evenodd" clip-rule="evenodd" d="M498.867 616.216c0 .771.617 1.388 1.388 1.388.771 0 1.388-.617 1.388-1.388 0-.771-.617-1.388-1.388-1.388-.771 0-1.388.617-1.388 1.388z" fill="#EBCBF8"/><path opacity=".3" fill-rule="evenodd" clip-rule="evenodd" d="M480.359 607.581c0 .771.617 1.388 1.388 1.388.772 0 1.389-.617 1.389-1.388 0-.771-.617-1.388-1.389-1.388-.771 0-1.388.617-1.388 1.388zM518.918 613.901c0 .771.617 1.388 1.388 1.388.771 0 1.388-.617 1.388-1.388 0-.771-.617-1.387-1.388-1.387-.771 0-1.388.616-1.388 1.387z" fill="#F2EFFB"/><path opacity=".3" fill-rule="evenodd" clip-rule="evenodd" d="M404.477 501.651c0 .771.616 1.388 1.388 1.388.771 0 1.388-.617 1.388-1.388 0-.771-.617-1.388-1.388-1.388-.772-.154-1.388.617-1.388 1.388zM474.961 584.452c0 .462.308.771.771.771s.771-.309.771-.771c0-.463-.308-.771-.771-.771-.463.154-.771.462-.771.771z" fill="#EBCBF8"/><path opacity=".3" fill-rule="evenodd" clip-rule="evenodd" d="M485.758 596.325c0 .462.308.771.771.771s.771-.309.771-.771c0-.463-.308-.771-.771-.771s-.771.308-.771.771zM480.359 572.888c0 .771.617 1.387 1.388 1.387.772 0 1.389-.616 1.389-1.387s-.617-1.388-1.389-1.388c-.771 0-1.388.617-1.388 1.388zM518.918 398.651c0 .771.617 1.388 1.388 1.388.771 0 1.388-.617 1.388-1.388 0-.771-.617-1.387-1.388-1.387-.771 0-1.388.616-1.388 1.387zM492.234 494.712c0 .771.617 1.388 1.388 1.388.772 0 1.388-.617 1.388-1.388 0-.771-.616-1.388-1.388-1.388-.771 0-1.388.617-1.388 1.388zM159.715 377.99a4.376 4.376 0 0 0-6.169 0 4.373 4.373 0 0 0 0 6.168 4.376 4.376 0 0 0 6.169 0 4.373 4.373 0 0 0 0-6.168zM339.856 389.863a4.377 4.377 0 0 0-6.17 0 4.375 4.375 0 0 0 0 6.168 4.377 4.377 0 0 0 6.17 0 4.375 4.375 0 0 0 0-6.168z" fill="#F2EFFB"/><path opacity=".3" d="M211.533 437.816a4.319 4.319 0 1 1 0 8.637 4.319 4.319 0 0 1 0-8.637z" fill="#FDEFFB"/><path opacity=".3" d="M129.174 445.063a3.085 3.085 0 1 1 0 6.17 3.085 3.085 0 0 1 0-6.17zM269.217 367.658a3.085 3.085 0 1 1 0 6.17 3.085 3.085 0 0 1 0-6.17zM138.892 487.003a2.314 2.314 0 1 1-.001 4.627 2.314 2.314 0 0 1 .001-4.627z" fill="#F2EFFB"/><path opacity=".3" fill-rule="evenodd" clip-rule="evenodd" d="M175.444 386.316c-.617-.617-1.542-.617-2.005 0-.617.617-.617 1.542 0 2.005.617.616 1.543.616 2.005 0 .463-.463.463-1.388 0-2.005zM125.628 453.851c-.617-.616-1.542-.616-2.005 0-.617.617-.617 1.542 0 2.005.617.617 1.542.617 2.005 0 .463-.463.463-1.388 0-2.005zM102.647 428.873c-.617-.617-1.542-.617-2.005 0-.617.617-.617 1.542 0 2.004.617.617 1.543.617 2.005 0 .463-.616.463-1.387 0-2.004z" fill="#F2EFFB"/><path opacity=".3" d="M120.849 421.473a1.387 1.387 0 1 1 .002 2.774 1.387 1.387 0 0 1-.002-2.774zM249.474 442.904a1.387 1.387 0 1 1 .001 2.775 1.387 1.387 0 0 1-.001-2.775z" fill="#F2EFFB"/><path opacity=".3" fill-rule="evenodd" clip-rule="evenodd" d="M141.975 434.424a.747.747 0 0 0-1.08 0 .746.746 0 0 0 0 1.079.747.747 0 0 0 1.08 0 .746.746 0 0 0 0-1.079zM85.53 505.197a.746.746 0 0 0-1.08 0 .746.746 0 0 0 0 1.08.746.746 0 0 0 1.08 0 .746.746 0 0 0 0-1.08zM125.936 433.807a.745.745 0 0 0-1.08 0 .746.746 0 0 0 0 1.079.747.747 0 0 0 1.08 0c.308-.463.308-.925 0-1.079zM146.448 446.451c-.617-.617-1.542-.617-2.005 0-.617.617-.617 1.542 0 2.004.617.617 1.542.617 2.005 0 .463-.616.463-1.541 0-2.004z" fill="#F2EFFB"/><path opacity=".3" d="M99.408 493.941a1.389 1.389 0 1 1-.001 2.778 1.389 1.389 0 0 1 0-2.778z" fill="#F2EFFB"/><path opacity=".3" fill-rule="evenodd" clip-rule="evenodd" d="M135.499 556.08c-.617-.617-1.542-.617-2.005 0-.617.617-.617 1.542 0 2.004.617.617 1.542.617 2.005 0 .463-.462.463-1.387 0-2.004z" fill="#F2EFFB"/><path opacity=".3" d="M192.255 509.824a1.388 1.388 0 1 1 0 2.776 1.388 1.388 0 0 1 0-2.776z" fill="#F2EFFB"/><path opacity=".3" fill-rule="evenodd" clip-rule="evenodd" d="M42.653 517.996a4.376 4.376 0 0 0-6.17 0 4.372 4.372 0 0 0 0 6.167 4.374 4.374 0 0 0 6.17 0 4.372 4.372 0 0 0 0-6.167z" fill="#F2EFFB"/><path opacity=".3" d="M26.15 561.785a4.318 4.318 0 1 1 .001 8.636 4.318 4.318 0 0 1 0-8.636zM12.885 403.586a3.084 3.084 0 1 1 0 6.169 3.084 3.084 0 0 1 0-6.169zM97.249 446.606a3.084 3.084 0 1 1 0 6.168 3.084 3.084 0 0 1 0-6.168z" fill="#F2EFFB"/><path opacity=".3" fill-rule="evenodd" clip-rule="evenodd" d="M36.792 553.304c-.925-.925-2.313-.925-3.239 0-.925.926-.925 2.313 0 3.238.926.926 2.314.926 3.24 0 .925-.925.925-2.312 0-3.238zM167.577 725.691c-.925-.925-2.313-.925-3.238 0-.926.925-.926 2.313 0 3.238.925.925 2.313.925 3.238 0a2.553 2.553 0 0 0 0-3.238z" fill="#F2EFFB"/><path opacity=".3" d="M2.396 464.953a1.388 1.388 0 1 1 0 2.776 1.388 1.388 0 0 1 0-2.776z" fill="#F2EFFB"/><path opacity=".3" fill-rule="evenodd" clip-rule="evenodd" d="M25.839 551.609c-.617-.617-1.542-.617-2.005 0-.617.617-.617 1.542 0 2.005.617.616 1.542.616 2.005 0 .617-.617.617-1.542 0-2.005z" fill="#F2EFFB"/><path opacity=".3" d="M237.599 401.736a1.388 1.388 0 1 1 0 2.776 1.388 1.388 0 0 1 0-2.776zM77.51 521.849a1.388 1.388 0 1 1-.001 2.777 1.388 1.388 0 0 1 0-2.777zM405.865 391.558a1.389 1.389 0 1 1-.001 2.777 1.389 1.389 0 0 1 .001-2.777z" fill="#F2EFFB"/><path opacity=".3" fill-rule="evenodd" clip-rule="evenodd" d="M84.143 536.807a.745.745 0 0 0-1.08 0 .745.745 0 0 0 0 1.079.746.746 0 0 0 1.08 0 1.316 1.316 0 0 0 0-1.079zM64.245 523.547a.745.745 0 0 0-1.08 0 .745.745 0 0 0 0 1.079.745.745 0 0 0 1.08 0 .745.745 0 0 0 0-1.079zM194.877 395.877a.746.746 0 0 0-1.079 0 .744.744 0 0 0 0 1.079.744.744 0 0 0 1.079 0 .744.744 0 0 0 0-1.079z" fill="#F2EFFB"/><path opacity=".3" fill-rule="evenodd" clip-rule="evenodd" d="M358.979 569.959a.747.747 0 0 0-1.08 0 .746.746 0 0 0 0 1.079.745.745 0 0 0 1.08 0 1.318 1.318 0 0 0 0-1.079z" fill="#EBCBF8"/><path opacity=".3" d="M30.466 560.398a.77.77 0 1 1 0 1.542.77.77 0 0 1 0-1.542z" fill="#F2EFFB"/><path opacity=".3" fill-rule="evenodd" clip-rule="evenodd" d="M35.713 549.914a.746.746 0 0 0-1.08 0 .745.745 0 0 0 0 1.079.745.745 0 0 0 1.08 0 .745.745 0 0 0 0-1.079zM62.546 548.679c-.617-.616-1.542-.616-2.005 0-.617.617-.617 1.542 0 2.005.617.617 1.542.617 2.005 0 .617-.463.617-1.388 0-2.005z" fill="#F2EFFB"/><path opacity=".3" d="M42.498 549.76a1.387 1.387 0 1 1 0 2.775 1.387 1.387 0 0 1 0-2.775z" fill="#F2EFFB"/><path opacity=".3" fill-rule="evenodd" clip-rule="evenodd" d="M373.167 430.261c-.617-.616-1.542-.616-2.005 0-.617.617-.617 1.542 0 2.005.617.617 1.542.617 2.005 0 .617-.463.617-1.388 0-2.005z" fill="#F2EFFB"/><path opacity=".3" d="M346.952 381.383a3.084 3.084 0 1 1 0 6.169 3.084 3.084 0 0 1 0-6.169z" fill="#F2EFFB"/><path opacity=".3" fill-rule="evenodd" clip-rule="evenodd" d="M320.265 365.039c-.617-.617-1.543-.617-2.005 0-.617.617-.617 1.542 0 2.004.616.617 1.542.617 2.005 0 .616-.462.616-1.387 0-2.004z" fill="#F2EFFB"/><path opacity=".3" d="M338.466 357.791a1.387 1.387 0 1 1 .001 2.775 1.387 1.387 0 0 1-.001-2.775z" fill="#F2EFFB"/><path opacity=".3" fill-rule="evenodd" clip-rule="evenodd" d="M359.596 370.588a.745.745 0 0 0-1.08 0 .746.746 0 0 0 0 1.079.745.745 0 0 0 1.08 0 .744.744 0 0 0 0-1.079zM343.713 369.973a.744.744 0 0 0-1.079 0 .744.744 0 0 0 0 1.079.746.746 0 0 0 1.079 0 1.31 1.31 0 0 0 0-1.079z" fill="#F2EFFB"/><path opacity=".3" d="M363.146 382.307a1.388 1.388 0 1 1 0 2.776 1.388 1.388 0 0 1 0-2.776z" fill="#F2EFFB"/><path opacity=".3" fill-rule="evenodd" clip-rule="evenodd" d="M666.359 404.203a3.094 3.094 0 0 0 3.085 3.084 3.094 3.094 0 0 0 3.085-3.084 3.094 3.094 0 0 0-3.085-3.084 3.094 3.094 0 0 0-3.085 3.084z" fill="#FDEFFB"/><path opacity=".3" d="M664.049 383.078a4.318 4.318 0 1 1 0 8.635 4.318 4.318 0 0 1 0-8.635zM596.342 362.108a3.084 3.084 0 1 1 .002 6.168 3.084 3.084 0 0 1-.002-6.168zM733.146 386.008a1.387 1.387 0 1 1 .001 2.775 1.387 1.387 0 0 1-.001-2.775zM699.369 424.402a1.389 1.389 0 1 1-.001 2.777 1.389 1.389 0 0 1 .001-2.777z" fill="#F2EFFB"/><path opacity=".3" fill-rule="evenodd" clip-rule="evenodd" d="M589.401 658.002c-.617-.617-1.542-.617-2.005 0-.617.617-.617 1.542 0 2.004.617.617 1.543.617 2.005 0 .463-.462.463-1.387 0-2.004z" fill="#F2EFFB"/><path opacity=".3" d="M674.073 375.83a3.084 3.084 0 1 1 0 6.169 3.084 3.084 0 0 1 0-6.169zM646.466 359.18a1.387 1.387 0 1 1 .002 2.774 1.387 1.387 0 0 1-.002-2.774z" fill="#F2EFFB"/><path opacity=".3" fill-rule="evenodd" clip-rule="evenodd" d="M666.823 352.703c-.617-.617-1.542-.617-2.005 0-.617.616-.617 1.542 0 2.004.617.617 1.543.617 2.005 0 .463-.617.463-1.542 0-2.004zM686.877 365.191a.746.746 0 0 0-1.079 0 .745.745 0 0 0 0 1.08.746.746 0 0 0 1.079 0 .745.745 0 0 0 0-1.08zM670.834 364.422a.744.744 0 0 0-1.079 0 .744.744 0 0 0 0 1.079.744.744 0 0 0 1.079 0 .744.744 0 0 0 0-1.079zM691.347 377.219c-.617-.617-1.543-.617-2.005 0-.617.616-.617 1.541 0 2.004.616.617 1.542.617 2.005 0 .462-.617.462-1.542 0-2.004z" fill="#F2EFFB"/><path opacity=".3" d="M270.296 552.533a3.084 3.084 0 1 1 0 6.169 3.084 3.084 0 0 1 0-6.169z" fill="#F2EFFB"/><path opacity=".3" fill-rule="evenodd" clip-rule="evenodd" d="M268.295 460.173c-1.234-1.233-3.085-1.233-4.319 0-1.234 1.234-1.234 3.084 0 4.318 1.234 1.233 3.085 1.233 4.319 0 1.233-1.234 1.233-3.238 0-4.318zM281.558 595.244c-.926-.925-2.314-.925-3.239 0-.925.925-.925 2.313 0 3.238.925.925 2.313.925 3.239 0a2.556 2.556 0 0 0 0-3.238z" fill="#F2EFFB"/><path opacity=".3" d="M265.669 561.016a1.387 1.387 0 1 1 .002 2.774 1.387 1.387 0 0 1-.002-2.774z" fill="#F2EFFB"/><path opacity=".3" fill-rule="evenodd" clip-rule="evenodd" d="M243.616 536.344c-.617-.617-1.542-.617-2.005 0-.617.616-.617 1.541 0 2.004.617.617 1.542.617 2.005 0 .617-.463.617-1.388 0-2.004zM606.827 751.904c-.617-.617-1.542-.617-2.005 0-.617.617-.617 1.542 0 2.005.617.616 1.542.616 2.005 0 .617-.617.617-1.542 0-2.005z" fill="#F2EFFB"/><path opacity=".3" d="M215.853 449.844a1.387 1.387 0 1 1 .002 2.774 1.387 1.387 0 0 1-.002-2.774zM261.966 528.943a1.388 1.388 0 1 1 0 2.776 1.388 1.388 0 0 1 0-2.776z" fill="#F2EFFB"/><path opacity=".3" fill-rule="evenodd" clip-rule="evenodd" d="M282.944 541.894a.747.747 0 0 0-1.08 0 .747.747 0 0 0 0 1.08.747.747 0 0 0 1.08 0 .747.747 0 0 0 0-1.08z" fill="#F2EFFB"/><path opacity=".3" fill-rule="evenodd" clip-rule="evenodd" d="M310.705 601.414a.746.746 0 0 0-1.079 0 .744.744 0 0 0 0 1.079.744.744 0 0 0 1.079 0c.309-.462.309-.925 0-1.079z" fill="#EBCBF8"/><path opacity=".3" fill-rule="evenodd" clip-rule="evenodd" d="M226.651 612.67a.745.745 0 0 0-1.08 0 .746.746 0 0 0 0 1.079.745.745 0 0 0 1.08 0 .746.746 0 0 0 0-1.079zM267.057 541.279a.747.747 0 0 0-1.08 0 .747.747 0 0 0 0 1.08.747.747 0 0 0 1.08 0c.308-.463.308-.771 0-1.08zM185.315 618.375a.747.747 0 0 0-1.08 0 .746.746 0 0 0 0 1.079.745.745 0 0 0 1.08 0 .746.746 0 0 0 0-1.079zM287.417 553.922c-.617-.617-1.542-.617-2.005 0-.617.616-.617 1.542 0 2.004.617.617 1.542.617 2.005 0 .617-.462.617-1.388 0-2.004z" fill="#F2EFFB"/><path opacity=".3" d="M385.044 552.689a1.388 1.388 0 1 1 0 2.776 1.388 1.388 0 0 1 0-2.776z" fill="#EBCBF8"/><path opacity=".3" fill-rule="evenodd" clip-rule="evenodd" d="M241.608 601.875c-.617-.617-1.542-.617-2.005 0-.617.617-.617 1.542 0 2.004.617.617 1.543.617 2.005 0 .463-.617.463-1.542 0-2.004zM21.214 589.232c-.617-.617-1.542-.617-2.005 0-.617.617-.617 1.542 0 2.005.617.616 1.542.616 2.005 0 .617-.617.617-1.542 0-2.005zM123.313 829.306a4.377 4.377 0 0 0-6.17 0 4.375 4.375 0 0 0 0 6.168 4.377 4.377 0 0 0 6.17 0 4.375 4.375 0 0 0 0-6.168z" fill="#F2EFFB"/></g><g opacity=".3"><path opacity=".3" fill-rule="evenodd" clip-rule="evenodd" d="M1444.77 804.636a4.145 4.145 0 0 0 4.16 4.163c2.31 0 4.16-1.85 4.16-4.163a4.146 4.146 0 0 0-4.16-4.164 4.146 4.146 0 0 0-4.16 4.164z" fill="#94D6EA"/><path opacity=".3" d="M1483.63 838.713c2.3 0 4.17 1.864 4.17 4.163a4.169 4.169 0 0 1-4.17 4.163 4.16 4.16 0 0 1-4.16-4.163 4.16 4.16 0 0 1 4.16-4.163z" fill="#94D6EA"/><path opacity=".3" fill-rule="evenodd" clip-rule="evenodd" d="M1584.19 973.013a4.147 4.147 0 0 0 4.17 4.163c2.31 0 4.16-1.85 4.16-4.163a4.146 4.146 0 0 0-4.16-4.164c-2.16 0-4.17 1.851-4.17 4.164zM1612.57 853.515a4.145 4.145 0 0 0 4.16 4.163c2.31 0 4.16-1.851 4.16-4.163a4.146 4.146 0 0 0-4.16-4.164c-2.31 0-4.16 2.005-4.16 4.164zM1403.28 1054.89c0 2.31 1.85 4.16 4.16 4.16s4.17-1.85 4.17-4.16-1.86-4.16-4.17-4.16c-2.31 0-4.16 1.85-4.16 4.16zM1014.92 1012.79c0 1.7 1.39 2.93 2.93 2.93 1.7 0 2.93-1.38 2.93-2.93 0-1.69-1.39-2.92-2.93-2.92-1.69 0-2.93 1.23-2.93 2.92zM1480.7 1000.15c0 1.23.92 2.16 2.16 2.16 1.23 0 2.16-.93 2.16-2.16 0-1.234-.93-2.159-2.16-2.159-1.24 0-2.16.925-2.16 2.159zM1430.42 860.454c0 .771.62 1.388 1.39 1.388.77 0 1.39-.617 1.39-1.388 0-.771-.62-1.388-1.39-1.388-.77 0-1.39.771-1.39 1.388zM1482.7 769.944c0 .771.62 1.388 1.39 1.388.77 0 1.39-.617 1.39-1.388 0-.771-.62-1.387-1.39-1.387-.77 0-1.39.616-1.39 1.387zM1508 1027.44c0 .77.62 1.39 1.39 1.39.77 0 1.39-.62 1.39-1.39 0-.77-.62-1.39-1.39-1.39-.77 0-1.39.62-1.39 1.39zM1561.05 1028.83c0 .77.62 1.39 1.39 1.39.77 0 1.39-.62 1.39-1.39 0-.77-.62-1.39-1.39-1.39-.77 0-1.39.62-1.39 1.39zM1631.23 808.8c0 .771.62 1.388 1.39 1.388.77 0 1.39-.617 1.39-1.388 0-.771-.62-1.388-1.39-1.388-.77 0-1.39.617-1.39 1.388zM1515.09 772.72c0 .771.62 1.387 1.39 1.387.77 0 1.39-.616 1.39-1.387s-.62-1.388-1.39-1.388c-.77 0-1.39.617-1.39 1.388zM1562.44 1024.67c0 .77.62 1.38 1.39 1.38.77 0 1.39-.61 1.39-1.38 0-.77-.62-1.39-1.39-1.39-.77 0-1.39.62-1.39 1.39zM1486.41 1024.67c0 .77.61 1.38 1.38 1.38.78 0 1.39-.61 1.39-1.38 0-.77-.61-1.39-1.39-1.39-.77 0-1.38.62-1.38 1.39zM1606.09 827.147c0 .771.62 1.388 1.39 1.388.77 0 1.39-.617 1.39-1.388 0-.77-.62-1.387-1.39-1.387-.77 0-1.39.617-1.39 1.387zM1463.27 1006.47c0 .77.62 1.39 1.39 1.39.77 0 1.39-.62 1.39-1.39 0-.77-.62-1.39-1.39-1.39-.62 0-1.39.62-1.39 1.39zM1596.38 980.415c0 .771.61 1.388 1.38 1.388.77 0 1.39-.617 1.39-1.388 0-.771-.62-1.388-1.39-1.388-.77 0-1.38.617-1.38 1.388zM1257.38 1038.7c0 .77.61 1.39 1.38 1.39.77 0 1.39-.62 1.39-1.39 0-.77-.62-1.39-1.39-1.39-.77 0-1.38.62-1.38 1.39zM1466.51 934.774c0 .771.62 1.388 1.39 1.388.77 0 1.39-.617 1.39-1.388 0-.771-.62-1.387-1.39-1.387-.77 0-1.39.616-1.39 1.387zM34.63 1044.25a2.412 2.412 0 0 0-3.393 0c-.925.93-.925 2.47 0 3.39.925.93 2.468.93 3.393 0 1.08-.92 1.08-2.46 0-3.39zM1015.54 993.675c-1.7-1.696-4.32-1.696-5.86 0-1.7 1.696-1.7 4.318 0 5.86 1.7 1.695 4.32 1.695 5.86 0 1.7-1.542 1.7-4.164 0-5.86zM895.086 1041.01c-1.696-1.69-4.318-1.69-5.86 0-1.697 1.7-1.697 4.32 0 5.86 1.696 1.7 4.318 1.7 5.86 0 1.697-1.7 1.697-4.32 0-5.86zM868.712 931.844c-1.079-1.08-3.084-1.08-4.164 0-1.08 1.079-1.08 3.084 0 4.163 1.08 1.079 3.085 1.079 4.164 0 1.08-1.234 1.08-3.084 0-4.163zM949.685 973.168c-1.08-1.079-3.085-1.079-4.164 0-1.08 1.079-1.08 3.084 0 4.163 1.079 1.079 3.084 1.079 4.164 0 1.234-1.079 1.234-2.93 0-4.163zM929.636 1045.02c-.617-.62-1.388-.62-2.005 0s-.617 1.39 0 2.01c.617.61 1.388.61 2.005 0 .462-.62.462-1.55 0-2.01z" fill="#94D6EA"/><path opacity=".3" d="M1003.97 920.126c.43 0 .78.345.78.771a.776.776 0 0 1-1.55 0c0-.426.35-.771.77-.771z" fill="#94D6EA"/><path opacity=".3" fill-rule="evenodd" clip-rule="evenodd" d="M1304.11 779.504c-.62-.617-1.39-.617-2.01 0-.61.616-.61 1.387 0 2.004.62.617 1.39.617 2.01 0 .62-.617.62-1.388 0-2.004zM918.378 1005.55c-.617-.62-1.388-.62-2.005 0s-.617 1.39 0 2c.617.62 1.388.62 2.005 0 .462-.61.462-1.54 0-2zM1322.77 853.978c-.62-.616-1.39-.616-2.01 0-.61.617-.61 1.388 0 2.005.62.616 1.39.616 2.01 0 .62-.617.62-1.388 0-2.005zM876.27 999.533c-.308-.308-.771-.308-.925 0-.309.308-.309.767 0 .927.308.31.771.31.925 0 .308-.16.308-.619 0-.927zM1047.62 1032.69c-.61-.62-1.38-.62-2 0-.62.61-.62 1.38 0 2 .62.62 1.39.62 2 0 .47-.62.47-1.54 0-2z" fill="#94D6EA"/><path opacity=".3" d="M1107.31 803.557c1.61 0 2.93 1.311 2.93 2.929a2.929 2.929 0 1 1-2.93-2.929z" fill="#94D6EA"/><path opacity=".3" fill-rule="evenodd" clip-rule="evenodd" d="M996.725 969.929c-.616-.616-1.388-.616-2.005 0-.616.617-.616 1.388 0 2.005.617.617 1.389.617 2.005 0 .617-.617.617-1.388 0-2.005zM1015.23 963.299c-.61-.617-1.38-.617-2 0-.62.616-.62 1.387 0 2.004s1.39.617 2 0c.62-.617.62-1.542 0-2.004zM1117.02 1002.15c-.61-.61-1.39-.61-2 0-.62.62-.62 1.39 0 2.01.61.62 1.39.62 2 0 .62-.62.62-1.54 0-2.01zM1277.27 833.471c-.31-.309-.77-.309-.93 0-.3.308-.3.771 0 .925.31.308.78.308.93 0 .31-.154.31-.617 0-.925zM1019.24 974.555c-.31-.309-.77-.309-.92 0-.31.308-.31.77 0 .925.31.308.77.308.92 0 .16-.155.16-.617 0-.925zM1281.59 845.035c-.62-.617-1.39-.617-2.01 0-.61.617-.61 1.388 0 2.004.62.617 1.39.617 2.01 0 .62-.462.62-1.387 0-2.004z" fill="#94D6EA"/><path opacity=".3" d="M944.751 1060.44c1.618 0 2.93 1.31 2.93 2.93s-1.312 2.93-2.93 2.93a2.93 2.93 0 1 1 0-5.86z" fill="#94D6EA"/><path opacity=".3" fill-rule="evenodd" clip-rule="evenodd" d="M897.397 1051.8c-.617-.61-1.388-.61-2.005 0-.617.62-.617 1.39 0 2.01.617.62 1.388.62 2.005 0 .463-.62.463-1.54 0-2.01zM1255.52 1088.66c0 2.46 2.01 4.31 4.32 4.31 2.47 0 4.32-2 4.32-4.31 0-2.47-2-4.32-4.32-4.32-2.31 0-4.32 2-4.32 4.32zM1295.01 1052.58c0 .77.61 1.38 1.39 1.38.77 0 1.38-.61 1.38-1.38 0-.78-.61-1.39-1.38-1.39-.78-.16-1.39.61-1.39 1.39zM1328.79 1055.35c0 .77.61 1.39 1.38 1.39.77 0 1.39-.62 1.39-1.39 0-.77-.62-1.39-1.39-1.39-.77 0-1.38.62-1.38 1.39zM1058.73 937.704c0 .771.61 1.388 1.38 1.388.78 0 1.39-.617 1.39-1.388 0-.771-.61-1.388-1.39-1.388-.61 0-1.38.617-1.38 1.388zM1039.6 927.372c0 .771.61 1.388 1.39 1.388.77 0 1.38-.617 1.38-1.388 0-.771-.61-1.388-1.38-1.388-.78 0-1.39.617-1.39 1.388z" fill="#94D6EA"/><path opacity=".3" d="M906.499 1072.62a3.085 3.085 0 1 1-.002 6.17 3.085 3.085 0 0 1 .002-6.17z" fill="#94D6EA"/><path opacity=".3" fill-rule="evenodd" clip-rule="evenodd" d="M1050.09 1061.67a.76.76 0 0 0-1.08 0c-.31.31-.31.77 0 1.08.31.31.77.31 1.08 0 .15-.46.15-.77 0-1.08zM1109.32 1062.6c-.62-.62-1.55-.62-2.01 0-.62.61-.62 1.54 0 2 .62.62 1.54.62 2.01 0 .46-.61.46-1.54 0-2zM1069.37 684.367c-1.7-1.696-4.48-1.696-6.17 0a4.367 4.367 0 0 0 0 6.168c1.69 1.696 4.47 1.696 6.17 0 1.69-1.851 1.69-4.472 0-6.168z" fill="#94D6EA"/><path opacity=".3" d="M563.796 1072.16a3.085 3.085 0 1 1-.002 6.17 3.085 3.085 0 0 1 .002-6.17zM461.079 1076.78c.767 0 1.389.62 1.389 1.39a1.388 1.388 0 1 1-2.777 0c0-.77.622-1.39 1.388-1.39z" fill="#94D6EA"/><path opacity=".3" fill-rule="evenodd" clip-rule="evenodd" d="M614.694 844.418a.745.745 0 0 0-1.08 0 .746.746 0 0 0 0 1.079.745.745 0 0 0 1.08 0 .746.746 0 0 0 0-1.079z" fill="#94D6EA"/><path opacity=".3" d="M1097.74 888.67a3.085 3.085 0 1 1 .01 6.17 3.085 3.085 0 0 1-.01-6.17z" fill="#94D6EA"/><path opacity=".3" fill-rule="evenodd" clip-rule="evenodd" d="M1531.75 1031.45c1.54 1.7 4.16 2.01 5.86.46 1.7-1.54 2.01-4.16.46-5.86-1.54-1.69-4.16-2-5.86-.46-1.69 1.39-1.85 4.01-.46 5.86zM1583.11 1038.39c1.54 1.7 4.16 2.01 5.86.46 1.7-1.54 2.01-4.16.46-5.86-1.54-1.69-4.16-2-5.86-.46-1.85 1.39-2 4.01-.46 5.86z" fill="#94D6EA"/><path opacity=".3" fill-rule="evenodd" clip-rule="evenodd" d="M1799.8 1043.94c1.55 1.7 4.17 2.01 5.86.46 1.7-1.54 2.01-4.16.47-5.86-1.54-1.69-4.17-2-5.86-.46-1.7 1.54-1.85 4.17-.47 5.86z" fill="#B5EAFF"/><path opacity=".3" fill-rule="evenodd" clip-rule="evenodd" d="M1841.6 805.869c1.54 1.696 4.17 2.005 5.86.463 1.7-1.542 2.01-4.163.47-5.859-1.55-1.696-4.17-2.005-5.87-.463-1.69 1.542-2 4.163-.46 5.859zM1913.63 916.426c1.54 1.696 4.16 2.004 5.86.463 1.7-1.542 2-4.164.46-5.86-1.54-1.696-4.16-2.004-5.86-.462-1.7 1.388-1.85 4.009-.46 5.859z" fill="#94D6EA"/><path opacity=".3" fill-rule="evenodd" clip-rule="evenodd" d="M1755.69 985.039c1.55 1.696 4.17 2.005 5.87.463 1.69-1.542 2-4.163.46-5.859-1.54-1.696-4.17-2.005-5.86-.463-1.7 1.388-1.85 4.009-.47 5.859z" fill="#B5EAFF"/><path opacity=".3" fill-rule="evenodd" clip-rule="evenodd" d="M1836.2 1013.41c1.08 1.23 2.93 1.39 4.17.31 1.23-1.08 1.38-2.93.3-4.16-1.07-1.24-2.93-1.39-4.16-.31-1.23 1.08-1.39 2.93-.31 4.16zM1735.8 1078.63c.77.93 2.16 1.08 3.08.31.93-.77 1.08-2.16.31-3.08-.77-.93-2.16-1.08-3.08-.31-.93.77-1.08 2.16-.31 3.08zM1892.35 964.532c.77.925 2.15 1.079 3.08.308.93-.771 1.08-2.158.31-3.083-.77-.926-2.16-1.08-3.09-.309-.92.771-1.08 2.159-.3 3.084zM1779.76 893.296c.77.925 2.15 1.079 3.08.308.93-.771 1.08-2.159.31-3.084-.77-.925-2.16-1.079-3.09-.308-.92.771-1.08 2.158-.3 3.084zM1881.39 1032.07c.31.31.62.31.93.15.3-.31.3-.61.15-.92-.31-.31-.62-.31-.93-.16-.3.16-.3.62-.15.93zM1896.82 1049.34c.3.31.61.31.92.15.31-.31.31-.61.16-.92-.31-.31-.62-.31-.93-.16-.31.16-.31.62-.15.93zM1848.08 978.719c.46.617 1.38.617 2 .154.62-.462.62-1.387.16-2.004-.47-.617-1.39-.617-2.01-.154-.62.617-.62 1.542-.15 2.004zM1556.74 1083.41c.46.62 1.38.62 2 .16.62-.46.62-1.39.16-2.01-.47-.61-1.39-.61-2.01-.15-.46.62-.62 1.39-.15 2zM1852.55 973.168c.47.617 1.39.617 2.01.155.61-.463.61-1.388.15-2.005-.46-.617-1.39-.617-2-.154-.62.463-.62 1.388-.16 2.004zM1818.31 896.688c.46.617 1.39.617 2.01.154.61-.462.61-1.388.15-2.004-.46-.617-1.39-.617-2.01-.155-.61.463-.61 1.388-.15 2.005zM1859.8 863.538c.46.616 1.39.616 2 .154.62-.463.62-1.388.16-2.005-.46-.617-1.39-.617-2.01-.154-.61.617-.61 1.388-.15 2.005zM1677.35 914.575c.46.616 1.38.616 2 .154.62-.463.62-1.388.16-2.005-.47-.616-1.39-.616-2.01-.154-.62.617-.77 1.388-.15 2.005zM1890.96 956.206c.46.616 1.38.616 2 .154.62-.463.62-1.388.15-2.005-.46-.617-1.38-.617-2-.154-.46.617-.62 1.388-.15 2.005zM1858.1 859.528c.47.617 1.39.617 2.01.154.62-.463.62-1.388.15-2.004-.46-.617-1.39-.617-2-.155-.46.463-.62 1.388-.16 2.005zM1799.96 908.407c.46.616 1.39.616 2 .154.62-.463.62-1.388.16-2.005-.46-.616-1.39-.616-2.01-.154-.61.463-.61 1.388-.15 2.005zM1669.79 944.795c.46.617 1.39.617 2.01.155.61-.463.61-1.388.15-2.005-.46-.617-1.39-.617-2.01-.154-.61.617-.61 1.388-.15 2.004zM1770.65 909.332c.47.617 1.39.617 2.01.155.62-.463.62-1.388.15-2.005-.46-.616-1.38-.616-2-.154-.62.617-.77 1.388-.16 2.004zM1855.63 803.866c.47.616 1.39.616 2.01.154.62-.463.62-1.388.15-2.005-.46-.616-1.38-.616-2-.154-.62.463-.62 1.388-.16 2.005zM1633.54 1066.45c.47.62 1.39.62 2.01.16.62-.46.62-1.39.15-2.01-.46-.61-1.38-.61-2-.15-.62.62-.62 1.54-.16 2zM1858.41 1032.07a2.961 2.961 0 0 0-3.24 2.62 2.963 2.963 0 0 0 2.63 3.24c1.69.15 3.08-1.08 3.23-2.62.31-1.7-.92-3.09-2.62-3.24zM1897.43 1057.66c1.55 1.85 4.32 2.01 6.17.47 1.85-1.55 2.01-4.32.47-6.17-1.55-1.85-4.32-2.01-6.17-.46-1.7 1.54-2.01 4.31-.47 6.16zM1671.33 1052.88c.46.62 1.39.62 2 .16.62-.47.62-1.39.16-2.01-.46-.61-1.39-.61-2.01-.15-.61.46-.61 1.39-.15 2zM1815.85 984.422c.46.617 1.38.617 2 .155.62-.463.62-1.388.15-2.005-.46-.617-1.38-.617-2-.154-.62.462-.77 1.388-.15 2.004zM1699.09 1033.3c.46.62 1.39.62 2.01.16.61-.47.61-1.39.15-2.01-.46-.62-1.39-.62-2-.15-.62.46-.62 1.38-.16 2zM1807.98 1015.73c.46.61 1.39.61 2 .15.62-.46.62-1.39.16-2.01-.46-.61-1.39-.61-2.01-.15-.46.46-.61 1.39-.15 2.01zM1912.86 978.873c.46.617 1.39.617 2 .155.62-.463.62-1.388.16-2.005-.47-.617-1.39-.617-2.01-.154-.46.463-.62 1.388-.15 2.004zM1867.51 919.663c.47.616 1.39.616 2.01.154.62-.463.62-1.388.15-2.005-.46-.617-1.38-.617-2-.154-.62.463-.77 1.388-.16 2.005zM339.238 1025.75c0 1.69 1.388 3.08 3.085 3.08a3.095 3.095 0 0 0 3.085-3.08c0-1.7-1.389-3.09-3.085-3.09-1.851 0-3.085 1.39-3.085 3.09zM518.918 1014.65c0 .77.617 1.38 1.388 1.38.771 0 1.388-.61 1.388-1.38 0-.78-.617-1.39-1.388-1.39-.771 0-1.388.61-1.388 1.39z" fill="#94D6EA"/><path opacity=".3" d="M156.627 992.75a4.314 4.314 0 1 1 0 8.63 4.313 4.313 0 0 1-4.318-4.313 4.317 4.317 0 0 1 4.318-4.317z" fill="#94D6EA"/><path opacity=".3" fill-rule="evenodd" clip-rule="evenodd" d="M339.856 1005.86a4.37 4.37 0 0 0-6.17 0 4.365 4.365 0 0 0 0 6.16 4.37 4.37 0 0 0 6.17 0 4.365 4.365 0 0 0 0-6.16z" fill="#94D6EA"/><path opacity=".3" d="M211.533 1053.81a4.315 4.315 0 1 1 0 8.63 4.314 4.314 0 1 1 0-8.63z" fill="#B5EAFF"/><path opacity=".3" d="M184.854 940.479a3.084 3.084 0 1 1 .002 6.168 3.084 3.084 0 0 1-.002-6.168zM106.659 853.516a3.084 3.084 0 1 1 0 6.169 3.084 3.084 0 0 1 0-6.169zM129.174 1061.06a3.083 3.083 0 0 1 3.085 3.08c0 1.7-1.381 3.08-3.085 3.08a3.083 3.083 0 0 1-3.084-3.08c0-1.7 1.381-3.08 3.084-3.08zM269.217 983.653a3.084 3.084 0 1 1 .003 6.167 3.084 3.084 0 0 1-.003-6.167zM174.365 1002c.766 0 1.388.62 1.388 1.39a1.388 1.388 0 1 1-2.776 0c0-.77.621-1.39 1.388-1.39z" fill="#94D6EA"/><path opacity=".3" fill-rule="evenodd" clip-rule="evenodd" d="M193.183 845.344c-.617-.617-1.543-.617-2.005 0-.617.616-.617 1.541 0 2.004.616.617 1.542.617 2.005 0 .616-.617.616-1.542 0-2.004z" fill="#94D6EA"/><path opacity=".3" d="M124.548 1069.54a1.385 1.385 0 1 1 0 2.77 1.386 1.386 0 1 1 0-2.77z" fill="#94D6EA"/><path opacity=".3" fill-rule="evenodd" clip-rule="evenodd" d="M102.647 1044.87c-.617-.62-1.542-.62-2.005 0-.617.61-.617 1.54 0 2 .617.62 1.543.62 2.005 0 .463-.46.463-1.39 0-2z" fill="#94D6EA"/><path opacity=".3" d="M120.849 1037.46c.767 0 1.388.63 1.388 1.39a1.387 1.387 0 1 1-2.776 0c0-.76.621-1.39 1.388-1.39zM249.474 1058.9a1.385 1.385 0 1 1 0 2.77 1.385 1.385 0 1 1 0-2.77z" fill="#94D6EA"/><path opacity=".3" fill-rule="evenodd" clip-rule="evenodd" d="M141.975 1050.42a.743.743 0 0 0-1.08 0 .747.747 0 0 0 0 1.08c.309.3.772.3 1.08 0a.747.747 0 0 0 0-1.08z" fill="#94D6EA"/><path opacity=".3" d="M327.826 929.224a.77.77 0 1 1 0 1.542.77.77 0 0 1 0-1.542z" fill="#94D6EA"/><path opacity=".3" fill-rule="evenodd" clip-rule="evenodd" d="M125.936 1049.8a.743.743 0 0 0-1.08 0 .747.747 0 0 0 0 1.08c.309.31.771.31 1.08 0 .308-.46.308-.93 0-1.08zM146.448 1062.44c-.617-.61-1.542-.61-2.005 0-.617.62-.617 1.55 0 2.01.617.61 1.542.61 2.005 0 .463-.46.463-1.39 0-2.01zM387.515 930.457c-.617-.617-1.543-.617-2.005 0-.617.617-.617 1.542 0 2.004.616.617 1.542.617 2.005 0 .617-.617.617-1.542 0-2.004z" fill="#94D6EA"/><path opacity=".3" d="M12.885 1019.58a3.085 3.085 0 1 1-.001 6.17 3.085 3.085 0 0 1 .001-6.17zM97.249 1062.6a3.083 3.083 0 0 1 3.084 3.08c0 1.7-1.38 3.09-3.084 3.09a3.091 3.091 0 0 1-3.085-3.09c0-1.7 1.381-3.08 3.085-3.08zM2.396 1080.95a1.385 1.385 0 1 1 0 2.77 1.385 1.385 0 1 1 0-2.77zM237.599 1017.73a1.385 1.385 0 1 1 0 2.77 1.385 1.385 0 1 1 0-2.77z" fill="#94D6EA"/><path opacity=".3" fill-rule="evenodd" clip-rule="evenodd" d="M406.944 1007.86c-.617-.62-1.542-.62-2.005 0-.617.62-.617 1.54 0 2.01.617.61 1.543.61 2.005 0 .617-.47.617-1.39 0-2.01zM194.877 1012.02a.742.742 0 0 0-1.079 0 .745.745 0 0 0 0 1.08c.308.31.771.31 1.079 0 .309-.46.309-.92 0-1.08zM373.167 1046.25c-.617-.61-1.542-.61-2.005 0-.617.62-.617 1.55 0 2.01.617.61 1.542.61 2.005 0 .617-.46.617-1.39 0-2.01z" fill="#94D6EA"/><path opacity=".3" d="M346.952 997.375a3.083 3.083 0 1 1 0 6.165 3.083 3.083 0 1 1 0-6.165zM319.345 980.723a1.387 1.387 0 1 1 .002 2.774 1.387 1.387 0 0 1-.002-2.774zM338.466 973.785a1.387 1.387 0 1 1 .001 2.775 1.387 1.387 0 0 1-.001-2.775z" fill="#94D6EA"/><path opacity=".3" fill-rule="evenodd" clip-rule="evenodd" d="M359.596 986.582a.747.747 0 0 0-1.08 0 .746.746 0 0 0 0 1.079.745.745 0 0 0 1.08 0 .744.744 0 0 0 0-1.079zM343.713 985.965a.744.744 0 0 0-1.079 0 .744.744 0 0 0 0 1.079.746.746 0 0 0 1.079 0 1.31 1.31 0 0 0 0-1.079zM364.069 998.609c-.617-.617-1.542-.617-2.005 0-.617.617-.617 1.541 0 2.001.617.62 1.543.62 2.005 0 .617-.46.617-1.384 0-2.001z" fill="#94D6EA"/><path opacity=".3" fill-rule="evenodd" clip-rule="evenodd" d="M666.359 1020.2c0 1.69 1.388 3.08 3.085 3.08a3.094 3.094 0 0 0 3.085-3.08c0-1.7-1.388-3.09-3.085-3.09a3.096 3.096 0 0 0-3.085 3.09z" fill="#B5EAFF"/><path opacity=".3" fill-rule="evenodd" clip-rule="evenodd" d="M563.797 869.705a4.376 4.376 0 0 0-6.169 0 4.372 4.372 0 0 0 0 6.167 4.374 4.374 0 0 0 6.169 0 4.372 4.372 0 0 0 0-6.167z" fill="#94D6EA"/><path opacity=".3" d="M596.342 978.102a3.085 3.085 0 1 1 0 6.17 3.085 3.085 0 0 1 0-6.17z" fill="#94D6EA"/><path opacity=".3" fill-rule="evenodd" clip-rule="evenodd" d="M655.565 923.98a.747.747 0 0 0-1.08 0 .747.747 0 0 0 0 1.08.747.747 0 0 0 1.08 0 .747.747 0 0 0 0-1.08z" fill="#94D6EA"/><path opacity=".3" d="M713.708 924.598a1.387 1.387 0 1 1 .002 2.774 1.387 1.387 0 0 1-.002-2.774z" fill="#94D6EA"/><path opacity=".3" fill-rule="evenodd" clip-rule="evenodd" d="M734.226 1002.46c-.617-.61-1.543-.61-2.005 0-.617.62-.617 1.54 0 2.01.616.61 1.542.61 2.005 0 .462-.62.462-1.39 0-2.01z" fill="#94D6EA"/><path opacity=".3" d="M699.369 1040.55a1.386 1.386 0 1 1 0 2.77 1.386 1.386 0 1 1 0-2.77zM674.073 991.825a3.083 3.083 0 1 1 0 6.167 3.084 3.084 0 1 1 0-6.167z" fill="#94D6EA"/><path opacity=".3" fill-rule="evenodd" clip-rule="evenodd" d="M647.546 975.634c-.617-.616-1.542-.616-2.005 0-.617.617-.617 1.542 0 2.005.617.617 1.542.617 2.005 0 .617-.617.617-1.388 0-2.005zM666.823 968.695c-.617-.617-1.542-.617-2.005 0-.617.617-.617 1.542 0 2.005.617.616 1.543.616 2.005 0 .463-.617.463-1.542 0-2.005zM686.877 981.185a.746.746 0 0 0-1.079 0 .745.745 0 0 0 0 1.08.746.746 0 0 0 1.079 0 .745.745 0 0 0 0-1.08zM670.834 980.568a.746.746 0 0 0-1.079 0 .745.745 0 0 0 0 1.08.746.746 0 0 0 1.079 0c.309-.463.309-.925 0-1.08zM691.347 993.213c-.617-.617-1.543-.617-2.005 0-.617.616-.617 1.542 0 2.004.616.617 1.542.617 2.005 0 .462-.617.462-1.542 0-2.004zM268.295 1076.17c-1.234-1.24-3.085-1.24-4.319 0-1.234 1.23-1.234 3.08 0 4.32 1.234 1.23 3.085 1.23 4.319 0 1.233-1.24 1.233-3.24 0-4.32zM216.933 1066.3c-.617-.62-1.543-.62-2.005 0-.617.62-.617 1.54 0 2 .616.62 1.542.62 2.005 0 .462-.61.462-1.54 0-2z" fill="#94D6EA"/></g><path fill-rule="evenodd" clip-rule="evenodd" d="M635.512 586.918a3.093 3.093 0 0 0 3.084 3.084 3.094 3.094 0 0 0 3.085-3.084 3.094 3.094 0 0 0-3.085-3.084 3.093 3.093 0 0 0-3.084 3.084zM619.781 910.873a3.094 3.094 0 0 0 3.085 3.084 3.094 3.094 0 0 0 3.085-3.084 3.094 3.094 0 0 0-3.085-3.084c-1.697.155-3.085 1.542-3.085 3.084zM1587.43 908.561a3.094 3.094 0 0 0 3.08 3.084c1.7 0 3.09-1.388 3.09-3.084a3.096 3.096 0 0 0-3.09-3.084c-1.85.154-3.08 1.542-3.08 3.084zM1022.17 878.031a3.095 3.095 0 0 0 3.09 3.084c1.69 0 3.08-1.387 3.08-3.084a3.093 3.093 0 0 0-3.08-3.083c-1.7.154-3.09 1.387-3.09 3.083zM437.328 409.6a3.094 3.094 0 0 0 3.085 3.084 3.093 3.093 0 0 0 3.084-3.084 3.093 3.093 0 0 0-3.084-3.084c-1.697.154-3.085 1.542-3.085 3.084z" fill="#F1A8CA" fill-opacity=".26"/><path d="M1157.74 415.92c1.7 0 3.08 1.381 3.08 3.084a3.085 3.085 0 1 1-3.08-3.084z" fill="#F1A8CA" fill-opacity=".26"/><path fill-rule="evenodd" clip-rule="evenodd" d="M669.754 449.07a3.093 3.093 0 0 0 3.085 3.084 3.093 3.093 0 0 0 3.084-3.084 3.092 3.092 0 0 0-3.084-3.083 3.093 3.093 0 0 0-3.085 3.083z" fill="#F1A8CA" fill-opacity=".26"/><path d="M588.319 798.161a3.084 3.084 0 1 1 0 6.167 3.085 3.085 0 1 1 0-6.167z" fill="#F1A8CA" fill-opacity=".26"/><path fill-rule="evenodd" clip-rule="evenodd" d="M1819.39 515.836a3.096 3.096 0 0 0 3.09 3.084c1.69 0 3.08-1.388 3.08-3.084a3.094 3.094 0 0 0-3.08-3.084c-1.7 0-3.09 1.388-3.09 3.084zM1847.46 616.524a3.095 3.095 0 0 0 3.09 3.083c1.69 0 3.08-1.387 3.08-3.083a3.093 3.093 0 0 0-3.08-3.084c-1.7 0-3.09 1.387-3.09 3.084zM724.504 444.291a3.094 3.094 0 0 0 3.085 3.084 3.093 3.093 0 0 0 3.084-3.084 3.093 3.093 0 0 0-3.084-3.084 3.094 3.094 0 0 0-3.085 3.084z" fill="#F1A8CA" fill-opacity=".26"/><path d="M1455.1 434.27c1.7 0 3.08 1.38 3.08 3.084a3.083 3.083 0 0 1-3.08 3.084c-1.7 0-3.08-1.381-3.08-3.084a3.082 3.082 0 0 1 3.08-3.084z" fill="#F1A8CA" fill-opacity=".26"/><path fill-rule="evenodd" clip-rule="evenodd" d="M1452.02 635.488a3.087 3.087 0 0 0 3.08 3.084c1.7 0 3.08-1.387 3.08-3.084a3.086 3.086 0 0 0-3.08-3.083c-1.7.154-3.08 1.541-3.08 3.083z" fill="#F1A8CA" fill-opacity=".26"/></g><defs><linearGradient id="b" x1="-824.525" y1="237.194" x2="1876.97" y2="1905" gradientUnits="userSpaceOnUse"><stop stop-color="#F1A8CA"/><stop offset=".193" stop-color="#5C519A"/><stop offset=".599" stop-color="#5B60A2"/><stop offset=".953" stop-color="#53BBD1"/></linearGradient><linearGradient id="c" x1="66" y1="473.617" x2="1961.32" y2="1329.11" gradientUnits="userSpaceOnUse"><stop stop-color="#F1A8CA"/><stop offset=".458" stop-color="#5C519A"/><stop offset="1" stop-color="#53BBD1"/></linearGradient><filter id="a" x="-525" y="0" width="2944" height="1467" filterUnits="userSpaceOnUse" color-interpolation-filters="sRGB"><feFlood flood-opacity="0" result="BackgroundImageFix"/><feBlend in="SourceGraphic" in2="BackgroundImageFix" result="shape"/><feGaussianBlur stdDeviation="100" result="effect1_foregroundBlur_36_65881"/></filter></defs></svg>