<svg width="21" height="24" viewBox="0 0 21 24" fill="none" xmlns="http://www.w3.org/2000/svg">
<g clip-path="url(#clip0_36_81764)">
<path d="M10.5008 23.9995C7.32553 23.9995 4.15024 23.9995 0.97495 23.9995C0.197519 23.9995 -0.0179136 23.7739 0.0101863 22.9843C0.169419 18.0019 4.20644 14.063 9.18013 14.0724C10.6882 14.0724 12.2149 14.0348 13.6948 14.2792C17.8255 14.9655 21.0664 18.989 21.0102 23.1817C21.0008 23.7645 20.7479 23.9995 20.1297 23.9995C16.9076 23.9995 13.7042 23.9995 10.5008 23.9995ZM19.5584 22.5706C19.5584 22.4766 19.5677 22.4014 19.5584 22.3262C19.2774 19.036 16.3737 15.9619 13.086 15.5859C11.7747 15.4355 10.4446 15.4825 9.12393 15.4825C5.71447 15.4825 2.73588 17.7105 1.74301 20.9725C1.58378 21.4802 1.50885 22.016 1.38708 22.58C7.49413 22.5706 13.5075 22.5706 19.5584 22.5706Z" fill="white"/>
<path d="M16.7935 6.33571C16.7842 9.82337 13.9648 12.653 10.4991 12.653C7.01476 12.653 4.17667 9.79517 4.1954 6.28871C4.21414 2.80104 7.04286 -0.00976562 10.5179 -0.00976562C13.9835 0.00903578 16.8029 2.85745 16.7935 6.33571ZM10.4898 11.2429C13.1874 11.2429 15.3885 9.05251 15.4073 6.33571C15.426 3.63771 13.2248 1.40974 10.5272 1.40034C7.80156 1.39094 5.58167 3.60951 5.59103 6.32631C5.6004 9.04311 7.79219 11.2429 10.4898 11.2429Z" fill="white"/>
</g>
<defs>
<clipPath id="clip0_36_81764">
<rect width="21" height="24" fill="white"/>
</clipPath>
</defs>
</svg>
