<svg width="170" height="52" viewBox="0 0 170 52" fill="none" xmlns="http://www.w3.org/2000/svg">
<g clip-path="url(#clip0_36_81781)">
<path d="M64.0773 9.86007C64.0773 9.11538 63.9773 8.55044 63.7773 8.19093C63.5773 7.83143 63.1773 7.65168 62.5773 7.65168H62.1523V7.18945H67.7523C69.3273 7.18945 70.6773 7.44624 71.8523 7.9855C73.0023 8.52476 73.5773 9.55192 73.5773 11.067C73.5773 11.7603 73.3523 12.3766 72.8773 12.9416C72.4273 13.5065 71.7023 13.943 70.7523 14.2769C72.0773 14.508 73.0023 14.8932 73.5273 15.4838C74.0523 16.0744 74.3024 16.8448 74.3024 17.8206C74.3024 19.3099 73.7273 20.3628 72.5773 20.9277C71.4273 21.5183 70.0273 21.8008 68.3523 21.8008H64.0273V9.86007H64.0773ZM68.0773 13.9687C68.6773 13.9687 69.2273 13.866 69.7523 13.6349C70.2773 13.4038 70.7023 13.0699 71.0273 12.6077C71.3523 12.1455 71.5273 11.6062 71.5273 10.9899C71.5273 10.3223 71.3273 9.75735 70.9523 9.32081C70.5523 8.85859 70.0773 8.55044 69.4773 8.31933C68.8773 8.1139 68.2773 7.9855 67.6523 7.9855C67.1523 7.9855 66.6023 8.06254 66.0273 8.21661V13.9687H68.0773ZM71.1023 20.2601C71.8023 19.7208 72.1773 18.9504 72.1773 17.949C72.1773 16.9475 71.8273 16.1771 71.1273 15.6378C70.4273 15.0986 69.4023 14.8418 68.0773 14.8418H66.0273V20.748C66.7273 20.9534 67.4023 21.0561 68.0773 21.0561C69.3773 21.0561 70.3773 20.7737 71.1023 20.2601Z" fill="white"/>
<path d="M77.5031 9.86007C77.5031 9.11538 77.4031 8.55044 77.2031 8.19093C77.0031 7.83143 76.6031 7.65168 76.0031 7.65168H75.5781V7.18945H77.5281C78.0531 7.18945 78.4531 7.26649 78.7281 7.39488C79.0031 7.52328 79.1781 7.78007 79.3031 8.16526C79.4281 8.52476 79.4781 9.0897 79.4781 9.86007V19.8235L86.3531 7.18945H88.3031V21.8265H86.3531V9.19242L79.4281 21.8265H77.5031V9.86007Z" fill="white"/>
<path d="M92.425 9.86007C92.425 9.11538 92.325 8.55044 92.125 8.19093C91.925 7.83143 91.525 7.65168 90.925 7.65168H90.5V7.18945H99.575C100.8 7.18945 101.4 7.78007 101.4 8.96131V10.6304H100.975C100.975 8.93563 100.075 8.08822 98.275 8.08822H94.375V13.4038H96.75C98.325 13.4038 99.675 13.7119 100.8 14.3025C101.925 14.9188 102.475 15.9974 102.475 17.6151C102.475 19.2072 101.925 20.3114 100.8 20.9277C99.675 21.544 98.325 21.8265 96.75 21.8265H92.425V9.86007ZM99.275 20.183C99.95 19.6181 100.3 18.745 100.3 17.6151C100.3 16.4853 99.95 15.6122 99.275 15.0472C98.6 14.4823 97.65 14.1741 96.425 14.1741C95.75 14.1741 95.075 14.2769 94.375 14.4823V20.7223C95.075 20.9277 95.75 21.0304 96.425 21.0304C97.625 21.0561 98.6 20.7736 99.275 20.183Z" fill="white"/>
<path d="M105.55 9.86007C105.55 9.11538 105.45 8.55044 105.25 8.19093C105.05 7.83143 104.65 7.65168 104.05 7.65168H103.625V7.18945H109.225C110.6 7.18945 111.85 7.4976 112.95 8.08822C114.05 8.70451 114.6 9.86007 114.6 11.6062C114.6 12.7618 114.3 13.6349 113.725 14.2769C113.15 14.8932 112.5 15.304 111.8 15.5095C111.1 15.7149 110.425 15.8176 109.85 15.8176H107.475V21.8265H105.525V9.86007H105.55ZM110.575 14.7134C111.1 14.4823 111.525 14.0714 111.9 13.5578C112.275 13.0186 112.45 12.3509 112.45 11.5292C112.45 10.7075 112.275 10.0398 111.9 9.50056C111.525 8.9613 111.1 8.57612 110.575 8.34501C110.05 8.1139 109.575 7.9855 109.1 7.9855C108.6 7.9855 108.05 8.06254 107.475 8.21661V14.8675C108.05 15.0216 108.6 15.0986 109.1 15.0986C109.55 15.0729 110.05 14.9445 110.575 14.7134Z" fill="white"/>
<path d="M125.15 21.3386C124.475 20.9534 123.925 20.183 123.525 19.0532L122.975 17.6151H116.925L115.225 21.8265H114.25L120.3 7.18945H120.95L125.7 19.0532C126.05 19.9006 126.4 20.4912 126.725 20.825C127.05 21.1332 127.5 21.3386 128.075 21.3899V21.8265C127.825 21.9035 127.525 21.9292 127.2 21.9292C126.5 21.9292 125.825 21.7495 125.15 21.3386ZM117.275 16.742H122.55L119.95 10.3223L117.275 16.742Z" fill="white"/>
<path d="M140.202 22.7253C139.777 22.1346 139.177 21.8265 138.402 21.8265H129.777V9.86007C129.777 9.11538 129.677 8.55044 129.477 8.19093C129.277 7.83143 128.877 7.65168 128.277 7.65168H127.852V7.18945H129.802C130.327 7.18945 130.727 7.26649 131.002 7.39488C131.277 7.52328 131.452 7.78007 131.577 8.16526C131.702 8.52476 131.752 9.0897 131.752 9.86007V20.9277H138.227V7.18945H140.177V20.9277H141.352C141.577 20.9277 141.752 21.0048 141.902 21.1588C142.052 21.3129 142.127 21.4927 142.127 21.7238V25.8324H141.152C140.927 24.343 140.627 23.3159 140.202 22.7253Z" fill="white"/>
<path d="M144.753 9.86007C144.753 9.11538 144.653 8.55044 144.453 8.19093C144.253 7.83143 143.853 7.65168 143.253 7.65168H142.828V7.18945H144.778C145.303 7.18945 145.703 7.26649 145.978 7.39488C146.253 7.52328 146.428 7.78007 146.553 8.16526C146.678 8.52476 146.728 9.0897 146.728 9.86007V19.8235L153.603 7.18945H155.553V21.8265H153.603V9.19242L146.703 21.8265H144.753V9.86007Z" fill="white"/>
<path d="M157.703 21.8002V21.3894C158.228 21.338 158.678 21.1583 159.053 20.8501C159.428 20.542 159.778 20.1311 160.078 19.6175L162.353 15.6373C161.478 15.4062 160.728 14.9953 160.128 14.379C159.528 13.7627 159.228 12.8383 159.228 11.657C159.228 9.91085 159.778 8.72962 160.878 8.139C161.978 7.5227 163.228 7.24023 164.603 7.24023H170.003V7.67678H169.778C169.178 7.67678 168.778 7.85653 168.578 8.21604C168.378 8.57554 168.278 9.14048 168.278 9.88517V21.8259H166.328V15.8427H164.253L161.978 20.0541C161.578 20.7988 161.153 21.338 160.678 21.6205C160.228 21.903 159.653 22.057 159.003 22.057C158.603 22.057 158.178 21.9543 157.703 21.8002ZM166.328 14.8412V8.19036C165.753 8.03628 165.203 7.95925 164.703 7.95925C164.253 7.95925 163.753 8.08764 163.228 8.31875C162.703 8.54986 162.278 8.96073 161.903 9.47431C161.528 10.0136 161.353 10.6812 161.353 11.503C161.353 12.3247 161.528 12.9923 161.903 13.5316C162.278 14.0709 162.703 14.456 163.228 14.6872C163.753 14.9183 164.228 15.0467 164.703 15.0467C165.228 15.0723 165.753 14.9953 166.328 14.8412Z" fill="white"/>
<path d="M62.125 42.7296C62.125 42.4985 62.2 42.3188 62.35 42.1647C62.5 42.0106 62.675 41.9336 62.9 41.9336H63.775C64.425 40.4442 64.9 38.8007 65.2 36.9775C65.475 35.1543 65.625 33.1 65.625 30.8402C65.625 30.0956 65.525 29.5306 65.325 29.1711C65.125 28.8116 64.725 28.6319 64.125 28.6319H63.75V28.1953H74.525V41.9336H75.7C75.925 41.9336 76.1 42.0106 76.25 42.1647C76.4 42.3188 76.475 42.4985 76.475 42.7296V46.8383H75.5C75.325 45.3489 75.025 44.3217 74.625 43.7311C74.2 43.1405 73.6 42.8323 72.825 42.8323H65.825C65.025 42.8323 64.425 43.1405 64.025 43.7311C63.6 44.3217 63.325 45.3489 63.15 46.8383H62.175V42.7296H62.125ZM72.6 41.9336V29.0684H67C67 32.1242 66.875 34.6664 66.6 36.6694C66.325 38.6723 65.9 40.4185 65.275 41.9336H72.6Z" fill="white"/>
<path d="M79.7249 42.3961C80.4749 42.3961 81.1499 42.2677 81.7249 42.0109C82.3249 41.7541 82.7249 41.3433 82.9499 40.727L83.1749 40.162L79.1749 31.0717C78.9499 30.5324 78.7499 30.1215 78.5499 29.8134C78.3499 29.5052 78.0749 29.2484 77.6999 29.0173C77.3499 28.7862 76.8499 28.6578 76.2499 28.6321V28.1956H78.8499C79.4749 28.1956 79.9749 28.401 80.3749 28.8376C80.7749 29.2741 81.1249 29.8647 81.4499 30.6094L84.3749 37.2603L88.2499 28.1699H89.5499L84.2499 40.727C83.5999 42.2677 82.4499 43.0637 80.8249 43.0637H79.7499V42.3961H79.7249Z" fill="white"/>
<path d="M92.2766 30.8656C92.2766 30.1209 92.1766 29.556 91.9766 29.1965C91.7766 28.837 91.3766 28.6572 90.7766 28.6572H90.3516V28.2207H92.3016C92.8266 28.2207 93.2266 28.2977 93.5016 28.4261C93.7766 28.5545 93.9516 28.8113 94.0766 29.1965C94.2016 29.556 94.2516 30.121 94.2516 30.8913V41.959H99.3265V28.2207H101.277V41.959H106.352V28.2207H108.302V42.8577H92.3266V30.8656H92.2766Z" fill="white"/>
<path d="M112.374 30.8659C112.374 30.1212 112.274 29.5563 112.074 29.1968C111.874 28.8373 111.474 28.6575 110.874 28.6575H110.449V28.221H112.399C112.924 28.221 113.324 28.298 113.599 28.4264C113.874 28.5548 114.049 28.8116 114.174 29.1968C114.299 29.5563 114.349 30.1212 114.349 30.8916V40.8294L121.249 28.1953H123.199V42.8323H121.249V30.1983L114.349 42.8323H112.399V30.8659H112.374Z" fill="white"/>
<path d="M21.3238 30.3523C21.3988 30.378 21.4488 30.378 21.5238 30.378C21.9238 30.378 22.2988 30.0955 22.3988 29.659C22.4988 29.1711 22.1988 28.6832 21.7238 28.5805C13.3738 26.6545 7.44877 19.1563 7.37377 10.3227C7.37377 9.83477 6.97377 9.42391 6.47377 9.42391C6.24877 9.42391 6.07377 9.50095 5.92377 9.62934C5.82377 9.70638 5.74877 9.80909 5.69877 9.91181C5.64877 10.0402 5.59877 10.1686 5.59877 10.3227C5.64877 15.0219 7.27377 19.5928 10.1488 23.2135C12.9738 26.8343 16.9488 29.3508 21.3238 30.3523ZM23.1738 4.10835C22.5738 4.39082 22.0238 4.75033 21.5238 5.21255L21.4988 5.23823C21.1238 5.59774 20.7738 5.98292 20.4988 6.41946C20.4738 6.44514 20.4738 6.47082 20.4488 6.47082C20.3988 6.52218 20.3738 6.59922 20.3238 6.65058C20.2988 6.70193 20.2738 6.72761 20.2488 6.77897C20.2238 6.83033 20.1988 6.88169 20.1738 6.93304C20.1488 6.9844 20.1238 7.03576 20.0738 7.1128C20.0488 7.13848 20.0488 7.18984 20.0238 7.21551C19.9988 7.29255 19.9488 7.36959 19.9238 7.44663C19.9238 7.4723 19.8988 7.49798 19.8988 7.52366C19.8488 7.6007 19.8238 7.70342 19.7988 7.78045V7.80613C19.7488 7.90885 19.7238 8.01156 19.6988 8.11428C19.5238 8.65354 19.4238 9.1928 19.3988 9.78342V9.8091C19.3988 9.91181 19.3988 10.0402 19.3988 10.1429C19.3988 10.297 19.3988 10.4767 19.4238 10.6308C19.4238 10.6565 19.4238 10.7079 19.4238 10.7335C19.4488 10.8876 19.4488 11.0417 19.4738 11.1958C19.4738 11.2214 19.4738 11.2728 19.4988 11.2985C19.5238 11.4526 19.5488 11.5809 19.5738 11.7093C19.5738 11.735 19.5738 11.7607 19.5988 11.7607C19.6238 11.9148 19.6738 12.0432 19.7238 12.1972C19.7238 12.2229 19.7488 12.2486 19.7488 12.2743C19.7488 12.2743 19.7488 12.3 19.7738 12.3C20.0238 13.019 20.3988 13.7123 20.8738 14.2772C20.8988 13.5069 21.1738 12.7365 21.6988 12.2229C21.5988 12.0175 21.5238 11.8121 21.4488 11.5809C21.4238 11.4782 21.3988 11.4012 21.3738 11.2985C21.3738 11.2728 21.3488 11.2471 21.3488 11.2214C21.3238 11.1187 21.2988 11.0417 21.2988 10.939C21.2988 10.9133 21.2988 10.8876 21.2738 10.8619C21.2488 10.7592 21.2488 10.6308 21.2238 10.5281C21.2238 10.5024 21.2238 10.4767 21.2238 10.4511C21.2238 10.3227 21.1988 10.22 21.1988 10.0916C21.1988 10.0145 21.1988 9.91181 21.1988 9.83477C21.1988 9.83477 21.1988 9.83477 21.1988 9.8091C21.2238 9.32119 21.3238 8.83329 21.4988 8.37107V8.34539C21.5238 8.26835 21.5488 8.217 21.5738 8.13996C21.5738 8.11428 21.5988 8.11428 21.5988 8.0886C21.6238 8.03724 21.6488 7.98588 21.6738 7.93453C21.6738 7.90885 21.6988 7.88317 21.6988 7.85749C21.7238 7.80613 21.7488 7.78045 21.7738 7.72909C21.7988 7.70342 21.7988 7.65206 21.8238 7.62638C21.8488 7.6007 21.8488 7.57502 21.8738 7.54934C21.8988 7.49798 21.9238 7.4723 21.9488 7.42095C21.9488 7.39527 21.9738 7.39527 21.9738 7.36959C21.9988 7.31823 22.0488 7.26687 22.0738 7.21551C22.1488 7.1128 22.2488 7.01008 22.3238 6.90737C22.3738 6.85601 22.3988 6.80465 22.4488 6.77897C22.4988 6.72761 22.5488 6.67625 22.5988 6.6249C22.6738 6.54786 22.7738 6.47082 22.8738 6.39379C22.9738 6.31675 23.0488 6.23971 23.1488 6.16267C22.9988 5.49502 22.9488 4.82737 23.1488 4.15971C23.1488 4.15971 23.1488 4.13403 23.1738 4.10835ZM0.823769 20.9538C4.17377 29.0684 11.1238 35.1286 19.4488 37.1829C19.5238 37.2086 19.5988 37.2086 19.6488 37.2086C20.0488 37.2086 20.4238 36.9261 20.5238 36.5153C20.6488 36.0274 20.3488 35.5395 19.8738 35.4111C12.0238 33.4851 5.49877 27.7587 2.39877 20.1321C2.19877 19.6698 1.69877 19.4387 1.24877 19.6442C1.19877 19.6698 1.14877 19.6955 1.09877 19.7212C0.748769 19.9523 0.623769 20.4145 0.773769 20.8254C0.773769 20.8767 0.798769 20.9281 0.823769 20.9538ZM2.64877 15.2274C4.49877 24.138 11.2738 31.3795 19.8738 33.6392C19.9488 33.6649 20.0238 33.6649 20.0988 33.6649C20.4988 33.6649 20.8488 33.3824 20.9488 32.9716C21.0738 32.4837 20.7738 31.9958 20.2988 31.8674C12.3488 29.7874 6.09877 23.0851 4.37377 14.8422C4.27377 14.3543 3.79877 14.0461 3.32377 14.1488C3.19877 14.1745 3.09877 14.2259 3.02377 14.2772C2.77377 14.457 2.59877 14.7651 2.64877 15.099C2.62377 15.1503 2.64877 15.176 2.64877 15.2274ZM22.0238 23.2392C22.0988 23.2649 22.1988 23.2649 22.2738 23.2649C22.6488 23.2649 23.0238 23.0081 23.1238 22.5972C23.2738 22.1093 22.9988 21.5958 22.5238 21.4674C17.6488 20.0293 14.2488 15.3558 14.2488 10.1172C14.2488 7.85749 14.8738 5.67477 16.0488 3.77453C16.3238 3.33798 16.1988 2.77305 15.7738 2.51625C15.3488 2.23379 14.7988 2.36218 14.5488 2.79872C13.1988 4.98144 12.4738 7.52366 12.4738 10.1172C12.4738 16.1518 16.3988 21.5444 22.0238 23.2392ZM19.7988 40.9064C19.8488 40.9064 19.9238 40.9321 19.9738 40.9321C20.3988 40.9321 20.7488 40.6239 20.8488 40.1874C20.9488 39.6995 20.6238 39.2116 20.1488 39.1088C12.5988 37.5681 5.84877 32.8689 1.62377 26.1923C1.34877 25.7814 0.798769 25.653 0.398769 25.9355C0.373769 25.9355 0.373769 25.9612 0.348769 25.9869C-0.0262314 26.2693 -0.126231 26.8086 0.148769 27.2195C0.223769 27.3479 0.323769 27.5019 0.423769 27.6303C4.89877 34.4609 11.9488 39.2886 19.7988 40.9064ZM31.2238 31.893C30.7488 32.0214 30.4738 32.5093 30.5738 32.9972C30.6738 33.4081 31.0488 33.6906 31.4238 33.6906C31.4988 33.6906 31.5738 33.6906 31.6488 33.6649C40.2488 31.4051 47.0238 24.1637 48.8738 15.2274C48.8738 15.176 48.8738 15.1503 48.8988 15.099C48.9238 14.7651 48.7738 14.457 48.5238 14.2772C48.4238 14.2259 48.3238 14.1745 48.2238 14.1488C47.7488 14.0461 47.2738 14.3543 47.1738 14.8422C45.4488 23.0851 39.1988 29.7874 31.2238 31.893ZM31.6988 35.4111C31.2238 35.5395 30.9238 36.0274 31.0488 36.5153C31.1488 36.9261 31.4988 37.2086 31.9238 37.2086C31.9988 37.2086 32.0738 37.2086 32.1238 37.1829C40.4488 35.1286 47.3988 29.0684 50.7488 20.9538C50.7738 20.9024 50.7988 20.8511 50.7988 20.8254C50.9738 20.4145 50.8238 19.9523 50.4738 19.7212C50.4238 19.6955 50.3738 19.6698 50.3238 19.6442C49.8738 19.4387 49.3488 19.6698 49.1738 20.1321C46.0488 27.7587 39.5238 33.4851 31.6988 35.4111ZM28.6988 6.44514C28.7238 6.47082 28.7488 6.4965 28.7988 6.52218C28.8738 6.57354 28.9238 6.65058 28.9988 6.70193C29.0238 6.72761 29.0488 6.75329 29.0988 6.80465C29.1738 6.88169 29.2738 6.9844 29.3488 7.08712C29.4488 7.18984 29.5238 7.31823 29.6238 7.44663C29.6238 7.4723 29.6488 7.4723 29.6488 7.49798C29.6738 7.54934 29.6988 7.57502 29.7238 7.62638C29.7488 7.65206 29.7488 7.67774 29.7738 7.70342C29.7988 7.72909 29.8238 7.78045 29.8238 7.80613C29.8488 7.85749 29.8738 7.88317 29.8988 7.93453C29.9238 7.96021 29.9238 7.98588 29.9238 8.01156C29.9488 8.06292 29.9738 8.11428 29.9988 8.16564C29.9988 8.19132 30.0238 8.19132 30.0238 8.217C30.0488 8.29403 30.0738 8.34539 30.0988 8.42243V8.44811C30.1238 8.52514 30.1488 8.60218 30.1738 8.67922C30.2988 9.0644 30.3738 9.47527 30.3988 9.88613C30.3988 9.88613 30.3988 9.88613 30.3988 9.91181C30.3988 9.98885 30.3988 10.0659 30.3988 10.1686C30.3988 10.297 30.3988 10.3997 30.3738 10.5281C30.3738 10.5538 30.3738 10.5795 30.3738 10.6051C30.3738 10.7079 30.3488 10.8363 30.3238 10.939C30.3238 10.9647 30.3238 10.9903 30.2988 11.016C30.2738 11.1187 30.2738 11.1958 30.2488 11.2985C30.2488 11.3242 30.2238 11.3498 30.2238 11.4012C30.1988 11.5039 30.1738 11.5809 30.1488 11.6837C30.0738 11.9148 29.9988 12.1202 29.8988 12.3256C30.4238 12.8392 30.6738 13.6096 30.7238 14.38C31.1988 13.7893 31.5738 13.1217 31.8238 12.4027C31.8238 12.4027 31.8238 12.377 31.8488 12.377C31.8488 12.3513 31.8738 12.3256 31.8738 12.3C31.9238 12.1716 31.9738 12.0175 31.9988 11.8634C31.9988 11.8377 31.9988 11.8121 32.0238 11.7864C32.0488 11.658 32.0738 11.5039 32.0988 11.3755C32.0988 11.3498 32.1238 11.2985 32.1238 11.2728C32.1488 11.1187 32.1738 10.9647 32.1738 10.8106C32.1738 10.7849 32.1738 10.7335 32.1738 10.7079C32.1738 10.5538 32.1988 10.374 32.1988 10.22C32.1988 10.0916 32.1988 9.98885 32.1988 9.88613V9.86045C32.1738 9.26984 32.0738 8.73058 31.8988 8.19132C31.8738 8.0886 31.8238 7.98588 31.7988 7.88317C31.7988 7.88317 31.7988 7.85749 31.7738 7.85749C31.7488 7.75477 31.6988 7.67774 31.6738 7.6007C31.6738 7.57502 31.6488 7.54934 31.6488 7.52366C31.6238 7.44663 31.5738 7.36959 31.5488 7.29255C31.5238 7.26687 31.5238 7.21551 31.4988 7.18984C31.4738 7.13848 31.4488 7.08712 31.3988 7.01008C31.3738 6.95872 31.3488 6.90737 31.3238 6.85601C31.2988 6.80465 31.2738 6.77897 31.2488 6.72761C31.2238 6.67626 31.1738 6.59922 31.1238 6.54786C31.0988 6.52218 31.0988 6.4965 31.0738 6.4965C30.7988 6.05996 30.4488 5.67477 30.0738 5.31527L30.0488 5.28959C29.5488 4.85304 28.9988 4.46786 28.3988 4.18539C28.3988 4.21107 28.4238 4.23675 28.4238 4.28811C28.5988 4.95576 28.5738 5.64909 28.4238 6.29107C28.4988 6.29107 28.5988 6.36811 28.6988 6.44514ZM29.8238 28.5805C29.3488 28.6832 29.0488 29.1711 29.1488 29.659C29.2488 30.0955 29.5988 30.378 30.0238 30.378C30.0988 30.378 30.1488 30.378 30.2238 30.3523C34.5988 29.3508 38.5738 26.8086 41.4238 23.2392C44.3238 19.6185 45.9238 15.0219 45.9738 10.3484C45.9738 10.1943 45.9488 10.0659 45.8738 9.93749C45.8238 9.83477 45.7488 9.73206 45.6488 9.65502C45.4988 9.52663 45.2988 9.44959 45.0988 9.44959C44.5988 9.44959 44.1988 9.86045 44.1988 10.3484C44.0988 19.1563 38.1988 26.6545 29.8238 28.5805ZM37.2988 10.1172C37.2988 15.3558 33.8988 20.0293 28.9988 21.493C28.5238 21.6471 28.2488 22.135 28.3988 22.6229C28.5238 23.0338 28.8738 23.2906 29.2488 23.2906C29.3238 23.2906 29.4238 23.2906 29.4988 23.2649C35.1238 21.5701 39.0738 16.1775 39.0738 10.1429C39.0738 7.54934 38.3488 5.00712 36.9988 2.8244C36.7238 2.38786 36.1738 2.28514 35.7738 2.54193C35.3488 2.8244 35.2488 3.38934 35.4988 3.80021C36.6738 5.67477 37.2988 7.85749 37.2988 10.1172ZM33.8488 10.1172C33.8488 12.7622 32.5988 15.2787 30.5238 16.8451C30.1238 17.1533 30.0488 17.7182 30.3238 18.1291C30.4988 18.3859 30.7738 18.5143 31.0488 18.5143C31.2238 18.5143 31.4238 18.4629 31.5738 18.3345C34.1238 16.4343 35.6488 13.3785 35.6488 10.1429C35.6488 5.08416 31.9738 0.744403 27.0738 0.102428C26.6488 0.0510696 26.2238 0.0253906 25.7988 0.0253906C25.3738 0.0253906 24.9488 0.0510696 24.5238 0.102428C19.5988 0.744403 15.9238 5.05848 15.9238 10.1172C15.9238 13.3528 17.4488 16.4086 19.9988 18.3088C20.1488 18.4372 20.3488 18.4886 20.5238 18.4886C20.7988 18.4886 21.0738 18.3602 21.2488 18.1034C21.5488 17.6926 21.4488 17.1276 21.0488 16.8195C18.9738 15.253 17.7238 12.7622 17.7238 10.0916C17.7238 5.93156 20.7488 2.38786 24.7488 1.87428C25.0988 1.82292 25.4488 1.79724 25.7988 1.79724C26.1488 1.79724 26.4988 1.82292 26.8488 1.87428C30.8238 2.43922 33.8488 5.95724 33.8488 10.1172ZM46.6238 40.8293C46.3488 40.4698 45.8238 40.3928 45.4488 40.6496C40.7488 43.8595 35.3238 45.8881 29.7238 46.5044C29.2238 46.5558 28.8738 47.018 28.9488 47.5059C28.9988 47.9681 29.3738 48.3276 29.8238 48.3276C29.8488 48.3276 29.8988 48.3276 29.9238 48.3276C35.1488 47.737 40.2488 45.9908 44.7738 43.2432C45.3488 42.9093 45.8988 42.5498 46.4488 42.1646C46.8488 41.8822 46.9738 41.3172 46.6988 40.9064C46.6738 40.8807 46.6488 40.855 46.6238 40.8293ZM36.4738 49.6116C36.3238 49.175 35.8738 48.9439 35.4238 49.0466C33.2488 49.6116 31.0238 49.9967 28.7988 50.1508C28.2988 50.1765 27.9488 50.6387 27.9738 51.1266C27.9988 51.4605 28.1988 51.7172 28.4488 51.8713C28.5738 51.9484 28.6988 51.974 28.8488 51.974C28.8738 51.974 28.8988 51.974 28.9238 51.974C31.2738 51.7943 33.5988 51.4091 35.8488 50.8185C36.3238 50.6901 36.6238 50.2022 36.4988 49.7143C36.4988 49.6886 36.4738 49.6372 36.4738 49.6116ZM28.6988 27.0397C28.7488 27.0397 28.7988 27.0397 28.8738 27.014C36.7738 25.499 42.5238 18.3859 42.5238 10.0916C42.5238 8.78193 42.3738 7.4723 42.0988 6.18835C41.9988 5.70045 41.4988 5.3923 41.0238 5.49502C40.5488 5.59774 40.2488 6.11132 40.3488 6.59922C40.5988 7.72909 40.7238 8.91033 40.7238 10.0659C40.7238 17.4614 35.5988 23.8298 28.5238 25.1908C28.0488 25.2935 27.7238 25.7558 27.8238 26.2437C27.8988 26.7572 28.2738 27.0397 28.6988 27.0397ZM51.1988 25.9612C51.1738 25.9355 51.1738 25.9355 51.1488 25.9098C50.7488 25.6274 50.1988 25.7558 49.9238 26.1666C45.6988 32.8432 38.9488 37.5424 31.3988 39.0832C30.9238 39.1859 30.5988 39.6738 30.6988 40.1617C30.7738 40.5982 31.1488 40.9064 31.5738 40.9064C31.6238 40.9064 31.6988 40.9064 31.7488 40.8807C39.6238 39.2886 46.6488 34.4353 51.1488 27.579C51.2488 27.4506 51.3238 27.3222 51.4238 27.1681C51.6488 26.7829 51.5488 26.2437 51.1988 25.9612ZM50.2488 32.9716C49.8988 32.6377 49.3488 32.6634 49.0238 33.0229C44.1238 38.2614 37.5988 41.7538 30.6488 42.8323C30.1738 42.9093 29.8238 43.3716 29.8988 43.8595C29.9738 44.3217 30.3488 44.6298 30.7738 44.6298C30.8238 44.6298 30.8738 44.6298 30.8988 44.6298C37.9238 43.5256 44.5238 40.136 49.5988 35.0002C49.8238 34.7691 50.0738 34.538 50.2988 34.2812C50.6488 33.9217 50.6238 33.3567 50.2488 32.9716C50.2738 32.9972 50.2488 32.9716 50.2488 32.9716ZM22.7488 50.1765C20.4988 49.9967 18.2738 49.6372 16.1238 49.0723C15.6738 48.9696 15.2488 49.2007 15.0738 49.6372C15.0488 49.6629 15.0488 49.7143 15.0488 49.74C14.9238 50.2279 15.2238 50.7158 15.6988 50.8442C17.9488 51.4348 20.2988 51.82 22.6238 51.9997C22.6488 51.9997 22.6738 51.9997 22.6988 51.9997C22.8488 51.9997 22.9738 51.9484 23.0988 51.897C23.3738 51.7686 23.5488 51.4861 23.5738 51.1523C23.5988 50.6387 23.2238 50.2022 22.7488 50.1765ZM21.6988 48.3533C22.1488 48.3533 22.5238 48.0195 22.5738 47.5316C22.6238 47.018 22.2738 46.5814 21.7988 46.5301C16.1988 45.8881 10.7738 43.8595 6.07377 40.6753C5.69877 40.4185 5.19877 40.4955 4.89877 40.855C4.87377 40.8807 4.84877 40.9064 4.82377 40.9321C4.54877 41.3429 4.67377 41.9079 5.07377 42.1903C5.62377 42.5498 6.17377 42.9093 6.74877 43.2688C11.2738 46.0165 16.3738 47.7627 21.5988 48.3533C21.6488 48.3533 21.6738 48.3533 21.6988 48.3533ZM20.7738 44.6555C21.1988 44.6555 21.5738 44.3217 21.6488 43.8851C21.7238 43.3972 21.3988 42.9093 20.8988 42.858C13.9488 41.7795 7.42377 38.2871 2.52377 33.0486C2.19877 32.6891 1.64877 32.6634 1.29877 32.9972C1.29877 32.9972 1.27377 32.9972 1.27377 33.0229C0.923769 33.3824 0.898769 33.9474 1.24877 34.3069C1.47377 34.538 1.69877 34.7948 1.94877 35.0259C7.02377 40.1617 13.6238 43.577 20.6488 44.6555C20.6738 44.6555 20.7238 44.6555 20.7738 44.6555ZM22.7988 10.1172C22.7988 10.5795 22.8988 11.016 23.0738 11.4012C23.7488 11.0674 24.4238 10.6822 24.5738 10.0402C24.5738 10.0145 24.5738 10.0145 24.5738 9.98885C24.5738 9.93749 24.5988 9.88613 24.5988 9.86045C24.6488 9.16712 24.1988 8.47379 23.7988 7.83181C23.1988 8.39675 22.7988 9.21848 22.7988 10.1172ZM28.7238 10.1172C28.7238 9.21848 28.3238 8.39675 27.7238 7.83181C27.3488 8.47379 26.8738 9.16712 26.9238 9.86045C26.9238 9.91181 26.9488 9.96317 26.9488 9.98885C26.9488 10.0145 26.9488 10.0145 26.9488 10.0402C27.0988 10.6822 27.7738 11.0674 28.4488 11.4012C28.6238 11.016 28.7238 10.5795 28.7238 10.1172ZM22.9988 25.2422C15.9238 23.8812 10.7988 17.5385 10.7988 10.1172C10.7988 8.93601 10.9238 7.78045 11.1738 6.65058C11.2738 6.16267 10.9988 5.67477 10.4988 5.54638C10.0238 5.44366 9.54877 5.72613 9.42377 6.23971C9.14877 7.49798 8.99877 8.80761 8.99877 10.1429C8.99877 18.4116 14.7488 25.5247 22.6488 27.0654C22.6988 27.0654 22.7488 27.0911 22.8238 27.0911C23.2488 27.0911 23.6238 26.7829 23.6988 26.3464C23.7988 25.8071 23.4738 25.3449 22.9988 25.2422Z" fill="white"/>
</g>
<defs>
<clipPath id="clip0_36_81781">
<rect width="170" height="52" fill="white"/>
</clipPath>
</defs>
</svg>
