<svg width="98" height="15" viewBox="0 0 98 15" fill="none" xmlns="http://www.w3.org/2000/svg">
<path d="M87.6704 15C87.1597 14.1256 86.8192 13.3857 86.3653 12.5112C87.6137 11.5695 88.7486 10.6951 89.8835 9.82063C89.8268 9.61883 89.8268 9.4843 89.77 9.28251C59.865 9.28251 29.9599 9.28251 -0.0585937 9.28251C-0.0585937 8.13901 -0.0585937 7.33184 -0.0585937 6.2556C30.1869 6.2556 60.2622 6.2556 90.3942 6.2556C90.451 6.05381 90.5077 5.91928 90.5645 5.71749C89.3161 4.64125 88.1244 3.63229 86.7057 2.42152C87.103 1.68161 87.4434 0.941703 87.9541 -0.134531C91.2454 2.48879 94.3664 4.97758 97.9414 7.86995C94.4232 10.426 91.0752 12.6457 87.6704 15Z" fill="#ACAECD"/>
</svg>
