<svg width="98" height="15" viewBox="0 0 98 15" fill="none" xmlns="http://www.w3.org/2000/svg">
<path d="M10.3296 0C10.8403 0.87444 11.1808 1.61435 11.6347 2.48879C10.3863 3.43049 9.25141 4.30493 8.11649 5.17937C8.17324 5.38117 8.17324 5.5157 8.22999 5.71749C38.135 5.71749 68.0401 5.71749 98.0586 5.71749C98.0586 6.86099 98.0586 7.66816 98.0586 8.7444C67.8131 8.7444 37.7378 8.7444 7.60578 8.7444C7.54903 8.94619 7.49229 9.08072 7.43554 9.28251C8.68394 10.3587 9.87561 11.3677 11.2943 12.5785C10.897 13.3184 10.5566 14.0583 10.0459 15.1345C6.75459 12.5112 3.63357 10.0224 0.0585861 7.13005C3.57682 4.57399 6.92483 2.35426 10.3296 0Z" fill="#3A406E"/>
</svg>
