<svg width="416" height="411" viewBox="0 0 416 411" fill="none" xmlns="http://www.w3.org/2000/svg">
<path d="M339.006 46.002C242.914 46.002 156.832 46.3353 76.4215 46.3353C75.0869 47.6687 73.4186 48.6688 72.084 50.0022C155.497 50.0022 244.249 49.6689 343.01 49.6689C341.675 48.3354 340.34 47.3354 339.006 46.002Z" fill="#96CDEF"/>
<path d="M321.993 33.6699C234.576 34.0033 161.84 34.3366 92.7743 34.0033C90.4387 35.67 88.1031 37.0035 85.7676 38.6702C165.51 39.0036 245.587 38.0035 327.332 37.3368C325.663 36.0034 323.995 35.0033 321.993 33.6699Z" fill="#96CDEF"/>
<path d="M353.688 59.3368C254.593 58.3367 156.166 58.3367 61.4088 60.0035C60.4078 61.0036 59.4069 62.337 58.4059 63.3371L58.0723 63.6704C101.781 63.3371 145.489 63.0037 188.864 63.0037C245.585 63.0037 302.306 63.3371 358.026 64.0038C356.691 62.337 355.356 61.0036 353.688 59.3368Z" fill="#96CDEF"/>
<path d="M362.7 69.0046C272.614 68.6712 167.514 69.6713 50.4016 71.6714L49.7343 72.3381C49.067 73.0048 48.3997 73.6716 47.7324 74.6716C173.853 72.6715 284.626 73.6716 367.371 74.3383C366.37 73.0048 364.702 71.0047 362.7 69.0046Z" fill="#96CDEF"/>
<path d="M375.042 84.3394C374.041 83.006 373.373 82.0059 372.372 80.6725C260.599 80.0058 142.82 81.0058 41.3893 83.006C40.3883 84.3394 39.3873 86.0062 38.0527 87.3396C187.863 84.6728 297.968 83.6727 375.042 84.3394Z" fill="#96CDEF"/>
<path d="M382.387 94.6726L382.053 94.0059C377.048 94.0059 292.301 94.6726 207.219 95.3393C51.4039 96.3393 34.0539 96.3393 32.3857 96.6727C31.3847 98.3395 30.3838 99.6729 29.3828 101.34C105.789 100.673 173.521 100.006 233.578 99.3395C290.966 98.6728 340.347 98.0061 384.389 98.0061C383.721 96.6727 383.054 95.6726 382.387 94.6726Z" fill="#96CDEF"/>
<path d="M391.726 110.675C391.726 110.342 391.393 110.009 391.393 110.009C391.059 109.342 390.725 108.675 390.392 108.009C253.928 110.675 141.487 110.342 26.0436 107.342C25.7099 108.009 25.3763 108.342 25.0426 109.009L24.709 109.342C142.155 112.342 222.898 114.009 391.726 110.675Z" fill="#96CDEF"/>
<path d="M394.725 116.675C394.391 115.675 393.724 115.008 393.39 114.008L392.723 113.008C362.694 113.008 334.334 114.341 298.633 116.008C240.911 118.675 161.836 122.675 18.0315 123.342C17.3642 124.675 17.0306 125.675 16.3633 127.009C109.786 125.675 205.878 123.008 221.893 122.675C243.58 122.008 265.935 121.008 287.623 120.008C322.656 118.341 359.024 116.675 394.725 116.675Z" fill="#96CDEF"/>
<path d="M402.403 135.009C401.735 133.343 401.068 131.343 400.401 129.676V129.342C284.624 127.342 147.492 128.676 13.6979 133.676C13.3642 134.676 13.0306 135.676 12.3633 137.01C177.187 130.342 297.302 132.343 402.403 135.009Z" fill="#96CDEF"/>
<path d="M408.077 152.676C407.743 152.009 407.743 151.009 407.409 150.343L407.076 149.676C345.35 147.009 183.195 141.342 9.36228 147.342C9.02863 148.343 8.69498 149.676 8.36133 150.676C61.0784 149.009 117.466 147.676 182.861 147.676C247.924 147.342 321.327 148.676 408.077 152.676Z" fill="#96CDEF"/>
<path d="M410.412 162.01C410.079 160.01 409.745 158.343 409.078 156.676C293.968 152.676 198.209 157.01 77.0936 162.677C53.7379 163.677 30.0486 164.677 4.69107 166.01C4.69107 166.677 4.35742 167.344 4.35742 168.344C4.35742 168.677 4.35742 169.011 4.35742 169.344C21.04 168.677 38.3899 167.677 56.7408 167.011C145.159 163.01 245.588 158.01 351.356 160.343C372.71 160.677 394.063 161.343 410.412 162.01Z" fill="#96CDEF"/>
<path d="M412.076 170.679V170.346C338.673 172.012 216.556 174.346 2.68521 178.346C2.68521 179.346 2.35156 180.68 2.35156 181.68C213.22 178.346 332.667 176.679 413.077 176.013C412.744 173.679 412.41 172.012 412.076 170.679Z" fill="#96CDEF"/>
<path d="M413.416 180.344V179.678C284.292 181.345 116.132 185.345 1.35514 189.012C1.35514 190.012 1.35514 191.012 1.02148 191.679C176.523 186.345 223.901 186.011 309.983 186.011C338.678 186.011 371.042 185.678 414.083 185.345C414.083 183.678 413.749 182.011 413.416 180.344Z" fill="#96CDEF"/>
<path d="M0.685547 200.012C0.685547 201.345 0.685547 202.679 0.685547 204.012C20.371 203.345 40.3902 202.679 61.0766 201.679C169.18 197.678 291.964 193.345 414.748 191.678C414.748 190.345 414.414 189.011 414.414 187.678C307.312 190.011 152.831 194.345 0.685547 200.012Z" fill="#96CDEF"/>
<path d="M415.084 207.346C415.084 206.346 415.084 204.346 415.084 203.346C348.687 206.679 184.197 212.346 1.02148 214.68C1.02148 215.68 1.02148 216.68 1.35514 217.347C182.195 215.68 350.689 209.679 415.084 207.346Z" fill="#96CDEF"/>
<path d="M2.02311 231.348C27.047 230.348 48.0671 229.681 68.4199 228.681C141.49 225.681 204.216 223.348 414.751 218.681C414.751 217.347 414.751 216.014 415.085 215.014C248.926 218.347 109.793 222.014 1.68945 226.014C1.68945 228.015 2.02311 229.681 2.02311 231.348Z" fill="#96CDEF"/>
<path d="M415.082 196.012C300.305 199.012 134.146 204.012 0.685547 209.013C0.685547 209.679 0.685547 210.679 0.685547 211.346V212.013C107.788 208.346 291.63 202.679 415.082 199.679C415.082 199.345 415.082 199.012 415.082 198.679C415.082 197.345 415.082 196.678 415.082 196.012Z" fill="#96CDEF"/>
<path d="M2.68521 235.349C2.68521 236.016 2.68521 236.683 3.01887 237.349C127.805 230.016 262.267 227.682 413.745 230.016C414.078 228.349 414.078 226.682 414.078 225.015C290.293 224.349 140.15 227.682 2.35156 234.349C2.68521 234.683 2.68521 235.016 2.68521 235.349Z" fill="#96CDEF"/>
<path d="M4.02539 243.349C4.35904 245.016 4.69269 246.682 5.02635 248.349C123.473 243.682 252.263 242.682 365.704 242.015C381.72 242.015 397.068 241.682 412.082 241.682C412.416 240.015 412.749 238.348 413.083 236.682C249.593 239.682 167.515 240.349 113.463 240.682C67.0857 241.349 41.7281 241.682 4.02539 243.015V243.349Z" fill="#96CDEF"/>
<path d="M7.69041 259.682C223.563 251.349 332.334 251.682 410.075 253.015V252.349C410.409 250.682 410.742 249.348 411.076 247.682C409.741 247.682 408.74 247.682 407.406 247.682C281.285 247.682 131.809 250.682 6.68945 255.682C7.02311 257.016 7.35676 258.349 7.69041 259.682Z" fill="#96CDEF"/>
<path d="M11.695 273.352C12.0286 274.686 12.6959 276.019 13.0296 277.686C36.0516 277.019 59.0736 276.352 82.0956 275.686C188.531 272.352 298.302 269.019 406.406 267.019C406.739 265.352 407.407 264.018 407.74 262.352C289.294 263.352 159.503 266.685 11.3613 272.352L11.695 273.352Z" fill="#96CDEF"/>
<path d="M18.0315 289.686C118.461 285.019 252.589 279.685 402.733 277.352C403.066 276.685 403.066 276.018 403.4 275.352C403.4 275.018 403.734 274.685 403.734 274.352C246.25 277.352 93.7706 283.019 16.3633 286.352C17.0306 287.352 17.6979 288.686 18.0315 289.686Z" fill="#96CDEF"/>
<path d="M25.0426 303.687C25.3763 304.354 25.7099 304.687 26.0436 305.354C50.4002 304.687 76.4251 304.354 102.784 303.687C207.217 301.687 325.33 299.353 394.729 296.353C395.063 295.353 395.397 294.686 396.064 293.686L396.398 293.02C366.703 294.686 340.678 295.02 272.613 296.686C221.564 298.353 145.157 300.02 24.709 303.354C24.709 303.354 24.709 303.687 25.0426 303.687Z" fill="#96CDEF"/>
<path d="M31.7184 321.355C144.159 322.355 255.933 318.688 383.721 310.354C384.722 308.687 385.39 307.02 386.391 305.354C265.942 313.687 167.515 315.021 80.7653 316.688C63.0817 317.021 46.0654 317.354 29.3828 317.688C30.0501 319.021 31.0511 320.021 31.7184 321.355Z" fill="#96CDEF"/>
<path d="M43.3961 332.356C96.7805 330.689 147.496 329.022 194.874 327.689C265.942 325.355 327.001 323.689 380.385 322.022C381.052 320.688 382.053 319.355 382.72 318.355L383.054 318.021C308.65 321.022 257.267 322.688 119.802 327.022L41.0605 329.356C41.7279 330.356 42.3952 331.356 43.3961 332.356Z" fill="#96CDEF"/>
<path d="M373.049 331.688C282.295 338.021 159.178 340.021 60.4165 341.688H51.0742C51.7415 342.688 52.4088 343.355 53.4098 344.355C94.449 343.022 170.855 341.021 238.253 339.355C240.922 339.355 243.592 339.355 246.594 339.021C273.954 338.355 300.312 337.688 324.669 337.021C348.025 336.354 364.374 336.021 370.046 335.688C370.713 334.688 372.048 333.354 373.049 331.688Z" fill="#96CDEF"/>
<path d="M56.7376 348.024C112.457 346.691 253.926 343.691 366.033 340.357C367.034 339.357 367.701 338.357 368.702 337.023C355.023 337.357 340.342 337.69 324.66 338.024C302.973 338.69 275.613 339.357 245.918 340.024C181.524 341.69 112.457 343.357 54.0684 345.024C54.7357 346.024 55.7366 347.024 56.7376 348.024Z" fill="#96CDEF"/>
<path d="M245.922 340.022C275.617 339.355 302.976 338.688 324.664 338.021C299.974 338.688 273.281 339.355 245.922 340.022Z" fill="#96CDEF"/>
<path d="M69.4186 360.69C71.0868 360.69 72.7551 360.69 74.4233 360.69C142.155 360.69 191.535 357.023 239.581 353.689C278.285 351.023 315.32 348.356 359.362 347.689C360.363 346.689 361.364 345.689 362.365 344.355C329.667 345.356 295.968 347.689 259.934 350.356C198.208 354.689 134.481 359.023 66.082 358.023C67.4166 358.69 68.4176 359.69 69.4186 360.69Z" fill="#96CDEF"/>
<path d="M81.1016 370.358C82.1025 371.358 83.1035 372.024 84.4381 372.691C86.7737 372.691 89.1092 372.691 91.4448 372.691C183.533 372.691 259.939 369.358 345.354 361.69C347.022 360.024 348.691 358.69 350.693 357.023C225.239 367.691 177.193 368.691 98.1178 370.024L81.1016 370.358Z" fill="#96CDEF"/>
<path d="M101.117 384.025C103.119 385.358 105.455 386.692 107.79 388.025C146.16 389.692 162.509 390.025 316.323 383.025C317.991 382.025 319.659 381.025 321.328 379.691C285.293 381.358 261.604 382.692 244.254 383.692C195.541 386.359 195.541 386.359 110.793 384.358L101.117 384.025Z" fill="#96CDEF"/>
<path d="M142.153 403.025C183.859 402.692 244.25 401.359 289.627 397.025C292.63 395.692 295.633 394.358 298.969 392.691C247.587 397.025 195.204 399.692 134.812 400.359C137.148 401.025 139.484 402.025 142.153 403.025Z" fill="#96CDEF"/>
<path d="M167.843 409.693C174.85 409.36 181.189 409.36 186.861 409.36C201.876 409.36 211.885 410.026 219.893 410.36C234.574 411.026 241.58 411.36 256.928 407.693C248.587 407.693 239.912 407.36 231.571 407.36C207.214 407.026 182.19 406.693 157.5 407.36C160.837 408.36 164.507 409.026 167.843 409.693Z" fill="#96CDEF"/>
<path d="M296.975 19.334C244.592 20.0007 190.207 20.6674 139.492 21.3341L114.468 21.6675C112.799 22.3342 111.131 23.3342 109.463 24.3343C178.863 24.001 244.592 23.6676 304.316 23.3342C301.98 22.0008 299.311 20.6674 296.975 19.334Z" fill="#96CDEF"/>
<path d="M259.935 6C223.234 6.66671 187.533 7.66678 147.495 8.33349C143.824 9.33355 140.154 10.667 136.15 12.0004C168.515 11.3337 201.213 10.3336 232.91 9.33355L268.944 8.33349C265.941 7.66678 262.938 6.66671 259.935 6Z" fill="#96CDEF"/>
<path d="M222.558 0C216.886 0 212.215 0 207.877 0.333355C188.192 0.66671 181.853 0.666711 167.172 3.66691C190.861 3.33355 215.551 2.66684 240.575 2.33349C234.57 1.00007 228.564 0.333355 222.558 0Z" fill="#96CDEF"/>
</svg>
